<?xml version="1.0" encoding="UTF-8" standalone="no"?>
<!DOCTYPE svg PUBLIC "-//W3C//DTD SVG 1.1//EN"
 "http://www.w3.org/Graphics/SVG/1.1/DTD/svg11.dtd">
<!-- Generated by graphviz version 15.0.0 (20260523.1842)
 -->
<!-- Title: nccn_overview Pages: 1 -->
<svg width="1729pt" height="519pt"
 viewBox="0.00 0.00 1729.00 519.00" xmlns="http://www.w3.org/2000/svg" xmlns:xlink="http://www.w3.org/1999/xlink">
<g id="graph0" class="graph" transform="scale(1 1) rotate(0) translate(4 514.5)">
<title>nccn_overview</title>
<polygon fill="white" stroke="none" points="-4,4 -4,-514.5 1724.94,-514.5 1724.94,4 -4,4"/>
<text xml:space="preserve" text-anchor="middle" x="860.47" y="-491.3" font-family="Helvetica,sans-Serif" font-weight="bold" font-size="16.00">NCCN Testicular Cancer v2.2026 — Protocol Map</text>
<g id="clust1" class="cluster">
<title>cluster_sem</title>
<path fill="#fbfcfc" stroke="#5dade2" d="M462.32,-8C462.32,-8 1515.94,-8 1515.94,-8 1521.94,-8 1527.94,-14 1527.94,-20 1527.94,-20 1527.94,-181 1527.94,-181 1527.94,-187 1521.94,-193 1515.94,-193 1515.94,-193 462.32,-193 462.32,-193 456.32,-193 450.32,-187 450.32,-181 450.32,-181 450.32,-20 450.32,-20 450.32,-14 456.32,-8 462.32,-8"/>
<text xml:space="preserve" text-anchor="middle" x="989.13" y="-173.8" font-family="Helvetica,sans-Serif" font-weight="bold" font-size="16.00">PURE SEMINOMA</text>
</g>
<g id="clust2" class="cluster">
<title>cluster_nsem</title>
<path fill="#fbfcfc" stroke="#48c9b0" d="M288.16,-227C288.16,-227 1515.94,-227 1515.94,-227 1521.94,-227 1527.94,-233 1527.94,-239 1527.94,-239 1527.94,-366 1527.94,-366 1527.94,-372 1521.94,-378 1515.94,-378 1515.94,-378 288.16,-378 288.16,-378 282.16,-378 276.16,-372 276.16,-366 276.16,-366 276.16,-239 276.16,-239 276.16,-233 282.16,-227 288.16,-227"/>
<text xml:space="preserve" text-anchor="middle" x="902.05" y="-358.8" font-family="Helvetica,sans-Serif" font-weight="bold" font-size="16.00">NONSEMINOMA (NSGCT)</text>
</g>
<g id="clust3" class="cluster">
<title>cluster_ref</title>
<path fill="#fef9e7" stroke="#f4d03f" d="M1560.94,-54C1560.94,-54 1708.94,-54 1708.94,-54 1714.94,-54 1720.94,-60 1720.94,-66 1720.94,-66 1720.94,-399 1720.94,-399 1720.94,-405 1714.94,-411 1708.94,-411 1708.94,-411 1560.94,-411 1560.94,-411 1554.94,-411 1548.94,-405 1548.94,-399 1548.94,-399 1548.94,-66 1548.94,-66 1548.94,-60 1554.94,-54 1560.94,-54"/>
<text xml:space="preserve" text-anchor="middle" x="1634.94" y="-391.8" font-family="Helvetica,sans-Serif" font-weight="bold" font-size="16.00">REFERENCE PAGES</text>
</g>
<g id="clust4" class="cluster">
<title>cluster_legend</title>
<path fill="none" stroke="#909497" d="M39.62,-401C39.62,-401 1241.87,-401 1241.87,-401 1247.87,-401 1253.87,-407 1253.87,-413 1253.87,-413 1253.87,-466 1253.87,-466 1253.87,-472 1247.87,-478 1241.87,-478 1241.87,-478 39.62,-478 39.62,-478 33.62,-478 27.62,-472 27.62,-466 27.62,-466 27.62,-413 27.62,-413 27.62,-407 33.62,-401 39.62,-401"/>
<text xml:space="preserve" text-anchor="middle" x="640.75" y="-458.8" font-family="Helvetica,sans-Serif" font-weight="bold" font-size="16.00">Legend</text>
</g>
<!-- TEST1 -->
<g id="node1" class="node">
<title>TEST1</title>
<path fill="#d6eaf8" stroke="black" d="M143.16,-195.13C143.16,-195.13 12,-195.13 12,-195.13 6,-195.13 0,-189.13 0,-183.13 0,-183.13 0,-158.87 0,-158.87 0,-152.87 6,-146.87 12,-146.87 12,-146.87 143.16,-146.87 143.16,-146.87 149.16,-146.87 155.16,-152.87 155.16,-158.87 155.16,-158.87 155.16,-183.13 155.16,-183.13 155.16,-189.13 149.16,-195.13 143.16,-195.13"/>
<text xml:space="preserve" text-anchor="middle" x="77.58" y="-179.88" font-family="Helvetica,sans-Serif" font-size="10.00">TEST&#45;1</text>
<text xml:space="preserve" text-anchor="middle" x="77.58" y="-168.62" font-family="Helvetica,sans-Serif" font-size="10.00">Suspicious mass → workup →</text>
<text xml:space="preserve" text-anchor="middle" x="77.58" y="-155.88" font-family="Helvetica,sans-Serif" font-size="10.00">orchiectomy → histology</text>
</g>
<!-- SEM1 -->
<g id="node2" class="node">
<title>SEM1</title>
<path fill="#d5f5e3" stroke="black" d="M569.23,-133C569.23,-133 470.32,-133 470.32,-133 464.32,-133 458.32,-127 458.32,-121 458.32,-121 458.32,-109 458.32,-109 458.32,-103 464.32,-97 470.32,-97 470.32,-97 569.23,-97 569.23,-97 575.23,-97 581.23,-103 581.23,-109 581.23,-109 581.23,-121 581.23,-121 581.23,-127 575.23,-133 569.23,-133"/>
<text xml:space="preserve" text-anchor="middle" x="519.77" y="-116.75" font-family="Helvetica,sans-Serif" font-size="10.00">SEM&#45;1</text>
<text xml:space="preserve" text-anchor="middle" x="519.77" y="-105.5" font-family="Helvetica,sans-Serif" font-size="10.00">Workup &amp; clinical stage</text>
</g>
<!-- TEST1&#45;&gt;SEM1 -->
<g id="edge23" class="edge">
<title>TEST1&#45;&gt;SEM1</title>
<path fill="none" stroke="#566573" d="M155.51,-161.21C237.66,-150.76 366.81,-134.33 446.94,-124.14"/>
<polygon fill="#566573" stroke="#566573" points="446.94,-127.67 456.41,-122.93 446.05,-120.72 446.94,-127.67"/>
<text xml:space="preserve" text-anchor="middle" x="345.61" y="-157.21" font-family="Helvetica,sans-Serif" font-size="9.00">pure seminoma</text>
<text xml:space="preserve" text-anchor="middle" x="345.61" y="-147.46" font-family="Helvetica,sans-Serif" font-size="9.00">(AFP normal)</text>
</g>
<!-- NSEM1 -->
<g id="node10" class="node">
<title>NSEM1</title>
<path fill="#d5f5e3" stroke="black" d="M395.07,-281C395.07,-281 296.16,-281 296.16,-281 290.16,-281 284.16,-275 284.16,-269 284.16,-269 284.16,-257 284.16,-257 284.16,-251 290.16,-245 296.16,-245 296.16,-245 395.07,-245 395.07,-245 401.07,-245 407.07,-251 407.07,-257 407.07,-257 407.07,-269 407.07,-269 407.07,-275 401.07,-281 395.07,-281"/>
<text xml:space="preserve" text-anchor="middle" x="345.61" y="-264.75" font-family="Helvetica,sans-Serif" font-size="10.00">NSEM&#45;1</text>
<text xml:space="preserve" text-anchor="middle" x="345.61" y="-253.5" font-family="Helvetica,sans-Serif" font-size="10.00">Workup &amp; clinical stage</text>
</g>
<!-- TEST1&#45;&gt;NSEM1 -->
<g id="edge24" class="edge">
<title>TEST1&#45;&gt;NSEM1</title>
<path fill="none" stroke="#566573" d="M149.52,-195.53C190.18,-209.59 240.82,-227.11 280.32,-240.76"/>
<polygon fill="#566573" stroke="#566573" points="279.12,-244.05 289.71,-244.01 281.4,-237.44 279.12,-244.05"/>
<text xml:space="preserve" text-anchor="middle" x="213.66" y="-241.57" font-family="Helvetica,sans-Serif" font-size="9.00">NSGCT / seminoma</text>
<text xml:space="preserve" text-anchor="middle" x="213.66" y="-231.82" font-family="Helvetica,sans-Serif" font-size="9.00">with elevated AFP</text>
</g>
<!-- SEM2 -->
<g id="node3" class="node">
<title>SEM2</title>
<path fill="#d5f5e3" stroke="black" d="M725.01,-106C725.01,-106 662.1,-106 662.1,-106 656.1,-106 650.1,-100 650.1,-94 650.1,-94 650.1,-82 650.1,-82 650.1,-76 656.1,-70 662.1,-70 662.1,-70 725.01,-70 725.01,-70 731.01,-70 737.01,-76 737.01,-82 737.01,-82 737.01,-94 737.01,-94 737.01,-100 731.01,-106 725.01,-106"/>
<text xml:space="preserve" text-anchor="middle" x="693.56" y="-89.75" font-family="Helvetica,sans-Serif" font-size="10.00">SEM&#45;2</text>
<text xml:space="preserve" text-anchor="middle" x="693.56" y="-78.5" font-family="Helvetica,sans-Serif" font-size="10.00">Stage IA/IB, IS</text>
</g>
<!-- SEM1&#45;&gt;SEM2 -->
<g id="edge1" class="edge">
<title>SEM1&#45;&gt;SEM2</title>
<path fill="none" stroke="#566573" d="M581.34,-105.48C599.97,-102.55 620.35,-99.35 638.51,-96.5"/>
<polygon fill="#566573" stroke="#566573" points="638.96,-99.97 648.3,-94.96 637.87,-93.05 638.96,-99.97"/>
</g>
<!-- SEM3 -->
<g id="node4" class="node">
<title>SEM3</title>
<path fill="#d5f5e3" stroke="black" d="M720.14,-52C720.14,-52 666.98,-52 666.98,-52 660.98,-52 654.98,-46 654.98,-40 654.98,-40 654.98,-28 654.98,-28 654.98,-22 660.98,-16 666.98,-16 666.98,-16 720.14,-16 720.14,-16 726.14,-16 732.14,-22 732.14,-28 732.14,-28 732.14,-40 732.14,-40 732.14,-46 726.14,-52 720.14,-52"/>
<text xml:space="preserve" text-anchor="middle" x="693.56" y="-35.75" font-family="Helvetica,sans-Serif" font-size="10.00">SEM&#45;3</text>
<text xml:space="preserve" text-anchor="middle" x="693.56" y="-24.5" font-family="Helvetica,sans-Serif" font-size="10.00">Stage IIA/IIB</text>
</g>
<!-- SEM1&#45;&gt;SEM3 -->
<g id="edge2" class="edge">
<title>SEM1&#45;&gt;SEM3</title>
<path fill="none" stroke="#566573" d="M552.09,-96.59C571.45,-85.58 597.01,-71.69 620.48,-61 628,-57.57 636.1,-54.23 644.06,-51.12"/>
<polygon fill="#566573" stroke="#566573" points="645.23,-54.42 653.33,-47.59 642.74,-47.87 645.23,-54.42"/>
</g>
<!-- SEM4 -->
<g id="node5" class="node">
<title>SEM4</title>
<path fill="#d5f5e3" stroke="black" d="M718.64,-160C718.64,-160 668.48,-160 668.48,-160 662.48,-160 656.48,-154 656.48,-148 656.48,-148 656.48,-136 656.48,-136 656.48,-130 662.48,-124 668.48,-124 668.48,-124 718.64,-124 718.64,-124 724.64,-124 730.64,-130 730.64,-136 730.64,-136 730.64,-148 730.64,-148 730.64,-154 724.64,-160 718.64,-160"/>
<text xml:space="preserve" text-anchor="middle" x="693.56" y="-143.75" font-family="Helvetica,sans-Serif" font-size="10.00">SEM&#45;4</text>
<text xml:space="preserve" text-anchor="middle" x="693.56" y="-132.5" font-family="Helvetica,sans-Serif" font-size="10.00">Stage IIC/III</text>
</g>
<!-- SEM1&#45;&gt;SEM4 -->
<g id="edge3" class="edge">
<title>SEM1&#45;&gt;SEM4</title>
<path fill="none" stroke="#566573" d="M581.34,-124.52C602.17,-127.79 625.19,-131.41 644.85,-134.5"/>
<polygon fill="#566573" stroke="#566573" points="644.08,-137.92 654.51,-136.02 645.17,-131.01 644.08,-137.92"/>
</g>
<!-- TESTA -->
<g id="node21" class="node">
<title>TESTA</title>
<path fill="#fdebd0" stroke="black" d="M1679.02,-152C1679.02,-152 1589.86,-152 1589.86,-152 1583.86,-152 1577.86,-146 1577.86,-140 1577.86,-140 1577.86,-128 1577.86,-128 1577.86,-122 1583.86,-116 1589.86,-116 1589.86,-116 1679.02,-116 1679.02,-116 1685.02,-116 1691.02,-122 1691.02,-128 1691.02,-128 1691.02,-140 1691.02,-140 1691.02,-146 1685.02,-152 1679.02,-152"/>
<text xml:space="preserve" text-anchor="middle" x="1634.44" y="-135.75" font-family="Helvetica,sans-Serif" font-size="10.00">TEST&#45;A</text>
<text xml:space="preserve" text-anchor="middle" x="1634.44" y="-124.5" font-family="Helvetica,sans-Serif" font-size="10.00">Follow&#45;up: seminoma</text>
</g>
<!-- SEM2&#45;&gt;TESTA -->
<g id="edge33" class="edge">
<title>SEM2&#45;&gt;TESTA</title>
<path fill="none" stroke="#566573" stroke-dasharray="5,2" d="M737.4,-90.11C795.19,-92.77 901.34,-97 992,-97 992,-97 992,-97 1473.36,-97 1491.58,-97 1531.5,-106.22 1566.91,-115.45"/>
<polygon fill="#566573" stroke="#566573" points="1565.7,-118.75 1576.26,-117.92 1567.49,-111.99 1565.7,-118.75"/>
</g>
<!-- SEM5 -->
<g id="node6" class="node">
<title>SEM5</title>
<path fill="#eaecee" stroke="black" d="M1048.46,-61C1048.46,-61 937.55,-61 937.55,-61 931.55,-61 925.55,-55 925.55,-49 925.55,-49 925.55,-37 925.55,-37 925.55,-31 931.55,-25 937.55,-25 937.55,-25 1048.46,-25 1048.46,-25 1054.46,-25 1060.46,-31 1060.46,-37 1060.46,-37 1060.46,-49 1060.46,-49 1060.46,-55 1054.46,-61 1048.46,-61"/>
<text xml:space="preserve" text-anchor="middle" x="993" y="-44.75" font-family="Helvetica,sans-Serif" font-size="10.00">SEM&#45;5</text>
<text xml:space="preserve" text-anchor="middle" x="993" y="-33.5" font-family="Helvetica,sans-Serif" font-size="10.00">Post 1st&#45;line chemo mgmt</text>
</g>
<!-- SEM3&#45;&gt;SEM5 -->
<g id="edge5" class="edge">
<title>SEM3&#45;&gt;SEM5</title>
<path fill="none" stroke="#566573" stroke-dasharray="1,5" d="M732.53,-35.15C777.98,-36.52 855.25,-38.86 913.67,-40.63"/>
<polygon fill="#566573" stroke="#566573" points="913.48,-44.13 923.58,-40.93 913.69,-37.13 913.48,-44.13"/>
</g>
<!-- SEM4&#45;&gt;SEM5 -->
<g id="edge4" class="edge">
<title>SEM4&#45;&gt;SEM5</title>
<path fill="none" stroke="#566573" d="M731.03,-129.86C779.37,-113.77 865.54,-85.09 925.58,-65.11"/>
<polygon fill="#566573" stroke="#566573" points="926.65,-68.44 935.04,-61.96 924.44,-61.8 926.65,-68.44"/>
</g>
<!-- TESTD -->
<g id="node20" class="node">
<title>TESTD</title>
<path fill="#fdebd0" stroke="black" d="M1685.02,-215.63C1685.02,-215.63 1583.86,-215.63 1583.86,-215.63 1577.86,-215.63 1571.86,-209.63 1571.86,-203.63 1571.86,-203.63 1571.86,-182.37 1571.86,-182.37 1571.86,-176.37 1577.86,-170.37 1583.86,-170.37 1583.86,-170.37 1685.02,-170.37 1685.02,-170.37 1691.02,-170.37 1697.02,-176.37 1697.02,-182.37 1697.02,-182.37 1697.02,-203.63 1697.02,-203.63 1697.02,-209.63 1691.02,-215.63 1685.02,-215.63"/>
<text xml:space="preserve" text-anchor="middle" x="1634.44" y="-200.38" font-family="Helvetica,sans-Serif" font-size="10.00">TEST&#45;D</text>
<text xml:space="preserve" text-anchor="middle" x="1634.44" y="-189.12" font-family="Helvetica,sans-Serif" font-size="10.00">Risk classification</text>
<text xml:space="preserve" text-anchor="middle" x="1634.44" y="-177.88" font-family="Helvetica,sans-Serif" font-size="10.00">(good/intermediate/poor)</text>
</g>
<!-- SEM4&#45;&gt;TESTD -->
<g id="edge25" class="edge">
<title>SEM4&#45;&gt;TESTD</title>
<path fill="none" stroke="#566573" stroke-dasharray="5,2" d="M730.73,-140.6C786.71,-138.56 897.74,-135 992,-135 992,-135 992,-135 1473.36,-135 1478.3,-135 1521.66,-150.79 1562,-165.89"/>
<polygon fill="#566573" stroke="#566573" points="1560.71,-169.14 1571.3,-169.38 1563.17,-162.59 1560.71,-169.14"/>
</g>
<!-- TESTE -->
<g id="node23" class="node">
<title>TESTE</title>
<path fill="#fdebd0" stroke="black" d="M1685.77,-324C1685.77,-324 1583.11,-324 1583.11,-324 1577.11,-324 1571.11,-318 1571.11,-312 1571.11,-312 1571.11,-300 1571.11,-300 1571.11,-294 1577.11,-288 1583.11,-288 1583.11,-288 1685.77,-288 1685.77,-288 1691.77,-288 1697.77,-294 1697.77,-300 1697.77,-300 1697.77,-312 1697.77,-312 1697.77,-318 1691.77,-324 1685.77,-324"/>
<text xml:space="preserve" text-anchor="middle" x="1634.44" y="-307.75" font-family="Helvetica,sans-Serif" font-size="10.00">TEST&#45;E</text>
<text xml:space="preserve" text-anchor="middle" x="1634.44" y="-296.5" font-family="Helvetica,sans-Serif" font-size="10.00">1st&#45;line chemo regimens</text>
</g>
<!-- SEM4&#45;&gt;TESTE -->
<g id="edge27" class="edge">
<title>SEM4&#45;&gt;TESTE</title>
<path fill="none" stroke="#566573" stroke-dasharray="5,2" d="M731.07,-148.27C787.04,-157.33 897.51,-173 992,-173 992,-173 992,-173 1406.78,-173 1465.03,-173 1487.43,-181.14 1527.94,-223 1546.43,-242.1 1529.68,-260.68 1548.94,-279 1552.45,-282.34 1556.38,-285.27 1560.57,-287.84"/>
<polygon fill="#566573" stroke="#566573" points="1558.92,-290.93 1569.4,-292.49 1562.18,-284.74 1558.92,-290.93"/>
</g>
<!-- SEM6 -->
<g id="node7" class="node">
<title>SEM6</title>
<path fill="#f5b7b1" stroke="black" d="M1216.62,-61C1216.62,-61 1127.46,-61 1127.46,-61 1121.46,-61 1115.46,-55 1115.46,-49 1115.46,-49 1115.46,-37 1115.46,-37 1115.46,-31 1121.46,-25 1127.46,-25 1127.46,-25 1216.62,-25 1216.62,-25 1222.62,-25 1228.62,-31 1228.62,-37 1228.62,-37 1228.62,-49 1228.62,-49 1228.62,-55 1222.62,-61 1216.62,-61"/>
<text xml:space="preserve" text-anchor="middle" x="1172.04" y="-44.75" font-family="Helvetica,sans-Serif" font-size="10.00">SEM&#45;6</text>
<text xml:space="preserve" text-anchor="middle" x="1172.04" y="-33.5" font-family="Helvetica,sans-Serif" font-size="10.00">Recurrence / 2nd&#45;line</text>
</g>
<!-- SEM5&#45;&gt;SEM6 -->
<g id="edge6" class="edge">
<title>SEM5&#45;&gt;SEM6</title>
<path fill="none" stroke="#566573" d="M1060.93,-43C1074.86,-43 1089.54,-43 1103.48,-43"/>
<polygon fill="#566573" stroke="#566573" points="1103.48,-46.5 1113.48,-43 1103.48,-39.5 1103.48,-46.5"/>
</g>
<!-- SEM7 -->
<g id="node8" class="node">
<title>SEM7</title>
<path fill="#eaecee" stroke="black" d="M1375.78,-69C1375.78,-69 1294.87,-69 1294.87,-69 1288.87,-69 1282.87,-63 1282.87,-57 1282.87,-57 1282.87,-45 1282.87,-45 1282.87,-39 1288.87,-33 1294.87,-33 1294.87,-33 1375.78,-33 1375.78,-33 1381.78,-33 1387.78,-39 1387.78,-45 1387.78,-45 1387.78,-57 1387.78,-57 1387.78,-63 1381.78,-69 1375.78,-69"/>
<text xml:space="preserve" text-anchor="middle" x="1335.32" y="-52.75" font-family="Helvetica,sans-Serif" font-size="10.00">SEM&#45;7</text>
<text xml:space="preserve" text-anchor="middle" x="1335.32" y="-41.5" font-family="Helvetica,sans-Serif" font-size="10.00">Post 2nd&#45;line mgmt</text>
</g>
<!-- SEM6&#45;&gt;SEM7 -->
<g id="edge7" class="edge">
<title>SEM6&#45;&gt;SEM7</title>
<path fill="none" stroke="#566573" d="M1229,-45.78C1242.57,-46.45 1257.18,-47.17 1271.07,-47.86"/>
<polygon fill="#566573" stroke="#566573" points="1270.85,-51.36 1281.01,-48.36 1271.2,-44.36 1270.85,-51.36"/>
</g>
<!-- TESTF -->
<g id="node24" class="node">
<title>TESTF</title>
<path fill="#fdebd0" stroke="black" d="M1686.89,-98C1686.89,-98 1581.98,-98 1581.98,-98 1575.98,-98 1569.98,-92 1569.98,-86 1569.98,-86 1569.98,-74 1569.98,-74 1569.98,-68 1575.98,-62 1581.98,-62 1581.98,-62 1686.89,-62 1686.89,-62 1692.89,-62 1698.89,-68 1698.89,-74 1698.89,-74 1698.89,-86 1698.89,-86 1698.89,-92 1692.89,-98 1686.89,-98"/>
<text xml:space="preserve" text-anchor="middle" x="1634.44" y="-81.75" font-family="Helvetica,sans-Serif" font-size="10.00">TEST&#45;F</text>
<text xml:space="preserve" text-anchor="middle" x="1634.44" y="-70.5" font-family="Helvetica,sans-Serif" font-size="10.00">2nd&#45;line chemo regimens</text>
</g>
<!-- SEM6&#45;&gt;TESTF -->
<g id="edge29" class="edge">
<title>SEM6&#45;&gt;TESTF</title>
<path fill="none" stroke="#566573" stroke-dasharray="5,2" d="M1229.02,-29.99C1299.79,-15.8 1424.8,1.68 1527.94,-24 1552.79,-30.19 1578.21,-43.43 1597.87,-55.49"/>
<polygon fill="#566573" stroke="#566573" points="1595.99,-58.44 1606.31,-60.83 1599.74,-52.53 1595.99,-58.44"/>
</g>
<!-- SEM8 -->
<g id="node9" class="node">
<title>SEM8</title>
<path fill="#f1948a" stroke="black" d="M1507.94,-69C1507.94,-69 1436.78,-69 1436.78,-69 1430.78,-69 1424.78,-63 1424.78,-57 1424.78,-57 1424.78,-45 1424.78,-45 1424.78,-39 1430.78,-33 1436.78,-33 1436.78,-33 1507.94,-33 1507.94,-33 1513.94,-33 1519.94,-39 1519.94,-45 1519.94,-45 1519.94,-57 1519.94,-57 1519.94,-63 1513.94,-69 1507.94,-69"/>
<text xml:space="preserve" text-anchor="middle" x="1472.36" y="-52.75" font-family="Helvetica,sans-Serif" font-size="10.00">SEM&#45;8</text>
<text xml:space="preserve" text-anchor="middle" x="1472.36" y="-41.5" font-family="Helvetica,sans-Serif" font-size="10.00">Third&#45;line therapy</text>
</g>
<!-- SEM7&#45;&gt;SEM8 -->
<g id="edge8" class="edge">
<title>SEM7&#45;&gt;SEM8</title>
<path fill="none" stroke="#566573" d="M1388.15,-51C1396.24,-51 1404.64,-51 1412.87,-51"/>
<polygon fill="#566573" stroke="#566573" points="1412.81,-54.5 1422.81,-51 1412.81,-47.5 1412.81,-54.5"/>
</g>
<!-- TESTG -->
<g id="node25" class="node">
<title>TESTG</title>
<path fill="#fdebd0" stroke="black" d="M1687.27,-270C1687.27,-270 1581.61,-270 1581.61,-270 1575.61,-270 1569.61,-264 1569.61,-258 1569.61,-258 1569.61,-246 1569.61,-246 1569.61,-240 1575.61,-234 1581.61,-234 1581.61,-234 1687.27,-234 1687.27,-234 1693.27,-234 1699.27,-240 1699.27,-246 1699.27,-246 1699.27,-258 1699.27,-258 1699.27,-264 1693.27,-270 1687.27,-270"/>
<text xml:space="preserve" text-anchor="middle" x="1634.44" y="-253.75" font-family="Helvetica,sans-Serif" font-size="10.00">TEST&#45;G</text>
<text xml:space="preserve" text-anchor="middle" x="1634.44" y="-242.5" font-family="Helvetica,sans-Serif" font-size="10.00">3rd&#45;line systemic therapy</text>
</g>
<!-- SEM8&#45;&gt;TESTG -->
<g id="edge31" class="edge">
<title>SEM8&#45;&gt;TESTG</title>
<path fill="none" stroke="#566573" stroke-dasharray="5,2" d="M1483.75,-69.31C1495.48,-90.46 1514.67,-126.52 1527.94,-159 1539.59,-187.49 1527.19,-203.22 1548.94,-225 1552.09,-228.16 1555.62,-230.95 1559.39,-233.41"/>
<polygon fill="#566573" stroke="#566573" points="1557.43,-236.33 1567.87,-238.15 1560.84,-230.22 1557.43,-236.33"/>
</g>
<!-- NSEM2 -->
<g id="node11" class="node">
<title>NSEM2</title>
<path fill="#d5f5e3" stroke="black" d="M571.48,-345C571.48,-345 468.07,-345 468.07,-345 462.07,-345 456.07,-339 456.07,-333 456.07,-333 456.07,-321 456.07,-321 456.07,-315 462.07,-309 468.07,-309 468.07,-309 571.48,-309 571.48,-309 577.48,-309 583.48,-315 583.48,-321 583.48,-321 583.48,-333 583.48,-333 583.48,-339 577.48,-345 571.48,-345"/>
<text xml:space="preserve" text-anchor="middle" x="519.77" y="-328.75" font-family="Helvetica,sans-Serif" font-size="10.00">NSEM&#45;2</text>
<text xml:space="preserve" text-anchor="middle" x="519.77" y="-317.5" font-family="Helvetica,sans-Serif" font-size="10.00">Stage I ± risk factors, IS</text>
</g>
<!-- NSEM1&#45;&gt;NSEM2 -->
<g id="edge9" class="edge">
<title>NSEM1&#45;&gt;NSEM2</title>
<path fill="none" stroke="#566573" d="M395.95,-281.34C415.4,-288.57 437.94,-296.95 458.36,-304.54"/>
<polygon fill="#566573" stroke="#566573" points="457.12,-307.82 467.72,-308.02 459.56,-301.25 457.12,-307.82"/>
</g>
<!-- NSEM3 -->
<g id="node12" class="node">
<title>NSEM3</title>
<path fill="#d5f5e3" stroke="black" d="M546.35,-291C546.35,-291 493.19,-291 493.19,-291 487.19,-291 481.19,-285 481.19,-279 481.19,-279 481.19,-267 481.19,-267 481.19,-261 487.19,-255 493.19,-255 493.19,-255 546.35,-255 546.35,-255 552.35,-255 558.35,-261 558.35,-267 558.35,-267 558.35,-279 558.35,-279 558.35,-285 552.35,-291 546.35,-291"/>
<text xml:space="preserve" text-anchor="middle" x="519.77" y="-274.75" font-family="Helvetica,sans-Serif" font-size="10.00">NSEM&#45;3</text>
<text xml:space="preserve" text-anchor="middle" x="519.77" y="-263.5" font-family="Helvetica,sans-Serif" font-size="10.00">Stage IIA/IIB</text>
</g>
<!-- NSEM1&#45;&gt;NSEM3 -->
<g id="edge10" class="edge">
<title>NSEM1&#45;&gt;NSEM3</title>
<path fill="none" stroke="#566573" d="M407.31,-266.53C427.69,-267.71 450.15,-269.01 469.54,-270.14"/>
<polygon fill="#566573" stroke="#566573" points="469.17,-273.62 479.36,-270.71 469.58,-266.64 469.17,-273.62"/>
</g>
<!-- NSEM6 -->
<g id="node15" class="node">
<title>NSEM6</title>
<path fill="#d5f5e3" stroke="black" d="M754.64,-291C754.64,-291 632.48,-291 632.48,-291 626.48,-291 620.48,-285 620.48,-279 620.48,-279 620.48,-267 620.48,-267 620.48,-261 626.48,-255 632.48,-255 632.48,-255 754.64,-255 754.64,-255 760.64,-255 766.64,-261 766.64,-267 766.64,-267 766.64,-279 766.64,-279 766.64,-285 760.64,-291 754.64,-291"/>
<text xml:space="preserve" text-anchor="middle" x="693.56" y="-274.75" font-family="Helvetica,sans-Serif" font-size="10.00">NSEM&#45;6</text>
<text xml:space="preserve" text-anchor="middle" x="693.56" y="-263.5" font-family="Helvetica,sans-Serif" font-size="10.00">Advanced (risk) + brain mets</text>
</g>
<!-- NSEM1&#45;&gt;NSEM6 -->
<g id="edge11" class="edge">
<title>NSEM1&#45;&gt;NSEM6</title>
<path fill="none" stroke="#566573" d="M407.55,-251.32C421.55,-249.11 436.41,-247.13 450.32,-246 509.31,-241.2 524.73,-238.84 583.48,-246 594.78,-247.38 606.6,-249.53 618.11,-252.03"/>
<polygon fill="#566573" stroke="#566573" points="617.02,-255.37 627.54,-254.19 618.57,-248.55 617.02,-255.37"/>
</g>
<!-- NSEM5 -->
<g id="node14" class="node">
<title>NSEM5</title>
<path fill="#eaecee" stroke="black" d="M750.14,-345C750.14,-345 636.98,-345 636.98,-345 630.98,-345 624.98,-339 624.98,-333 624.98,-333 624.98,-321 624.98,-321 624.98,-315 630.98,-309 636.98,-309 636.98,-309 750.14,-309 750.14,-309 756.14,-309 762.14,-315 762.14,-321 762.14,-321 762.14,-333 762.14,-333 762.14,-339 756.14,-345 750.14,-345"/>
<text xml:space="preserve" text-anchor="middle" x="693.56" y="-328.75" font-family="Helvetica,sans-Serif" font-size="10.00">NSEM&#45;5</text>
<text xml:space="preserve" text-anchor="middle" x="693.56" y="-317.5" font-family="Helvetica,sans-Serif" font-size="10.00">Postsurgical mgmt (pN0&#45;3)</text>
</g>
<!-- NSEM2&#45;&gt;NSEM5 -->
<g id="edge12" class="edge">
<title>NSEM2&#45;&gt;NSEM5</title>
<path fill="none" stroke="#566573" d="M583.77,-327C593.33,-327 603.31,-327 613.17,-327"/>
<polygon fill="#566573" stroke="#566573" points="613.15,-330.5 623.15,-327 613.15,-323.5 613.15,-330.5"/>
</g>
<!-- NSEM2&#45;&gt;NSEM6 -->
<g id="edge13" class="edge">
<title>NSEM2&#45;&gt;NSEM6</title>
<path fill="none" stroke="#566573" d="M579.41,-308.57C593.43,-304.16 608.53,-299.41 622.99,-294.87"/>
<polygon fill="#566573" stroke="#566573" points="623.96,-298.23 632.45,-291.9 621.86,-291.56 623.96,-298.23"/>
</g>
<!-- TESTB -->
<g id="node22" class="node">
<title>TESTB</title>
<path fill="#fdebd0" stroke="black" d="M1686.89,-378C1686.89,-378 1581.98,-378 1581.98,-378 1575.98,-378 1569.98,-372 1569.98,-366 1569.98,-366 1569.98,-354 1569.98,-354 1569.98,-348 1575.98,-342 1581.98,-342 1581.98,-342 1686.89,-342 1686.89,-342 1692.89,-342 1698.89,-348 1698.89,-354 1698.89,-354 1698.89,-366 1698.89,-366 1698.89,-372 1692.89,-378 1686.89,-378"/>
<text xml:space="preserve" text-anchor="middle" x="1634.44" y="-361.75" font-family="Helvetica,sans-Serif" font-size="10.00">TEST&#45;B</text>
<text xml:space="preserve" text-anchor="middle" x="1634.44" y="-350.5" font-family="Helvetica,sans-Serif" font-size="10.00">Follow&#45;up: nonseminoma</text>
</g>
<!-- NSEM2&#45;&gt;TESTB -->
<g id="edge34" class="edge">
<title>NSEM2&#45;&gt;TESTB</title>
<path fill="none" stroke="#566573" stroke-dasharray="5,2" d="M556.94,-345.43C591.01,-361.08 643.95,-381 692.56,-381 692.56,-381 692.56,-381 1473.36,-381 1501.32,-381 1531.79,-377.81 1558.58,-373.92"/>
<polygon fill="#566573" stroke="#566573" points="1558.96,-377.4 1568.32,-372.44 1557.91,-370.48 1558.96,-377.4"/>
</g>
<!-- NSEM4 -->
<g id="node13" class="node">
<title>NSEM4</title>
<path fill="#eaecee" stroke="black" d="M894.8,-271C894.8,-271 796.64,-271 796.64,-271 790.64,-271 784.64,-265 784.64,-259 784.64,-259 784.64,-247 784.64,-247 784.64,-241 790.64,-235 796.64,-235 796.64,-235 894.8,-235 894.8,-235 900.8,-235 906.8,-241 906.8,-247 906.8,-247 906.8,-259 906.8,-259 906.8,-265 900.8,-271 894.8,-271"/>
<text xml:space="preserve" text-anchor="middle" x="845.72" y="-254.75" font-family="Helvetica,sans-Serif" font-size="10.00">NSEM&#45;4</text>
<text xml:space="preserve" text-anchor="middle" x="845.72" y="-243.5" font-family="Helvetica,sans-Serif" font-size="10.00">Post 1st&#45;line chemo (II)</text>
</g>
<!-- NSEM3&#45;&gt;NSEM4 -->
<g id="edge14" class="edge">
<title>NSEM3&#45;&gt;NSEM4</title>
<path fill="none" stroke="#566573" d="M558.64,-260.21C577.07,-254.64 599.68,-248.77 620.48,-246 684.87,-237.44 701.74,-243.1 766.64,-246 768.69,-246.09 770.77,-246.2 772.87,-246.31"/>
<polygon fill="#566573" stroke="#566573" points="772.51,-249.8 782.72,-246.94 772.96,-242.81 772.51,-249.8"/>
</g>
<!-- NSEM3&#45;&gt;NSEM5 -->
<g id="edge15" class="edge">
<title>NSEM3&#45;&gt;NSEM5</title>
<path fill="none" stroke="#566573" d="M558.47,-284.85C577.49,-290.83 601.16,-298.27 623.29,-305.23"/>
<polygon fill="#566573" stroke="#566573" points="621.98,-308.48 632.57,-308.14 624.08,-301.8 621.98,-308.48"/>
</g>
<!-- NSEM3&#45;&gt;NSEM6 -->
<g id="edge16" class="edge">
<title>NSEM3&#45;&gt;NSEM6</title>
<path fill="none" stroke="#566573" d="M558.47,-273C573.3,-273 590.96,-273 608.52,-273"/>
<polygon fill="#566573" stroke="#566573" points="608.49,-276.5 618.49,-273 608.49,-269.5 608.49,-276.5"/>
</g>
<!-- NSEM8 -->
<g id="node17" class="node">
<title>NSEM8</title>
<path fill="#f5b7b1" stroke="black" d="M1216.62,-295C1216.62,-295 1127.46,-295 1127.46,-295 1121.46,-295 1115.46,-289 1115.46,-283 1115.46,-283 1115.46,-271 1115.46,-271 1115.46,-265 1121.46,-259 1127.46,-259 1127.46,-259 1216.62,-259 1216.62,-259 1222.62,-259 1228.62,-265 1228.62,-271 1228.62,-271 1228.62,-283 1228.62,-283 1228.62,-289 1222.62,-295 1216.62,-295"/>
<text xml:space="preserve" text-anchor="middle" x="1172.04" y="-278.75" font-family="Helvetica,sans-Serif" font-size="10.00">NSEM&#45;8</text>
<text xml:space="preserve" text-anchor="middle" x="1172.04" y="-267.5" font-family="Helvetica,sans-Serif" font-size="10.00">Recurrence / 2nd&#45;line</text>
</g>
<!-- NSEM4&#45;&gt;NSEM8 -->
<g id="edge18" class="edge">
<title>NSEM4&#45;&gt;NSEM8</title>
<path fill="none" stroke="#566573" stroke-dasharray="1,5" d="M907.24,-250.45C913.17,-250.26 919.1,-250.11 924.8,-250 985.42,-248.84 1001.02,-242.71 1061.21,-250 1075.21,-251.7 1089.99,-254.56 1104.02,-257.81"/>
<polygon fill="#566573" stroke="#566573" points="1103.07,-261.18 1113.61,-260.13 1104.72,-254.38 1103.07,-261.18"/>
</g>
<!-- NSEM7 -->
<g id="node16" class="node">
<title>NSEM7</title>
<path fill="#eaecee" stroke="black" d="M1049.21,-295C1049.21,-295 936.8,-295 936.8,-295 930.8,-295 924.8,-289 924.8,-283 924.8,-283 924.8,-271 924.8,-271 924.8,-265 930.8,-259 936.8,-259 936.8,-259 1049.21,-259 1049.21,-259 1055.21,-259 1061.21,-265 1061.21,-271 1061.21,-271 1061.21,-283 1061.21,-283 1061.21,-289 1055.21,-295 1049.21,-295"/>
<text xml:space="preserve" text-anchor="middle" x="993" y="-278.75" font-family="Helvetica,sans-Serif" font-size="10.00">NSEM&#45;7</text>
<text xml:space="preserve" text-anchor="middle" x="993" y="-267.5" font-family="Helvetica,sans-Serif" font-size="10.00">Response after primary Tx</text>
</g>
<!-- NSEM6&#45;&gt;NSEM7 -->
<g id="edge17" class="edge">
<title>NSEM6&#45;&gt;NSEM7</title>
<path fill="none" stroke="#566573" d="M766.94,-273.97C811.17,-274.57 867.76,-275.33 913.13,-275.94"/>
<polygon fill="#566573" stroke="#566573" points="912.85,-279.44 922.89,-276.07 912.94,-272.44 912.85,-279.44"/>
</g>
<!-- NSEM6&#45;&gt;NSEM8 -->
<g id="edge19" class="edge">
<title>NSEM6&#45;&gt;NSEM8</title>
<path fill="none" stroke="#566573" d="M767.07,-287.87C841.15,-301.01 959.42,-316.33 1061.21,-304 1075.21,-302.3 1089.99,-299.44 1104.02,-296.19"/>
<polygon fill="#566573" stroke="#566573" points="1104.72,-299.62 1113.61,-293.87 1103.07,-292.82 1104.72,-299.62"/>
</g>
<!-- NSEM6&#45;&gt;TESTD -->
<g id="edge26" class="edge">
<title>NSEM6&#45;&gt;TESTD</title>
<path fill="none" stroke="#566573" stroke-dasharray="5,2" d="M722.51,-254.6C739.7,-244.28 762.58,-232.26 784.64,-226 873.53,-200.77 899.6,-211 992,-211 992,-211 992,-211 1473.36,-211 1501.87,-211 1533.06,-208.15 1560.27,-204.71"/>
<polygon fill="#566573" stroke="#566573" points="1560.71,-208.18 1570.17,-203.41 1559.79,-201.24 1560.71,-208.18"/>
</g>
<!-- NSEM6&#45;&gt;TESTE -->
<g id="edge28" class="edge">
<title>NSEM6&#45;&gt;TESTE</title>
<path fill="none" stroke="#566573" stroke-dasharray="5,2" d="M742.43,-291.48C800.54,-312.22 901.95,-343 992,-343 992,-343 992,-343 1473.36,-343 1490.41,-343 1526.45,-334.93 1560.03,-326.33"/>
<polygon fill="#566573" stroke="#566573" points="1560.55,-329.81 1569.35,-323.91 1558.79,-323.03 1560.55,-329.81"/>
</g>
<!-- NSEM7&#45;&gt;NSEM8 -->
<g id="edge20" class="edge">
<title>NSEM7&#45;&gt;NSEM8</title>
<path fill="none" stroke="#566573" d="M1061.69,-277C1075.5,-277 1090.01,-277 1103.8,-277"/>
<polygon fill="#566573" stroke="#566573" points="1103.67,-280.5 1113.67,-277 1103.67,-273.5 1103.67,-280.5"/>
</g>
<!-- NSEM9 -->
<g id="node18" class="node">
<title>NSEM9</title>
<path fill="#eaecee" stroke="black" d="M1375.78,-313C1375.78,-313 1294.87,-313 1294.87,-313 1288.87,-313 1282.87,-307 1282.87,-301 1282.87,-301 1282.87,-289 1282.87,-289 1282.87,-283 1288.87,-277 1294.87,-277 1294.87,-277 1375.78,-277 1375.78,-277 1381.78,-277 1387.78,-283 1387.78,-289 1387.78,-289 1387.78,-301 1387.78,-301 1387.78,-307 1381.78,-313 1375.78,-313"/>
<text xml:space="preserve" text-anchor="middle" x="1335.32" y="-296.75" font-family="Helvetica,sans-Serif" font-size="10.00">NSEM&#45;9</text>
<text xml:space="preserve" text-anchor="middle" x="1335.32" y="-285.5" font-family="Helvetica,sans-Serif" font-size="10.00">Post 2nd&#45;line mgmt</text>
</g>
<!-- NSEM8&#45;&gt;NSEM9 -->
<g id="edge21" class="edge">
<title>NSEM8&#45;&gt;NSEM9</title>
<path fill="none" stroke="#566573" d="M1229,-283.25C1242.71,-284.78 1257.47,-286.42 1271.49,-287.99"/>
<polygon fill="#566573" stroke="#566573" points="1270.7,-291.42 1281.02,-289.05 1271.47,-284.46 1270.7,-291.42"/>
</g>
<!-- NSEM8&#45;&gt;TESTF -->
<g id="edge30" class="edge">
<title>NSEM8&#45;&gt;TESTF</title>
<path fill="none" stroke="#566573" stroke-dasharray="5,2" d="M1228.81,-271.63C1317.85,-261.92 1486.36,-238.49 1527.94,-197 1557.01,-167.99 1521.08,-137.18 1548.94,-107 1552.17,-103.5 1555.86,-100.45 1559.84,-97.79"/>
<polygon fill="#566573" stroke="#566573" points="1561.29,-101 1568.27,-93.03 1557.84,-94.9 1561.29,-101"/>
</g>
<!-- NSEM10 -->
<g id="node19" class="node">
<title>NSEM10</title>
<path fill="#f1948a" stroke="black" d="M1507.94,-313C1507.94,-313 1436.78,-313 1436.78,-313 1430.78,-313 1424.78,-307 1424.78,-301 1424.78,-301 1424.78,-289 1424.78,-289 1424.78,-283 1430.78,-277 1436.78,-277 1436.78,-277 1507.94,-277 1507.94,-277 1513.94,-277 1519.94,-283 1519.94,-289 1519.94,-289 1519.94,-301 1519.94,-301 1519.94,-307 1513.94,-313 1507.94,-313"/>
<text xml:space="preserve" text-anchor="middle" x="1472.36" y="-296.75" font-family="Helvetica,sans-Serif" font-size="10.00">NSEM&#45;10</text>
<text xml:space="preserve" text-anchor="middle" x="1472.36" y="-285.5" font-family="Helvetica,sans-Serif" font-size="10.00">Third&#45;line therapy</text>
</g>
<!-- NSEM9&#45;&gt;NSEM10 -->
<g id="edge22" class="edge">
<title>NSEM9&#45;&gt;NSEM10</title>
<path fill="none" stroke="#566573" d="M1388.15,-295C1396.24,-295 1404.64,-295 1412.87,-295"/>
<polygon fill="#566573" stroke="#566573" points="1412.81,-298.5 1422.81,-295 1412.81,-291.5 1412.81,-298.5"/>
</g>
<!-- NSEM10&#45;&gt;TESTG -->
<g id="edge32" class="edge">
<title>NSEM10&#45;&gt;TESTG</title>
<path fill="none" stroke="#566573" stroke-dasharray="5,2" d="M1520.09,-282.45C1532.13,-279.21 1545.4,-275.65 1558.48,-272.14"/>
<polygon fill="#566573" stroke="#566573" points="1559.18,-275.57 1567.93,-269.6 1557.37,-268.81 1559.18,-275.57"/>
</g>
<!-- L1 -->
<g id="node26" class="node">
<title>L1</title>
<path fill="#d6eaf8" stroke="black" d="M107.53,-445C107.53,-445 47.62,-445 47.62,-445 41.62,-445 35.62,-439 35.62,-433 35.62,-433 35.62,-421 35.62,-421 35.62,-415 41.62,-409 47.62,-409 47.62,-409 107.53,-409 107.53,-409 113.53,-409 119.53,-415 119.53,-421 119.53,-421 119.53,-433 119.53,-433 119.53,-439 113.53,-445 107.53,-445"/>
<text xml:space="preserve" text-anchor="middle" x="77.58" y="-423.12" font-family="Helvetica,sans-Serif" font-size="10.00">Workup / entry</text>
</g>
<!-- L2 -->
<g id="node27" class="node">
<title>L2</title>
<path fill="#d5f5e3" stroke="black" d="M407.07,-445C407.07,-445 284.16,-445 284.16,-445 278.16,-445 272.16,-439 272.16,-433 272.16,-433 272.16,-421 272.16,-421 272.16,-415 278.16,-409 284.16,-409 284.16,-409 407.07,-409 407.07,-409 413.07,-409 419.07,-415 419.07,-421 419.07,-421 419.07,-433 419.07,-433 419.07,-439 413.07,-445 407.07,-445"/>
<text xml:space="preserve" text-anchor="middle" x="345.61" y="-423.12" font-family="Helvetica,sans-Serif" font-size="10.00">Diagnosis / stage / treatment</text>
</g>
<!-- L1&#45;&gt;L2 -->
<!-- L3 -->
<g id="node28" class="node">
<title>L3</title>
<path fill="#eaecee" stroke="black" d="M569.98,-445C569.98,-445 469.57,-445 469.57,-445 463.57,-445 457.57,-439 457.57,-433 457.57,-433 457.57,-421 457.57,-421 457.57,-415 463.57,-409 469.57,-409 469.57,-409 569.98,-409 569.98,-409 575.98,-409 581.98,-415 581.98,-421 581.98,-421 581.98,-433 581.98,-433 581.98,-439 575.98,-445 569.98,-445"/>
<text xml:space="preserve" text-anchor="middle" x="519.77" y="-423.12" font-family="Helvetica,sans-Serif" font-size="10.00">Management / follow&#45;up</text>
</g>
<!-- L2&#45;&gt;L3 -->
<!-- L4 -->
<g id="node29" class="node">
<title>L4</title>
<path fill="#f5b7b1" stroke="black" d="M716.76,-445C716.76,-445 670.35,-445 670.35,-445 664.35,-445 658.35,-439 658.35,-433 658.35,-433 658.35,-421 658.35,-421 658.35,-415 664.35,-409 670.35,-409 670.35,-409 716.76,-409 716.76,-409 722.76,-409 728.76,-415 728.76,-421 728.76,-421 728.76,-433 728.76,-433 728.76,-439 722.76,-445 716.76,-445"/>
<text xml:space="preserve" text-anchor="middle" x="693.56" y="-423.12" font-family="Helvetica,sans-Serif" font-size="10.00">Recurrence</text>
</g>
<!-- L3&#45;&gt;L4 -->
<!-- L5 -->
<g id="node30" class="node">
<title>L5</title>
<path fill="#f1948a" stroke="black" d="M1032.33,-445C1032.33,-445 953.67,-445 953.67,-445 947.67,-445 941.67,-439 941.67,-433 941.67,-433 941.67,-421 941.67,-421 941.67,-415 947.67,-409 953.67,-409 953.67,-409 1032.33,-409 1032.33,-409 1038.33,-409 1044.33,-415 1044.33,-421 1044.33,-421 1044.33,-433 1044.33,-433 1044.33,-439 1038.33,-445 1032.33,-445"/>
<text xml:space="preserve" text-anchor="middle" x="993" y="-423.12" font-family="Helvetica,sans-Serif" font-size="10.00">Third&#45;line / salvage</text>
</g>
<!-- L4&#45;&gt;L5 -->
<!-- L6 -->
<g id="node31" class="node">
<title>L6</title>
<path fill="#fdebd0" stroke="black" d="M1233.87,-445C1233.87,-445 1110.21,-445 1110.21,-445 1104.21,-445 1098.21,-439 1098.21,-433 1098.21,-433 1098.21,-421 1098.21,-421 1098.21,-415 1104.21,-409 1110.21,-409 1110.21,-409 1233.87,-409 1233.87,-409 1239.87,-409 1245.87,-415 1245.87,-421 1245.87,-421 1245.87,-433 1245.87,-433 1245.87,-439 1239.87,-445 1233.87,-445"/>
<text xml:space="preserve" text-anchor="middle" x="1172.04" y="-423.12" font-family="Helvetica,sans-Serif" font-size="10.00">Reference page (dashed link)</text>
</g>
<!-- L5&#45;&gt;L6 -->
</g>
</svg>
