<?xml version="1.0" encoding="UTF-8" standalone="no"?>
<!DOCTYPE svg PUBLIC "-//W3C//DTD SVG 1.1//EN"
 "http://www.w3.org/Graphics/SVG/1.1/DTD/svg11.dtd">
<!-- Generated by graphviz version 15.0.0 (20260523.1842)
 -->
<!-- Title: NSEM6 Pages: 1 -->
<svg width="2356pt" height="257pt"
 viewBox="0.00 0.00 2356.00 257.00" xmlns="http://www.w3.org/2000/svg" xmlns:xlink="http://www.w3.org/1999/xlink">
<g id="graph0" class="graph" transform="scale(1 1) rotate(0) translate(4 253.02)">
<title>NSEM6</title>
<polygon fill="white" stroke="none" points="-4,4 -4,-253.02 2351.59,-253.02 2351.59,4 -4,4"/>
<text xml:space="preserve" text-anchor="middle" x="1173.8" y="-231.72" font-family="Helvetica,sans-Serif" font-weight="bold" font-size="14.00">NSEM&#45;6 · Nonseminoma — Advanced Disease (by risk) + Brain Metastases</text>
<!-- risk -->
<g id="node1" class="node">
<title>risk</title>
<path fill="#f9e79f" stroke="black" d="M87.62,-150.14C87.62,-150.14 11.35,-123.92 11.35,-123.92 5.67,-121.97 5.67,-118.07 11.35,-116.12 11.35,-116.12 87.62,-89.9 87.62,-89.9 93.3,-87.95 104.64,-87.95 110.32,-89.9 110.32,-89.9 186.59,-116.12 186.59,-116.12 192.27,-118.07 192.27,-121.97 186.59,-123.92 186.59,-123.92 110.32,-150.14 110.32,-150.14 104.64,-152.09 93.3,-152.09 87.62,-150.14"/>
<text xml:space="preserve" text-anchor="middle" x="98.97" y="-121.77" font-family="Helvetica,sans-Serif" font-size="10.00">Risk classification</text>
<text xml:space="preserve" text-anchor="middle" x="98.97" y="-110.52" font-family="Helvetica,sans-Serif" font-size="10.00">(TEST&#45;D)</text>
</g>
<!-- good -->
<g id="node2" class="node">
<title>good</title>
<path fill="#fcf3cf" stroke="black" d="M357.66,-167.02C357.66,-167.02 245.94,-167.02 245.94,-167.02 239.94,-167.02 233.94,-161.02 233.94,-155.02 233.94,-155.02 233.94,-143.02 233.94,-143.02 233.94,-137.02 239.94,-131.02 245.94,-131.02 245.94,-131.02 357.66,-131.02 357.66,-131.02 363.66,-131.02 369.66,-137.02 369.66,-143.02 369.66,-143.02 369.66,-155.02 369.66,-155.02 369.66,-161.02 363.66,-167.02 357.66,-167.02"/>
<text xml:space="preserve" text-anchor="middle" x="301.8" y="-150.77" font-family="Helvetica,sans-Serif" font-size="10.00">Good risk:</text>
<text xml:space="preserve" text-anchor="middle" x="301.8" y="-139.52" font-family="Helvetica,sans-Serif" font-size="10.00">Stage IS, IIA, IIB, IIC, IIIA</text>
</g>
<!-- risk&#45;&gt;good -->
<g id="edge1" class="edge">
<title>risk&#45;&gt;good</title>
<path fill="none" stroke="black" d="M169.93,-130.12C186.83,-132.56 205,-135.19 222.27,-137.68"/>
<polygon fill="black" stroke="black" points="221.56,-141.11 231.96,-139.08 222.56,-134.19 221.56,-141.11"/>
</g>
<!-- poor -->
<g id="node3" class="node">
<title>poor</title>
<path fill="#fcf3cf" stroke="black" d="M352.78,-111.02C352.78,-111.02 250.81,-111.02 250.81,-111.02 244.81,-111.02 238.81,-105.02 238.81,-99.02 238.81,-99.02 238.81,-87.02 238.81,-87.02 238.81,-81.02 244.81,-75.02 250.81,-75.02 250.81,-75.02 352.78,-75.02 352.78,-75.02 358.78,-75.02 364.78,-81.02 364.78,-87.02 364.78,-87.02 364.78,-99.02 364.78,-99.02 364.78,-105.02 358.78,-111.02 352.78,-111.02"/>
<text xml:space="preserve" text-anchor="middle" x="301.8" y="-94.77" font-family="Helvetica,sans-Serif" font-size="10.00">Intermediate &amp; poor risk:</text>
<text xml:space="preserve" text-anchor="middle" x="301.8" y="-83.52" font-family="Helvetica,sans-Serif" font-size="10.00">Stage IIIB, IIIC</text>
</g>
<!-- risk&#45;&gt;poor -->
<g id="edge2" class="edge">
<title>risk&#45;&gt;poor</title>
<path fill="none" stroke="black" d="M171.34,-110.42C189.45,-107.99 208.95,-105.37 227.17,-102.92"/>
<polygon fill="black" stroke="black" points="227.38,-106.42 236.83,-101.62 226.45,-99.48 227.38,-106.42"/>
</g>
<!-- good_tx -->
<g id="node4" class="node">
<title>good_tx</title>
<path fill="#d5f5e3" stroke="black" d="M536.88,-174.65C536.88,-174.65 437.16,-174.65 437.16,-174.65 431.16,-174.65 425.16,-168.65 425.16,-162.65 425.16,-162.65 425.16,-141.38 425.16,-141.38 425.16,-135.38 431.16,-129.38 437.16,-129.38 437.16,-129.38 536.88,-129.38 536.88,-129.38 542.88,-129.38 548.88,-135.38 548.88,-141.38 548.88,-141.38 548.88,-162.65 548.88,-162.65 548.88,-168.65 542.88,-174.65 536.88,-174.65"/>
<text xml:space="preserve" text-anchor="middle" x="487.02" y="-159.39" font-family="Helvetica,sans-Serif" font-size="10.00">First&#45;line chemotherapy:</text>
<text xml:space="preserve" text-anchor="middle" x="487.02" y="-148.14" font-family="Helvetica,sans-Serif" font-size="10.00">BEP × 3 cycles (cat 1)</text>
<text xml:space="preserve" text-anchor="middle" x="487.02" y="-136.89" font-family="Helvetica,sans-Serif" font-size="10.00">or EP × 4 cycles (cat 1)</text>
</g>
<!-- good&#45;&gt;good_tx -->
<g id="edge3" class="edge">
<title>good&#45;&gt;good_tx</title>
<path fill="none" stroke="black" d="M369.98,-150.12C384.17,-150.35 399.19,-150.6 413.56,-150.83"/>
<polygon fill="black" stroke="black" points="413.35,-154.33 423.4,-150.99 413.46,-147.33 413.35,-154.33"/>
</g>
<!-- poor_tx -->
<g id="node5" class="node">
<title>poor_tx</title>
<path fill="#d5f5e3" stroke="black" d="M556.38,-111.66C556.38,-111.66 417.66,-111.66 417.66,-111.66 411.66,-111.66 405.66,-105.66 405.66,-99.66 405.66,-99.66 405.66,-78.38 405.66,-78.38 405.66,-72.38 411.66,-66.38 417.66,-66.38 417.66,-66.38 556.38,-66.38 556.38,-66.38 562.38,-66.38 568.38,-72.38 568.38,-78.38 568.38,-78.38 568.38,-99.66 568.38,-99.66 568.38,-105.66 562.38,-111.66 556.38,-111.66"/>
<text xml:space="preserve" text-anchor="middle" x="487.02" y="-96.39" font-family="Helvetica,sans-Serif" font-size="10.00">First&#45;line chemotherapy:</text>
<text xml:space="preserve" text-anchor="middle" x="487.02" y="-85.14" font-family="Helvetica,sans-Serif" font-size="10.00">BEP × 4 cycles (cat 1, preferred)</text>
<text xml:space="preserve" text-anchor="middle" x="487.02" y="-73.89" font-family="Helvetica,sans-Serif" font-size="10.00">or VIP × 4 cycles (cat 1)</text>
</g>
<!-- poor&#45;&gt;poor_tx -->
<g id="edge4" class="edge">
<title>poor&#45;&gt;poor_tx</title>
<path fill="none" stroke="black" d="M365.09,-91.66C374.41,-91.46 384.18,-91.24 393.96,-91.03"/>
<polygon fill="black" stroke="black" points="393.98,-94.53 403.9,-90.81 393.83,-87.53 393.98,-94.53"/>
</g>
<!-- assess -->
<g id="node6" class="node">
<title>assess</title>
<path fill="#f9e79f" stroke="black" d="M735.55,-136.52C735.55,-136.52 616.29,-121.52 616.29,-121.52 610.33,-120.77 610.33,-119.27 616.29,-118.52 616.29,-118.52 735.55,-103.52 735.55,-103.52 741.5,-102.77 753.4,-102.77 759.36,-103.52 759.36,-103.52 878.62,-118.52 878.62,-118.52 884.57,-119.27 884.57,-120.77 878.62,-121.52 878.62,-121.52 759.36,-136.52 759.36,-136.52 753.4,-137.27 741.5,-137.27 735.55,-136.52"/>
<text xml:space="preserve" text-anchor="middle" x="747.45" y="-116.14" font-family="Helvetica,sans-Serif" font-size="10.00">Postchemotherapy assessment</text>
</g>
<!-- good_tx&#45;&gt;assess -->
<g id="edge5" class="edge">
<title>good_tx&#45;&gt;assess</title>
<path fill="none" stroke="black" d="M549.26,-144.44C582.95,-140.27 625.24,-135.03 662.02,-130.48"/>
<polygon fill="black" stroke="black" points="662.24,-133.97 671.73,-129.27 661.38,-127.03 662.24,-133.97"/>
</g>
<!-- poor_tx&#45;&gt;assess -->
<g id="edge6" class="edge">
<title>poor_tx&#45;&gt;assess</title>
<path fill="none" stroke="black" d="M568.73,-98.7C598.01,-102.21 631.18,-106.19 660.88,-109.75"/>
<polygon fill="black" stroke="black" points="660.22,-113.2 670.57,-110.92 661.05,-106.25 660.22,-113.2"/>
</g>
<!-- orig_is -->
<g id="node7" class="node">
<title>orig_is</title>
<path fill="#fcf3cf" stroke="black" d="M1075.98,-205.66C1075.98,-205.66 1009.84,-192.38 1009.84,-192.38 1003.96,-191.2 1003.96,-188.84 1009.84,-187.66 1009.84,-187.66 1075.98,-174.38 1075.98,-174.38 1081.86,-173.2 1093.63,-173.2 1099.51,-174.38 1099.51,-174.38 1165.64,-187.66 1165.64,-187.66 1171.53,-188.84 1171.53,-191.2 1165.64,-192.38 1165.64,-192.38 1099.51,-205.66 1099.51,-205.66 1093.63,-206.84 1081.86,-206.84 1075.98,-205.66"/>
<text xml:space="preserve" text-anchor="middle" x="1087.74" y="-186.14" font-family="Helvetica,sans-Serif" font-size="10.00">If original stage IS</text>
</g>
<!-- assess&#45;&gt;orig_is -->
<g id="edge7" class="edge">
<title>assess&#45;&gt;orig_is</title>
<path fill="none" stroke="black" d="M795.87,-132.43C831.63,-141.55 881.97,-153.9 926.52,-163.02 958.38,-169.54 994.03,-175.66 1023.6,-180.43"/>
<polygon fill="black" stroke="black" points="1022.7,-183.83 1033.13,-181.94 1023.8,-176.91 1022.7,-183.83"/>
</g>
<!-- orig_n -->
<g id="node8" class="node">
<title>orig_n</title>
<path fill="#fcf3cf" stroke="black" d="M1076.24,-150.63C1076.24,-150.63 984.53,-123.43 984.53,-123.43 978.78,-121.73 978.78,-118.31 984.53,-116.61 984.53,-116.61 1076.24,-89.41 1076.24,-89.41 1081.99,-87.71 1093.5,-87.71 1099.25,-89.41 1099.25,-89.41 1190.96,-116.61 1190.96,-116.61 1196.71,-118.31 1196.71,-121.73 1190.96,-123.43 1190.96,-123.43 1099.25,-150.63 1099.25,-150.63 1093.5,-152.33 1081.99,-152.33 1076.24,-150.63"/>
<text xml:space="preserve" text-anchor="middle" x="1087.74" y="-121.77" font-family="Helvetica,sans-Serif" font-size="10.00">If original stage T any,</text>
<text xml:space="preserve" text-anchor="middle" x="1087.74" y="-110.52" font-family="Helvetica,sans-Serif" font-size="10.00">N1–3, M0–1</text>
</g>
<!-- assess&#45;&gt;orig_n -->
<g id="edge8" class="edge">
<title>assess&#45;&gt;orig_n</title>
<path fill="none" stroke="black" d="M894.37,-120.02C916.2,-120.02 938.55,-120.02 959.94,-120.02"/>
<polygon fill="black" stroke="black" points="959.86,-123.52 969.86,-120.02 959.86,-116.52 959.86,-123.52"/>
</g>
<!-- resid -->
<g id="node9" class="node">
<title>resid</title>
<path fill="#fcf3cf" stroke="black" d="M1076,-65.56C1076,-65.56 938.27,-36.5 938.27,-36.5 932.39,-35.26 932.39,-32.78 938.27,-31.54 938.27,-31.54 1076,-2.48 1076,-2.48 1081.87,-1.24 1093.61,-1.24 1099.49,-2.48 1099.49,-2.48 1237.22,-31.54 1237.22,-31.54 1243.09,-32.78 1243.09,-35.26 1237.22,-36.5 1237.22,-36.5 1099.49,-65.56 1099.49,-65.56 1093.61,-66.8 1081.87,-66.8 1076,-65.56"/>
<text xml:space="preserve" text-anchor="middle" x="1087.74" y="-35.77" font-family="Helvetica,sans-Serif" font-size="10.00">Residual masses with or without</text>
<text xml:space="preserve" text-anchor="middle" x="1087.74" y="-24.52" font-family="Helvetica,sans-Serif" font-size="10.00">abnormal AFP and/or beta&#45;hCG</text>
</g>
<!-- assess&#45;&gt;resid -->
<g id="edge9" class="edge">
<title>assess&#45;&gt;resid</title>
<path fill="none" stroke="black" d="M796.56,-107.79C850.02,-94.2 937.34,-72 1002.26,-55.5"/>
<polygon fill="black" stroke="black" points="1002.99,-58.92 1011.82,-53.07 1001.26,-52.14 1002.99,-58.92"/>
</g>
<!-- is_surv -->
<g id="node10" class="node">
<title>is_surv</title>
<path fill="#d5f5e3" stroke="black" d="M1424.43,-205.02C1424.43,-205.02 1376.46,-205.02 1376.46,-205.02 1370.46,-205.02 1364.46,-199.02 1364.46,-193.02 1364.46,-193.02 1364.46,-181.02 1364.46,-181.02 1364.46,-175.02 1370.46,-169.02 1376.46,-169.02 1376.46,-169.02 1424.43,-169.02 1424.43,-169.02 1430.43,-169.02 1436.43,-175.02 1436.43,-181.02 1436.43,-181.02 1436.43,-193.02 1436.43,-193.02 1436.43,-199.02 1430.43,-205.02 1424.43,-205.02"/>
<text xml:space="preserve" text-anchor="middle" x="1400.45" y="-183.14" font-family="Helvetica,sans-Serif" font-size="10.00">Surveillance</text>
</g>
<!-- orig_is&#45;&gt;is_surv -->
<g id="edge10" class="edge">
<title>orig_is&#45;&gt;is_surv</title>
<path fill="none" stroke="black" d="M1175.71,-189.18C1233.13,-188.63 1306.14,-187.92 1352.84,-187.47"/>
<polygon fill="black" stroke="black" points="1352.64,-190.97 1362.61,-187.38 1352.58,-183.97 1352.64,-190.97"/>
</g>
<!-- n_opt -->
<g id="node11" class="node">
<title>n_opt</title>
<path fill="#d5f5e3" stroke="black" d="M1503.93,-148.41C1503.93,-148.41 1296.96,-148.41 1296.96,-148.41 1290.96,-148.41 1284.96,-142.41 1284.96,-136.41 1284.96,-136.41 1284.96,-113.63 1284.96,-113.63 1284.96,-107.63 1290.96,-101.63 1296.96,-101.63 1296.96,-101.63 1503.93,-101.63 1503.93,-101.63 1509.93,-101.63 1515.93,-107.63 1515.93,-113.63 1515.93,-113.63 1515.93,-136.41 1515.93,-136.41 1515.93,-142.41 1509.93,-148.41 1503.93,-148.41"/>
<text xml:space="preserve" text-anchor="middle" x="1400.45" y="-133.14" font-family="Helvetica,sans-Serif" font-size="10.00">Negative markers, no mass or residual &lt;1 cm →</text>
<text xml:space="preserve" text-anchor="middle" x="1400.45" y="-120.39" font-family="Helvetica,sans-Serif" font-size="10.00">Surveillance; or Surveillance / Nerve&#45;sparing</text>
<text xml:space="preserve" text-anchor="middle" x="1400.45" y="-109.14" font-family="Helvetica,sans-Serif" font-size="10.00">bilateral RPLND in selected cases (cat 2B)</text>
</g>
<!-- orig_n&#45;&gt;n_opt -->
<g id="edge11" class="edge">
<title>orig_n&#45;&gt;n_opt</title>
<path fill="none" stroke="black" d="M1197.85,-121.78C1222.19,-122.17 1248.19,-122.59 1273.16,-122.99"/>
<polygon fill="black" stroke="black" points="1272.97,-126.49 1283.03,-123.15 1273.09,-119.49 1272.97,-126.49"/>
</g>
<!-- nsem7 -->
<g id="node12" class="node">
<title>nsem7</title>
<path fill="#eaecee" stroke="black" d="M1452.56,-52.02C1452.56,-52.02 1348.34,-52.02 1348.34,-52.02 1342.34,-52.02 1336.34,-46.02 1336.34,-40.02 1336.34,-40.02 1336.34,-28.02 1336.34,-28.02 1336.34,-22.02 1342.34,-16.02 1348.34,-16.02 1348.34,-16.02 1452.56,-16.02 1452.56,-16.02 1458.56,-16.02 1464.56,-22.02 1464.56,-28.02 1464.56,-28.02 1464.56,-40.02 1464.56,-40.02 1464.56,-46.02 1458.56,-52.02 1452.56,-52.02"/>
<text xml:space="preserve" text-anchor="middle" x="1400.45" y="-36.52" font-family="Helvetica,sans-Serif" font-size="10.00">Postchemotherapy</text>
<text xml:space="preserve" text-anchor="middle" x="1400.45" y="-25.27" font-family="Helvetica,sans-Serif" font-size="10.00">Management → NSEM&#45;7</text>
</g>
<!-- resid&#45;&gt;nsem7 -->
<g id="edge12" class="edge">
<title>resid&#45;&gt;nsem7</title>
<path fill="none" stroke="black" d="M1251.38,-34.02C1277.01,-34.02 1302.37,-34.02 1324.68,-34.02"/>
<polygon fill="black" stroke="black" points="1324.53,-37.52 1334.53,-34.02 1324.53,-30.52 1324.53,-37.52"/>
</g>
<!-- fu10 -->
<g id="node13" class="node">
<title>fu10</title>
<path fill="#fdebd0" stroke="black" stroke-dasharray="5,2" d="M1701.15,-172.02C1701.15,-172.02 1563.93,-172.02 1563.93,-172.02 1557.93,-172.02 1551.93,-166.02 1551.93,-160.02 1551.93,-160.02 1551.93,-148.02 1551.93,-148.02 1551.93,-142.02 1557.93,-136.02 1563.93,-136.02 1563.93,-136.02 1701.15,-136.02 1701.15,-136.02 1707.15,-136.02 1713.15,-142.02 1713.15,-148.02 1713.15,-148.02 1713.15,-160.02 1713.15,-160.02 1713.15,-166.02 1707.15,-172.02 1701.15,-172.02"/>
<text xml:space="preserve" text-anchor="middle" x="1632.54" y="-150.14" font-family="Helvetica,sans-Serif" font-size="10.00">Follow&#45;up Table 10 (TEST&#45;B 2/3)</text>
</g>
<!-- is_surv&#45;&gt;fu10 -->
<g id="edge13" class="edge">
<title>is_surv&#45;&gt;fu10</title>
<path fill="none" stroke="black" d="M1436.9,-181.94C1464.54,-177.97 1504.22,-172.28 1540.55,-167.07"/>
<polygon fill="black" stroke="black" points="1540.8,-170.57 1550.2,-165.69 1539.8,-163.64 1540.8,-170.57"/>
</g>
<!-- n_opt&#45;&gt;fu10 -->
<g id="edge14" class="edge">
<title>n_opt&#45;&gt;fu10</title>
<path fill="none" stroke="black" d="M1516.16,-139.48C1524.18,-140.49 1532.2,-141.5 1540.06,-142.49"/>
<polygon fill="black" stroke="black" points="1539.6,-145.96 1549.96,-143.74 1540.47,-139.01 1539.6,-145.96"/>
</g>
<!-- recur -->
<g id="node14" class="node">
<title>recur</title>
<path fill="#f5b7b1" stroke="black" d="M1910.37,-172.02C1910.37,-172.02 1776.9,-172.02 1776.9,-172.02 1770.9,-172.02 1764.9,-166.02 1764.9,-160.02 1764.9,-160.02 1764.9,-148.02 1764.9,-148.02 1764.9,-142.02 1770.9,-136.02 1776.9,-136.02 1776.9,-136.02 1910.37,-136.02 1910.37,-136.02 1916.37,-136.02 1922.37,-142.02 1922.37,-148.02 1922.37,-148.02 1922.37,-160.02 1922.37,-160.02 1922.37,-166.02 1916.37,-172.02 1910.37,-172.02"/>
<text xml:space="preserve" text-anchor="middle" x="1843.64" y="-155.77" font-family="Helvetica,sans-Serif" font-size="10.00">For recurrence, see</text>
<text xml:space="preserve" text-anchor="middle" x="1843.64" y="-144.52" font-family="Helvetica,sans-Serif" font-size="10.00">Second&#45;Line Therapy (NSEM&#45;8)</text>
</g>
<!-- fu10&#45;&gt;recur -->
<g id="edge15" class="edge">
<title>fu10&#45;&gt;recur</title>
<path fill="none" stroke="black" d="M1713.49,-154.02C1726.42,-154.02 1739.88,-154.02 1753.02,-154.02"/>
<polygon fill="black" stroke="black" points="1752.95,-157.52 1762.95,-154.02 1752.95,-150.52 1752.95,-157.52"/>
</g>
<!-- brain -->
<g id="node15" class="node">
<title>brain</title>
<path fill="#f9e79f" stroke="black" d="M1668.15,-226.02C1668.15,-226.02 1596.93,-226.02 1596.93,-226.02 1590.93,-226.02 1584.93,-220.02 1584.93,-214.02 1584.93,-214.02 1584.93,-202.02 1584.93,-202.02 1584.93,-196.02 1590.93,-190.02 1596.93,-190.02 1596.93,-190.02 1668.15,-190.02 1668.15,-190.02 1674.15,-190.02 1680.15,-196.02 1680.15,-202.02 1680.15,-202.02 1680.15,-214.02 1680.15,-214.02 1680.15,-220.02 1674.15,-226.02 1668.15,-226.02"/>
<text xml:space="preserve" text-anchor="middle" x="1632.54" y="-204.14" font-family="Helvetica,sans-Serif" font-size="10.00">Brain metastases</text>
</g>
<!-- brain_tx -->
<g id="node16" class="node">
<title>brain_tx</title>
<path fill="#d5f5e3" stroke="black" d="M1926.12,-226.02C1926.12,-226.02 1761.15,-226.02 1761.15,-226.02 1755.15,-226.02 1749.15,-220.02 1749.15,-214.02 1749.15,-214.02 1749.15,-202.02 1749.15,-202.02 1749.15,-196.02 1755.15,-190.02 1761.15,-190.02 1761.15,-190.02 1926.12,-190.02 1926.12,-190.02 1932.12,-190.02 1938.12,-196.02 1938.12,-202.02 1938.12,-202.02 1938.12,-214.02 1938.12,-214.02 1938.12,-220.02 1932.12,-226.02 1926.12,-226.02"/>
<text xml:space="preserve" text-anchor="middle" x="1843.64" y="-209.77" font-family="Helvetica,sans-Serif" font-size="10.00">First&#45;line chemotherapy as for poor&#45;risk</text>
<text xml:space="preserve" text-anchor="middle" x="1843.64" y="-198.52" font-family="Helvetica,sans-Serif" font-size="10.00">± RT ± surgery, if clinically indicated</text>
</g>
<!-- brain&#45;&gt;brain_tx -->
<g id="edge16" class="edge">
<title>brain&#45;&gt;brain_tx</title>
<path fill="none" stroke="black" d="M1680.47,-208.02C1697.46,-208.02 1717.4,-208.02 1737.37,-208.02"/>
<polygon fill="black" stroke="black" points="1737.27,-211.52 1747.27,-208.02 1737.27,-204.52 1737.27,-211.52"/>
</g>
<!-- note -->
<g id="node17" class="node">
<title>note</title>
<polygon fill="#fef9e7" stroke="black" points="2341.59,-174.4 1974.12,-174.4 1974.12,-133.63 2347.59,-133.63 2347.59,-168.4 2341.59,-174.4"/>
<polyline fill="none" stroke="black" points="2341.59,-174.4 2341.59,-168.4"/>
<polyline fill="none" stroke="black" points="2347.59,-168.4 2341.59,-168.4"/>
<text xml:space="preserve" text-anchor="middle" x="2160.86" y="-160.09" font-family="Helvetica,sans-Serif" font-size="9.00">Referral to high&#45;volume center recommended for poor&#45;risk (consider for intermediate).</text>
<text xml:space="preserve" text-anchor="middle" x="2160.86" y="-150.34" font-family="Helvetica,sans-Serif" font-size="9.00">Mediastinal primary nonseminoma = poor risk. If intermediate risk is based only on LDH</text>
<text xml:space="preserve" text-anchor="middle" x="2160.86" y="-140.59" font-family="Helvetica,sans-Serif" font-size="9.00">1.5&#45;3× ULN, BEP × 3 or EP × 4 can be considered. BEP/EP/VIP — see TEST&#45;E.</text>
</g>
</g>
</svg>
