<?xml version="1.0" encoding="UTF-8" standalone="no"?>
<!DOCTYPE svg PUBLIC "-//W3C//DTD SVG 1.1//EN"
 "http://www.w3.org/Graphics/SVG/1.1/DTD/svg11.dtd">
<!-- Generated by graphviz version 15.0.0 (20260523.1842)
 -->
<!-- Title: NSEM1 Pages: 1 -->
<svg width="1439pt" height="185pt"
 viewBox="0.00 0.00 1439.00 185.00" xmlns="http://www.w3.org/2000/svg" xmlns:xlink="http://www.w3.org/1999/xlink">
<g id="graph0" class="graph" transform="scale(1 1) rotate(0) translate(4 181.35)">
<title>NSEM1</title>
<polygon fill="white" stroke="none" points="-4,4 -4,-181.35 1435.1,-181.35 1435.1,4 -4,4"/>
<text xml:space="preserve" text-anchor="middle" x="715.55" y="-160.05" font-family="Helvetica,sans-Serif" font-weight="bold" font-size="14.00">NSEM&#45;1 · Nonseminoma (NSGCT) — Postdiagnostic Workup &amp; Clinical Stage</text>
<!-- dx -->
<g id="node1" class="node">
<title>dx</title>
<path fill="#d6eaf8" stroke="black" d="M191.91,-105.71C191.91,-105.71 12,-105.71 12,-105.71 6,-105.71 0,-99.71 0,-93.71 0,-93.71 0,-71 0,-71 0,-65 6,-59 12,-59 12,-59 191.91,-59 191.91,-59 197.91,-59 203.91,-65 203.91,-71 203.91,-71 203.91,-93.71 203.91,-93.71 203.91,-99.71 197.91,-105.71 191.91,-105.71"/>
<text xml:space="preserve" text-anchor="middle" x="101.95" y="-89.73" font-family="Helvetica,sans-Serif" font-size="10.00">NSGCT</text>
<text xml:space="preserve" text-anchor="middle" x="101.95" y="-78.48" font-family="Helvetica,sans-Serif" font-size="10.00">(mixed seminoma/nonseminoma tumors,</text>
<text xml:space="preserve" text-anchor="middle" x="101.95" y="-67.23" font-family="Helvetica,sans-Serif" font-size="10.00">or seminoma histology with elevated AFP)</text>
</g>
<!-- workup -->
<g id="node2" class="node">
<title>workup</title>
<path fill="#d6eaf8" stroke="black" d="M443.82,-122.59C443.82,-122.59 251.91,-122.59 251.91,-122.59 245.91,-122.59 239.91,-116.59 239.91,-110.59 239.91,-110.59 239.91,-54.12 239.91,-54.12 239.91,-48.12 245.91,-42.13 251.91,-42.13 251.91,-42.13 443.82,-42.13 443.82,-42.13 449.82,-42.13 455.82,-48.13 455.82,-54.13 455.82,-54.13 455.82,-110.59 455.82,-110.59 455.82,-116.59 449.82,-122.59 443.82,-122.59"/>
<text xml:space="preserve" text-anchor="start" x="249.99" y="-106.61" font-family="Helvetica,sans-Serif" font-size="10.00">POSTDIAGNOSTIC WORKUP</text>
<text xml:space="preserve" text-anchor="start" x="249.99" y="-95.36" font-family="Helvetica,sans-Serif" font-size="10.00">• C/A/P CT or MRI</text>
<text xml:space="preserve" text-anchor="start" x="249.99" y="-84.11" font-family="Helvetica,sans-Serif" font-size="10.00">• Repeat beta&#45;hCG, LDH, AFP</text>
<text xml:space="preserve" text-anchor="start" x="249.99" y="-72.86" font-family="Helvetica,sans-Serif" font-size="10.00"> &#160;(staging based on post&#45;orchiectomy values)</text>
<text xml:space="preserve" text-anchor="start" x="249.99" y="-61.61" font-family="Helvetica,sans-Serif" font-size="10.00">• Brain MRI, if clinically indicated</text>
<text xml:space="preserve" text-anchor="start" x="249.99" y="-50.36" font-family="Helvetica,sans-Serif" font-size="10.00">• Recommend sperm banking, if indicated</text>
</g>
<!-- dx&#45;&gt;workup -->
<g id="edge1" class="edge">
<title>dx&#45;&gt;workup</title>
<path fill="none" stroke="black" d="M204.28,-82.36C212.19,-82.36 220.23,-82.36 228.25,-82.36"/>
<polygon fill="black" stroke="black" points="228.04,-85.86 238.04,-82.36 228.04,-78.86 228.04,-85.86"/>
</g>
<!-- stage -->
<g id="node3" class="node">
<title>stage</title>
<path fill="#f9e79f" stroke="black" d="M576.67,-98.16C576.67,-98.16 503.62,-84.55 503.62,-84.55 497.72,-83.45 497.72,-81.26 503.62,-80.16 503.62,-80.16 576.67,-66.55 576.67,-66.55 582.57,-65.45 594.37,-65.45 600.27,-66.55 600.27,-66.55 673.32,-80.16 673.32,-80.16 679.22,-81.26 679.22,-83.45 673.32,-84.55 673.32,-84.55 600.27,-98.16 600.27,-98.16 594.37,-99.26 582.57,-99.26 576.67,-98.16"/>
<text xml:space="preserve" text-anchor="middle" x="588.47" y="-78.48" font-family="Helvetica,sans-Serif" font-size="10.00">CLINICAL STAGE</text>
</g>
<!-- workup&#45;&gt;stage -->
<g id="edge2" class="edge">
<title>workup&#45;&gt;stage</title>
<path fill="none" stroke="black" d="M456.3,-82.36C463.53,-82.36 470.81,-82.36 478.04,-82.36"/>
<polygon fill="black" stroke="black" points="477.84,-85.86 487.84,-82.36 477.84,-78.86 477.84,-85.86"/>
</g>
<!-- s1 -->
<g id="node4" class="node">
<title>s1</title>
<path fill="#f9e79f" stroke="black" d="M812.53,-154.35C812.53,-154.35 733.12,-154.35 733.12,-154.35 727.12,-154.35 721.12,-148.35 721.12,-142.35 721.12,-142.35 721.12,-130.35 721.12,-130.35 721.12,-124.35 727.12,-118.35 733.12,-118.35 733.12,-118.35 812.53,-118.35 812.53,-118.35 818.53,-118.35 824.53,-124.35 824.53,-130.35 824.53,-130.35 824.53,-142.35 824.53,-142.35 824.53,-148.35 818.53,-154.35 812.53,-154.35"/>
<text xml:space="preserve" text-anchor="middle" x="772.83" y="-138.1" font-family="Helvetica,sans-Serif" font-size="10.00">Stage I with and</text>
<text xml:space="preserve" text-anchor="middle" x="772.83" y="-126.85" font-family="Helvetica,sans-Serif" font-size="10.00">without risk factors</text>
</g>
<!-- stage&#45;&gt;s1 -->
<g id="edge3" class="edge">
<title>stage&#45;&gt;s1</title>
<path fill="none" stroke="black" d="M627.25,-93.54C651.2,-100.63 682.73,-109.97 710.23,-118.12"/>
<polygon fill="black" stroke="black" points="708.91,-121.38 719.5,-120.86 710.9,-114.66 708.91,-121.38"/>
</g>
<!-- s2 -->
<g id="node5" class="node">
<title>s2</title>
<path fill="#f9e79f" stroke="black" d="M800.91,-100.36C800.91,-100.36 744.75,-100.36 744.75,-100.36 738.75,-100.36 732.75,-94.36 732.75,-88.36 732.75,-88.36 732.75,-76.36 732.75,-76.36 732.75,-70.36 738.75,-64.36 744.75,-64.36 744.75,-64.36 800.91,-64.36 800.91,-64.36 806.91,-64.36 812.91,-70.36 812.91,-76.36 812.91,-76.36 812.91,-88.36 812.91,-88.36 812.91,-94.36 806.91,-100.36 800.91,-100.36"/>
<text xml:space="preserve" text-anchor="middle" x="772.83" y="-78.48" font-family="Helvetica,sans-Serif" font-size="10.00">Stage IIA, IIB</text>
</g>
<!-- stage&#45;&gt;s2 -->
<g id="edge5" class="edge">
<title>stage&#45;&gt;s2</title>
<path fill="none" stroke="black" d="M687.59,-82.36C699.1,-82.36 710.47,-82.36 720.95,-82.36"/>
<polygon fill="black" stroke="black" points="720.85,-85.86 730.85,-82.36 720.85,-78.86 720.85,-85.86"/>
</g>
<!-- s6 -->
<g id="node6" class="node">
<title>s6</title>
<path fill="#f9e79f" stroke="black" d="M812.16,-46.71C812.16,-46.71 733.5,-46.71 733.5,-46.71 727.5,-46.71 721.5,-40.71 721.5,-34.71 721.5,-34.71 721.5,-12 721.5,-12 721.5,-6 727.5,0 733.5,0 733.5,0 812.16,0 812.16,0 818.16,0 824.16,-6 824.16,-12 824.16,-12 824.16,-34.71 824.16,-34.71 824.16,-40.71 818.16,-46.71 812.16,-46.71"/>
<text xml:space="preserve" text-anchor="middle" x="772.83" y="-30.73" font-family="Helvetica,sans-Serif" font-size="10.00">Stage IS, IIC, IIIA,</text>
<text xml:space="preserve" text-anchor="middle" x="772.83" y="-19.48" font-family="Helvetica,sans-Serif" font-size="10.00">IIIB, IIIC, and</text>
<text xml:space="preserve" text-anchor="middle" x="772.83" y="-8.23" font-family="Helvetica,sans-Serif" font-size="10.00">brain metastasis</text>
</g>
<!-- stage&#45;&gt;s6 -->
<g id="edge7" class="edge">
<title>stage&#45;&gt;s6</title>
<path fill="none" stroke="black" d="M625.06,-70.84C649.33,-62.99 682.08,-52.39 710.49,-43.2"/>
<polygon fill="black" stroke="black" points="711.27,-46.63 719.7,-40.22 709.11,-39.97 711.27,-46.63"/>
</g>
<!-- p2 -->
<g id="node7" class="node">
<title>p2</title>
<path fill="#d5f5e3" stroke="black" d="M1002.94,-154.35C1002.94,-154.35 872.53,-154.35 872.53,-154.35 866.53,-154.35 860.53,-148.35 860.53,-142.35 860.53,-142.35 860.53,-130.35 860.53,-130.35 860.53,-124.35 866.53,-118.35 872.53,-118.35 872.53,-118.35 1002.94,-118.35 1002.94,-118.35 1008.94,-118.35 1014.94,-124.35 1014.94,-130.35 1014.94,-130.35 1014.94,-142.35 1014.94,-142.35 1014.94,-148.35 1008.94,-154.35 1002.94,-154.35"/>
<text xml:space="preserve" text-anchor="middle" x="937.74" y="-133.23" font-family="Helvetica,sans-Serif" font-size="10.00">Primary Treatment → NSEM&#45;2</text>
</g>
<!-- s1&#45;&gt;p2 -->
<g id="edge4" class="edge">
<title>s1&#45;&gt;p2</title>
<path fill="none" stroke="black" d="M824.93,-136.35C832.54,-136.35 840.56,-136.35 848.67,-136.35"/>
<polygon fill="black" stroke="black" points="848.65,-139.86 858.65,-136.36 848.65,-132.86 848.65,-139.86"/>
</g>
<!-- p3 -->
<g id="node8" class="node">
<title>p3</title>
<path fill="#d5f5e3" stroke="black" d="M1002.94,-100.36C1002.94,-100.36 872.53,-100.36 872.53,-100.36 866.53,-100.36 860.53,-94.36 860.53,-88.36 860.53,-88.36 860.53,-76.36 860.53,-76.36 860.53,-70.36 866.53,-64.36 872.53,-64.36 872.53,-64.36 1002.94,-64.36 1002.94,-64.36 1008.94,-64.36 1014.94,-70.36 1014.94,-76.36 1014.94,-76.36 1014.94,-88.36 1014.94,-88.36 1014.94,-94.36 1008.94,-100.36 1002.94,-100.36"/>
<text xml:space="preserve" text-anchor="middle" x="937.74" y="-79.23" font-family="Helvetica,sans-Serif" font-size="10.00">Primary Treatment → NSEM&#45;3</text>
</g>
<!-- s2&#45;&gt;p3 -->
<g id="edge6" class="edge">
<title>s2&#45;&gt;p3</title>
<path fill="none" stroke="black" d="M813.26,-82.36C824.15,-82.36 836.41,-82.36 848.88,-82.36"/>
<polygon fill="black" stroke="black" points="848.84,-85.86 858.84,-82.36 848.84,-78.86 848.84,-85.86"/>
</g>
<!-- p6 -->
<g id="node9" class="node">
<title>p6</title>
<path fill="#d5f5e3" stroke="black" d="M1002.94,-41.36C1002.94,-41.36 872.53,-41.36 872.53,-41.36 866.53,-41.36 860.53,-35.36 860.53,-29.36 860.53,-29.36 860.53,-17.36 860.53,-17.36 860.53,-11.36 866.53,-5.36 872.53,-5.36 872.53,-5.36 1002.94,-5.36 1002.94,-5.36 1008.94,-5.36 1014.94,-11.36 1014.94,-17.36 1014.94,-17.36 1014.94,-29.36 1014.94,-29.36 1014.94,-35.36 1008.94,-41.36 1002.94,-41.36"/>
<text xml:space="preserve" text-anchor="middle" x="937.74" y="-20.23" font-family="Helvetica,sans-Serif" font-size="10.00">Primary Treatment → NSEM&#45;6</text>
</g>
<!-- s6&#45;&gt;p6 -->
<g id="edge8" class="edge">
<title>s6&#45;&gt;p6</title>
<path fill="none" stroke="black" d="M824.48,-23.36C832.25,-23.36 840.46,-23.36 848.76,-23.36"/>
<polygon fill="black" stroke="black" points="848.58,-26.86 858.58,-23.36 848.58,-19.86 848.58,-26.86"/>
</g>
<!-- note -->
<g id="node10" class="node">
<title>note</title>
<polygon fill="#fef9e7" stroke="black" points="1425.1,-45.21 1050.94,-45.21 1050.94,-1.5 1431.1,-1.5 1431.1,-39.21 1425.1,-45.21"/>
<polyline fill="none" stroke="black" points="1425.1,-45.21 1425.1,-39.21"/>
<polyline fill="none" stroke="black" points="1431.1,-39.21 1425.1,-39.21"/>
<text xml:space="preserve" text-anchor="middle" x="1241.02" y="-30.18" font-family="Helvetica,sans-Serif" font-size="9.00">FDG&#45;PET/CT is NOT indicated for nonseminoma. Mediastinal primary nonseminoma is</text>
<text xml:space="preserve" text-anchor="middle" x="1241.02" y="-20.43" font-family="Helvetica,sans-Serif" font-size="9.00">poor&#45;risk → treat with VIP or BEP with careful pulmonary monitoring.</text>
<text xml:space="preserve" text-anchor="middle" x="1241.02" y="-9.18" font-family="Helvetica,sans-Serif" font-size="9.00">Risk factors for recurrence: lymphovascular invasion, invasion of spermatic cord/scrotum.</text>
</g>
</g>
</svg>
