<?xml version="1.0" encoding="UTF-8" standalone="no"?>
<!DOCTYPE svg PUBLIC "-//W3C//DTD SVG 1.1//EN"
 "http://www.w3.org/Graphics/SVG/1.1/DTD/svg11.dtd">
<!-- Generated by graphviz version 15.0.0 (20260523.1842)
 -->
<!-- Title: NSEM10 Pages: 1 -->
<svg width="1052pt" height="275pt"
 viewBox="0.00 0.00 1052.00 275.00" xmlns="http://www.w3.org/2000/svg" xmlns:xlink="http://www.w3.org/1999/xlink">
<g id="graph0" class="graph" transform="scale(1 1) rotate(0) translate(4 270.59)">
<title>NSEM10</title>
<polygon fill="white" stroke="none" points="-4,4 -4,-270.59 1048.3,-270.59 1048.3,4 -4,4"/>
<text xml:space="preserve" text-anchor="middle" x="522.15" y="-249.29" font-family="Helvetica,sans-Serif" font-weight="bold" font-size="14.00">NSEM&#45;10 · Nonseminoma — Recurrence &amp; Third&#45;Line Therapy</text>
<!-- branch -->
<g id="node1" class="node">
<title>branch</title>
<path fill="#f9e79f" stroke="black" d="M60.64,-142.71C60.64,-142.71 11.64,-130.5 11.64,-130.5 5.82,-129.05 5.82,-126.16 11.64,-124.71 11.64,-124.71 60.64,-112.5 60.64,-112.5 66.47,-111.05 78.11,-111.05 83.93,-112.5 83.93,-112.5 132.93,-124.71 132.93,-124.71 138.75,-126.16 138.75,-129.05 132.93,-130.5 132.93,-130.5 83.93,-142.71 83.93,-142.71 78.11,-144.16 66.47,-144.16 60.64,-142.71"/>
<text xml:space="preserve" text-anchor="middle" x="72.29" y="-123.73" font-family="Helvetica,sans-Serif" font-size="10.00">Prior therapy</text>
</g>
<!-- conv -->
<g id="node2" class="node">
<title>conv</title>
<path fill="#f1948a" stroke="black" d="M331.98,-215.6C331.98,-215.6 192.57,-215.6 192.57,-215.6 186.57,-215.6 180.57,-209.6 180.57,-203.6 180.57,-203.6 180.57,-191.6 180.57,-191.6 180.57,-185.6 186.57,-179.6 192.57,-179.6 192.57,-179.6 331.98,-179.6 331.98,-179.6 337.98,-179.6 343.98,-185.6 343.98,-191.6 343.98,-191.6 343.98,-203.6 343.98,-203.6 343.98,-209.6 337.98,-215.6 331.98,-215.6"/>
<text xml:space="preserve" text-anchor="middle" x="262.28" y="-199.35" font-family="Helvetica,sans-Serif" font-size="10.00">Prior first&#45; and second&#45;line</text>
<text xml:space="preserve" text-anchor="middle" x="262.28" y="-188.1" font-family="Helvetica,sans-Serif" font-size="10.00">conventional&#45;dose chemotherapy</text>
</g>
<!-- branch&#45;&gt;conv -->
<g id="edge1" class="edge">
<title>branch&#45;&gt;conv</title>
<path fill="none" stroke="black" d="M102.66,-138.54C128.94,-148.33 168.28,-162.97 201.2,-175.23"/>
<polygon fill="black" stroke="black" points="199.63,-178.38 210.22,-178.59 202.07,-171.82 199.63,-178.38"/>
</g>
<!-- hd -->
<g id="node3" class="node">
<title>hd</title>
<path fill="#f1948a" stroke="black" d="M325.23,-145.6C325.23,-145.6 199.32,-145.6 199.32,-145.6 193.32,-145.6 187.32,-139.6 187.32,-133.6 187.32,-133.6 187.32,-121.6 187.32,-121.6 187.32,-115.6 193.32,-109.6 199.32,-109.6 199.32,-109.6 325.23,-109.6 325.23,-109.6 331.23,-109.6 337.23,-115.6 337.23,-121.6 337.23,-121.6 337.23,-133.6 337.23,-133.6 337.23,-139.6 331.23,-145.6 325.23,-145.6"/>
<text xml:space="preserve" text-anchor="middle" x="262.28" y="-123.73" font-family="Helvetica,sans-Serif" font-size="10.00">Prior high&#45;dose chemotherapy</text>
</g>
<!-- branch&#45;&gt;hd -->
<g id="edge2" class="edge">
<title>branch&#45;&gt;hd</title>
<path fill="none" stroke="black" d="M146.51,-127.6C156.07,-127.6 165.93,-127.6 175.67,-127.6"/>
<polygon fill="black" stroke="black" points="175.51,-131.11 185.51,-127.61 175.51,-124.11 175.51,-131.11"/>
</g>
<!-- late -->
<g id="node4" class="node">
<title>late</title>
<path fill="#f1948a" stroke="black" d="M328.23,-72.6C328.23,-72.6 196.32,-72.6 196.32,-72.6 190.32,-72.6 184.32,-66.6 184.32,-60.6 184.32,-60.6 184.32,-48.6 184.32,-48.6 184.32,-42.6 190.32,-36.6 196.32,-36.6 196.32,-36.6 328.23,-36.6 328.23,-36.6 334.23,-36.6 340.23,-42.6 340.23,-48.6 340.23,-48.6 340.23,-60.6 340.23,-60.6 340.23,-66.6 334.23,-72.6 328.23,-72.6"/>
<text xml:space="preserve" text-anchor="middle" x="262.28" y="-56.35" font-family="Helvetica,sans-Serif" font-size="10.00">Late relapse</text>
<text xml:space="preserve" text-anchor="middle" x="262.28" y="-45.1" font-family="Helvetica,sans-Serif" font-size="10.00">(&gt;2 yr after second&#45;line chemo)</text>
</g>
<!-- branch&#45;&gt;late -->
<g id="edge3" class="edge">
<title>branch&#45;&gt;late</title>
<path fill="none" stroke="black" d="M101.84,-116.52C128.63,-106.12 169.49,-90.25 203.14,-77.18"/>
<polygon fill="black" stroke="black" points="204.32,-80.48 212.37,-73.6 201.78,-73.95 204.32,-80.48"/>
</g>
<!-- conv_tx -->
<g id="node5" class="node">
<title>conv_tx</title>
<path fill="#d5f5e3" stroke="black" d="M603.39,-243.58C603.39,-243.58 418.98,-243.58 418.98,-243.58 412.98,-243.58 406.98,-237.58 406.98,-231.58 406.98,-231.58 406.98,-197.62 406.98,-197.62 406.98,-191.62 412.98,-185.62 418.98,-185.62 418.98,-185.62 603.39,-185.62 603.39,-185.62 609.39,-185.62 615.39,-191.62 615.39,-197.62 615.39,-197.62 615.39,-231.58 615.39,-231.58 615.39,-237.58 609.39,-243.58 603.39,-243.58"/>
<text xml:space="preserve" text-anchor="start" x="417.06" y="-227.6" font-family="Helvetica,sans-Serif" font-size="10.00">THIRD&#45;LINE THERAPY</text>
<text xml:space="preserve" text-anchor="start" x="417.06" y="-216.35" font-family="Helvetica,sans-Serif" font-size="10.00">• Clinical trial</text>
<text xml:space="preserve" text-anchor="start" x="417.06" y="-205.1" font-family="Helvetica,sans-Serif" font-size="10.00">• High&#45;dose chemotherapy (preferred)</text>
<text xml:space="preserve" text-anchor="start" x="417.06" y="-193.85" font-family="Helvetica,sans-Serif" font-size="10.00">• Consider surgical treatment if solitary site</text>
</g>
<!-- conv&#45;&gt;conv_tx -->
<g id="edge4" class="edge">
<title>conv&#45;&gt;conv_tx</title>
<path fill="none" stroke="black" d="M344.47,-203.19C360.84,-204.32 378.34,-205.53 395.61,-206.72"/>
<polygon fill="black" stroke="black" points="395.18,-210.19 405.4,-207.39 395.66,-203.21 395.18,-210.19"/>
</g>
<!-- hd_tx -->
<g id="node6" class="node">
<title>hd_tx</title>
<path fill="#d5f5e3" stroke="black" d="M619.14,-167.83C619.14,-167.83 403.23,-167.83 403.23,-167.83 397.23,-167.83 391.23,-161.83 391.23,-155.83 391.23,-155.83 391.23,-99.38 391.23,-99.38 391.23,-93.38 397.23,-87.38 403.23,-87.38 403.23,-87.38 619.14,-87.38 619.14,-87.38 625.14,-87.38 631.14,-93.38 631.14,-99.38 631.14,-99.38 631.14,-155.83 631.14,-155.83 631.14,-161.83 625.14,-167.83 619.14,-167.83"/>
<text xml:space="preserve" text-anchor="start" x="401.31" y="-151.85" font-family="Helvetica,sans-Serif" font-size="10.00">THIRD&#45;LINE THERAPY</text>
<text xml:space="preserve" text-anchor="start" x="401.31" y="-140.6" font-family="Helvetica,sans-Serif" font-size="10.00">• Clinical trial (preferred)</text>
<text xml:space="preserve" text-anchor="start" x="401.31" y="-129.35" font-family="Helvetica,sans-Serif" font-size="10.00">• Conventional&#45;dose third&#45;line chemotherapy</text>
<text xml:space="preserve" text-anchor="start" x="401.31" y="-118.1" font-family="Helvetica,sans-Serif" font-size="10.00">• Consider surgical treatment if solitary site</text>
<text xml:space="preserve" text-anchor="start" x="401.31" y="-106.85" font-family="Helvetica,sans-Serif" font-size="10.00">• Molecular testing (MSI/MMR, TMB; NGS + IHC)</text>
<text xml:space="preserve" text-anchor="start" x="401.31" y="-95.6" font-family="Helvetica,sans-Serif" font-size="10.00"> &#160;for biomarker&#45;driven therapy if progression</text>
</g>
<!-- hd&#45;&gt;hd_tx -->
<g id="edge5" class="edge">
<title>hd&#45;&gt;hd_tx</title>
<path fill="none" stroke="black" d="M337.7,-127.6C351.16,-127.6 365.56,-127.6 380.07,-127.6"/>
<polygon fill="black" stroke="black" points="379.67,-131.11 389.67,-127.61 379.67,-124.11 379.67,-131.11"/>
</g>
<!-- late_tx -->
<g id="node7" class="node">
<title>late_tx</title>
<path fill="#d5f5e3" stroke="black" d="M630.39,-69.21C630.39,-69.21 391.98,-69.21 391.98,-69.21 385.98,-69.21 379.98,-63.21 379.98,-57.21 379.98,-57.21 379.98,-12 379.98,-12 379.98,-6 385.98,0 391.98,0 391.98,0 630.39,0 630.39,0 636.39,0 642.39,-6 642.39,-12 642.39,-12 642.39,-57.21 642.39,-57.21 642.39,-63.21 636.39,-69.21 630.39,-69.21"/>
<text xml:space="preserve" text-anchor="start" x="390.06" y="-53.23" font-family="Helvetica,sans-Serif" font-size="10.00">THIRD&#45;LINE THERAPY</text>
<text xml:space="preserve" text-anchor="start" x="390.06" y="-41.98" font-family="Helvetica,sans-Serif" font-size="10.00">• Surgical treatment if resectable (preferred)</text>
<text xml:space="preserve" text-anchor="start" x="390.06" y="-30.73" font-family="Helvetica,sans-Serif" font-size="10.00">• Chemotherapy:</text>
<text xml:space="preserve" text-anchor="start" x="390.06" y="-19.48" font-family="Helvetica,sans-Serif" font-size="10.00"> &#160;&#160;‣ Conventional&#45;dose therapy</text>
<text xml:space="preserve" text-anchor="start" x="390.06" y="-8.23" font-family="Helvetica,sans-Serif" font-size="10.00"> &#160;&#160;‣ High&#45;dose chemotherapy (if not previously received)</text>
</g>
<!-- late&#45;&gt;late_tx -->
<g id="edge6" class="edge">
<title>late&#45;&gt;late_tx</title>
<path fill="none" stroke="black" d="M340.73,-48.33C349.67,-47.61 358.99,-46.85 368.46,-46.09"/>
<polygon fill="black" stroke="black" points="368.44,-49.6 378.12,-45.3 367.87,-42.62 368.44,-49.6"/>
</g>
<!-- note -->
<g id="node8" class="node">
<title>note</title>
<polygon fill="#fef9e7" stroke="black" points="1038.3,-55.71 678.39,-55.71 678.39,-13.5 1044.3,-13.5 1044.3,-49.71 1038.3,-55.71"/>
<polyline fill="none" stroke="black" points="1038.3,-55.71 1038.3,-49.71"/>
<polyline fill="none" stroke="black" points="1044.3,-49.71 1038.3,-49.71"/>
<text xml:space="preserve" text-anchor="middle" x="861.35" y="-40.68" font-family="Helvetica,sans-Serif" font-size="9.00">Third&#45;line systemic regimens: TEST&#45;G. Pan&#45;cancer/tumor&#45;agnostic treatments may be</text>
<text xml:space="preserve" text-anchor="middle" x="861.35" y="-30.93" font-family="Helvetica,sans-Serif" font-size="9.00">considered for actionable mutations. Includes best supportive/palliative care.</text>
<text xml:space="preserve" text-anchor="middle" x="861.35" y="-21.18" font-family="Helvetica,sans-Serif" font-size="9.00">Preferably treat at a center with expertise.</text>
</g>
</g>
</svg>
