<?xml version="1.0" encoding="UTF-8" standalone="no"?>
<!DOCTYPE svg PUBLIC "-//W3C//DTD SVG 1.1//EN"
 "http://www.w3.org/Graphics/SVG/1.1/DTD/svg11.dtd">
<!-- Generated by graphviz version 15.0.0 (20260523.1842)
 -->
<!-- Title: NSEM7 Pages: 1 -->
<svg width="2279pt" height="339pt"
 viewBox="0.00 0.00 2279.00 339.00" xmlns="http://www.w3.org/2000/svg" xmlns:xlink="http://www.w3.org/1999/xlink">
<g id="graph0" class="graph" transform="scale(1 1) rotate(0) translate(4 335.02)">
<title>NSEM7</title>
<polygon fill="white" stroke="none" points="-4,4 -4,-335.02 2275.45,-335.02 2275.45,4 -4,4"/>
<text xml:space="preserve" text-anchor="middle" x="1135.73" y="-313.72" font-family="Helvetica,sans-Serif" font-weight="bold" font-size="14.00">NSEM&#45;7 · Nonseminoma — Response After Primary Treatment (residual masses)</text>
<!-- a -->
<g id="node1" class="node">
<title>a</title>
<path fill="#f9e79f" stroke="black" d="M455.18,-308.02C455.18,-308.02 311.21,-308.02 311.21,-308.02 305.21,-308.02 299.21,-302.02 299.21,-296.02 299.21,-296.02 299.21,-284.02 299.21,-284.02 299.21,-278.02 305.21,-272.02 311.21,-272.02 311.21,-272.02 455.18,-272.02 455.18,-272.02 461.18,-272.02 467.18,-278.02 467.18,-284.02 467.18,-284.02 467.18,-296.02 467.18,-296.02 467.18,-302.02 461.18,-308.02 455.18,-308.02"/>
<text xml:space="preserve" text-anchor="middle" x="383.19" y="-291.77" font-family="Helvetica,sans-Serif" font-size="10.00">Partial response, residual masses</text>
<text xml:space="preserve" text-anchor="middle" x="383.19" y="-280.52" font-family="Helvetica,sans-Serif" font-size="10.00">with NORMAL AFP and beta&#45;hCG</text>
</g>
<!-- a_surg -->
<g id="node2" class="node">
<title>a_surg</title>
<path fill="#d5f5e3" stroke="black" d="M697.01,-300.02C697.01,-300.02 613.04,-300.02 613.04,-300.02 607.04,-300.02 601.04,-294.02 601.04,-288.02 601.04,-288.02 601.04,-276.02 601.04,-276.02 601.04,-270.02 607.04,-264.02 613.04,-264.02 613.04,-264.02 697.01,-264.02 697.01,-264.02 703.01,-264.02 709.01,-270.02 709.01,-276.02 709.01,-276.02 709.01,-288.02 709.01,-288.02 709.01,-294.02 703.01,-300.02 697.01,-300.02"/>
<text xml:space="preserve" text-anchor="middle" x="655.02" y="-283.77" font-family="Helvetica,sans-Serif" font-size="10.00">Surgical resection of</text>
<text xml:space="preserve" text-anchor="middle" x="655.02" y="-272.52" font-family="Helvetica,sans-Serif" font-size="10.00">all residual masses</text>
</g>
<!-- a&#45;&gt;a_surg -->
<g id="edge1" class="edge">
<title>a&#45;&gt;a_surg</title>
<path fill="none" stroke="black" d="M467.35,-287.55C506.78,-286.39 553.17,-285.01 589.84,-283.92"/>
<polygon fill="black" stroke="black" points="589.48,-287.44 599.37,-283.64 589.27,-280.44 589.48,-287.44"/>
</g>
<!-- a_ter -->
<g id="node3" class="node">
<title>a_ter</title>
<path fill="#fcf3cf" stroke="black" d="M949.54,-297.91C949.54,-297.91 872.54,-284.13 872.54,-284.13 866.63,-283.08 866.63,-280.96 872.54,-279.91 872.54,-279.91 949.54,-266.13 949.54,-266.13 955.44,-265.08 967.26,-265.08 973.16,-266.13 973.16,-266.13 1050.16,-279.91 1050.16,-279.91 1056.07,-280.96 1056.07,-283.08 1050.16,-284.13 1050.16,-284.13 973.16,-297.91 973.16,-297.91 967.26,-298.96 955.44,-298.96 949.54,-297.91"/>
<text xml:space="preserve" text-anchor="middle" x="961.35" y="-278.14" font-family="Helvetica,sans-Serif" font-size="10.00">Teratoma or necrosis</text>
</g>
<!-- a_surg&#45;&gt;a_ter -->
<g id="edge2" class="edge">
<title>a_surg&#45;&gt;a_ter</title>
<path fill="none" stroke="black" d="M709.38,-282.02C747.33,-282.02 799.74,-282.02 846.85,-282.02"/>
<polygon fill="black" stroke="black" points="846.55,-285.52 856.55,-282.02 846.55,-278.52 846.55,-285.52"/>
</g>
<!-- a_res -->
<g id="node4" class="node">
<title>a_res</title>
<path fill="#fcf3cf" stroke="black" d="M949.54,-243.92C949.54,-243.92 783.44,-214.14 783.44,-214.14 777.54,-213.08 777.54,-210.96 783.44,-209.9 783.44,-209.9 949.54,-180.12 949.54,-180.12 955.44,-179.06 967.26,-179.06 973.16,-180.12 973.16,-180.12 1139.26,-209.9 1139.26,-209.9 1145.16,-210.96 1145.16,-213.08 1139.26,-214.14 1139.26,-214.14 973.16,-243.92 973.16,-243.92 967.26,-244.98 955.44,-244.98 949.54,-243.92"/>
<text xml:space="preserve" text-anchor="middle" x="961.35" y="-213.77" font-family="Helvetica,sans-Serif" font-size="10.00">Residual embryonal, yolk sac,</text>
<text xml:space="preserve" text-anchor="middle" x="961.35" y="-202.52" font-family="Helvetica,sans-Serif" font-size="10.00">choriocarcinoma, or seminoma element</text>
</g>
<!-- a_surg&#45;&gt;a_res -->
<g id="edge3" class="edge">
<title>a_surg&#45;&gt;a_res</title>
<path fill="none" stroke="black" d="M709.25,-269.53C728.85,-264.94 751.24,-259.72 771.63,-255.02 801.96,-248.02 835.05,-240.46 864.93,-233.66"/>
<polygon fill="black" stroke="black" points="865.33,-237.16 874.3,-231.52 863.77,-230.33 865.33,-237.16"/>
</g>
<!-- a_ter_tx -->
<g id="node5" class="node">
<title>a_ter_tx</title>
<path fill="#d5f5e3" stroke="black" d="M1293.17,-291.02C1293.17,-291.02 1245.2,-291.02 1245.2,-291.02 1239.2,-291.02 1233.2,-285.02 1233.2,-279.02 1233.2,-279.02 1233.2,-267.02 1233.2,-267.02 1233.2,-261.02 1239.2,-255.02 1245.2,-255.02 1245.2,-255.02 1293.17,-255.02 1293.17,-255.02 1299.17,-255.02 1305.17,-261.02 1305.17,-267.02 1305.17,-267.02 1305.17,-279.02 1305.17,-279.02 1305.17,-285.02 1299.17,-291.02 1293.17,-291.02"/>
<text xml:space="preserve" text-anchor="middle" x="1269.18" y="-269.14" font-family="Helvetica,sans-Serif" font-size="10.00">Surveillance</text>
</g>
<!-- a_ter&#45;&gt;a_ter_tx -->
<g id="edge4" class="edge">
<title>a_ter&#45;&gt;a_ter_tx</title>
<path fill="none" stroke="black" d="M1049.99,-279.44C1105.85,-277.8 1176.01,-275.73 1221.45,-274.4"/>
<polygon fill="black" stroke="black" points="1221.33,-277.9 1231.22,-274.11 1221.12,-270.9 1221.33,-277.9"/>
</g>
<!-- a_res_tx -->
<g id="node6" class="node">
<title>a_res_tx</title>
<path fill="#d5f5e3" stroke="black" d="M1339.29,-228.65C1339.29,-228.65 1199.07,-228.65 1199.07,-228.65 1193.07,-228.65 1187.07,-222.65 1187.07,-216.65 1187.07,-216.65 1187.07,-195.38 1187.07,-195.38 1187.07,-189.38 1193.07,-183.38 1199.07,-183.38 1199.07,-183.38 1339.29,-183.38 1339.29,-183.38 1345.29,-183.38 1351.29,-189.38 1351.29,-195.38 1351.29,-195.38 1351.29,-216.65 1351.29,-216.65 1351.29,-222.65 1345.29,-228.65 1339.29,-228.65"/>
<text xml:space="preserve" text-anchor="middle" x="1269.18" y="-213.39" font-family="Helvetica,sans-Serif" font-size="10.00">Chemotherapy × 2 cycles</text>
<text xml:space="preserve" text-anchor="middle" x="1269.18" y="-202.14" font-family="Helvetica,sans-Serif" font-size="10.00">(EP or TIP or VIP or VeIP)</text>
<text xml:space="preserve" text-anchor="middle" x="1269.18" y="-190.89" font-family="Helvetica,sans-Serif" font-size="10.00">or Surveillance for select patients</text>
</g>
<!-- a_res&#45;&gt;a_res_tx -->
<g id="edge5" class="edge">
<title>a_res&#45;&gt;a_res_tx</title>
<path fill="none" stroke="black" d="M1134.93,-208.63C1148.87,-208.36 1162.58,-208.09 1175.6,-207.84"/>
<polygon fill="black" stroke="black" points="1175.41,-211.34 1185.34,-207.65 1175.27,-204.34 1175.41,-211.34"/>
</g>
<!-- fu10 -->
<g id="node18" class="node">
<title>fu10</title>
<path fill="#fdebd0" stroke="black" stroke-dasharray="5,2" d="M1536.51,-168.02C1536.51,-168.02 1399.29,-168.02 1399.29,-168.02 1393.29,-168.02 1387.29,-162.02 1387.29,-156.02 1387.29,-156.02 1387.29,-144.02 1387.29,-144.02 1387.29,-138.02 1393.29,-132.02 1399.29,-132.02 1399.29,-132.02 1536.51,-132.02 1536.51,-132.02 1542.51,-132.02 1548.51,-138.02 1548.51,-144.02 1548.51,-144.02 1548.51,-156.02 1548.51,-156.02 1548.51,-162.02 1542.51,-168.02 1536.51,-168.02"/>
<text xml:space="preserve" text-anchor="middle" x="1467.9" y="-146.14" font-family="Helvetica,sans-Serif" font-size="10.00">Follow&#45;up Table 10 (TEST&#45;B 2/3)</text>
</g>
<!-- a_ter_tx&#45;&gt;fu10 -->
<g id="edge16" class="edge">
<title>a_ter_tx&#45;&gt;fu10</title>
<path fill="none" stroke="black" d="M1305.42,-260C1320.01,-254.05 1336.86,-246.46 1351.29,-238.02 1382.49,-219.78 1414.97,-194.4 1437.54,-175.58"/>
<polygon fill="black" stroke="black" points="1439.73,-178.31 1445.11,-169.18 1435.21,-172.96 1439.73,-178.31"/>
</g>
<!-- a_res_tx&#45;&gt;fu10 -->
<g id="edge17" class="edge">
<title>a_res_tx&#45;&gt;fu10</title>
<path fill="none" stroke="black" d="M1351.33,-182.92C1364.56,-179.15 1378.22,-175.27 1391.31,-171.54"/>
<polygon fill="black" stroke="black" points="1392.03,-174.97 1400.69,-168.87 1390.11,-168.24 1392.03,-174.97"/>
</g>
<!-- b -->
<g id="node7" class="node">
<title>b</title>
<path fill="#f9e79f" stroke="black" d="M179.97,-152.02C179.97,-152.02 12,-152.02 12,-152.02 6,-152.02 0,-146.02 0,-140.02 0,-140.02 0,-128.02 0,-128.02 0,-122.02 6,-116.02 12,-116.02 12,-116.02 179.97,-116.02 179.97,-116.02 185.97,-116.02 191.97,-122.02 191.97,-128.02 191.97,-128.02 191.97,-140.02 191.97,-140.02 191.97,-146.02 185.97,-152.02 179.97,-152.02"/>
<text xml:space="preserve" text-anchor="middle" x="95.99" y="-135.77" font-family="Helvetica,sans-Serif" font-size="10.00">Partial response, residual masses</text>
<text xml:space="preserve" text-anchor="middle" x="95.99" y="-124.52" font-family="Helvetica,sans-Serif" font-size="10.00">with ABNORMAL AFP and/or beta&#45;hCG</text>
</g>
<!-- b_rising -->
<g id="node8" class="node">
<title>b_rising</title>
<path fill="#fcf3cf" stroke="black" d="M371.7,-250.59C371.7,-250.59 281.46,-223.47 281.46,-223.47 275.72,-221.75 275.72,-218.29 281.46,-216.57 281.46,-216.57 371.7,-189.45 371.7,-189.45 377.44,-187.73 388.94,-187.73 394.68,-189.45 394.68,-189.45 484.92,-216.57 484.92,-216.57 490.66,-218.29 490.66,-221.75 484.92,-223.47 484.92,-223.47 394.68,-250.59 394.68,-250.59 388.94,-252.31 377.44,-252.31 371.7,-250.59"/>
<text xml:space="preserve" text-anchor="middle" x="383.19" y="-221.77" font-family="Helvetica,sans-Serif" font-size="10.00">Elevated and rising</text>
<text xml:space="preserve" text-anchor="middle" x="383.19" y="-210.52" font-family="Helvetica,sans-Serif" font-size="10.00">AFP and/or beta&#45;hCG</text>
</g>
<!-- b&#45;&gt;b_rising -->
<g id="edge6" class="edge">
<title>b&#45;&gt;b_rising</title>
<path fill="none" stroke="black" d="M151.3,-152.46C174.8,-160.28 202.66,-169.34 227.97,-177.02 254.97,-185.21 284.8,-193.67 310.98,-200.89"/>
<polygon fill="black" stroke="black" points="309.92,-204.23 320.49,-203.5 311.78,-197.48 309.92,-204.23"/>
</g>
<!-- b_stable -->
<g id="node9" class="node">
<title>b_stable</title>
<path fill="#fcf3cf" stroke="black" d="M371.7,-164.59C371.7,-164.59 281.46,-137.47 281.46,-137.47 275.72,-135.75 275.72,-132.29 281.46,-130.57 281.46,-130.57 371.7,-103.45 371.7,-103.45 377.44,-101.73 388.94,-101.73 394.68,-103.45 394.68,-103.45 484.92,-130.57 484.92,-130.57 490.66,-132.29 490.66,-135.75 484.92,-137.47 484.92,-137.47 394.68,-164.59 394.68,-164.59 388.94,-166.31 377.44,-166.31 371.7,-164.59"/>
<text xml:space="preserve" text-anchor="middle" x="383.19" y="-135.77" font-family="Helvetica,sans-Serif" font-size="10.00">Elevated but stable</text>
<text xml:space="preserve" text-anchor="middle" x="383.19" y="-124.52" font-family="Helvetica,sans-Serif" font-size="10.00">AFP and/or beta&#45;hCG</text>
</g>
<!-- b&#45;&gt;b_stable -->
<g id="edge7" class="edge">
<title>b&#45;&gt;b_stable</title>
<path fill="none" stroke="black" d="M192.35,-134.02C213.1,-134.02 235.36,-134.02 257.07,-134.02"/>
<polygon fill="black" stroke="black" points="256.85,-137.52 266.85,-134.02 256.85,-130.52 256.85,-137.52"/>
</g>
<!-- b_norm -->
<g id="node10" class="node">
<title>b_norm</title>
<path fill="#fcf3cf" stroke="black" d="M371.47,-79.47C371.47,-79.47 239.69,-50.59 239.69,-50.59 233.83,-49.3 233.83,-46.74 239.69,-45.45 239.69,-45.45 371.47,-16.57 371.47,-16.57 377.33,-15.28 389.05,-15.28 394.91,-16.57 394.91,-16.57 526.69,-45.45 526.69,-45.45 532.55,-46.74 532.55,-49.3 526.69,-50.59 526.69,-50.59 394.91,-79.47 394.91,-79.47 389.05,-80.76 377.33,-80.76 371.47,-79.47"/>
<text xml:space="preserve" text-anchor="middle" x="383.19" y="-49.77" font-family="Helvetica,sans-Serif" font-size="10.00">Mildly elevated and normalizing</text>
<text xml:space="preserve" text-anchor="middle" x="383.19" y="-38.52" font-family="Helvetica,sans-Serif" font-size="10.00">AFP and/or beta&#45;hCG</text>
</g>
<!-- b&#45;&gt;b_norm -->
<g id="edge8" class="edge">
<title>b&#45;&gt;b_norm</title>
<path fill="none" stroke="black" d="M151.3,-115.58C174.8,-107.76 202.66,-98.7 227.97,-91.02 251.62,-83.84 277.45,-76.47 301.09,-69.89"/>
<polygon fill="black" stroke="black" points="301.97,-73.28 310.68,-67.24 300.1,-66.53 301.97,-73.28"/>
</g>
<!-- b_rising_tx -->
<g id="node11" class="node">
<title>b_rising_tx</title>
<path fill="#f5b7b1" stroke="black" d="M723.63,-238.02C723.63,-238.02 586.41,-238.02 586.41,-238.02 580.41,-238.02 574.41,-232.02 574.41,-226.02 574.41,-226.02 574.41,-214.02 574.41,-214.02 574.41,-208.02 580.41,-202.02 586.41,-202.02 586.41,-202.02 723.63,-202.02 723.63,-202.02 729.63,-202.02 735.63,-208.02 735.63,-214.02 735.63,-214.02 735.63,-226.02 735.63,-226.02 735.63,-232.02 729.63,-238.02 723.63,-238.02"/>
<text xml:space="preserve" text-anchor="middle" x="655.02" y="-221.77" font-family="Helvetica,sans-Serif" font-size="10.00">Second&#45;Line Therapy (TEST&#45;F)</text>
<text xml:space="preserve" text-anchor="middle" x="655.02" y="-210.52" font-family="Helvetica,sans-Serif" font-size="10.00">or Surgery in highly select cases</text>
</g>
<!-- b_rising&#45;&gt;b_rising_tx -->
<g id="edge9" class="edge">
<title>b_rising&#45;&gt;b_rising_tx</title>
<path fill="none" stroke="black" d="M497.84,-220.02C519.47,-220.02 541.85,-220.02 562.68,-220.02"/>
<polygon fill="black" stroke="black" points="562.56,-223.52 572.56,-220.02 562.56,-216.52 562.56,-223.52"/>
</g>
<!-- b_stable_tx -->
<g id="node12" class="node">
<title>b_stable_tx</title>
<path fill="#d5f5e3" stroke="black" d="M723.63,-160.02C723.63,-160.02 586.41,-160.02 586.41,-160.02 580.41,-160.02 574.41,-154.02 574.41,-148.02 574.41,-148.02 574.41,-136.02 574.41,-136.02 574.41,-130.02 580.41,-124.02 586.41,-124.02 586.41,-124.02 723.63,-124.02 723.63,-124.02 729.63,-124.02 735.63,-130.02 735.63,-136.02 735.63,-136.02 735.63,-148.02 735.63,-148.02 735.63,-154.02 729.63,-160.02 723.63,-160.02"/>
<text xml:space="preserve" text-anchor="middle" x="655.02" y="-143.77" font-family="Helvetica,sans-Serif" font-size="10.00">Close surveillance</text>
<text xml:space="preserve" text-anchor="middle" x="655.02" y="-132.52" font-family="Helvetica,sans-Serif" font-size="10.00">or Surgery in highly select cases</text>
</g>
<!-- b_stable&#45;&gt;b_stable_tx -->
<g id="edge10" class="edge">
<title>b_stable&#45;&gt;b_stable_tx</title>
<path fill="none" stroke="black" d="M487.74,-137.09C512.5,-137.82 538.76,-138.6 562.91,-139.32"/>
<polygon fill="black" stroke="black" points="562.6,-142.81 572.7,-139.61 562.81,-135.81 562.6,-142.81"/>
</g>
<!-- b_norm_surg -->
<g id="node13" class="node">
<title>b_norm_surg</title>
<path fill="#d5f5e3" stroke="black" d="M711.63,-66.02C711.63,-66.02 598.41,-66.02 598.41,-66.02 592.41,-66.02 586.41,-60.02 586.41,-54.02 586.41,-54.02 586.41,-42.02 586.41,-42.02 586.41,-36.02 592.41,-30.02 598.41,-30.02 598.41,-30.02 711.63,-30.02 711.63,-30.02 717.63,-30.02 723.63,-36.02 723.63,-42.02 723.63,-42.02 723.63,-54.02 723.63,-54.02 723.63,-60.02 717.63,-66.02 711.63,-66.02"/>
<text xml:space="preserve" text-anchor="middle" x="655.02" y="-49.77" font-family="Helvetica,sans-Serif" font-size="10.00">Consider surgical resection</text>
<text xml:space="preserve" text-anchor="middle" x="655.02" y="-38.52" font-family="Helvetica,sans-Serif" font-size="10.00">of all residual masses</text>
</g>
<!-- b_norm&#45;&gt;b_norm_surg -->
<g id="edge11" class="edge">
<title>b_norm&#45;&gt;b_norm_surg</title>
<path fill="none" stroke="black" d="M540.37,-48.02C552.22,-48.02 563.85,-48.02 574.87,-48.02"/>
<polygon fill="black" stroke="black" points="574.61,-51.52 584.61,-48.02 574.61,-44.52 574.61,-51.52"/>
</g>
<!-- b_stable_tx&#45;&gt;fu10 -->
<g id="edge18" class="edge">
<title>b_stable_tx&#45;&gt;fu10</title>
<path fill="none" stroke="black" d="M735.99,-142.81C887.58,-144.3 1215.85,-147.54 1375.72,-149.12"/>
<polygon fill="black" stroke="black" points="1375.38,-152.62 1385.42,-149.22 1375.45,-145.62 1375.38,-152.62"/>
</g>
<!-- b_ter -->
<g id="node14" class="node">
<title>b_ter</title>
<path fill="#fcf3cf" stroke="black" d="M949.54,-119.91C949.54,-119.91 872.54,-106.13 872.54,-106.13 866.63,-105.08 866.63,-102.96 872.54,-101.91 872.54,-101.91 949.54,-88.13 949.54,-88.13 955.44,-87.08 967.26,-87.08 973.16,-88.13 973.16,-88.13 1050.16,-101.91 1050.16,-101.91 1056.07,-102.96 1056.07,-105.08 1050.16,-106.13 1050.16,-106.13 973.16,-119.91 973.16,-119.91 967.26,-120.96 955.44,-120.96 949.54,-119.91"/>
<text xml:space="preserve" text-anchor="middle" x="961.35" y="-100.14" font-family="Helvetica,sans-Serif" font-size="10.00">Teratoma or necrosis</text>
</g>
<!-- b_norm_surg&#45;&gt;b_ter -->
<g id="edge12" class="edge">
<title>b_norm_surg&#45;&gt;b_ter</title>
<path fill="none" stroke="black" d="M723.92,-66.3C739.52,-70.15 756.1,-73.97 771.63,-77.02 809.58,-84.47 852.21,-90.75 887.33,-95.37"/>
<polygon fill="black" stroke="black" points="886.59,-98.8 896.96,-96.61 887.49,-91.86 886.59,-98.8"/>
</g>
<!-- b_res -->
<g id="node15" class="node">
<title>b_res</title>
<path fill="#fcf3cf" stroke="black" d="M949.54,-65.92C949.54,-65.92 783.44,-36.14 783.44,-36.14 777.54,-35.08 777.54,-32.96 783.44,-31.9 783.44,-31.9 949.54,-2.12 949.54,-2.12 955.44,-1.06 967.26,-1.06 973.16,-2.12 973.16,-2.12 1139.26,-31.9 1139.26,-31.9 1145.16,-32.96 1145.16,-35.08 1139.26,-36.14 1139.26,-36.14 973.16,-65.92 973.16,-65.92 967.26,-66.98 955.44,-66.98 949.54,-65.92"/>
<text xml:space="preserve" text-anchor="middle" x="961.35" y="-35.77" font-family="Helvetica,sans-Serif" font-size="10.00">Residual embryonal, yolk sac,</text>
<text xml:space="preserve" text-anchor="middle" x="961.35" y="-24.52" font-family="Helvetica,sans-Serif" font-size="10.00">choriocarcinoma, or seminoma element</text>
</g>
<!-- b_norm_surg&#45;&gt;b_res -->
<g id="edge13" class="edge">
<title>b_norm_surg&#45;&gt;b_res</title>
<path fill="none" stroke="black" d="M723.94,-44.9C745.76,-43.89 770.96,-42.73 796.6,-41.55"/>
<polygon fill="black" stroke="black" points="796.66,-45.05 806.49,-41.1 796.34,-38.06 796.66,-45.05"/>
</g>
<!-- b_ter_tx -->
<g id="node16" class="node">
<title>b_ter_tx</title>
<path fill="#d5f5e3" stroke="black" d="M1293.17,-122.02C1293.17,-122.02 1245.2,-122.02 1245.2,-122.02 1239.2,-122.02 1233.2,-116.02 1233.2,-110.02 1233.2,-110.02 1233.2,-98.02 1233.2,-98.02 1233.2,-92.02 1239.2,-86.02 1245.2,-86.02 1245.2,-86.02 1293.17,-86.02 1293.17,-86.02 1299.17,-86.02 1305.17,-92.02 1305.17,-98.02 1305.17,-98.02 1305.17,-110.02 1305.17,-110.02 1305.17,-116.02 1299.17,-122.02 1293.17,-122.02"/>
<text xml:space="preserve" text-anchor="middle" x="1269.18" y="-100.14" font-family="Helvetica,sans-Serif" font-size="10.00">Surveillance</text>
</g>
<!-- b_ter&#45;&gt;b_ter_tx -->
<g id="edge14" class="edge">
<title>b_ter&#45;&gt;b_ter_tx</title>
<path fill="none" stroke="black" d="M1064.61,-104.02C1117.67,-104.02 1179.9,-104.02 1221.46,-104.02"/>
<polygon fill="black" stroke="black" points="1221.36,-107.52 1231.36,-104.02 1221.36,-100.52 1221.36,-107.52"/>
</g>
<!-- b_res_tx -->
<g id="node17" class="node">
<title>b_res_tx</title>
<path fill="#d5f5e3" stroke="black" d="M1339.29,-62.65C1339.29,-62.65 1199.07,-62.65 1199.07,-62.65 1193.07,-62.65 1187.07,-56.65 1187.07,-50.65 1187.07,-50.65 1187.07,-29.38 1187.07,-29.38 1187.07,-23.38 1193.07,-17.38 1199.07,-17.38 1199.07,-17.38 1339.29,-17.38 1339.29,-17.38 1345.29,-17.38 1351.29,-23.38 1351.29,-29.38 1351.29,-29.38 1351.29,-50.65 1351.29,-50.65 1351.29,-56.65 1345.29,-62.65 1339.29,-62.65"/>
<text xml:space="preserve" text-anchor="middle" x="1269.18" y="-47.39" font-family="Helvetica,sans-Serif" font-size="10.00">Chemotherapy × 2 cycles</text>
<text xml:space="preserve" text-anchor="middle" x="1269.18" y="-36.14" font-family="Helvetica,sans-Serif" font-size="10.00">(EP or TIP or VIP or VeIP)</text>
<text xml:space="preserve" text-anchor="middle" x="1269.18" y="-24.89" font-family="Helvetica,sans-Serif" font-size="10.00">or Surveillance for select patients</text>
</g>
<!-- b_res&#45;&gt;b_res_tx -->
<g id="edge15" class="edge">
<title>b_res&#45;&gt;b_res_tx</title>
<path fill="none" stroke="black" d="M1134.93,-37.41C1148.87,-37.68 1162.58,-37.95 1175.6,-38.2"/>
<polygon fill="black" stroke="black" points="1175.27,-41.7 1185.34,-38.39 1175.41,-34.7 1175.27,-41.7"/>
</g>
<!-- b_ter_tx&#45;&gt;fu10 -->
<g id="edge19" class="edge">
<title>b_ter_tx&#45;&gt;fu10</title>
<path fill="none" stroke="black" d="M1305.35,-112.24C1325.37,-116.93 1351.46,-123.03 1376.8,-128.95"/>
<polygon fill="black" stroke="black" points="1375.98,-132.35 1386.51,-131.22 1377.57,-125.54 1375.98,-132.35"/>
</g>
<!-- b_res_tx&#45;&gt;fu10 -->
<g id="edge20" class="edge">
<title>b_res_tx&#45;&gt;fu10</title>
<path fill="none" stroke="black" d="M1323.48,-63.09C1332.86,-67.5 1342.44,-72.24 1351.29,-77.02 1378.57,-91.77 1408.13,-110.48 1430.52,-125.27"/>
<polygon fill="black" stroke="black" points="1428.44,-128.08 1438.7,-130.71 1432.31,-122.26 1428.44,-128.08"/>
</g>
<!-- recur -->
<g id="node19" class="node">
<title>recur</title>
<path fill="#f5b7b1" stroke="black" d="M1729.98,-168.02C1729.98,-168.02 1596.51,-168.02 1596.51,-168.02 1590.51,-168.02 1584.51,-162.02 1584.51,-156.02 1584.51,-156.02 1584.51,-144.02 1584.51,-144.02 1584.51,-138.02 1590.51,-132.02 1596.51,-132.02 1596.51,-132.02 1729.98,-132.02 1729.98,-132.02 1735.98,-132.02 1741.98,-138.02 1741.98,-144.02 1741.98,-144.02 1741.98,-156.02 1741.98,-156.02 1741.98,-162.02 1735.98,-168.02 1729.98,-168.02"/>
<text xml:space="preserve" text-anchor="middle" x="1663.25" y="-151.77" font-family="Helvetica,sans-Serif" font-size="10.00">For recurrence, see</text>
<text xml:space="preserve" text-anchor="middle" x="1663.25" y="-140.52" font-family="Helvetica,sans-Serif" font-size="10.00">Second&#45;Line Therapy (NSEM&#45;8)</text>
</g>
<!-- fu10&#45;&gt;recur -->
<g id="edge21" class="edge">
<title>fu10&#45;&gt;recur</title>
<path fill="none" stroke="black" d="M1548.94,-150.02C1556.75,-150.02 1564.72,-150.02 1572.63,-150.02"/>
<polygon fill="black" stroke="black" points="1572.62,-153.52 1582.62,-150.02 1572.62,-146.52 1572.62,-153.52"/>
</g>
<!-- note -->
<g id="node20" class="node">
<title>note</title>
<polygon fill="#fef9e7" stroke="black" points="2265.45,-171.15 1777.98,-171.15 1777.98,-128.88 2271.45,-128.88 2271.45,-165.15 2265.45,-171.15"/>
<polyline fill="none" stroke="black" points="2265.45,-171.15 2265.45,-165.15"/>
<polyline fill="none" stroke="black" points="2271.45,-165.15 2265.45,-165.15"/>
<text xml:space="preserve" text-anchor="middle" x="2024.72" y="-156.84" font-family="Helvetica,sans-Serif" font-size="9.00">Refer to high&#45;volume center for residual masses with abnormal markers.</text>
<text xml:space="preserve" text-anchor="middle" x="2024.72" y="-147.09" font-family="Helvetica,sans-Serif" font-size="9.00">Teratoma with somatic&#45;type malignancy → histology&#45;directed therapy at high&#45;volume GCT unit.</text>
<text xml:space="preserve" text-anchor="middle" x="2024.72" y="-135.84" font-family="Helvetica,sans-Serif" font-size="9.00">Surgery in highly select cases: resectable retroperitoneal&#45;only disease, factors precluding chemo, cystic components.</text>
</g>
</g>
</svg>
