<?xml version="1.0" encoding="UTF-8" standalone="no"?>
<!DOCTYPE svg PUBLIC "-//W3C//DTD SVG 1.1//EN"
 "http://www.w3.org/Graphics/SVG/1.1/DTD/svg11.dtd">
<!-- Generated by graphviz version 15.0.0 (20260523.1842)
 -->
<!-- Title: NSEM3 Pages: 1 -->
<svg width="1550pt" height="353pt"
 viewBox="0.00 0.00 1550.00 353.00" xmlns="http://www.w3.org/2000/svg" xmlns:xlink="http://www.w3.org/1999/xlink">
<g id="graph0" class="graph" transform="scale(1 1) rotate(0) translate(4 349.02)">
<title>NSEM3</title>
<polygon fill="white" stroke="none" points="-4,4 -4,-349.02 1546.48,-349.02 1546.48,4 -4,4"/>
<text xml:space="preserve" text-anchor="middle" x="771.24" y="-327.72" font-family="Helvetica,sans-Serif" font-weight="bold" font-size="14.00">NSEM&#45;3 · Nonseminoma — Stage IIA / IIB</text>
<!-- iia -->
<g id="node1" class="node">
<title>iia</title>
<path fill="#f9e79f" stroke="black" d="M239.91,-295.02C239.91,-295.02 203.94,-295.02 203.94,-295.02 197.94,-295.02 191.94,-289.02 191.94,-283.02 191.94,-283.02 191.94,-271.02 191.94,-271.02 191.94,-265.02 197.94,-259.02 203.94,-259.02 203.94,-259.02 239.91,-259.02 239.91,-259.02 245.91,-259.02 251.91,-265.02 251.91,-271.02 251.91,-271.02 251.91,-283.02 251.91,-283.02 251.91,-289.02 245.91,-295.02 239.91,-295.02"/>
<text xml:space="preserve" text-anchor="middle" x="221.92" y="-273.14" font-family="Helvetica,sans-Serif" font-size="10.00">Stage IIA</text>
</g>
<!-- iia_neg -->
<g id="node2" class="node">
<title>iia_neg</title>
<path fill="#fcf3cf" stroke="black" d="M540.86,-265.55C540.86,-265.55 478.78,-252.49 478.78,-252.49 472.91,-251.26 472.91,-248.78 478.78,-247.55 478.78,-247.55 540.86,-234.49 540.86,-234.49 546.73,-233.26 558.47,-233.26 564.34,-234.49 564.34,-234.49 626.41,-247.55 626.41,-247.55 632.29,-248.78 632.29,-251.26 626.41,-252.49 626.41,-252.49 564.34,-265.55 564.34,-265.55 558.47,-266.78 546.73,-266.78 540.86,-265.55"/>
<text xml:space="preserve" text-anchor="middle" x="552.6" y="-246.14" font-family="Helvetica,sans-Serif" font-size="10.00">Markers negative</text>
</g>
<!-- iia&#45;&gt;iia_neg -->
<g id="edge1" class="edge">
<title>iia&#45;&gt;iia_neg</title>
<path fill="none" stroke="black" d="M252.38,-274.6C302.78,-270.46 407.01,-261.9 478.12,-256.06"/>
<polygon fill="black" stroke="black" points="478.05,-259.57 487.73,-255.27 477.48,-252.6 478.05,-259.57"/>
</g>
<!-- iia_pos -->
<g id="node3" class="node">
<title>iia_pos</title>
<path fill="#fcf3cf" stroke="black" d="M540.72,-320.32C540.72,-320.32 438.52,-305.72 438.52,-305.72 432.58,-304.87 432.58,-303.17 438.52,-302.32 438.52,-302.32 540.72,-287.72 540.72,-287.72 546.66,-286.87 558.54,-286.87 564.48,-287.72 564.48,-287.72 666.67,-302.32 666.67,-302.32 672.61,-303.17 672.61,-304.87 666.67,-305.72 666.67,-305.72 564.48,-320.32 564.48,-320.32 558.54,-321.17 546.66,-321.17 540.72,-320.32"/>
<text xml:space="preserve" text-anchor="middle" x="552.6" y="-300.14" font-family="Helvetica,sans-Serif" font-size="10.00">Persistent marker elevation</text>
</g>
<!-- iia&#45;&gt;iia_pos -->
<g id="edge2" class="edge">
<title>iia&#45;&gt;iia_pos</title>
<path fill="none" stroke="black" d="M252.38,-279.44C298.35,-283.22 389.09,-290.67 458.65,-296.38"/>
<polygon fill="black" stroke="black" points="458.3,-299.87 468.55,-297.2 458.87,-292.89 458.3,-299.87"/>
</g>
<!-- iia_rplnd -->
<g id="node4" class="node">
<title>iia_rplnd</title>
<path fill="#d5f5e3" stroke="black" d="M885.91,-268.02C885.91,-268.02 792.94,-268.02 792.94,-268.02 786.94,-268.02 780.94,-262.02 780.94,-256.02 780.94,-256.02 780.94,-244.02 780.94,-244.02 780.94,-238.02 786.94,-232.02 792.94,-232.02 792.94,-232.02 885.91,-232.02 885.91,-232.02 891.91,-232.02 897.91,-238.02 897.91,-244.02 897.91,-244.02 897.91,-256.02 897.91,-256.02 897.91,-262.02 891.91,-268.02 885.91,-268.02"/>
<text xml:space="preserve" text-anchor="middle" x="839.43" y="-246.14" font-family="Helvetica,sans-Serif" font-size="10.00">Nerve&#45;sparing RPLND</text>
</g>
<!-- iia_neg&#45;&gt;iia_rplnd -->
<g id="edge3" class="edge">
<title>iia_neg&#45;&gt;iia_rplnd</title>
<path fill="none" stroke="black" d="M640.22,-250.02C681.63,-250.02 730.52,-250.02 769.38,-250.02"/>
<polygon fill="black" stroke="black" points="769.07,-253.52 779.07,-250.02 769.07,-246.52 769.07,-253.52"/>
</g>
<!-- iia_chemo -->
<g id="node5" class="node">
<title>iia_chemo</title>
<path fill="#d5f5e3" stroke="black" d="M909.54,-214.02C909.54,-214.02 769.32,-214.02 769.32,-214.02 763.32,-214.02 757.32,-208.02 757.32,-202.02 757.32,-202.02 757.32,-190.02 757.32,-190.02 757.32,-184.02 763.32,-178.02 769.32,-178.02 769.32,-178.02 909.54,-178.02 909.54,-178.02 915.54,-178.02 921.54,-184.02 921.54,-190.02 921.54,-190.02 921.54,-202.02 921.54,-202.02 921.54,-208.02 915.54,-214.02 909.54,-214.02"/>
<text xml:space="preserve" text-anchor="middle" x="839.43" y="-197.77" font-family="Helvetica,sans-Serif" font-size="10.00">First&#45;line chemotherapy:</text>
<text xml:space="preserve" text-anchor="middle" x="839.43" y="-186.52" font-family="Helvetica,sans-Serif" font-size="10.00">BEP × 3 cycles or EP × 4 cycles</text>
</g>
<!-- iia_neg&#45;&gt;iia_chemo -->
<g id="edge4" class="edge">
<title>iia_neg&#45;&gt;iia_chemo</title>
<path fill="none" stroke="black" d="M599.05,-241.4C638.39,-233.95 696.53,-222.92 745.66,-213.61"/>
<polygon fill="black" stroke="black" points="746.31,-217.05 755.48,-211.75 745,-210.17 746.31,-217.05"/>
</g>
<!-- iia_pos_tx -->
<g id="node6" class="node">
<title>iia_pos_tx</title>
<path fill="#d5f5e3" stroke="black" d="M903.91,-322.02C903.91,-322.02 774.94,-322.02 774.94,-322.02 768.94,-322.02 762.94,-316.02 762.94,-310.02 762.94,-310.02 762.94,-298.02 762.94,-298.02 762.94,-292.02 768.94,-286.02 774.94,-286.02 774.94,-286.02 903.91,-286.02 903.91,-286.02 909.91,-286.02 915.91,-292.02 915.91,-298.02 915.91,-298.02 915.91,-310.02 915.91,-310.02 915.91,-316.02 909.91,-322.02 903.91,-322.02"/>
<text xml:space="preserve" text-anchor="middle" x="839.43" y="-300.89" font-family="Helvetica,sans-Serif" font-size="10.00">Primary Treatment → NSEM&#45;6</text>
</g>
<!-- iia_pos&#45;&gt;iia_pos_tx -->
<g id="edge5" class="edge">
<title>iia_pos&#45;&gt;iia_pos_tx</title>
<path fill="none" stroke="black" d="M681.85,-304.02C705.36,-304.02 729.4,-304.02 751.35,-304.02"/>
<polygon fill="black" stroke="black" points="751.12,-307.52 761.12,-304.02 751.12,-300.52 751.12,-307.52"/>
</g>
<!-- post5 -->
<g id="node16" class="node">
<title>post5</title>
<path fill="#eaecee" stroke="black" d="M1130.76,-214.02C1130.76,-214.02 969.54,-214.02 969.54,-214.02 963.54,-214.02 957.54,-208.02 957.54,-202.02 957.54,-202.02 957.54,-190.02 957.54,-190.02 957.54,-184.02 963.54,-178.02 969.54,-178.02 969.54,-178.02 1130.76,-178.02 1130.76,-178.02 1136.76,-178.02 1142.76,-184.02 1142.76,-190.02 1142.76,-190.02 1142.76,-202.02 1142.76,-202.02 1142.76,-208.02 1136.76,-214.02 1130.76,-214.02"/>
<text xml:space="preserve" text-anchor="middle" x="1050.15" y="-192.89" font-family="Helvetica,sans-Serif" font-size="10.00">Postsurgical Management → NSEM&#45;5</text>
</g>
<!-- iia_rplnd&#45;&gt;post5 -->
<g id="edge14" class="edge">
<title>iia_rplnd&#45;&gt;post5</title>
<path fill="none" stroke="black" d="M898.29,-235.05C919.44,-229.58 943.8,-223.28 966.68,-217.36"/>
<polygon fill="black" stroke="black" points="967.5,-220.76 976.31,-214.87 965.75,-213.98 967.5,-220.76"/>
</g>
<!-- post4 -->
<g id="node17" class="node">
<title>post4</title>
<path fill="#eaecee" stroke="black" d="M1112.76,-106.02C1112.76,-106.02 987.54,-106.02 987.54,-106.02 981.54,-106.02 975.54,-100.02 975.54,-94.02 975.54,-94.02 975.54,-82.02 975.54,-82.02 975.54,-76.02 981.54,-70.02 987.54,-70.02 987.54,-70.02 1112.76,-70.02 1112.76,-70.02 1118.76,-70.02 1124.76,-76.02 1124.76,-82.02 1124.76,-82.02 1124.76,-94.02 1124.76,-94.02 1124.76,-100.02 1118.76,-106.02 1112.76,-106.02"/>
<text xml:space="preserve" text-anchor="middle" x="1050.15" y="-90.52" font-family="Helvetica,sans-Serif" font-size="10.00">Post First&#45;Line Chemotherapy</text>
<text xml:space="preserve" text-anchor="middle" x="1050.15" y="-79.27" font-family="Helvetica,sans-Serif" font-size="10.00">Management → NSEM&#45;4</text>
</g>
<!-- iia_chemo&#45;&gt;post4 -->
<g id="edge16" class="edge">
<title>iia_chemo&#45;&gt;post4</title>
<path fill="none" stroke="black" d="M901.31,-177.57C908.23,-174.94 915.1,-172.08 921.54,-169.02 954.81,-153.22 989.96,-130.39 1014.93,-113"/>
<polygon fill="black" stroke="black" points="1016.91,-115.88 1023.07,-107.26 1012.88,-110.16 1016.91,-115.88"/>
</g>
<!-- iib -->
<g id="node7" class="node">
<title>iib</title>
<path fill="#f9e79f" stroke="black" d="M47.97,-173.02C47.97,-173.02 12,-173.02 12,-173.02 6,-173.02 0,-167.02 0,-161.02 0,-161.02 0,-149.02 0,-149.02 0,-143.02 6,-137.02 12,-137.02 12,-137.02 47.97,-137.02 47.97,-137.02 53.97,-137.02 59.97,-143.02 59.97,-149.02 59.97,-149.02 59.97,-161.02 59.97,-161.02 59.97,-167.02 53.97,-173.02 47.97,-173.02"/>
<text xml:space="preserve" text-anchor="middle" x="29.98" y="-151.14" font-family="Helvetica,sans-Serif" font-size="10.00">Stage IIB</text>
</g>
<!-- iib_neg -->
<g id="node8" class="node">
<title>iib_neg</title>
<path fill="#fcf3cf" stroke="black" d="M210.18,-135.55C210.18,-135.55 148.11,-122.49 148.11,-122.49 142.24,-121.26 142.24,-118.78 148.11,-117.55 148.11,-117.55 210.18,-104.49 210.18,-104.49 216.05,-103.26 227.8,-103.26 233.67,-104.49 233.67,-104.49 295.74,-117.55 295.74,-117.55 301.61,-118.78 301.61,-121.26 295.74,-122.49 295.74,-122.49 233.67,-135.55 233.67,-135.55 227.8,-136.78 216.05,-136.78 210.18,-135.55"/>
<text xml:space="preserve" text-anchor="middle" x="221.92" y="-116.14" font-family="Helvetica,sans-Serif" font-size="10.00">Markers negative</text>
</g>
<!-- iib&#45;&gt;iib_neg -->
<g id="edge6" class="edge">
<title>iib&#45;&gt;iib_neg</title>
<path fill="none" stroke="black" d="M60.25,-149.63C87.64,-144.58 129.34,-136.9 163.39,-130.62"/>
<polygon fill="black" stroke="black" points="163.93,-134.08 173.13,-128.83 162.66,-127.2 163.93,-134.08"/>
</g>
<!-- iib_pos -->
<g id="node9" class="node">
<title>iib_pos</title>
<path fill="#fcf3cf" stroke="black" d="M210.05,-198.32C210.05,-198.32 107.85,-183.72 107.85,-183.72 101.91,-182.87 101.91,-181.17 107.85,-180.32 107.85,-180.32 210.05,-165.72 210.05,-165.72 215.99,-164.87 227.86,-164.87 233.8,-165.72 233.8,-165.72 336,-180.32 336,-180.32 341.94,-181.17 341.94,-182.87 336,-183.72 336,-183.72 233.8,-198.32 233.8,-198.32 227.86,-199.17 215.99,-199.17 210.05,-198.32"/>
<text xml:space="preserve" text-anchor="middle" x="221.92" y="-178.14" font-family="Helvetica,sans-Serif" font-size="10.00">Persistent marker elevation</text>
</g>
<!-- iib&#45;&gt;iib_pos -->
<g id="edge7" class="edge">
<title>iib&#45;&gt;iib_pos</title>
<path fill="none" stroke="black" d="M60.25,-159.18C82.95,-162.41 115.47,-167.03 145.32,-171.27"/>
<polygon fill="black" stroke="black" points="144.72,-174.72 155.11,-172.66 145.7,-167.79 144.72,-174.72"/>
</g>
<!-- iib_within -->
<g id="node10" class="node">
<title>iib_within</title>
<path fill="#fcf3cf" stroke="black" d="M540.88,-151.45C540.88,-151.45 410.6,-122.61 410.6,-122.61 404.74,-121.32 404.74,-118.72 410.6,-117.43 410.6,-117.43 540.88,-88.59 540.88,-88.59 546.74,-87.3 558.46,-87.3 564.32,-88.59 564.32,-88.59 694.6,-117.43 694.6,-117.43 700.46,-118.72 700.46,-121.32 694.6,-122.61 694.6,-122.61 564.32,-151.45 564.32,-151.45 558.46,-152.74 546.74,-152.74 540.88,-151.45"/>
<text xml:space="preserve" text-anchor="middle" x="552.6" y="-121.77" font-family="Helvetica,sans-Serif" font-size="10.00">Lymph node metastases within</text>
<text xml:space="preserve" text-anchor="middle" x="552.6" y="-110.52" font-family="Helvetica,sans-Serif" font-size="10.00">lymphatic drainage sites</text>
</g>
<!-- iib_neg&#45;&gt;iib_within -->
<g id="edge8" class="edge">
<title>iib_neg&#45;&gt;iib_within</title>
<path fill="none" stroke="black" d="M309.71,-120.02C333.17,-120.02 359.38,-120.02 385.63,-120.02"/>
<polygon fill="black" stroke="black" points="385.37,-123.52 395.37,-120.02 385.37,-116.52 385.37,-123.52"/>
</g>
<!-- iib_aberr -->
<g id="node11" class="node">
<title>iib_aberr</title>
<path fill="#fcf3cf" stroke="black" d="M540.84,-65.67C540.84,-65.67 395.64,-36.39 395.64,-36.39 389.76,-35.21 389.76,-32.83 395.64,-31.65 395.64,-31.65 540.84,-2.37 540.84,-2.37 546.72,-1.19 558.48,-1.19 564.36,-2.37 564.36,-2.37 709.56,-31.65 709.56,-31.65 715.44,-32.83 715.44,-35.21 709.56,-36.39 709.56,-36.39 564.36,-65.67 564.36,-65.67 558.48,-66.85 546.72,-66.85 540.84,-65.67"/>
<text xml:space="preserve" text-anchor="middle" x="552.6" y="-35.77" font-family="Helvetica,sans-Serif" font-size="10.00">Multifocal, symptomatic, or LN</text>
<text xml:space="preserve" text-anchor="middle" x="552.6" y="-24.52" font-family="Helvetica,sans-Serif" font-size="10.00">metastases with aberrant drainage</text>
</g>
<!-- iib_neg&#45;&gt;iib_aberr -->
<g id="edge9" class="edge">
<title>iib_neg&#45;&gt;iib_aberr</title>
<path fill="none" stroke="black" d="M260.95,-109.75C293.54,-100.97 341.77,-88.04 383.88,-77.02 410.34,-70.09 439.18,-62.66 465.37,-55.95"/>
<polygon fill="black" stroke="black" points="466.13,-59.37 474.95,-53.5 464.39,-52.59 466.13,-59.37"/>
</g>
<!-- iib_pos_tx -->
<g id="node15" class="node">
<title>iib_pos_tx</title>
<path fill="#d5f5e3" stroke="black" d="M617.08,-208.02C617.08,-208.02 488.11,-208.02 488.11,-208.02 482.11,-208.02 476.11,-202.02 476.11,-196.02 476.11,-196.02 476.11,-184.02 476.11,-184.02 476.11,-178.02 482.11,-172.02 488.11,-172.02 488.11,-172.02 617.08,-172.02 617.08,-172.02 623.08,-172.02 629.08,-178.02 629.08,-184.02 629.08,-184.02 629.08,-196.02 629.08,-196.02 629.08,-202.02 623.08,-208.02 617.08,-208.02"/>
<text xml:space="preserve" text-anchor="middle" x="552.6" y="-186.89" font-family="Helvetica,sans-Serif" font-size="10.00">Primary Treatment → NSEM&#45;6</text>
</g>
<!-- iib_pos&#45;&gt;iib_pos_tx -->
<g id="edge13" class="edge">
<title>iib_pos&#45;&gt;iib_pos_tx</title>
<path fill="none" stroke="black" d="M332.37,-184.68C375.29,-185.73 423.86,-186.91 464.35,-187.9"/>
<polygon fill="black" stroke="black" points="464.23,-191.39 474.31,-188.14 464.4,-184.4 464.23,-191.39"/>
</g>
<!-- iib_chemo1 -->
<g id="node12" class="node">
<title>iib_chemo1</title>
<path fill="#d5f5e3" stroke="black" d="M893.79,-106.02C893.79,-106.02 785.07,-106.02 785.07,-106.02 779.07,-106.02 773.07,-100.02 773.07,-94.02 773.07,-94.02 773.07,-82.02 773.07,-82.02 773.07,-76.02 779.07,-70.02 785.07,-70.02 785.07,-70.02 893.79,-70.02 893.79,-70.02 899.79,-70.02 905.79,-76.02 905.79,-82.02 905.79,-82.02 905.79,-94.02 905.79,-94.02 905.79,-100.02 899.79,-106.02 893.79,-106.02"/>
<text xml:space="preserve" text-anchor="middle" x="839.43" y="-89.77" font-family="Helvetica,sans-Serif" font-size="10.00">First&#45;line chemotherapy:</text>
<text xml:space="preserve" text-anchor="middle" x="839.43" y="-78.52" font-family="Helvetica,sans-Serif" font-size="10.00">BEP × 3 or EP × 4 cycles</text>
</g>
<!-- iib_within&#45;&gt;iib_chemo1 -->
<g id="edge10" class="edge">
<title>iib_within&#45;&gt;iib_chemo1</title>
<path fill="none" stroke="black" d="M656.43,-108.47C691.21,-104.56 729.41,-100.27 761.8,-96.63"/>
<polygon fill="black" stroke="black" points="761.94,-100.14 771.49,-95.54 761.16,-93.18 761.94,-100.14"/>
</g>
<!-- iib_rplnd -->
<g id="node13" class="node">
<title>iib_rplnd</title>
<path fill="#d5f5e3" stroke="black" d="M889.29,-160.02C889.29,-160.02 789.57,-160.02 789.57,-160.02 783.57,-160.02 777.57,-154.02 777.57,-148.02 777.57,-148.02 777.57,-136.02 777.57,-136.02 777.57,-130.02 783.57,-124.02 789.57,-124.02 789.57,-124.02 889.29,-124.02 889.29,-124.02 895.29,-124.02 901.29,-130.02 901.29,-136.02 901.29,-136.02 901.29,-148.02 901.29,-148.02 901.29,-154.02 895.29,-160.02 889.29,-160.02"/>
<text xml:space="preserve" text-anchor="middle" x="839.43" y="-143.77" font-family="Helvetica,sans-Serif" font-size="10.00">Nerve&#45;sparing RPLND</text>
<text xml:space="preserve" text-anchor="middle" x="839.43" y="-132.52" font-family="Helvetica,sans-Serif" font-size="10.00">in highly selected cases</text>
</g>
<!-- iib_within&#45;&gt;iib_rplnd -->
<g id="edge11" class="edge">
<title>iib_within&#45;&gt;iib_rplnd</title>
<path fill="none" stroke="black" d="M668.22,-128.87C701.25,-131.42 736.36,-134.14 766.06,-136.43"/>
<polygon fill="black" stroke="black" points="765.42,-139.89 775.66,-137.17 765.95,-132.91 765.42,-139.89"/>
</g>
<!-- iib_chemo2 -->
<g id="node14" class="node">
<title>iib_chemo2</title>
<path fill="#d5f5e3" stroke="black" d="M893.79,-52.02C893.79,-52.02 785.07,-52.02 785.07,-52.02 779.07,-52.02 773.07,-46.02 773.07,-40.02 773.07,-40.02 773.07,-28.02 773.07,-28.02 773.07,-22.02 779.07,-16.02 785.07,-16.02 785.07,-16.02 893.79,-16.02 893.79,-16.02 899.79,-16.02 905.79,-22.02 905.79,-28.02 905.79,-28.02 905.79,-40.02 905.79,-40.02 905.79,-46.02 899.79,-52.02 893.79,-52.02"/>
<text xml:space="preserve" text-anchor="middle" x="839.43" y="-35.77" font-family="Helvetica,sans-Serif" font-size="10.00">First&#45;line chemotherapy:</text>
<text xml:space="preserve" text-anchor="middle" x="839.43" y="-24.52" font-family="Helvetica,sans-Serif" font-size="10.00">BEP × 3 or EP × 4 cycles</text>
</g>
<!-- iib_aberr&#45;&gt;iib_chemo2 -->
<g id="edge12" class="edge">
<title>iib_aberr&#45;&gt;iib_chemo2</title>
<path fill="none" stroke="black" d="M723.81,-34.02C736.86,-34.02 749.59,-34.02 761.54,-34.02"/>
<polygon fill="black" stroke="black" points="761.22,-37.52 771.22,-34.02 761.22,-30.52 761.22,-37.52"/>
</g>
<!-- iib_chemo1&#45;&gt;post4 -->
<g id="edge17" class="edge">
<title>iib_chemo1&#45;&gt;post4</title>
<path fill="none" stroke="black" d="M906.18,-88.02C924.56,-88.02 944.8,-88.02 964.12,-88.02"/>
<polygon fill="black" stroke="black" points="963.86,-91.52 973.86,-88.02 963.86,-84.52 963.86,-91.52"/>
</g>
<!-- iib_rplnd&#45;&gt;post5 -->
<g id="edge15" class="edge">
<title>iib_rplnd&#45;&gt;post5</title>
<path fill="none" stroke="black" d="M901.64,-157.86C922.12,-163.15 945.29,-169.15 967.09,-174.79"/>
<polygon fill="black" stroke="black" points="965.98,-178.12 976.54,-177.24 967.74,-171.34 965.98,-178.12"/>
</g>
<!-- iib_chemo2&#45;&gt;post4 -->
<g id="edge18" class="edge">
<title>iib_chemo2&#45;&gt;post4</title>
<path fill="none" stroke="black" d="M906.18,-51.03C925.44,-56.01 946.74,-61.52 966.89,-66.74"/>
<polygon fill="black" stroke="black" points="965.92,-70.1 976.47,-69.22 967.67,-63.32 965.92,-70.1"/>
</g>
<!-- note -->
<g id="node18" class="node">
<title>note</title>
<polygon fill="#fef9e7" stroke="black" points="1536.48,-108.41 1178.76,-108.41 1178.76,-67.63 1542.48,-67.63 1542.48,-102.41 1536.48,-108.41"/>
<polyline fill="none" stroke="black" points="1536.48,-108.41 1536.48,-102.41"/>
<polyline fill="none" stroke="black" points="1542.48,-102.41 1536.48,-102.41"/>
<text xml:space="preserve" text-anchor="middle" x="1360.62" y="-94.09" font-family="Helvetica,sans-Serif" font-size="9.00">RPLND preferred for stage II GCT with somatic&#45;type malignancy; consider RPLND for</text>
<text xml:space="preserve" text-anchor="middle" x="1360.62" y="-84.34" font-family="Helvetica,sans-Serif" font-size="9.00">teratoma predominance with normal markers. Select CS IIA with borderline nodes:</text>
<text xml:space="preserve" text-anchor="middle" x="1360.62" y="-74.59" font-family="Helvetica,sans-Serif" font-size="9.00">wait 4&#45;8 wks + repeat imaging to confirm stage. BEP/EP — see TEST&#45;E.</text>
</g>
</g>
</svg>
