<?xml version="1.0" encoding="UTF-8" standalone="no"?>
<!DOCTYPE svg PUBLIC "-//W3C//DTD SVG 1.1//EN"
 "http://www.w3.org/Graphics/SVG/1.1/DTD/svg11.dtd">
<!-- Generated by graphviz version 15.0.0 (20260523.1842)
 -->
<!-- Title: NSEM9 Pages: 1 -->
<svg width="2236pt" height="384pt"
 viewBox="0.00 0.00 2236.00 384.00" xmlns="http://www.w3.org/2000/svg" xmlns:xlink="http://www.w3.org/1999/xlink">
<g id="graph0" class="graph" transform="scale(1 1) rotate(0) translate(4 380.04)">
<title>NSEM9</title>
<polygon fill="white" stroke="none" points="-4,4 -4,-380.04 2231.95,-380.04 2231.95,4 -4,4"/>
<text xml:space="preserve" text-anchor="middle" x="1113.98" y="-358.74" font-family="Helvetica,sans-Serif" font-weight="bold" font-size="14.00">NSEM&#45;9 · Nonseminoma — Post Second&#45;Line Therapy Management</text>
<!-- src -->
<g id="node1" class="node">
<title>src</title>
<path fill="#d6eaf8" stroke="black" d="M114.72,-251.02C114.72,-251.02 12,-251.02 12,-251.02 6,-251.02 0,-245.02 0,-239.02 0,-239.02 0,-227.02 0,-227.02 0,-221.02 6,-215.02 12,-215.02 12,-215.02 114.72,-215.02 114.72,-215.02 120.72,-215.02 126.72,-221.02 126.72,-227.02 126.72,-227.02 126.72,-239.02 126.72,-239.02 126.72,-245.02 120.72,-251.02 114.72,-251.02"/>
<text xml:space="preserve" text-anchor="middle" x="63.36" y="-229.14" font-family="Helvetica,sans-Serif" font-size="10.00">Prior second&#45;line therapy</text>
</g>
<!-- cr -->
<g id="node2" class="node">
<title>cr</title>
<path fill="#f9e79f" stroke="black" d="M342.88,-350.9C342.88,-350.9 179.03,-321.16 179.03,-321.16 173.12,-320.09 173.12,-317.95 179.03,-316.88 179.03,-316.88 342.88,-287.14 342.88,-287.14 348.79,-286.07 360.59,-286.07 366.5,-287.14 366.5,-287.14 530.35,-316.88 530.35,-316.88 536.26,-317.95 536.26,-320.09 530.35,-321.16 530.35,-321.16 366.5,-350.9 366.5,-350.9 360.59,-351.97 348.79,-351.97 342.88,-350.9"/>
<text xml:space="preserve" text-anchor="middle" x="354.69" y="-320.77" font-family="Helvetica,sans-Serif" font-size="10.00">Complete response, negative markers,</text>
<text xml:space="preserve" text-anchor="middle" x="354.69" y="-309.52" font-family="Helvetica,sans-Serif" font-size="10.00">no mass or residual &lt;1 cm on CT</text>
</g>
<!-- src&#45;&gt;cr -->
<g id="edge1" class="edge">
<title>src&#45;&gt;cr</title>
<path fill="none" stroke="black" d="M102,-251.49C120.06,-259.82 142.18,-269.29 162.72,-276.02 190.37,-285.09 220.9,-292.9 249.27,-299.28"/>
<polygon fill="black" stroke="black" points="248.45,-302.68 258.97,-301.42 249.96,-295.85 248.45,-302.68"/>
</g>
<!-- pn -->
<g id="node3" class="node">
<title>pn</title>
<path fill="#f9e79f" stroke="black" d="M342.93,-264.64C342.93,-264.64 199.98,-235.42 199.98,-235.42 194.1,-234.22 194.1,-231.82 199.98,-230.62 199.98,-230.62 342.93,-201.4 342.93,-201.4 348.81,-200.2 360.57,-200.2 366.45,-201.4 366.45,-201.4 509.4,-230.62 509.4,-230.62 515.28,-231.82 515.28,-234.22 509.4,-235.42 509.4,-235.42 366.45,-264.64 366.45,-264.64 360.57,-265.84 348.81,-265.84 342.93,-264.64"/>
<text xml:space="preserve" text-anchor="middle" x="354.69" y="-234.77" font-family="Helvetica,sans-Serif" font-size="10.00">Partial response, residual masses</text>
<text xml:space="preserve" text-anchor="middle" x="354.69" y="-223.52" font-family="Helvetica,sans-Serif" font-size="10.00">with NORMAL AFP &amp; beta&#45;hCG</text>
</g>
<!-- src&#45;&gt;pn -->
<g id="edge2" class="edge">
<title>src&#45;&gt;pn</title>
<path fill="none" stroke="black" d="M127.14,-233.02C141.66,-233.02 157.82,-233.02 174.64,-233.02"/>
<polygon fill="black" stroke="black" points="174.26,-236.52 184.26,-233.02 174.26,-229.52 174.26,-236.52"/>
</g>
<!-- pab -->
<g id="node4" class="node">
<title>pab</title>
<path fill="#f9e79f" stroke="black" d="M342.87,-165.95C342.87,-165.95 174.54,-136.11 174.54,-136.11 168.63,-135.07 168.63,-132.97 174.54,-131.93 174.54,-131.93 342.87,-102.09 342.87,-102.09 348.78,-101.05 360.6,-101.05 366.51,-102.09 366.51,-102.09 534.84,-131.93 534.84,-131.93 540.75,-132.97 540.75,-135.07 534.84,-136.11 534.84,-136.11 366.51,-165.95 366.51,-165.95 360.6,-166.99 348.78,-166.99 342.87,-165.95"/>
<text xml:space="preserve" text-anchor="middle" x="354.69" y="-135.77" font-family="Helvetica,sans-Serif" font-size="10.00">Partial response, residual masses</text>
<text xml:space="preserve" text-anchor="middle" x="354.69" y="-124.52" font-family="Helvetica,sans-Serif" font-size="10.00">with ABNORMAL AFP and/or beta&#45;hCG</text>
</g>
<!-- src&#45;&gt;pab -->
<g id="edge3" class="edge">
<title>src&#45;&gt;pab</title>
<path fill="none" stroke="black" d="M103.15,-214.71C121.06,-206.6 142.75,-197.28 162.72,-190.02 195.69,-178.04 232.54,-166.75 265.01,-157.49"/>
<polygon fill="black" stroke="black" points="265.72,-160.93 274.39,-154.84 263.81,-154.19 265.72,-160.93"/>
</g>
<!-- cr_tx -->
<g id="node5" class="node">
<title>cr_tx</title>
<path fill="#d5f5e3" stroke="black" d="M819.24,-342.4C819.24,-342.4 656.52,-342.4 656.52,-342.4 650.52,-342.4 644.52,-336.4 644.52,-330.4 644.52,-330.4 644.52,-307.63 644.52,-307.63 644.52,-301.63 650.52,-295.63 656.52,-295.63 656.52,-295.63 819.24,-295.63 819.24,-295.63 825.24,-295.63 831.24,-301.63 831.24,-307.63 831.24,-307.63 831.24,-330.4 831.24,-330.4 831.24,-336.4 825.24,-342.4 819.24,-342.4"/>
<text xml:space="preserve" text-anchor="middle" x="737.88" y="-327.14" font-family="Helvetica,sans-Serif" font-size="10.00">Surveillance, or Nerve&#45;sparing bilateral</text>
<text xml:space="preserve" text-anchor="middle" x="737.88" y="-315.89" font-family="Helvetica,sans-Serif" font-size="10.00">RPLND in selected cases (cat 2B)</text>
<text xml:space="preserve" text-anchor="middle" x="737.88" y="-304.64" font-family="Helvetica,sans-Serif" font-size="10.00">→ Surveillance</text>
</g>
<!-- cr&#45;&gt;cr_tx -->
<g id="edge4" class="edge">
<title>cr&#45;&gt;cr_tx</title>
<path fill="none" stroke="black" d="M544.89,-319.02C575.16,-319.02 605.49,-319.02 632.8,-319.02"/>
<polygon fill="black" stroke="black" points="632.8,-322.52 642.8,-319.02 632.8,-315.52 632.8,-322.52"/>
</g>
<!-- pn_surg -->
<g id="node6" class="node">
<title>pn_surg</title>
<path fill="#d5f5e3" stroke="black" d="M1043.45,-282.02C1043.45,-282.02 959.48,-282.02 959.48,-282.02 953.48,-282.02 947.48,-276.02 947.48,-270.02 947.48,-270.02 947.48,-258.02 947.48,-258.02 947.48,-252.02 953.48,-246.02 959.48,-246.02 959.48,-246.02 1043.45,-246.02 1043.45,-246.02 1049.45,-246.02 1055.45,-252.02 1055.45,-258.02 1055.45,-258.02 1055.45,-270.02 1055.45,-270.02 1055.45,-276.02 1049.45,-282.02 1043.45,-282.02"/>
<text xml:space="preserve" text-anchor="middle" x="1001.46" y="-265.77" font-family="Helvetica,sans-Serif" font-size="10.00">Surgical resection of</text>
<text xml:space="preserve" text-anchor="middle" x="1001.46" y="-254.52" font-family="Helvetica,sans-Serif" font-size="10.00">all residual masses</text>
</g>
<!-- pn&#45;&gt;pn_surg -->
<g id="edge5" class="edge">
<title>pn&#45;&gt;pn_surg</title>
<path fill="none" stroke="black" d="M477.56,-242.39C511.56,-244.79 548.54,-247.21 582.66,-249.02 707.48,-255.66 853.44,-260.15 935.61,-262.38"/>
<polygon fill="black" stroke="black" points="935.41,-265.88 945.5,-262.65 935.6,-258.88 935.41,-265.88"/>
</g>
<!-- pab_rising -->
<g id="node9" class="node">
<title>pab_rising</title>
<path fill="#fcf3cf" stroke="black" d="M726.39,-236.59C726.39,-236.59 636.15,-209.47 636.15,-209.47 630.41,-207.75 630.41,-204.29 636.15,-202.57 636.15,-202.57 726.39,-175.45 726.39,-175.45 732.13,-173.73 743.63,-173.73 749.37,-175.45 749.37,-175.45 839.61,-202.57 839.61,-202.57 845.35,-204.29 845.35,-207.75 839.61,-209.47 839.61,-209.47 749.37,-236.59 749.37,-236.59 743.63,-238.31 732.13,-238.31 726.39,-236.59"/>
<text xml:space="preserve" text-anchor="middle" x="737.88" y="-207.77" font-family="Helvetica,sans-Serif" font-size="10.00">Elevated and rising</text>
<text xml:space="preserve" text-anchor="middle" x="737.88" y="-196.52" font-family="Helvetica,sans-Serif" font-size="10.00">AFP and/or beta&#45;hCG</text>
</g>
<!-- pab&#45;&gt;pab_rising -->
<g id="edge8" class="edge">
<title>pab&#45;&gt;pab_rising</title>
<path fill="none" stroke="black" d="M449.43,-151.73C512.83,-163.7 595.7,-179.35 656.17,-190.77"/>
<polygon fill="black" stroke="black" points="655.22,-194.16 665.7,-192.57 656.52,-187.28 655.22,-194.16"/>
</g>
<!-- pab_stable -->
<g id="node10" class="node">
<title>pab_stable</title>
<path fill="#fcf3cf" stroke="black" d="M726.39,-150.59C726.39,-150.59 636.15,-123.47 636.15,-123.47 630.41,-121.75 630.41,-118.29 636.15,-116.57 636.15,-116.57 726.39,-89.45 726.39,-89.45 732.13,-87.73 743.63,-87.73 749.37,-89.45 749.37,-89.45 839.61,-116.57 839.61,-116.57 845.35,-118.29 845.35,-121.75 839.61,-123.47 839.61,-123.47 749.37,-150.59 749.37,-150.59 743.63,-152.31 732.13,-152.31 726.39,-150.59"/>
<text xml:space="preserve" text-anchor="middle" x="737.88" y="-121.77" font-family="Helvetica,sans-Serif" font-size="10.00">Elevated but stable</text>
<text xml:space="preserve" text-anchor="middle" x="737.88" y="-110.52" font-family="Helvetica,sans-Serif" font-size="10.00">AFP and/or beta&#45;hCG</text>
</g>
<!-- pab&#45;&gt;pab_stable -->
<g id="edge9" class="edge">
<title>pab&#45;&gt;pab_stable</title>
<path fill="none" stroke="black" d="M516.24,-128.12C552.53,-126.79 590.31,-125.4 624.13,-124.16"/>
<polygon fill="black" stroke="black" points="624.07,-127.67 633.93,-123.8 623.81,-120.67 624.07,-127.67"/>
</g>
<!-- pab_norm -->
<g id="node11" class="node">
<title>pab_norm</title>
<path fill="#fcf3cf" stroke="black" d="M726.16,-65.47C726.16,-65.47 594.38,-36.59 594.38,-36.59 588.52,-35.3 588.52,-32.74 594.38,-31.45 594.38,-31.45 726.16,-2.57 726.16,-2.57 732.02,-1.28 743.74,-1.28 749.6,-2.57 749.6,-2.57 881.38,-31.45 881.38,-31.45 887.24,-32.74 887.24,-35.3 881.38,-36.59 881.38,-36.59 749.6,-65.47 749.6,-65.47 743.74,-66.76 732.02,-66.76 726.16,-65.47"/>
<text xml:space="preserve" text-anchor="middle" x="737.88" y="-35.77" font-family="Helvetica,sans-Serif" font-size="10.00">Mildly elevated and normalizing</text>
<text xml:space="preserve" text-anchor="middle" x="737.88" y="-24.52" font-family="Helvetica,sans-Serif" font-size="10.00">AFP and/or beta&#45;hCG</text>
</g>
<!-- pab&#45;&gt;pab_norm -->
<g id="edge10" class="edge">
<title>pab&#45;&gt;pab_norm</title>
<path fill="none" stroke="black" d="M433.75,-113.54C498.09,-96.66 589.1,-72.79 654.58,-55.61"/>
<polygon fill="black" stroke="black" points="655.43,-59.01 664.22,-53.08 653.65,-52.23 655.43,-59.01"/>
</g>
<!-- fu10 -->
<g id="node17" class="node">
<title>fu10</title>
<path fill="#fdebd0" stroke="black" stroke-dasharray="5,2" d="M1527.51,-205.02C1527.51,-205.02 1390.29,-205.02 1390.29,-205.02 1384.29,-205.02 1378.29,-199.02 1378.29,-193.02 1378.29,-193.02 1378.29,-181.02 1378.29,-181.02 1378.29,-175.02 1384.29,-169.02 1390.29,-169.02 1390.29,-169.02 1527.51,-169.02 1527.51,-169.02 1533.51,-169.02 1539.51,-175.02 1539.51,-181.02 1539.51,-181.02 1539.51,-193.02 1539.51,-193.02 1539.51,-199.02 1533.51,-205.02 1527.51,-205.02"/>
<text xml:space="preserve" text-anchor="middle" x="1458.9" y="-183.14" font-family="Helvetica,sans-Serif" font-size="10.00">Follow&#45;up Table 10 (TEST&#45;B 2/3)</text>
</g>
<!-- cr_tx&#45;&gt;fu10 -->
<g id="edge16" class="edge">
<title>cr_tx&#45;&gt;fu10</title>
<path fill="none" stroke="black" d="M831.67,-333.41C953.82,-348.26 1172.87,-360.56 1342.29,-291.02 1381.66,-274.86 1416.38,-239.17 1437.25,-214.12"/>
<polygon fill="black" stroke="black" points="1439.76,-216.58 1443.34,-206.61 1434.33,-212.17 1439.76,-216.58"/>
</g>
<!-- pn_ter -->
<g id="node7" class="node">
<title>pn_ter</title>
<path fill="#d5f5e3" stroke="black" d="M1303.67,-282.02C1303.67,-282.02 1148.45,-282.02 1148.45,-282.02 1142.45,-282.02 1136.45,-276.02 1136.45,-270.02 1136.45,-270.02 1136.45,-258.02 1136.45,-258.02 1136.45,-252.02 1142.45,-246.02 1148.45,-246.02 1148.45,-246.02 1303.67,-246.02 1303.67,-246.02 1309.67,-246.02 1315.67,-252.02 1315.67,-258.02 1315.67,-258.02 1315.67,-270.02 1315.67,-270.02 1315.67,-276.02 1309.67,-282.02 1303.67,-282.02"/>
<text xml:space="preserve" text-anchor="middle" x="1226.06" y="-260.89" font-family="Helvetica,sans-Serif" font-size="10.00">Teratoma or necrosis → Surveillance</text>
</g>
<!-- pn_surg&#45;&gt;pn_ter -->
<g id="edge6" class="edge">
<title>pn_surg&#45;&gt;pn_ter</title>
<path fill="none" stroke="black" d="M1055.78,-264.02C1076.54,-264.02 1101.04,-264.02 1124.85,-264.02"/>
<polygon fill="black" stroke="black" points="1124.59,-267.52 1134.59,-264.02 1124.59,-260.52 1124.59,-267.52"/>
</g>
<!-- pn_res -->
<g id="node8" class="node">
<title>pn_res</title>
<path fill="#d5f5e3" stroke="black" d="M1330.29,-228.02C1330.29,-228.02 1121.82,-228.02 1121.82,-228.02 1115.82,-228.02 1109.82,-222.02 1109.82,-216.02 1109.82,-216.02 1109.82,-204.02 1109.82,-204.02 1109.82,-198.02 1115.82,-192.02 1121.82,-192.02 1121.82,-192.02 1330.29,-192.02 1330.29,-192.02 1336.29,-192.02 1342.29,-198.02 1342.29,-204.02 1342.29,-204.02 1342.29,-216.02 1342.29,-216.02 1342.29,-222.02 1336.29,-228.02 1330.29,-228.02"/>
<text xml:space="preserve" text-anchor="middle" x="1226.06" y="-212.52" font-family="Helvetica,sans-Serif" font-size="10.00">Residual embryonal, yolk sac, chorio&#45;</text>
<text xml:space="preserve" text-anchor="middle" x="1226.06" y="-201.27" font-family="Helvetica,sans-Serif" font-size="10.00">carcinoma, or seminoma element → Surveillance</text>
</g>
<!-- pn_surg&#45;&gt;pn_res -->
<g id="edge7" class="edge">
<title>pn_surg&#45;&gt;pn_res</title>
<path fill="none" stroke="black" d="M1055.93,-250.39C1073.13,-246.06 1092.26,-241.28 1109.82,-237.02 1117.8,-235.08 1126.1,-233.09 1134.43,-231.11"/>
<polygon fill="black" stroke="black" points="1134.96,-234.58 1143.88,-228.87 1133.35,-227.77 1134.96,-234.58"/>
</g>
<!-- pn_ter&#45;&gt;fu10 -->
<g id="edge17" class="edge">
<title>pn_ter&#45;&gt;fu10</title>
<path fill="none" stroke="black" d="M1313.42,-245.56C1323.23,-242.94 1333.02,-240.08 1342.29,-237.02 1364.92,-229.54 1389.24,-219.37 1409.71,-210.15"/>
<polygon fill="black" stroke="black" points="1411.01,-213.4 1418.65,-206.06 1408.1,-207.03 1411.01,-213.4"/>
</g>
<!-- pn_res&#45;&gt;fu10 -->
<g id="edge18" class="edge">
<title>pn_res&#45;&gt;fu10</title>
<path fill="none" stroke="black" d="M1342.48,-198.52C1350.51,-197.72 1358.53,-196.92 1366.4,-196.14"/>
<polygon fill="black" stroke="black" points="1366.7,-199.62 1376.3,-195.15 1366.01,-192.66 1366.7,-199.62"/>
</g>
<!-- pab_rising_tx -->
<g id="node12" class="node">
<title>pab_rising_tx</title>
<path fill="#f1948a" stroke="black" d="M1061.82,-224.02C1061.82,-224.02 941.1,-224.02 941.1,-224.02 935.1,-224.02 929.1,-218.02 929.1,-212.02 929.1,-212.02 929.1,-200.02 929.1,-200.02 929.1,-194.02 935.1,-188.02 941.1,-188.02 941.1,-188.02 1061.82,-188.02 1061.82,-188.02 1067.82,-188.02 1073.82,-194.02 1073.82,-200.02 1073.82,-200.02 1073.82,-212.02 1073.82,-212.02 1073.82,-218.02 1067.82,-224.02 1061.82,-224.02"/>
<text xml:space="preserve" text-anchor="middle" x="1001.46" y="-202.14" font-family="Helvetica,sans-Serif" font-size="10.00">Third&#45;Line Therapy (TEST&#45;G)</text>
</g>
<!-- pab_rising&#45;&gt;pab_rising_tx -->
<g id="edge11" class="edge">
<title>pab_rising&#45;&gt;pab_rising_tx</title>
<path fill="none" stroke="black" d="M852.47,-206.02C874.34,-206.02 896.87,-206.02 917.54,-206.02"/>
<polygon fill="black" stroke="black" points="917.3,-209.52 927.3,-206.02 917.3,-202.52 917.3,-209.52"/>
</g>
<!-- pab_stable_tx -->
<g id="node13" class="node">
<title>pab_stable_tx</title>
<path fill="#d5f5e3" stroke="black" d="M1025.45,-154.02C1025.45,-154.02 977.48,-154.02 977.48,-154.02 971.48,-154.02 965.48,-148.02 965.48,-142.02 965.48,-142.02 965.48,-130.02 965.48,-130.02 965.48,-124.02 971.48,-118.02 977.48,-118.02 977.48,-118.02 1025.45,-118.02 1025.45,-118.02 1031.45,-118.02 1037.45,-124.02 1037.45,-130.02 1037.45,-130.02 1037.45,-142.02 1037.45,-142.02 1037.45,-148.02 1031.45,-154.02 1025.45,-154.02"/>
<text xml:space="preserve" text-anchor="middle" x="1001.46" y="-132.14" font-family="Helvetica,sans-Serif" font-size="10.00">Surveillance</text>
</g>
<!-- pab_stable&#45;&gt;pab_stable_tx -->
<g id="edge12" class="edge">
<title>pab_stable&#45;&gt;pab_stable_tx</title>
<path fill="none" stroke="black" d="M833.32,-125.8C874.29,-128.3 920.43,-131.13 953.84,-133.17"/>
<polygon fill="black" stroke="black" points="953.39,-136.65 963.59,-133.76 953.82,-129.66 953.39,-136.65"/>
</g>
<!-- pab_norm_surg -->
<g id="node14" class="node">
<title>pab_norm_surg</title>
<path fill="#d5f5e3" stroke="black" d="M1058.07,-82.02C1058.07,-82.02 944.85,-82.02 944.85,-82.02 938.85,-82.02 932.85,-76.02 932.85,-70.02 932.85,-70.02 932.85,-58.02 932.85,-58.02 932.85,-52.02 938.85,-46.02 944.85,-46.02 944.85,-46.02 1058.07,-46.02 1058.07,-46.02 1064.07,-46.02 1070.07,-52.02 1070.07,-58.02 1070.07,-58.02 1070.07,-70.02 1070.07,-70.02 1070.07,-76.02 1064.07,-82.02 1058.07,-82.02"/>
<text xml:space="preserve" text-anchor="middle" x="1001.46" y="-65.77" font-family="Helvetica,sans-Serif" font-size="10.00">Consider surgical resection</text>
<text xml:space="preserve" text-anchor="middle" x="1001.46" y="-54.52" font-family="Helvetica,sans-Serif" font-size="10.00">of all residual masses</text>
</g>
<!-- pab_norm&#45;&gt;pab_norm_surg -->
<g id="edge13" class="edge">
<title>pab_norm&#45;&gt;pab_norm_surg</title>
<path fill="none" stroke="black" d="M841.51,-45.79C868.07,-48.84 896.26,-52.07 921.41,-54.95"/>
<polygon fill="black" stroke="black" points="920.9,-58.42 931.23,-56.08 921.69,-51.46 920.9,-58.42"/>
</g>
<!-- pab_stable_tx&#45;&gt;fu10 -->
<g id="edge19" class="edge">
<title>pab_stable_tx&#45;&gt;fu10</title>
<path fill="none" stroke="black" d="M1037.82,-139.98C1107.75,-147.81 1265.69,-165.5 1366.74,-176.81"/>
<polygon fill="black" stroke="black" points="1366.33,-180.29 1376.66,-177.92 1367.11,-173.33 1366.33,-180.29"/>
</g>
<!-- pab_ter -->
<g id="node15" class="node">
<title>pab_ter</title>
<path fill="#d5f5e3" stroke="black" d="M1303.67,-136.02C1303.67,-136.02 1148.45,-136.02 1148.45,-136.02 1142.45,-136.02 1136.45,-130.02 1136.45,-124.02 1136.45,-124.02 1136.45,-112.02 1136.45,-112.02 1136.45,-106.02 1142.45,-100.02 1148.45,-100.02 1148.45,-100.02 1303.67,-100.02 1303.67,-100.02 1309.67,-100.02 1315.67,-106.02 1315.67,-112.02 1315.67,-112.02 1315.67,-124.02 1315.67,-124.02 1315.67,-130.02 1309.67,-136.02 1303.67,-136.02"/>
<text xml:space="preserve" text-anchor="middle" x="1226.06" y="-114.89" font-family="Helvetica,sans-Serif" font-size="10.00">Teratoma or necrosis → Surveillance</text>
</g>
<!-- pab_norm_surg&#45;&gt;pab_ter -->
<g id="edge14" class="edge">
<title>pab_norm_surg&#45;&gt;pab_ter</title>
<path fill="none" stroke="black" d="M1070.28,-81.25C1083.39,-84.54 1097.03,-87.91 1109.82,-91.02 1117.8,-92.96 1126.1,-94.95 1134.43,-96.93"/>
<polygon fill="black" stroke="black" points="1133.35,-100.27 1143.88,-99.17 1134.96,-93.46 1133.35,-100.27"/>
</g>
<!-- pab_res -->
<g id="node16" class="node">
<title>pab_res</title>
<path fill="#d5f5e3" stroke="black" d="M1330.29,-82.02C1330.29,-82.02 1121.82,-82.02 1121.82,-82.02 1115.82,-82.02 1109.82,-76.02 1109.82,-70.02 1109.82,-70.02 1109.82,-58.02 1109.82,-58.02 1109.82,-52.02 1115.82,-46.02 1121.82,-46.02 1121.82,-46.02 1330.29,-46.02 1330.29,-46.02 1336.29,-46.02 1342.29,-52.02 1342.29,-58.02 1342.29,-58.02 1342.29,-70.02 1342.29,-70.02 1342.29,-76.02 1336.29,-82.02 1330.29,-82.02"/>
<text xml:space="preserve" text-anchor="middle" x="1226.06" y="-66.52" font-family="Helvetica,sans-Serif" font-size="10.00">Residual embryonal, yolk sac, chorio&#45;</text>
<text xml:space="preserve" text-anchor="middle" x="1226.06" y="-55.27" font-family="Helvetica,sans-Serif" font-size="10.00">carcinoma, or seminoma element → Surveillance</text>
</g>
<!-- pab_norm_surg&#45;&gt;pab_res -->
<g id="edge15" class="edge">
<title>pab_norm_surg&#45;&gt;pab_res</title>
<path fill="none" stroke="black" d="M1070.46,-64.02C1079.37,-64.02 1088.72,-64.02 1098.23,-64.02"/>
<polygon fill="black" stroke="black" points="1097.93,-67.52 1107.93,-64.02 1097.93,-60.52 1097.93,-67.52"/>
</g>
<!-- pab_ter&#45;&gt;fu10 -->
<g id="edge20" class="edge">
<title>pab_ter&#45;&gt;fu10</title>
<path fill="none" stroke="black" d="M1295.12,-136.45C1310.66,-140.79 1327.07,-145.47 1342.29,-150.02 1358.12,-154.75 1375.1,-160.05 1391.04,-165.13"/>
<polygon fill="black" stroke="black" points="1389.85,-168.43 1400.44,-168.15 1391.98,-161.76 1389.85,-168.43"/>
</g>
<!-- pab_res&#45;&gt;fu10 -->
<g id="edge21" class="edge">
<title>pab_res&#45;&gt;fu10</title>
<path fill="none" stroke="black" d="M1322.02,-82.48C1329.02,-84.99 1335.85,-87.82 1342.29,-91.02 1377.55,-108.56 1411.43,-138.8 1433.29,-160.66"/>
<polygon fill="black" stroke="black" points="1430.78,-163.09 1440.28,-167.79 1435.78,-158.2 1430.78,-163.09"/>
</g>
<!-- recur -->
<g id="node18" class="node">
<title>recur</title>
<path fill="#f1948a" stroke="black" d="M1714.98,-205.02C1714.98,-205.02 1587.51,-205.02 1587.51,-205.02 1581.51,-205.02 1575.51,-199.02 1575.51,-193.02 1575.51,-193.02 1575.51,-181.02 1575.51,-181.02 1575.51,-175.02 1581.51,-169.02 1587.51,-169.02 1587.51,-169.02 1714.98,-169.02 1714.98,-169.02 1720.98,-169.02 1726.98,-175.02 1726.98,-181.02 1726.98,-181.02 1726.98,-193.02 1726.98,-193.02 1726.98,-199.02 1720.98,-205.02 1714.98,-205.02"/>
<text xml:space="preserve" text-anchor="middle" x="1651.25" y="-188.77" font-family="Helvetica,sans-Serif" font-size="10.00">For recurrence, see</text>
<text xml:space="preserve" text-anchor="middle" x="1651.25" y="-177.52" font-family="Helvetica,sans-Serif" font-size="10.00">Third&#45;Line Therapy (NSEM&#45;10)</text>
</g>
<!-- fu10&#45;&gt;recur -->
<g id="edge22" class="edge">
<title>fu10&#45;&gt;recur</title>
<path fill="none" stroke="black" d="M1539.8,-187.02C1547.75,-187.02 1555.85,-187.02 1563.86,-187.02"/>
<polygon fill="black" stroke="black" points="1563.6,-190.52 1573.6,-187.02 1563.6,-183.52 1563.6,-190.52"/>
</g>
<!-- note -->
<g id="node19" class="node">
<title>note</title>
<polygon fill="#fef9e7" stroke="black" points="2221.95,-205.02 1762.98,-205.02 1762.98,-169.02 2227.95,-169.02 2227.95,-199.02 2221.95,-205.02"/>
<polyline fill="none" stroke="black" points="2221.95,-205.02 2221.95,-199.02"/>
<polyline fill="none" stroke="black" points="2227.95,-199.02 2221.95,-199.02"/>
<text xml:space="preserve" text-anchor="middle" x="1995.47" y="-188.97" font-family="Helvetica,sans-Serif" font-size="9.00">Teratoma with somatic&#45;type malignancy → histology&#45;directed therapy at high&#45;volume GCT unit.</text>
<text xml:space="preserve" text-anchor="middle" x="1995.47" y="-177.72" font-family="Helvetica,sans-Serif" font-size="9.00">FDG&#45;PET/CT has no role in nonseminoma. Refer to high&#45;volume center for abnormal&#45;marker residual masses.</text>
</g>
</g>
</svg>
