<?xml version="1.0" encoding="UTF-8" standalone="no"?>
<!DOCTYPE svg PUBLIC "-//W3C//DTD SVG 1.1//EN"
 "http://www.w3.org/Graphics/SVG/1.1/DTD/svg11.dtd">
<!-- Generated by graphviz version 15.0.0 (20260523.1842)
 -->
<!-- Title: NSEM2 Pages: 1 -->
<svg width="1103pt" height="434pt"
 viewBox="0.00 0.00 1103.00 434.00" xmlns="http://www.w3.org/2000/svg" xmlns:xlink="http://www.w3.org/1999/xlink">
<g id="graph0" class="graph" transform="scale(1 1) rotate(0) translate(4 430.19)">
<title>NSEM2</title>
<polygon fill="white" stroke="none" points="-4,4 -4,-430.19 1098.55,-430.19 1098.55,4 -4,4"/>
<text xml:space="preserve" text-anchor="middle" x="547.27" y="-408.89" font-family="Helvetica,sans-Serif" font-weight="bold" font-size="14.00">NSEM&#45;2 · Nonseminoma — Stage I ± Risk Factors, Stage IS</text>
<!-- s1no -->
<g id="node1" class="node">
<title>s1no</title>
<path fill="#f9e79f" stroke="black" d="M91.41,-98.73C91.41,-98.73 12,-98.73 12,-98.73 6,-98.73 0,-92.73 0,-86.73 0,-86.73 0,-74.73 0,-74.73 0,-68.73 6,-62.73 12,-62.73 12,-62.73 91.41,-62.73 91.41,-62.73 97.41,-62.73 103.41,-68.73 103.41,-74.73 103.41,-74.73 103.41,-86.73 103.41,-86.73 103.41,-92.73 97.41,-98.73 91.41,-98.73"/>
<text xml:space="preserve" text-anchor="middle" x="51.7" y="-82.48" font-family="Helvetica,sans-Serif" font-size="10.00">Stage I</text>
<text xml:space="preserve" text-anchor="middle" x="51.7" y="-71.23" font-family="Helvetica,sans-Serif" font-size="10.00">without risk factors</text>
</g>
<!-- a_surv -->
<g id="node2" class="node">
<title>a_surv</title>
<path fill="#d5f5e3" stroke="black" d="M322.65,-152.73C322.65,-152.73 225.99,-152.73 225.99,-152.73 219.99,-152.73 213.99,-146.73 213.99,-140.73 213.99,-140.73 213.99,-128.73 213.99,-128.73 213.99,-122.73 219.99,-116.73 225.99,-116.73 225.99,-116.73 322.65,-116.73 322.65,-116.73 328.65,-116.73 334.65,-122.73 334.65,-128.73 334.65,-128.73 334.65,-140.73 334.65,-140.73 334.65,-146.73 328.65,-152.73 322.65,-152.73"/>
<text xml:space="preserve" text-anchor="middle" x="274.32" y="-130.85" font-family="Helvetica,sans-Serif" font-size="10.00">Surveillance (preferred)</text>
</g>
<!-- s1no&#45;&gt;a_surv -->
<g id="edge1" class="edge">
<title>s1no&#45;&gt;a_surv</title>
<path fill="none" stroke="black" d="M103.81,-97.6C115.44,-101.17 127.8,-104.76 139.41,-107.73 159.77,-112.94 182.07,-117.77 202.54,-121.87"/>
<polygon fill="black" stroke="black" points="201.72,-125.28 212.21,-123.78 203.07,-118.41 201.72,-125.28"/>
</g>
<!-- a_rplnd -->
<g id="node3" class="node">
<title>a_rplnd</title>
<path fill="#d5f5e3" stroke="black" d="M321.52,-98.73C321.52,-98.73 227.11,-98.73 227.11,-98.73 221.11,-98.73 215.11,-92.73 215.11,-86.73 215.11,-86.73 215.11,-74.73 215.11,-74.73 215.11,-68.73 221.11,-62.73 227.11,-62.73 227.11,-62.73 321.52,-62.73 321.52,-62.73 327.52,-62.73 333.52,-68.73 333.52,-74.73 333.52,-74.73 333.52,-86.73 333.52,-86.73 333.52,-92.73 327.52,-98.73 321.52,-98.73"/>
<text xml:space="preserve" text-anchor="middle" x="274.32" y="-76.86" font-family="Helvetica,sans-Serif" font-size="10.00">Nerve&#45;sparing RPLND</text>
</g>
<!-- s1no&#45;&gt;a_rplnd -->
<g id="edge2" class="edge">
<title>s1no&#45;&gt;a_rplnd</title>
<path fill="none" stroke="black" d="M103.87,-80.73C133.48,-80.73 171.15,-80.73 203.45,-80.73"/>
<polygon fill="black" stroke="black" points="203.12,-84.23 213.12,-80.73 203.12,-77.23 203.12,-84.23"/>
</g>
<!-- a_chemo -->
<g id="node4" class="node">
<title>a_chemo</title>
<path fill="#d5f5e3" stroke="black" d="M325.27,-44.73C325.27,-44.73 223.36,-44.73 223.36,-44.73 217.36,-44.73 211.36,-38.73 211.36,-32.73 211.36,-32.73 211.36,-20.73 211.36,-20.73 211.36,-14.73 217.36,-8.73 223.36,-8.73 223.36,-8.73 325.27,-8.73 325.27,-8.73 331.27,-8.73 337.27,-14.73 337.27,-20.73 337.27,-20.73 337.27,-32.73 337.27,-32.73 337.27,-38.73 331.27,-44.73 325.27,-44.73"/>
<text xml:space="preserve" text-anchor="middle" x="274.32" y="-28.48" font-family="Helvetica,sans-Serif" font-size="10.00">Adjuvant chemotherapy:</text>
<text xml:space="preserve" text-anchor="middle" x="274.32" y="-17.23" font-family="Helvetica,sans-Serif" font-size="10.00">BEP × 1 cycle</text>
</g>
<!-- s1no&#45;&gt;a_chemo -->
<g id="edge3" class="edge">
<title>s1no&#45;&gt;a_chemo</title>
<path fill="none" stroke="black" d="M103.81,-63.86C115.44,-60.29 127.8,-56.7 139.41,-53.73 158.9,-48.74 180.18,-44.1 199.91,-40.11"/>
<polygon fill="black" stroke="black" points="200.4,-43.59 209.53,-38.2 199.04,-36.72 200.4,-43.59"/>
</g>
<!-- fu7 -->
<g id="node5" class="node">
<title>fu7</title>
<path fill="#fdebd0" stroke="black" stroke-dasharray="5,2" d="M605.26,-152.73C605.26,-152.73 471.85,-152.73 471.85,-152.73 465.85,-152.73 459.85,-146.73 459.85,-140.73 459.85,-140.73 459.85,-128.73 459.85,-128.73 459.85,-122.73 465.85,-116.73 471.85,-116.73 471.85,-116.73 605.26,-116.73 605.26,-116.73 611.26,-116.73 617.26,-122.73 617.26,-128.73 617.26,-128.73 617.26,-140.73 617.26,-140.73 617.26,-146.73 611.26,-152.73 605.26,-152.73"/>
<text xml:space="preserve" text-anchor="middle" x="538.56" y="-130.85" font-family="Helvetica,sans-Serif" font-size="10.00">Follow&#45;up Table 7 (TEST&#45;B 1/3)</text>
</g>
<!-- a_surv&#45;&gt;fu7 -->
<g id="edge4" class="edge">
<title>a_surv&#45;&gt;fu7</title>
<path fill="none" stroke="black" d="M334.83,-134.73C368.24,-134.73 410.61,-134.73 447.96,-134.73"/>
<polygon fill="black" stroke="black" points="447.87,-138.23 457.87,-134.73 447.87,-131.23 447.87,-138.23"/>
</g>
<!-- post5a -->
<g id="node6" class="node">
<title>post5a</title>
<path fill="#eaecee" stroke="black" d="M619.89,-98.73C619.89,-98.73 457.23,-98.73 457.23,-98.73 451.23,-98.73 445.23,-92.73 445.23,-86.73 445.23,-86.73 445.23,-74.73 445.23,-74.73 445.23,-68.73 451.23,-62.73 457.23,-62.73 457.23,-62.73 619.89,-62.73 619.89,-62.73 625.89,-62.73 631.89,-68.73 631.89,-74.73 631.89,-74.73 631.89,-86.73 631.89,-86.73 631.89,-92.73 625.89,-98.73 619.89,-98.73"/>
<text xml:space="preserve" text-anchor="middle" x="538.56" y="-77.61" font-family="Helvetica,sans-Serif" font-size="10.00">Postsurgical Management → NSEM&#45;5</text>
</g>
<!-- a_rplnd&#45;&gt;post5a -->
<g id="edge5" class="edge">
<title>a_rplnd&#45;&gt;post5a</title>
<path fill="none" stroke="black" d="M333.85,-80.73C363.21,-80.73 399.66,-80.73 433.58,-80.73"/>
<polygon fill="black" stroke="black" points="433.46,-84.23 443.46,-80.73 433.46,-77.23 433.46,-84.23"/>
</g>
<!-- fu9a -->
<g id="node7" class="node">
<title>fu9a</title>
<path fill="#fdebd0" stroke="black" stroke-dasharray="5,2" d="M605.26,-44.73C605.26,-44.73 471.85,-44.73 471.85,-44.73 465.85,-44.73 459.85,-38.73 459.85,-32.73 459.85,-32.73 459.85,-20.73 459.85,-20.73 459.85,-14.73 465.85,-8.73 471.85,-8.73 471.85,-8.73 605.26,-8.73 605.26,-8.73 611.26,-8.73 617.26,-14.73 617.26,-20.73 617.26,-20.73 617.26,-32.73 617.26,-32.73 617.26,-38.73 611.26,-44.73 605.26,-44.73"/>
<text xml:space="preserve" text-anchor="middle" x="538.56" y="-22.86" font-family="Helvetica,sans-Serif" font-size="10.00">Follow&#45;up Table 9 (TEST&#45;B 2/3)</text>
</g>
<!-- a_chemo&#45;&gt;fu9a -->
<g id="edge6" class="edge">
<title>a_chemo&#45;&gt;fu9a</title>
<path fill="none" stroke="black" d="M337.47,-26.73C370.55,-26.73 411.82,-26.73 448.27,-26.73"/>
<polygon fill="black" stroke="black" points="447.9,-30.23 457.9,-26.73 447.9,-23.23 447.9,-30.23"/>
</g>
<!-- s1yes -->
<g id="node8" class="node">
<title>s1yes</title>
<path fill="#f9e79f" stroke="black" d="M84.66,-260.73C84.66,-260.73 18.75,-260.73 18.75,-260.73 12.75,-260.73 6.75,-254.73 6.75,-248.73 6.75,-248.73 6.75,-236.73 6.75,-236.73 6.75,-230.73 12.75,-224.73 18.75,-224.73 18.75,-224.73 84.66,-224.73 84.66,-224.73 90.66,-224.73 96.66,-230.73 96.66,-236.73 96.66,-236.73 96.66,-248.73 96.66,-248.73 96.66,-254.73 90.66,-260.73 84.66,-260.73"/>
<text xml:space="preserve" text-anchor="middle" x="51.7" y="-244.48" font-family="Helvetica,sans-Serif" font-size="10.00">Stage I</text>
<text xml:space="preserve" text-anchor="middle" x="51.7" y="-233.23" font-family="Helvetica,sans-Serif" font-size="10.00">with risk factors</text>
</g>
<!-- b_surv -->
<g id="node9" class="node">
<title>b_surv</title>
<path fill="#d5f5e3" stroke="black" d="M299.02,-314.73C299.02,-314.73 249.61,-314.73 249.61,-314.73 243.61,-314.73 237.61,-308.73 237.61,-302.73 237.61,-302.73 237.61,-290.73 237.61,-290.73 237.61,-284.73 243.61,-278.73 249.61,-278.73 249.61,-278.73 299.02,-278.73 299.02,-278.73 305.02,-278.73 311.02,-284.73 311.02,-290.73 311.02,-290.73 311.02,-302.73 311.02,-302.73 311.02,-308.73 305.02,-314.73 299.02,-314.73"/>
<text xml:space="preserve" text-anchor="middle" x="274.32" y="-292.86" font-family="Helvetica,sans-Serif" font-size="10.00">Surveillance</text>
</g>
<!-- s1yes&#45;&gt;b_surv -->
<g id="edge7" class="edge">
<title>s1yes&#45;&gt;b_surv</title>
<path fill="none" stroke="black" d="M97.01,-257.49C110.54,-261.74 125.51,-266.17 139.41,-269.73 168.03,-277.05 200.5,-283.64 226.3,-288.48"/>
<polygon fill="black" stroke="black" points="225.33,-291.85 235.8,-290.23 226.6,-284.97 225.33,-291.85"/>
</g>
<!-- b_chemo -->
<g id="node10" class="node">
<title>b_chemo</title>
<path fill="#d5f5e3" stroke="black" d="M325.27,-260.73C325.27,-260.73 223.36,-260.73 223.36,-260.73 217.36,-260.73 211.36,-254.73 211.36,-248.73 211.36,-248.73 211.36,-236.73 211.36,-236.73 211.36,-230.73 217.36,-224.73 223.36,-224.73 223.36,-224.73 325.27,-224.73 325.27,-224.73 331.27,-224.73 337.27,-230.73 337.27,-236.73 337.27,-236.73 337.27,-248.73 337.27,-248.73 337.27,-254.73 331.27,-260.73 325.27,-260.73"/>
<text xml:space="preserve" text-anchor="middle" x="274.32" y="-244.48" font-family="Helvetica,sans-Serif" font-size="10.00">Adjuvant chemotherapy:</text>
<text xml:space="preserve" text-anchor="middle" x="274.32" y="-233.23" font-family="Helvetica,sans-Serif" font-size="10.00">BEP × 1 cycle</text>
</g>
<!-- s1yes&#45;&gt;b_chemo -->
<g id="edge8" class="edge">
<title>s1yes&#45;&gt;b_chemo</title>
<path fill="none" stroke="black" d="M97.08,-242.73C126.48,-242.73 165.73,-242.73 199.73,-242.73"/>
<polygon fill="black" stroke="black" points="199.53,-246.23 209.53,-242.73 199.53,-239.23 199.53,-246.23"/>
</g>
<!-- b_rplnd -->
<g id="node11" class="node">
<title>b_rplnd</title>
<path fill="#d5f5e3" stroke="black" d="M321.52,-206.73C321.52,-206.73 227.11,-206.73 227.11,-206.73 221.11,-206.73 215.11,-200.73 215.11,-194.73 215.11,-194.73 215.11,-182.73 215.11,-182.73 215.11,-176.73 221.11,-170.73 227.11,-170.73 227.11,-170.73 321.52,-170.73 321.52,-170.73 327.52,-170.73 333.52,-176.73 333.52,-182.73 333.52,-182.73 333.52,-194.73 333.52,-194.73 333.52,-200.73 327.52,-206.73 321.52,-206.73"/>
<text xml:space="preserve" text-anchor="middle" x="274.32" y="-184.85" font-family="Helvetica,sans-Serif" font-size="10.00">Nerve&#45;sparing RPLND</text>
</g>
<!-- s1yes&#45;&gt;b_rplnd -->
<g id="edge9" class="edge">
<title>s1yes&#45;&gt;b_rplnd</title>
<path fill="none" stroke="black" d="M97.01,-227.97C110.54,-223.72 125.51,-219.29 139.41,-215.73 160.06,-210.45 182.71,-205.55 203.41,-201.41"/>
<polygon fill="black" stroke="black" points="204.07,-204.85 213.2,-199.49 202.72,-197.98 204.07,-204.85"/>
</g>
<!-- fu8 -->
<g id="node12" class="node">
<title>fu8</title>
<path fill="#fdebd0" stroke="black" stroke-dasharray="5,2" d="M605.26,-314.73C605.26,-314.73 471.85,-314.73 471.85,-314.73 465.85,-314.73 459.85,-308.73 459.85,-302.73 459.85,-302.73 459.85,-290.73 459.85,-290.73 459.85,-284.73 465.85,-278.73 471.85,-278.73 471.85,-278.73 605.26,-278.73 605.26,-278.73 611.26,-278.73 617.26,-284.73 617.26,-290.73 617.26,-290.73 617.26,-302.73 617.26,-302.73 617.26,-308.73 611.26,-314.73 605.26,-314.73"/>
<text xml:space="preserve" text-anchor="middle" x="538.56" y="-292.86" font-family="Helvetica,sans-Serif" font-size="10.00">Follow&#45;up Table 8 (TEST&#45;B 1/3)</text>
</g>
<!-- b_surv&#45;&gt;fu8 -->
<g id="edge10" class="edge">
<title>b_surv&#45;&gt;fu8</title>
<path fill="none" stroke="black" d="M311.51,-296.73C346.62,-296.73 401.31,-296.73 448.1,-296.73"/>
<polygon fill="black" stroke="black" points="447.98,-300.23 457.98,-296.73 447.98,-293.23 447.98,-300.23"/>
</g>
<!-- fu9b -->
<g id="node13" class="node">
<title>fu9b</title>
<path fill="#fdebd0" stroke="black" stroke-dasharray="5,2" d="M605.26,-260.73C605.26,-260.73 471.85,-260.73 471.85,-260.73 465.85,-260.73 459.85,-254.73 459.85,-248.73 459.85,-248.73 459.85,-236.73 459.85,-236.73 459.85,-230.73 465.85,-224.73 471.85,-224.73 471.85,-224.73 605.26,-224.73 605.26,-224.73 611.26,-224.73 617.26,-230.73 617.26,-236.73 617.26,-236.73 617.26,-248.73 617.26,-248.73 617.26,-254.73 611.26,-260.73 605.26,-260.73"/>
<text xml:space="preserve" text-anchor="middle" x="538.56" y="-238.85" font-family="Helvetica,sans-Serif" font-size="10.00">Follow&#45;up Table 9 (TEST&#45;B 2/3)</text>
</g>
<!-- b_chemo&#45;&gt;fu9b -->
<g id="edge11" class="edge">
<title>b_chemo&#45;&gt;fu9b</title>
<path fill="none" stroke="black" d="M337.47,-242.73C370.55,-242.73 411.82,-242.73 448.27,-242.73"/>
<polygon fill="black" stroke="black" points="447.9,-246.23 457.9,-242.73 447.9,-239.23 447.9,-246.23"/>
</g>
<!-- post5b -->
<g id="node14" class="node">
<title>post5b</title>
<path fill="#eaecee" stroke="black" d="M619.89,-206.73C619.89,-206.73 457.23,-206.73 457.23,-206.73 451.23,-206.73 445.23,-200.73 445.23,-194.73 445.23,-194.73 445.23,-182.73 445.23,-182.73 445.23,-176.73 451.23,-170.73 457.23,-170.73 457.23,-170.73 619.89,-170.73 619.89,-170.73 625.89,-170.73 631.89,-176.73 631.89,-182.73 631.89,-182.73 631.89,-194.73 631.89,-194.73 631.89,-200.73 625.89,-206.73 619.89,-206.73"/>
<text xml:space="preserve" text-anchor="middle" x="538.56" y="-185.6" font-family="Helvetica,sans-Serif" font-size="10.00">Postsurgical Management → NSEM&#45;5</text>
</g>
<!-- b_rplnd&#45;&gt;post5b -->
<g id="edge12" class="edge">
<title>b_rplnd&#45;&gt;post5b</title>
<path fill="none" stroke="black" d="M333.85,-188.73C363.21,-188.73 399.66,-188.73 433.58,-188.73"/>
<polygon fill="black" stroke="black" points="433.46,-192.23 443.46,-188.73 433.46,-185.23 433.46,-192.23"/>
</g>
<!-- is -->
<g id="node15" class="node">
<title>is</title>
<path fill="#f9e79f" stroke="black" d="M68.91,-385.73C68.91,-385.73 34.5,-385.73 34.5,-385.73 28.5,-385.73 22.5,-379.73 22.5,-373.73 22.5,-373.73 22.5,-361.73 22.5,-361.73 22.5,-355.73 28.5,-349.73 34.5,-349.73 34.5,-349.73 68.91,-349.73 68.91,-349.73 74.91,-349.73 80.91,-355.73 80.91,-361.73 80.91,-361.73 80.91,-373.73 80.91,-373.73 80.91,-379.73 74.91,-385.73 68.91,-385.73"/>
<text xml:space="preserve" text-anchor="middle" x="51.7" y="-363.86" font-family="Helvetica,sans-Serif" font-size="10.00">Stage IS</text>
</g>
<!-- is_m -->
<g id="node16" class="node">
<title>is_m</title>
<path fill="#fcf3cf" stroke="black" d="M262.71,-400.14C262.71,-400.14 151.02,-370.78 151.02,-370.78 145.21,-369.26 145.21,-366.2 151.02,-364.68 151.02,-364.68 262.71,-335.32 262.71,-335.32 268.52,-333.8 280.12,-333.8 285.93,-335.32 285.93,-335.32 397.62,-364.68 397.62,-364.68 403.43,-366.2 403.43,-369.26 397.62,-370.78 397.62,-370.78 285.93,-400.14 285.93,-400.14 280.12,-401.66 268.52,-401.66 262.71,-400.14"/>
<text xml:space="preserve" text-anchor="middle" x="274.32" y="-369.48" font-family="Helvetica,sans-Serif" font-size="10.00">Highly elevated or</text>
<text xml:space="preserve" text-anchor="middle" x="274.32" y="-358.23" font-family="Helvetica,sans-Serif" font-size="10.00">persistently rising markers</text>
</g>
<!-- is&#45;&gt;is_m -->
<g id="edge13" class="edge">
<title>is&#45;&gt;is_m</title>
<path fill="none" stroke="black" d="M81.09,-367.73C93.6,-367.73 109.32,-367.73 126.37,-367.73"/>
<polygon fill="black" stroke="black" points="126.22,-371.23 136.22,-367.73 126.22,-364.23 126.22,-371.23"/>
</g>
<!-- is_p -->
<g id="node17" class="node">
<title>is_p</title>
<path fill="#d5f5e3" stroke="black" d="M603.76,-385.73C603.76,-385.73 473.35,-385.73 473.35,-385.73 467.35,-385.73 461.35,-379.73 461.35,-373.73 461.35,-373.73 461.35,-361.73 461.35,-361.73 461.35,-355.73 467.35,-349.73 473.35,-349.73 473.35,-349.73 603.76,-349.73 603.76,-349.73 609.76,-349.73 615.76,-355.73 615.76,-361.73 615.76,-361.73 615.76,-373.73 615.76,-373.73 615.76,-379.73 609.76,-385.73 603.76,-385.73"/>
<text xml:space="preserve" text-anchor="middle" x="538.56" y="-364.61" font-family="Helvetica,sans-Serif" font-size="10.00">Primary Treatment → NSEM&#45;6</text>
</g>
<!-- is_m&#45;&gt;is_p -->
<g id="edge14" class="edge">
<title>is_m&#45;&gt;is_p</title>
<path fill="none" stroke="black" d="M411.05,-367.73C424.16,-367.73 437.21,-367.73 449.67,-367.73"/>
<polygon fill="black" stroke="black" points="449.42,-371.23 459.42,-367.73 449.42,-364.23 449.42,-371.23"/>
</g>
<!-- note -->
<g id="node18" class="node">
<title>note</title>
<polygon fill="#fef9e7" stroke="black" points="1088.55,-53.46 667.89,-53.46 667.89,0 1094.55,0 1094.55,-47.46 1088.55,-53.46"/>
<polyline fill="none" stroke="black" points="1088.55,-53.46 1088.55,-47.46"/>
<polyline fill="none" stroke="black" points="1094.55,-47.46 1088.55,-47.46"/>
<text xml:space="preserve" text-anchor="middle" x="881.22" y="-38.43" font-family="Helvetica,sans-Serif" font-size="9.00">RPLND preferred as primary Tx for stage I GCT with somatic&#45;type malignancy.</text>
<text xml:space="preserve" text-anchor="middle" x="881.22" y="-28.68" font-family="Helvetica,sans-Serif" font-size="9.00">Stage I pure teratoma + normal markers → surveillance or RPLND.</text>
<text xml:space="preserve" text-anchor="middle" x="881.22" y="-17.43" font-family="Helvetica,sans-Serif" font-size="9.00">Risk factors: lymphovascular invasion, spermatic cord/scrotal invasion (± embryonal predominance).</text>
<text xml:space="preserve" text-anchor="middle" x="881.22" y="-7.68" font-family="Helvetica,sans-Serif" font-size="9.00">BEP = Bleomycin/Etoposide/Cisplatin</text>
</g>
</g>
</svg>
