<?xml version="1.0" encoding="UTF-8" standalone="no"?>
<!DOCTYPE svg PUBLIC "-//W3C//DTD SVG 1.1//EN"
 "http://www.w3.org/Graphics/SVG/1.1/DTD/svg11.dtd">
<!-- Generated by graphviz version 15.0.0 (20260523.1842)
 -->
<!-- Title: NSEM5 Pages: 1 -->
<svg width="1086pt" height="391pt"
 viewBox="0.00 0.00 1086.00 391.00" xmlns="http://www.w3.org/2000/svg" xmlns:xlink="http://www.w3.org/1999/xlink">
<g id="graph0" class="graph" transform="scale(1 1) rotate(0) translate(4 387)">
<title>NSEM5</title>
<polygon fill="white" stroke="none" points="-4,4 -4,-387 1082.31,-387 1082.31,4 -4,4"/>
<text xml:space="preserve" text-anchor="middle" x="539.15" y="-365.7" font-family="Helvetica,sans-Serif" font-weight="bold" font-size="14.00">NSEM&#45;5 · Nonseminoma — Postsurgical Management (primary nerve&#45;sparing RPLND)</text>
<!-- src -->
<g id="node1" class="node">
<title>src</title>
<path fill="#d6eaf8" stroke="black" d="M139.41,-230.35C139.41,-230.35 12,-230.35 12,-230.35 6,-230.35 0,-224.35 0,-218.35 0,-218.35 0,-195.65 0,-195.65 0,-189.65 6,-183.65 12,-183.65 12,-183.65 139.41,-183.65 139.41,-183.65 145.41,-183.65 151.41,-189.65 151.41,-195.65 151.41,-195.65 151.41,-218.35 151.41,-218.35 151.41,-224.35 145.41,-230.35 139.41,-230.35"/>
<text xml:space="preserve" text-anchor="middle" x="75.71" y="-214.38" font-family="Helvetica,sans-Serif" font-size="10.00">Stage IA, IB (± risk factors),</text>
<text xml:space="preserve" text-anchor="middle" x="75.71" y="-203.12" font-family="Helvetica,sans-Serif" font-size="10.00">IIA, IIB treated with</text>
<text xml:space="preserve" text-anchor="middle" x="75.71" y="-191.88" font-family="Helvetica,sans-Serif" font-size="10.00">primary nerve&#45;sparing RPLND</text>
</g>
<!-- pN0 -->
<g id="node2" class="node">
<title>pN0</title>
<path fill="#f9e79f" stroke="black" d="M213.11,-327.69C213.11,-327.69 198.17,-320.31 198.17,-320.31 192.79,-317.66 192.79,-312.34 198.17,-309.69 198.17,-309.69 213.11,-302.31 213.11,-302.31 218.49,-299.66 229.25,-299.66 234.63,-302.31 234.63,-302.31 249.57,-309.69 249.57,-309.69 254.95,-312.34 254.95,-317.66 249.57,-320.31 249.57,-320.31 234.63,-327.69 234.63,-327.69 229.25,-330.34 218.49,-330.34 213.11,-327.69"/>
<text xml:space="preserve" text-anchor="middle" x="223.87" y="-311.12" font-family="Helvetica,sans-Serif" font-size="10.00">pN0</text>
</g>
<!-- src&#45;&gt;pN0 -->
<g id="edge1" class="edge">
<title>src&#45;&gt;pN0</title>
<path fill="none" stroke="black" d="M108.78,-230.7C136.23,-250.98 175.09,-279.7 199.63,-297.83"/>
<polygon fill="black" stroke="black" points="197.24,-300.42 207.37,-303.55 201.4,-294.79 197.24,-300.42"/>
</g>
<!-- pN1 -->
<g id="node3" class="node">
<title>pN1</title>
<path fill="#f9e79f" stroke="black" d="M213.11,-246.69C213.11,-246.69 198.17,-239.31 198.17,-239.31 192.79,-236.66 192.79,-231.34 198.17,-228.69 198.17,-228.69 213.11,-221.31 213.11,-221.31 218.49,-218.66 229.25,-218.66 234.63,-221.31 234.63,-221.31 249.57,-228.69 249.57,-228.69 254.95,-231.34 254.95,-236.66 249.57,-239.31 249.57,-239.31 234.63,-246.69 234.63,-246.69 229.25,-249.34 218.49,-249.34 213.11,-246.69"/>
<text xml:space="preserve" text-anchor="middle" x="223.87" y="-230.12" font-family="Helvetica,sans-Serif" font-size="10.00">pN1</text>
</g>
<!-- src&#45;&gt;pN1 -->
<g id="edge2" class="edge">
<title>src&#45;&gt;pN1</title>
<path fill="none" stroke="black" d="M151.5,-220.82C163.24,-222.98 174.92,-225.14 185.32,-227.06"/>
<polygon fill="black" stroke="black" points="184.51,-230.47 194.98,-228.85 185.78,-223.59 184.51,-230.47"/>
</g>
<!-- pN2 -->
<g id="node4" class="node">
<title>pN2</title>
<path fill="#f9e79f" stroke="black" d="M213.11,-192.69C213.11,-192.69 198.17,-185.31 198.17,-185.31 192.79,-182.66 192.79,-177.34 198.17,-174.69 198.17,-174.69 213.11,-167.31 213.11,-167.31 218.49,-164.66 229.25,-164.66 234.63,-167.31 234.63,-167.31 249.57,-174.69 249.57,-174.69 254.95,-177.34 254.95,-182.66 249.57,-185.31 249.57,-185.31 234.63,-192.69 234.63,-192.69 229.25,-195.34 218.49,-195.34 213.11,-192.69"/>
<text xml:space="preserve" text-anchor="middle" x="223.87" y="-176.12" font-family="Helvetica,sans-Serif" font-size="10.00">pN2</text>
</g>
<!-- src&#45;&gt;pN2 -->
<g id="edge3" class="edge">
<title>src&#45;&gt;pN2</title>
<path fill="none" stroke="black" d="M151.5,-193.18C163.24,-191.02 174.92,-188.86 185.32,-186.94"/>
<polygon fill="black" stroke="black" points="185.78,-190.41 194.98,-185.15 184.51,-183.53 185.78,-190.41"/>
</g>
<!-- pN3 -->
<g id="node5" class="node">
<title>pN3</title>
<path fill="#f9e79f" stroke="black" d="M213.11,-84.69C213.11,-84.69 198.17,-77.31 198.17,-77.31 192.79,-74.66 192.79,-69.34 198.17,-66.69 198.17,-66.69 213.11,-59.31 213.11,-59.31 218.49,-56.66 229.25,-56.66 234.63,-59.31 234.63,-59.31 249.57,-66.69 249.57,-66.69 254.95,-69.34 254.95,-74.66 249.57,-77.31 249.57,-77.31 234.63,-84.69 234.63,-84.69 229.25,-87.34 218.49,-87.34 213.11,-84.69"/>
<text xml:space="preserve" text-anchor="middle" x="223.87" y="-68.12" font-family="Helvetica,sans-Serif" font-size="10.00">pN3</text>
</g>
<!-- src&#45;&gt;pN3 -->
<g id="edge4" class="edge">
<title>src&#45;&gt;pN3</title>
<path fill="none" stroke="black" d="M102.5,-183.18C130.8,-157.04 175.67,-115.59 201.9,-91.37"/>
<polygon fill="black" stroke="black" points="204.25,-93.96 209.22,-84.6 199.5,-88.82 204.25,-93.96"/>
</g>
<!-- o0 -->
<g id="node6" class="node">
<title>o0</title>
<path fill="#d5f5e3" stroke="black" d="M411.74,-360C411.74,-360 362.33,-360 362.33,-360 356.33,-360 350.33,-354 350.33,-348 350.33,-348 350.33,-336 350.33,-336 350.33,-330 356.33,-324 362.33,-324 362.33,-324 411.74,-324 411.74,-324 417.74,-324 423.74,-330 423.74,-336 423.74,-336 423.74,-348 423.74,-348 423.74,-354 417.74,-360 411.74,-360"/>
<text xml:space="preserve" text-anchor="middle" x="387.03" y="-338.12" font-family="Helvetica,sans-Serif" font-size="10.00">Surveillance</text>
</g>
<!-- pN0&#45;&gt;o0 -->
<g id="edge5" class="edge">
<title>pN0&#45;&gt;o0</title>
<path fill="none" stroke="black" d="M251.84,-319.52C275.47,-323.48 310.35,-329.32 338.63,-334.06"/>
<polygon fill="black" stroke="black" points="337.96,-337.49 348.4,-335.7 339.12,-330.59 337.96,-337.49"/>
</g>
<!-- o1a -->
<g id="node8" class="node">
<title>o1a</title>
<path fill="#d5f5e3" stroke="black" d="M435.36,-306C435.36,-306 338.7,-306 338.7,-306 332.7,-306 326.7,-300 326.7,-294 326.7,-294 326.7,-282 326.7,-282 326.7,-276 332.7,-270 338.7,-270 338.7,-270 435.36,-270 435.36,-270 441.36,-270 447.36,-276 447.36,-282 447.36,-282 447.36,-294 447.36,-294 447.36,-300 441.36,-306 435.36,-306"/>
<text xml:space="preserve" text-anchor="middle" x="387.03" y="-284.12" font-family="Helvetica,sans-Serif" font-size="10.00">Surveillance (preferred)</text>
</g>
<!-- pN1&#45;&gt;o1a -->
<g id="edge7" class="edge">
<title>pN1&#45;&gt;o1a</title>
<path fill="none" stroke="black" d="M245.06,-242.06C259.3,-247.63 278.87,-255.08 296.33,-261 302.54,-263.11 309.03,-265.22 315.55,-267.29"/>
<polygon fill="black" stroke="black" points="314.47,-270.62 325.05,-270.26 316.55,-263.93 314.47,-270.62"/>
</g>
<!-- o1b -->
<g id="node9" class="node">
<title>o1b</title>
<path fill="#d5f5e3" stroke="black" d="M451.11,-252C451.11,-252 322.95,-252 322.95,-252 316.95,-252 310.95,-246 310.95,-240 310.95,-240 310.95,-228 310.95,-228 310.95,-222 316.95,-216 322.95,-216 322.95,-216 451.11,-216 451.11,-216 457.11,-216 463.11,-222 463.11,-228 463.11,-228 463.11,-240 463.11,-240 463.11,-246 457.11,-252 451.11,-252"/>
<text xml:space="preserve" text-anchor="middle" x="387.03" y="-230.12" font-family="Helvetica,sans-Serif" font-size="10.00">Chemotherapy: EP × 2 cycles</text>
</g>
<!-- pN1&#45;&gt;o1b -->
<g id="edge8" class="edge">
<title>pN1&#45;&gt;o1b</title>
<path fill="none" stroke="black" d="M261.44,-234C272.9,-234 286.08,-234 299.48,-234"/>
<polygon fill="black" stroke="black" points="299.24,-237.5 309.24,-234 299.24,-230.5 299.24,-237.5"/>
</g>
<!-- o2a -->
<g id="node12" class="node">
<title>o2a</title>
<path fill="#d5f5e3" stroke="black" d="M451.11,-198C451.11,-198 322.95,-198 322.95,-198 316.95,-198 310.95,-192 310.95,-186 310.95,-186 310.95,-174 310.95,-174 310.95,-168 316.95,-162 322.95,-162 322.95,-162 451.11,-162 451.11,-162 457.11,-162 463.11,-168 463.11,-174 463.11,-174 463.11,-186 463.11,-186 463.11,-192 457.11,-198 451.11,-198"/>
<text xml:space="preserve" text-anchor="middle" x="387.03" y="-176.12" font-family="Helvetica,sans-Serif" font-size="10.00">Chemotherapy: EP × 2 cycles</text>
</g>
<!-- pN2&#45;&gt;o2a -->
<g id="edge11" class="edge">
<title>pN2&#45;&gt;o2a</title>
<path fill="none" stroke="black" d="M261.44,-180C272.9,-180 286.08,-180 299.48,-180"/>
<polygon fill="black" stroke="black" points="299.24,-183.5 309.24,-180 299.24,-176.5 299.24,-183.5"/>
</g>
<!-- o2b -->
<g id="node13" class="node">
<title>o2b</title>
<path fill="#d5f5e3" stroke="black" d="M411.74,-144C411.74,-144 362.33,-144 362.33,-144 356.33,-144 350.33,-138 350.33,-132 350.33,-132 350.33,-120 350.33,-120 350.33,-114 356.33,-108 362.33,-108 362.33,-108 411.74,-108 411.74,-108 417.74,-108 423.74,-114 423.74,-120 423.74,-120 423.74,-132 423.74,-132 423.74,-138 417.74,-144 411.74,-144"/>
<text xml:space="preserve" text-anchor="middle" x="387.03" y="-122.12" font-family="Helvetica,sans-Serif" font-size="10.00">Surveillance</text>
</g>
<!-- pN2&#45;&gt;o2b -->
<g id="edge12" class="edge">
<title>pN2&#45;&gt;o2b</title>
<path fill="none" stroke="black" d="M245.06,-171.94C259.3,-166.37 278.87,-158.92 296.33,-153 310.18,-148.3 325.38,-143.57 339.26,-139.41"/>
<polygon fill="black" stroke="black" points="340.02,-142.84 348.61,-136.64 338.03,-136.13 340.02,-142.84"/>
</g>
<!-- o3a -->
<g id="node16" class="node">
<title>o3a</title>
<path fill="#d5f5e3" stroke="black" d="M465.74,-90C465.74,-90 308.33,-90 308.33,-90 302.33,-90 296.33,-84 296.33,-78 296.33,-78 296.33,-66 296.33,-66 296.33,-60 302.33,-54 308.33,-54 308.33,-54 465.74,-54 465.74,-54 471.74,-54 477.74,-60 477.74,-66 477.74,-66 477.74,-78 477.74,-78 477.74,-84 471.74,-90 465.74,-90"/>
<text xml:space="preserve" text-anchor="middle" x="387.03" y="-73.75" font-family="Helvetica,sans-Serif" font-size="10.00">Chemotherapy</text>
<text xml:space="preserve" text-anchor="middle" x="387.03" y="-62.5" font-family="Helvetica,sans-Serif" font-size="10.00">(EP × 2; or BEP 2&#45;3 / EP 2&#45;4 cycles)</text>
</g>
<!-- pN3&#45;&gt;o3a -->
<g id="edge15" class="edge">
<title>pN3&#45;&gt;o3a</title>
<path fill="none" stroke="black" d="M261.44,-72C268.65,-72 276.55,-72 284.75,-72"/>
<polygon fill="black" stroke="black" points="284.57,-75.5 294.57,-72 284.57,-68.5 284.57,-75.5"/>
</g>
<!-- o3b -->
<g id="node17" class="node">
<title>o3b</title>
<path fill="#d5f5e3" stroke="black" d="M411.74,-36C411.74,-36 362.33,-36 362.33,-36 356.33,-36 350.33,-30 350.33,-24 350.33,-24 350.33,-12 350.33,-12 350.33,-6 356.33,0 362.33,0 362.33,0 411.74,0 411.74,0 417.74,0 423.74,-6 423.74,-12 423.74,-12 423.74,-24 423.74,-24 423.74,-30 417.74,-36 411.74,-36"/>
<text xml:space="preserve" text-anchor="middle" x="387.03" y="-14.12" font-family="Helvetica,sans-Serif" font-size="10.00">Surveillance</text>
</g>
<!-- pN3&#45;&gt;o3b -->
<g id="edge16" class="edge">
<title>pN3&#45;&gt;o3b</title>
<path fill="none" stroke="black" d="M245.06,-63.94C259.3,-58.37 278.87,-50.92 296.33,-45 310.18,-40.3 325.38,-35.57 339.26,-31.41"/>
<polygon fill="black" stroke="black" points="340.02,-34.84 348.61,-28.64 338.03,-28.13 340.02,-34.84"/>
</g>
<!-- fu0 -->
<g id="node7" class="node">
<title>fu0</title>
<path fill="#fdebd0" stroke="black" stroke-dasharray="5,2" d="M661.77,-360C661.77,-360 528.36,-360 528.36,-360 522.36,-360 516.36,-354 516.36,-348 516.36,-348 516.36,-336 516.36,-336 516.36,-330 522.36,-324 528.36,-324 528.36,-324 661.77,-324 661.77,-324 667.77,-324 673.77,-330 673.77,-336 673.77,-336 673.77,-348 673.77,-348 673.77,-354 667.77,-360 661.77,-360"/>
<text xml:space="preserve" text-anchor="middle" x="595.07" y="-338.12" font-family="Helvetica,sans-Serif" font-size="10.00">Follow&#45;up Table 9 (TEST&#45;B 2/3)</text>
</g>
<!-- o0&#45;&gt;fu0 -->
<g id="edge6" class="edge">
<title>o0&#45;&gt;fu0</title>
<path fill="none" stroke="black" d="M423.92,-342C446.31,-342 476.2,-342 504.67,-342"/>
<polygon fill="black" stroke="black" points="504.4,-345.5 514.4,-342 504.4,-338.5 504.4,-345.5"/>
</g>
<!-- fu1a -->
<g id="node10" class="node">
<title>fu1a</title>
<path fill="#fdebd0" stroke="black" stroke-dasharray="5,2" d="M661.77,-306C661.77,-306 528.36,-306 528.36,-306 522.36,-306 516.36,-300 516.36,-294 516.36,-294 516.36,-282 516.36,-282 516.36,-276 522.36,-270 528.36,-270 528.36,-270 661.77,-270 661.77,-270 667.77,-270 673.77,-276 673.77,-282 673.77,-282 673.77,-294 673.77,-294 673.77,-300 667.77,-306 661.77,-306"/>
<text xml:space="preserve" text-anchor="middle" x="595.07" y="-289.75" font-family="Helvetica,sans-Serif" font-size="10.00">Follow&#45;up Table 9 (TEST&#45;B 2/3)</text>
<text xml:space="preserve" text-anchor="middle" x="595.07" y="-278.5" font-family="Helvetica,sans-Serif" font-size="10.00">or Table 12 (TEST&#45;B 3/3)</text>
</g>
<!-- o1a&#45;&gt;fu1a -->
<g id="edge9" class="edge">
<title>o1a&#45;&gt;fu1a</title>
<path fill="none" stroke="black" d="M447.63,-288C465.51,-288 485.53,-288 504.89,-288"/>
<polygon fill="black" stroke="black" points="504.67,-291.5 514.67,-288 504.67,-284.5 504.67,-291.5"/>
</g>
<!-- fu1b -->
<g id="node11" class="node">
<title>fu1b</title>
<path fill="#fdebd0" stroke="black" stroke-dasharray="5,2" d="M664.4,-252C664.4,-252 525.74,-252 525.74,-252 519.74,-252 513.74,-246 513.74,-240 513.74,-240 513.74,-228 513.74,-228 513.74,-222 519.74,-216 525.74,-216 525.74,-216 664.4,-216 664.4,-216 670.4,-216 676.4,-222 676.4,-228 676.4,-228 676.4,-240 676.4,-240 676.4,-246 670.4,-252 664.4,-252"/>
<text xml:space="preserve" text-anchor="middle" x="595.07" y="-230.12" font-family="Helvetica,sans-Serif" font-size="10.00">Follow&#45;up Table 11 (TEST&#45;B 3/3)</text>
</g>
<!-- o1b&#45;&gt;fu1b -->
<g id="edge10" class="edge">
<title>o1b&#45;&gt;fu1b</title>
<path fill="none" stroke="black" d="M463.58,-234C476.11,-234 489.22,-234 502.09,-234"/>
<polygon fill="black" stroke="black" points="501.81,-237.5 511.81,-234 501.81,-230.5 501.81,-237.5"/>
</g>
<!-- fu2a -->
<g id="node14" class="node">
<title>fu2a</title>
<path fill="#fdebd0" stroke="black" stroke-dasharray="5,2" d="M664.4,-198C664.4,-198 525.74,-198 525.74,-198 519.74,-198 513.74,-192 513.74,-186 513.74,-186 513.74,-174 513.74,-174 513.74,-168 519.74,-162 525.74,-162 525.74,-162 664.4,-162 664.4,-162 670.4,-162 676.4,-168 676.4,-174 676.4,-174 676.4,-186 676.4,-186 676.4,-192 670.4,-198 664.4,-198"/>
<text xml:space="preserve" text-anchor="middle" x="595.07" y="-176.12" font-family="Helvetica,sans-Serif" font-size="10.00">Follow&#45;up Table 11 (TEST&#45;B 3/3)</text>
</g>
<!-- o2a&#45;&gt;fu2a -->
<g id="edge13" class="edge">
<title>o2a&#45;&gt;fu2a</title>
<path fill="none" stroke="black" d="M463.58,-180C476.11,-180 489.22,-180 502.09,-180"/>
<polygon fill="black" stroke="black" points="501.81,-183.5 511.81,-180 501.81,-176.5 501.81,-183.5"/>
</g>
<!-- fu2b -->
<g id="node15" class="node">
<title>fu2b</title>
<path fill="#fdebd0" stroke="black" stroke-dasharray="5,2" d="M664.4,-144C664.4,-144 525.74,-144 525.74,-144 519.74,-144 513.74,-138 513.74,-132 513.74,-132 513.74,-120 513.74,-120 513.74,-114 519.74,-108 525.74,-108 525.74,-108 664.4,-108 664.4,-108 670.4,-108 676.4,-114 676.4,-120 676.4,-120 676.4,-132 676.4,-132 676.4,-138 670.4,-144 664.4,-144"/>
<text xml:space="preserve" text-anchor="middle" x="595.07" y="-122.12" font-family="Helvetica,sans-Serif" font-size="10.00">Follow&#45;up Table 12 (TEST&#45;B 3/3)</text>
</g>
<!-- o2b&#45;&gt;fu2b -->
<g id="edge14" class="edge">
<title>o2b&#45;&gt;fu2b</title>
<path fill="none" stroke="black" d="M423.92,-126C445.61,-126 474.32,-126 501.97,-126"/>
<polygon fill="black" stroke="black" points="501.81,-129.5 511.81,-126 501.81,-122.5 501.81,-129.5"/>
</g>
<!-- fu3a -->
<g id="node18" class="node">
<title>fu3a</title>
<path fill="#fdebd0" stroke="black" stroke-dasharray="5,2" d="M664.4,-90C664.4,-90 525.74,-90 525.74,-90 519.74,-90 513.74,-84 513.74,-78 513.74,-78 513.74,-66 513.74,-66 513.74,-60 519.74,-54 525.74,-54 525.74,-54 664.4,-54 664.4,-54 670.4,-54 676.4,-60 676.4,-66 676.4,-66 676.4,-78 676.4,-78 676.4,-84 670.4,-90 664.4,-90"/>
<text xml:space="preserve" text-anchor="middle" x="595.07" y="-68.12" font-family="Helvetica,sans-Serif" font-size="10.00">Follow&#45;up Table 11 (TEST&#45;B 3/3)</text>
</g>
<!-- o3a&#45;&gt;fu3a -->
<g id="edge17" class="edge">
<title>o3a&#45;&gt;fu3a</title>
<path fill="none" stroke="black" d="M478.1,-72C485.96,-72 493.92,-72 501.79,-72"/>
<polygon fill="black" stroke="black" points="501.74,-75.5 511.74,-72 501.74,-68.5 501.74,-75.5"/>
</g>
<!-- fu3b -->
<g id="node19" class="node">
<title>fu3b</title>
<path fill="#fdebd0" stroke="black" stroke-dasharray="5,2" d="M664.4,-36C664.4,-36 525.74,-36 525.74,-36 519.74,-36 513.74,-30 513.74,-24 513.74,-24 513.74,-12 513.74,-12 513.74,-6 519.74,0 525.74,0 525.74,0 664.4,0 664.4,0 670.4,0 676.4,-6 676.4,-12 676.4,-12 676.4,-24 676.4,-24 676.4,-30 670.4,-36 664.4,-36"/>
<text xml:space="preserve" text-anchor="middle" x="595.07" y="-14.12" font-family="Helvetica,sans-Serif" font-size="10.00">Follow&#45;up Table 12 (TEST&#45;B 3/3)</text>
</g>
<!-- o3b&#45;&gt;fu3b -->
<g id="edge18" class="edge">
<title>o3b&#45;&gt;fu3b</title>
<path fill="none" stroke="black" d="M423.92,-18C445.61,-18 474.32,-18 501.97,-18"/>
<polygon fill="black" stroke="black" points="501.81,-21.5 511.81,-18 501.81,-14.5 501.81,-21.5"/>
</g>
<!-- note -->
<g id="node20" class="node">
<title>note</title>
<polygon fill="#fef9e7" stroke="black" points="1072.31,-36 712.4,-36 712.4,0 1078.31,0 1078.31,-30 1072.31,-36"/>
<polyline fill="none" stroke="black" points="1072.31,-36 1072.31,-30"/>
<polyline fill="none" stroke="black" points="1078.31,-30 1072.31,-30"/>
<text xml:space="preserve" text-anchor="middle" x="895.35" y="-19.2" font-family="Helvetica,sans-Serif" font-size="9.00">pN2/pN3: surveillance preferred for pure teratoma. pN3 chemo is a rare circumstance</text>
<text xml:space="preserve" text-anchor="middle" x="895.35" y="-9.45" font-family="Helvetica,sans-Serif" font-size="9.00">with limited data (no consensus regimen). EP = Etoposide/Cisplatin.</text>
</g>
</g>
</svg>
