<?xml version="1.0" encoding="UTF-8" standalone="no"?>
<!DOCTYPE svg PUBLIC "-//W3C//DTD SVG 1.1//EN"
 "http://www.w3.org/Graphics/SVG/1.1/DTD/svg11.dtd">
<!-- Generated by graphviz version 15.0.0 (20260523.1842)
 -->
<!-- Title: NSEM4 Pages: 1 -->
<svg width="2247pt" height="185pt"
 viewBox="0.00 0.00 2247.00 185.00" xmlns="http://www.w3.org/2000/svg" xmlns:xlink="http://www.w3.org/1999/xlink">
<g id="graph0" class="graph" transform="scale(1 1) rotate(0) translate(4 181.04)">
<title>NSEM4</title>
<polygon fill="white" stroke="none" points="-4,4 -4,-181.04 2243.09,-181.04 2243.09,4 -4,4"/>
<text xml:space="preserve" text-anchor="middle" x="1119.54" y="-159.74" font-family="Helvetica,sans-Serif" font-weight="bold" font-size="14.00">NSEM&#45;4 · Nonseminoma — Post First&#45;Line Chemotherapy Mgmt (Stage IIA/IIB)</text>
<!-- eval -->
<g id="node1" class="node">
<title>eval</title>
<path fill="#d6eaf8" stroke="black" d="M190.47,-99.66C190.47,-99.66 12,-99.66 12,-99.66 6,-99.66 0,-93.66 0,-87.66 0,-87.66 0,-66.39 0,-66.39 0,-60.38 6,-54.38 12,-54.38 12,-54.38 190.47,-54.38 190.47,-54.38 196.47,-54.38 202.47,-60.38 202.47,-66.39 202.47,-66.39 202.47,-87.66 202.47,-87.66 202.47,-93.66 196.47,-99.66 190.47,-99.66"/>
<text xml:space="preserve" text-anchor="start" x="9.36" y="-84.39" font-family="Helvetica,sans-Serif" font-size="10.00">Stage IIA/IIB treated with first&#45;line chemo:</text>
<text xml:space="preserve" text-anchor="start" x="9.36" y="-73.14" font-family="Helvetica,sans-Serif" font-size="10.00">• Abdomen/pelvis CT or MRI</text>
<text xml:space="preserve" text-anchor="start" x="9.36" y="-61.89" font-family="Helvetica,sans-Serif" font-size="10.00">• Consider chest CT/MRI or chest x&#45;ray</text>
</g>
<!-- d_small -->
<g id="node2" class="node">
<title>d_small</title>
<path fill="#f9e79f" stroke="black" d="M414.13,-151.9C414.13,-151.9 250.28,-122.16 250.28,-122.16 244.37,-121.09 244.37,-118.95 250.28,-117.88 250.28,-117.88 414.13,-88.14 414.13,-88.14 420.04,-87.07 431.84,-87.07 437.75,-88.14 437.75,-88.14 601.6,-117.88 601.6,-117.88 607.51,-118.95 607.51,-121.09 601.6,-122.16 601.6,-122.16 437.75,-151.9 437.75,-151.9 431.84,-152.97 420.04,-152.97 414.13,-151.9"/>
<text xml:space="preserve" text-anchor="middle" x="425.94" y="-121.77" font-family="Helvetica,sans-Serif" font-size="10.00">Negative markers with no mass</text>
<text xml:space="preserve" text-anchor="middle" x="425.94" y="-110.52" font-family="Helvetica,sans-Serif" font-size="10.00">or residual &lt;1 cm (transaxial long axis)</text>
</g>
<!-- eval&#45;&gt;d_small -->
<g id="edge1" class="edge">
<title>eval&#45;&gt;d_small</title>
<path fill="none" stroke="black" d="M202.57,-90.39C234.9,-94.7 271.07,-99.52 304.68,-104"/>
<polygon fill="black" stroke="black" points="304.1,-107.45 314.48,-105.3 305.03,-100.51 304.1,-107.45"/>
</g>
<!-- d_big -->
<g id="node3" class="node">
<title>d_big</title>
<path fill="#f9e79f" stroke="black" d="M414.42,-64.69C414.42,-64.69 320.49,-37.37 320.49,-37.37 314.73,-35.7 314.73,-32.34 320.49,-30.67 320.49,-30.67 414.42,-3.35 414.42,-3.35 420.18,-1.68 431.7,-1.68 437.46,-3.35 437.46,-3.35 531.39,-30.67 531.39,-30.67 537.15,-32.34 537.15,-35.7 531.39,-37.37 531.39,-37.37 437.46,-64.69 437.46,-64.69 431.7,-66.36 420.18,-66.36 414.42,-64.69"/>
<text xml:space="preserve" text-anchor="middle" x="425.94" y="-35.77" font-family="Helvetica,sans-Serif" font-size="10.00">Negative markers with</text>
<text xml:space="preserve" text-anchor="middle" x="425.94" y="-24.52" font-family="Helvetica,sans-Serif" font-size="10.00">residual ≥1 cm</text>
</g>
<!-- eval&#45;&gt;d_big -->
<g id="edge2" class="edge">
<title>eval&#45;&gt;d_big</title>
<path fill="none" stroke="black" d="M202.57,-63.65C244.26,-58.1 292.32,-51.69 333.07,-46.26"/>
<polygon fill="black" stroke="black" points="333.41,-49.75 342.86,-44.96 332.49,-42.81 333.41,-49.75"/>
</g>
<!-- small_opt -->
<g id="node4" class="node">
<title>small_opt</title>
<path fill="#d5f5e3" stroke="black" d="M802.38,-135.66C802.38,-135.66 661.41,-135.66 661.41,-135.66 655.41,-135.66 649.41,-129.66 649.41,-123.66 649.41,-123.66 649.41,-102.38 649.41,-102.38 649.41,-96.38 655.41,-90.38 661.41,-90.38 661.41,-90.38 802.38,-90.38 802.38,-90.38 808.38,-90.38 814.38,-96.38 814.38,-102.38 814.38,-102.38 814.38,-123.66 814.38,-123.66 814.38,-129.66 808.38,-135.66 802.38,-135.66"/>
<text xml:space="preserve" text-anchor="middle" x="731.9" y="-120.39" font-family="Helvetica,sans-Serif" font-size="10.00">Surveillance (preferred)</text>
<text xml:space="preserve" text-anchor="middle" x="731.9" y="-109.14" font-family="Helvetica,sans-Serif" font-size="10.00">or Nerve&#45;sparing bilateral RPLND</text>
<text xml:space="preserve" text-anchor="middle" x="731.9" y="-97.89" font-family="Helvetica,sans-Serif" font-size="10.00">in selected cases (category 2B)</text>
</g>
<!-- d_small&#45;&gt;small_opt -->
<g id="edge3" class="edge">
<title>d_small&#45;&gt;small_opt</title>
<path fill="none" stroke="black" d="M594.48,-116.16C609.31,-115.82 623.95,-115.48 637.82,-115.16"/>
<polygon fill="black" stroke="black" points="637.84,-118.66 647.75,-114.93 637.68,-111.67 637.84,-118.66"/>
</g>
<!-- big_opt -->
<g id="node5" class="node">
<title>big_opt</title>
<path fill="#d5f5e3" stroke="black" d="M796.76,-65.02C796.76,-65.02 667.04,-65.02 667.04,-65.02 661.04,-65.02 655.04,-59.02 655.04,-53.02 655.04,-53.02 655.04,-41.02 655.04,-41.02 655.04,-35.02 661.04,-29.02 667.04,-29.02 667.04,-29.02 796.76,-29.02 796.76,-29.02 802.76,-29.02 808.76,-35.02 808.76,-41.02 808.76,-41.02 808.76,-53.02 808.76,-53.02 808.76,-59.02 802.76,-65.02 796.76,-65.02"/>
<text xml:space="preserve" text-anchor="middle" x="731.9" y="-43.14" font-family="Helvetica,sans-Serif" font-size="10.00">Nerve&#45;sparing bilateral RPLND</text>
</g>
<!-- d_big&#45;&gt;big_opt -->
<g id="edge4" class="edge">
<title>d_big&#45;&gt;big_opt</title>
<path fill="none" stroke="black" d="M529.42,-38.4C566.43,-39.99 607.84,-41.76 643.45,-43.28"/>
<polygon fill="black" stroke="black" points="643.14,-46.77 653.28,-43.7 643.44,-39.78 643.14,-46.77"/>
</g>
<!-- histo -->
<g id="node6" class="node">
<title>histo</title>
<path fill="#fcf3cf" stroke="black" d="M925.56,-91.59C925.56,-91.59 862.13,-78.45 862.13,-78.45 856.26,-77.24 856.26,-74.8 862.13,-73.59 862.13,-73.59 925.56,-60.45 925.56,-60.45 931.43,-59.24 943.18,-59.24 949.06,-60.45 949.06,-60.45 1012.48,-73.59 1012.48,-73.59 1018.36,-74.8 1018.36,-77.24 1012.48,-78.45 1012.48,-78.45 949.06,-91.59 949.06,-91.59 943.18,-92.8 931.43,-92.8 925.56,-91.59"/>
<text xml:space="preserve" text-anchor="middle" x="937.31" y="-72.14" font-family="Helvetica,sans-Serif" font-size="10.00">RPLND histology</text>
</g>
<!-- small_opt&#45;&gt;histo -->
<g id="edge5" class="edge">
<title>small_opt&#45;&gt;histo</title>
<path fill="none" stroke="black" d="M814.75,-98.13C835.98,-94.27 858.4,-90.19 878.13,-86.6"/>
<polygon fill="black" stroke="black" points="878.71,-90.05 887.92,-84.82 877.46,-83.17 878.71,-90.05"/>
</g>
<!-- big_opt&#45;&gt;histo -->
<g id="edge6" class="edge">
<title>big_opt&#45;&gt;histo</title>
<path fill="none" stroke="black" d="M809.22,-57.9C830.24,-60.9 852.8,-64.11 873,-66.99"/>
<polygon fill="black" stroke="black" points="872.37,-70.44 882.77,-68.39 873.36,-63.51 872.37,-70.44"/>
</g>
<!-- ter -->
<g id="node7" class="node">
<title>ter</title>
<path fill="#fcf3cf" stroke="black" d="M1238.14,-126.91C1238.14,-126.91 1161.15,-113.13 1161.15,-113.13 1155.24,-112.08 1155.24,-109.96 1161.15,-108.91 1161.15,-108.91 1238.14,-95.13 1238.14,-95.13 1244.05,-94.08 1255.86,-94.08 1261.77,-95.13 1261.77,-95.13 1338.76,-108.91 1338.76,-108.91 1344.67,-109.96 1344.67,-112.08 1338.76,-113.13 1338.76,-113.13 1261.77,-126.91 1261.77,-126.91 1255.86,-127.96 1244.05,-127.96 1238.14,-126.91"/>
<text xml:space="preserve" text-anchor="middle" x="1249.96" y="-107.14" font-family="Helvetica,sans-Serif" font-size="10.00">Teratoma or necrosis</text>
</g>
<!-- histo&#45;&gt;ter -->
<g id="edge7" class="edge">
<title>histo&#45;&gt;ter</title>
<path fill="none" stroke="black" d="M995.29,-82.44C1045.84,-88.14 1120,-96.49 1175.1,-102.7"/>
<polygon fill="black" stroke="black" points="1174.37,-106.14 1184.7,-103.78 1175.15,-99.18 1174.37,-106.14"/>
</g>
<!-- res -->
<g id="node8" class="node">
<title>res</title>
<path fill="#fcf3cf" stroke="black" d="M1238.14,-72.92C1238.14,-72.92 1072.05,-43.14 1072.05,-43.14 1066.14,-42.08 1066.14,-39.96 1072.05,-38.9 1072.05,-38.9 1238.14,-9.12 1238.14,-9.12 1244.05,-8.06 1255.86,-8.06 1261.77,-9.12 1261.77,-9.12 1427.86,-38.9 1427.86,-38.9 1433.77,-39.96 1433.77,-42.08 1427.86,-43.14 1427.86,-43.14 1261.77,-72.92 1261.77,-72.92 1255.86,-73.98 1244.05,-73.98 1238.14,-72.92"/>
<text xml:space="preserve" text-anchor="middle" x="1249.96" y="-42.77" font-family="Helvetica,sans-Serif" font-size="10.00">Residual embryonal, yolk sac,</text>
<text xml:space="preserve" text-anchor="middle" x="1249.96" y="-31.52" font-family="Helvetica,sans-Serif" font-size="10.00">choriocarcinoma, or seminoma element</text>
</g>
<!-- histo&#45;&gt;res -->
<g id="edge8" class="edge">
<title>histo&#45;&gt;res</title>
<path fill="none" stroke="black" d="M995.29,-69.6C1030.33,-65.65 1076.73,-60.42 1120.25,-55.52"/>
<polygon fill="black" stroke="black" points="1120.49,-59.02 1130.03,-54.42 1119.7,-52.06 1120.49,-59.02"/>
</g>
<!-- ter_tx -->
<g id="node9" class="node">
<title>ter_tx</title>
<path fill="#d5f5e3" stroke="black" d="M1588.9,-126.02C1588.9,-126.02 1540.93,-126.02 1540.93,-126.02 1534.93,-126.02 1528.93,-120.02 1528.93,-114.02 1528.93,-114.02 1528.93,-102.02 1528.93,-102.02 1528.93,-96.02 1534.93,-90.02 1540.93,-90.02 1540.93,-90.02 1588.9,-90.02 1588.9,-90.02 1594.9,-90.02 1600.9,-96.02 1600.9,-102.02 1600.9,-102.02 1600.9,-114.02 1600.9,-114.02 1600.9,-120.02 1594.9,-126.02 1588.9,-126.02"/>
<text xml:space="preserve" text-anchor="middle" x="1564.91" y="-104.14" font-family="Helvetica,sans-Serif" font-size="10.00">Surveillance</text>
</g>
<!-- ter&#45;&gt;ter_tx -->
<g id="edge9" class="edge">
<title>ter&#45;&gt;ter_tx</title>
<path fill="none" stroke="black" d="M1347.83,-110.09C1404.19,-109.55 1472.68,-108.89 1517.23,-108.47"/>
<polygon fill="black" stroke="black" points="1517.09,-111.97 1527.06,-108.37 1517.02,-104.97 1517.09,-111.97"/>
</g>
<!-- res_tx -->
<g id="node10" class="node">
<title>res_tx</title>
<path fill="#d5f5e3" stroke="black" d="M1642.15,-68.66C1642.15,-68.66 1487.68,-68.66 1487.68,-68.66 1481.68,-68.66 1475.68,-62.66 1475.68,-56.66 1475.68,-56.66 1475.68,-35.38 1475.68,-35.38 1475.68,-29.38 1481.68,-23.38 1487.68,-23.38 1487.68,-23.38 1642.15,-23.38 1642.15,-23.38 1648.15,-23.38 1654.15,-29.38 1654.15,-35.38 1654.15,-35.38 1654.15,-56.66 1654.15,-56.66 1654.15,-62.66 1648.15,-68.66 1642.15,-68.66"/>
<text xml:space="preserve" text-anchor="middle" x="1564.91" y="-53.39" font-family="Helvetica,sans-Serif" font-size="10.00">Chemotherapy (preferred) × 2 cycles</text>
<text xml:space="preserve" text-anchor="middle" x="1564.91" y="-42.14" font-family="Helvetica,sans-Serif" font-size="10.00">(EP or TIP or VIP or VeIP)</text>
<text xml:space="preserve" text-anchor="middle" x="1564.91" y="-30.89" font-family="Helvetica,sans-Serif" font-size="10.00">or Surveillance for select patients</text>
</g>
<!-- res&#45;&gt;res_tx -->
<g id="edge10" class="edge">
<title>res&#45;&gt;res_tx</title>
<path fill="none" stroke="black" d="M1426.64,-43.83C1439.42,-44.03 1452.02,-44.23 1464.1,-44.43"/>
<polygon fill="black" stroke="black" points="1463.95,-47.92 1474,-44.58 1464.06,-40.92 1463.95,-47.92"/>
</g>
<!-- fu10 -->
<g id="node11" class="node">
<title>fu10</title>
<path fill="#fdebd0" stroke="black" stroke-dasharray="5,2" d="M1839.37,-93.02C1839.37,-93.02 1702.15,-93.02 1702.15,-93.02 1696.15,-93.02 1690.15,-87.02 1690.15,-81.02 1690.15,-81.02 1690.15,-69.02 1690.15,-69.02 1690.15,-63.02 1696.15,-57.02 1702.15,-57.02 1702.15,-57.02 1839.37,-57.02 1839.37,-57.02 1845.37,-57.02 1851.37,-63.02 1851.37,-69.02 1851.37,-69.02 1851.37,-81.02 1851.37,-81.02 1851.37,-87.02 1845.37,-93.02 1839.37,-93.02"/>
<text xml:space="preserve" text-anchor="middle" x="1770.76" y="-71.14" font-family="Helvetica,sans-Serif" font-size="10.00">Follow&#45;up Table 10 (TEST&#45;B 2/3)</text>
</g>
<!-- ter_tx&#45;&gt;fu10 -->
<g id="edge11" class="edge">
<title>ter_tx&#45;&gt;fu10</title>
<path fill="none" stroke="black" d="M1600.95,-102.35C1622.46,-98.86 1651.09,-94.23 1678.65,-89.77"/>
<polygon fill="black" stroke="black" points="1679.15,-93.23 1688.46,-88.18 1678.03,-86.32 1679.15,-93.23"/>
</g>
<!-- res_tx&#45;&gt;fu10 -->
<g id="edge12" class="edge">
<title>res_tx&#45;&gt;fu10</title>
<path fill="none" stroke="black" d="M1654.43,-58.61C1662.39,-59.75 1670.46,-60.89 1678.45,-62.03"/>
<polygon fill="black" stroke="black" points="1677.76,-65.47 1688.15,-63.41 1678.75,-58.54 1677.76,-65.47"/>
</g>
<!-- note -->
<g id="node12" class="node">
<title>note</title>
<polygon fill="#fef9e7" stroke="black" points="2233.09,-95.41 1887.37,-95.41 1887.37,-54.63 2239.09,-54.63 2239.09,-89.41 2233.09,-95.41"/>
<polyline fill="none" stroke="black" points="2233.09,-95.41 2233.09,-89.41"/>
<polyline fill="none" stroke="black" points="2239.09,-89.41 2233.09,-89.41"/>
<text xml:space="preserve" text-anchor="middle" x="2063.23" y="-81.09" font-family="Helvetica,sans-Serif" font-size="9.00">Craniocaudal axis should not be used for residual&#45;mass measurement.</text>
<text xml:space="preserve" text-anchor="middle" x="2063.23" y="-71.34" font-family="Helvetica,sans-Serif" font-size="9.00">Surveillance reasonable if all residual masses resected have &lt;10% viable cancer.</text>
<text xml:space="preserve" text-anchor="middle" x="2063.23" y="-61.59" font-family="Helvetica,sans-Serif" font-size="9.00">EP/TIP/VIP/VeIP — see TEST&#45;E/F. FDG&#45;PET/CT not indicated for nonseminoma.</text>
</g>
</g>
</svg>
