<?xml version="1.0" encoding="UTF-8" standalone="no"?>
<!DOCTYPE svg PUBLIC "-//W3C//DTD SVG 1.1//EN"
 "http://www.w3.org/Graphics/SVG/1.1/DTD/svg11.dtd">
<!-- Generated by graphviz version 15.0.0 (20260523.1842)
 -->
<!-- Title: SEM3 Pages: 1 -->
<svg width="1752pt" height="330pt"
 viewBox="0.00 0.00 1752.00 330.00" xmlns="http://www.w3.org/2000/svg" xmlns:xlink="http://www.w3.org/1999/xlink">
<g id="graph0" class="graph" transform="scale(1 1) rotate(0) translate(4 326)">
<title>SEM3</title>
<polygon fill="white" stroke="none" points="-4,4 -4,-326 1747.75,-326 1747.75,4 -4,4"/>
<text xml:space="preserve" text-anchor="middle" x="871.87" y="-304.7" font-family="Helvetica,sans-Serif" font-weight="bold" font-size="14.00">SEM&#45;3 · Pure Seminoma — Stage IIA / IIB</text>
<!-- ii -->
<g id="node1" class="node">
<title>ii</title>
<path fill="#f9e79f" stroke="black" d="M70.41,-137C70.41,-137 12,-137 12,-137 6,-137 0,-131 0,-125 0,-125 0,-113 0,-113 0,-107 6,-101 12,-101 12,-101 70.41,-101 70.41,-101 76.41,-101 82.41,-107 82.41,-113 82.41,-113 82.41,-125 82.41,-125 82.41,-131 76.41,-137 70.41,-137"/>
<text xml:space="preserve" text-anchor="middle" x="41.2" y="-115.12" font-family="Helvetica,sans-Serif" font-size="10.00">Stage IIA / IIB</text>
</g>
<!-- size -->
<g id="node2" class="node">
<title>size</title>
<path fill="#f9e79f" stroke="black" d="M170.55,-133.74C170.55,-133.74 129.96,-122.26 129.96,-122.26 124.18,-120.63 124.18,-117.37 129.96,-115.74 129.96,-115.74 170.55,-104.26 170.55,-104.26 176.32,-102.63 187.87,-102.63 193.65,-104.26 193.65,-104.26 234.24,-115.74 234.24,-115.74 240.01,-117.37 240.01,-120.63 234.24,-122.26 234.24,-122.26 193.65,-133.74 193.65,-133.74 187.87,-135.37 176.32,-135.37 170.55,-133.74"/>
<text xml:space="preserve" text-anchor="middle" x="182.1" y="-115.12" font-family="Helvetica,sans-Serif" font-size="10.00">Nodal size</text>
</g>
<!-- ii&#45;&gt;size -->
<g id="edge1" class="edge">
<title>ii&#45;&gt;size</title>
<path fill="none" stroke="black" d="M82.75,-119C89.91,-119 97.56,-119 105.32,-119"/>
<polygon fill="black" stroke="black" points="105.21,-122.5 115.21,-119 105.21,-115.5 105.21,-122.5"/>
</g>
<!-- lt3 -->
<g id="node3" class="node">
<title>lt3</title>
<path fill="#f9e79f" stroke="black" d="M323.79,-191C323.79,-191 293.79,-191 293.79,-191 287.79,-191 281.79,-185 281.79,-179 281.79,-179 281.79,-167 281.79,-167 281.79,-161 287.79,-155 293.79,-155 293.79,-155 323.79,-155 323.79,-155 329.79,-155 335.79,-161 335.79,-167 335.79,-167 335.79,-179 335.79,-179 335.79,-185 329.79,-191 323.79,-191"/>
<text xml:space="preserve" text-anchor="middle" x="308.79" y="-169.12" font-family="Helvetica,sans-Serif" font-size="10.00">&lt; 3 cm</text>
</g>
<!-- size&#45;&gt;lt3 -->
<g id="edge2" class="edge">
<title>size&#45;&gt;lt3</title>
<path fill="none" stroke="black" d="M208.33,-129.93C226.31,-137.71 250.75,-148.3 270.91,-157.03"/>
<polygon fill="black" stroke="black" points="269.34,-160.17 279.91,-160.93 272.13,-153.74 269.34,-160.17"/>
</g>
<!-- gt3 -->
<g id="node4" class="node">
<title>gt3</title>
<path fill="#f9e79f" stroke="black" d="M323.79,-110C323.79,-110 293.79,-110 293.79,-110 287.79,-110 281.79,-104 281.79,-98 281.79,-98 281.79,-86 281.79,-86 281.79,-80 287.79,-74 293.79,-74 293.79,-74 323.79,-74 323.79,-74 329.79,-74 335.79,-80 335.79,-86 335.79,-86 335.79,-98 335.79,-98 335.79,-104 329.79,-110 323.79,-110"/>
<text xml:space="preserve" text-anchor="middle" x="308.79" y="-88.12" font-family="Helvetica,sans-Serif" font-size="10.00">3–5 cm</text>
</g>
<!-- size&#45;&gt;gt3 -->
<g id="edge3" class="edge">
<title>size&#45;&gt;gt3</title>
<path fill="none" stroke="black" d="M219.5,-111.12C235.46,-107.66 254.19,-103.61 270.28,-100.12"/>
<polygon fill="black" stroke="black" points="270.94,-103.56 279.97,-98.02 269.46,-96.72 270.94,-103.56"/>
</g>
<!-- rt -->
<g id="node5" class="node">
<title>rt</title>
<path fill="#d5f5e3" stroke="black" d="M565.95,-299C565.95,-299 383.79,-299 383.79,-299 377.79,-299 371.79,-293 371.79,-287 371.79,-287 371.79,-275 371.79,-275 371.79,-269 377.79,-263 383.79,-263 383.79,-263 565.95,-263 565.95,-263 571.95,-263 577.95,-269 577.95,-275 577.95,-275 577.95,-287 577.95,-287 577.95,-293 571.95,-299 565.95,-299"/>
<text xml:space="preserve" text-anchor="middle" x="474.87" y="-282.75" font-family="Helvetica,sans-Serif" font-size="10.00">RT to para&#45;aortic and ipsilateral iliac nodes</text>
<text xml:space="preserve" text-anchor="middle" x="474.87" y="-271.5" font-family="Helvetica,sans-Serif" font-size="10.00">30 Gy (1–2 cm) or 36 Gy (2–3 cm)</text>
</g>
<!-- lt3&#45;&gt;rt -->
<g id="edge4" class="edge">
<title>lt3&#45;&gt;rt</title>
<path fill="none" stroke="black" d="M319.07,-191.31C329.43,-209.88 347.92,-238.09 371.79,-254 373.59,-255.2 375.44,-256.35 377.34,-257.45"/>
<polygon fill="black" stroke="black" points="375.29,-260.33 385.78,-261.82 378.51,-254.11 375.29,-260.33"/>
</g>
<!-- chemo -->
<g id="node6" class="node">
<title>chemo</title>
<path fill="#d5f5e3" stroke="black" d="M545.7,-245C545.7,-245 404.04,-245 404.04,-245 398.04,-245 392.04,-239 392.04,-233 392.04,-233 392.04,-221 392.04,-221 392.04,-215 398.04,-209 404.04,-209 404.04,-209 545.7,-209 545.7,-209 551.7,-209 557.7,-215 557.7,-221 557.7,-221 557.7,-233 557.7,-233 557.7,-239 551.7,-245 545.7,-245"/>
<text xml:space="preserve" text-anchor="middle" x="474.87" y="-228.75" font-family="Helvetica,sans-Serif" font-size="10.00">First&#45;line chemotherapy:</text>
<text xml:space="preserve" text-anchor="middle" x="474.87" y="-217.5" font-family="Helvetica,sans-Serif" font-size="10.00">BEP × 3 cycles or EP × 4 cycles</text>
</g>
<!-- lt3&#45;&gt;chemo -->
<g id="edge5" class="edge">
<title>lt3&#45;&gt;chemo</title>
<path fill="none" stroke="black" d="M335.99,-185.46C346.91,-190.38 359.81,-195.84 371.79,-200 377.06,-201.83 382.53,-203.61 388.06,-205.33"/>
<polygon fill="black" stroke="black" points="386.73,-208.58 397.32,-208.1 388.74,-201.88 386.73,-208.58"/>
</g>
<!-- rplnd -->
<g id="node7" class="node">
<title>rplnd</title>
<path fill="#d5f5e3" stroke="black" d="M526.95,-137C526.95,-137 422.79,-137 422.79,-137 416.79,-137 410.79,-131 410.79,-125 410.79,-125 410.79,-113 410.79,-113 410.79,-107 416.79,-101 422.79,-101 422.79,-101 526.95,-101 526.95,-101 532.95,-101 538.95,-107 538.95,-113 538.95,-113 538.95,-125 538.95,-125 538.95,-131 532.95,-137 526.95,-137"/>
<text xml:space="preserve" text-anchor="middle" x="474.87" y="-120.75" font-family="Helvetica,sans-Serif" font-size="10.00">Nerve&#45;sparing RPLND</text>
<text xml:space="preserve" text-anchor="middle" x="474.87" y="-109.5" font-family="Helvetica,sans-Serif" font-size="10.00">(category 2B for 2–3 cm)</text>
</g>
<!-- lt3&#45;&gt;rplnd -->
<g id="edge6" class="edge">
<title>lt3&#45;&gt;rplnd</title>
<path fill="none" stroke="black" d="M335.99,-160.54C346.91,-155.62 359.81,-150.16 371.79,-146 380.69,-142.91 390.12,-139.97 399.53,-137.24"/>
<polygon fill="black" stroke="black" points="400.38,-140.64 409.06,-134.56 398.49,-133.9 400.38,-140.64"/>
</g>
<!-- carbort -->
<g id="node8" class="node">
<title>carbort</title>
<path fill="#d5f5e3" stroke="black" d="M510.45,-191C510.45,-191 439.29,-191 439.29,-191 433.29,-191 427.29,-185 427.29,-179 427.29,-179 427.29,-167 427.29,-167 427.29,-161 433.29,-155 439.29,-155 439.29,-155 510.45,-155 510.45,-155 516.45,-155 522.45,-161 522.45,-167 522.45,-167 522.45,-179 522.45,-179 522.45,-185 516.45,-191 510.45,-191"/>
<text xml:space="preserve" text-anchor="middle" x="474.87" y="-174.75" font-family="Helvetica,sans-Serif" font-size="10.00">Carboplatin + RT</text>
<text xml:space="preserve" text-anchor="middle" x="474.87" y="-163.5" font-family="Helvetica,sans-Serif" font-size="10.00">(category 2B)</text>
</g>
<!-- lt3&#45;&gt;carbort -->
<g id="edge7" class="edge">
<title>lt3&#45;&gt;carbort</title>
<path fill="none" stroke="black" d="M336.15,-173C357.55,-173 388.52,-173 415.68,-173"/>
<polygon fill="black" stroke="black" points="415.53,-176.5 425.53,-173 415.53,-169.5 415.53,-176.5"/>
</g>
<!-- chemo3 -->
<g id="node17" class="node">
<title>chemo3</title>
<path fill="#d5f5e3" stroke="black" d="M545.7,-60C545.7,-60 404.04,-60 404.04,-60 398.04,-60 392.04,-54 392.04,-48 392.04,-48 392.04,-36 392.04,-36 392.04,-30 398.04,-24 404.04,-24 404.04,-24 545.7,-24 545.7,-24 551.7,-24 557.7,-30 557.7,-36 557.7,-36 557.7,-48 557.7,-48 557.7,-54 551.7,-60 545.7,-60"/>
<text xml:space="preserve" text-anchor="middle" x="474.87" y="-43.75" font-family="Helvetica,sans-Serif" font-size="10.00">First&#45;line chemotherapy:</text>
<text xml:space="preserve" text-anchor="middle" x="474.87" y="-32.5" font-family="Helvetica,sans-Serif" font-size="10.00">BEP × 3 cycles or EP × 4 cycles</text>
</g>
<!-- gt3&#45;&gt;chemo3 -->
<g id="edge16" class="edge">
<title>gt3&#45;&gt;chemo3</title>
<path fill="none" stroke="black" d="M336.15,-83.97C354.14,-78.48 378.89,-70.94 402.45,-63.76"/>
<polygon fill="black" stroke="black" points="403.18,-67.2 411.72,-60.94 401.13,-60.5 403.18,-67.2"/>
</g>
<!-- fu3 -->
<g id="node18" class="node">
<title>fu3</title>
<path fill="#fdebd0" stroke="black" stroke-dasharray="5,2" d="M698.61,-272C698.61,-272 625.95,-272 625.95,-272 619.95,-272 613.95,-266 613.95,-260 613.95,-260 613.95,-248 613.95,-248 613.95,-242 619.95,-236 625.95,-236 625.95,-236 698.61,-236 698.61,-236 704.61,-236 710.61,-242 710.61,-248 710.61,-248 710.61,-260 710.61,-260 710.61,-266 704.61,-272 698.61,-272"/>
<text xml:space="preserve" text-anchor="middle" x="662.28" y="-255.75" font-family="Helvetica,sans-Serif" font-size="10.00">Follow&#45;up Table 3</text>
<text xml:space="preserve" text-anchor="middle" x="662.28" y="-244.5" font-family="Helvetica,sans-Serif" font-size="10.00">(TEST&#45;A 2/3)</text>
</g>
<!-- rt&#45;&gt;fu3 -->
<g id="edge17" class="edge">
<title>rt&#45;&gt;fu3</title>
<path fill="none" stroke="black" d="M578.33,-266.08C586.45,-264.9 594.47,-263.73 602.14,-262.61"/>
<polygon fill="black" stroke="black" points="602.58,-266.09 611.97,-261.18 601.57,-259.16 602.58,-266.09"/>
</g>
<!-- chemo&#45;&gt;fu3 -->
<g id="edge18" class="edge">
<title>chemo&#45;&gt;fu3</title>
<path fill="none" stroke="black" d="M558,-238.96C572.98,-241.14 588.33,-243.38 602.47,-245.44"/>
<polygon fill="black" stroke="black" points="601.61,-248.85 612.01,-246.83 602.62,-241.92 601.61,-248.85"/>
</g>
<!-- pN0 -->
<g id="node9" class="node">
<title>pN0</title>
<path fill="#fcf3cf" stroke="black" d="M651.52,-212.69C651.52,-212.69 636.58,-205.31 636.58,-205.31 631.2,-202.66 631.2,-197.34 636.58,-194.69 636.58,-194.69 651.52,-187.31 651.52,-187.31 656.9,-184.66 667.66,-184.66 673.04,-187.31 673.04,-187.31 687.98,-194.69 687.98,-194.69 693.36,-197.34 693.36,-202.66 687.98,-205.31 687.98,-205.31 673.04,-212.69 673.04,-212.69 667.66,-215.34 656.9,-215.34 651.52,-212.69"/>
<text xml:space="preserve" text-anchor="middle" x="662.28" y="-196.12" font-family="Helvetica,sans-Serif" font-size="10.00">pN0</text>
</g>
<!-- rplnd&#45;&gt;pN0 -->
<g id="edge8" class="edge">
<title>rplnd&#45;&gt;pN0</title>
<path fill="none" stroke="black" d="M539.32,-131.72C552.43,-135.46 565.9,-140.17 577.95,-146 595.95,-154.72 597.23,-162.02 613.95,-173 620.28,-177.16 627.28,-181.35 633.91,-185.16"/>
<polygon fill="black" stroke="black" points="632.13,-188.17 642.56,-190.02 635.55,-182.07 632.13,-188.17"/>
</g>
<!-- pN1 -->
<g id="node10" class="node">
<title>pN1</title>
<path fill="#fcf3cf" stroke="black" d="M651.52,-158.69C651.52,-158.69 636.58,-151.31 636.58,-151.31 631.2,-148.66 631.2,-143.34 636.58,-140.69 636.58,-140.69 651.52,-133.31 651.52,-133.31 656.9,-130.66 667.66,-130.66 673.04,-133.31 673.04,-133.31 687.98,-140.69 687.98,-140.69 693.36,-143.34 693.36,-148.66 687.98,-151.31 687.98,-151.31 673.04,-158.69 673.04,-158.69 667.66,-161.34 656.9,-161.34 651.52,-158.69"/>
<text xml:space="preserve" text-anchor="middle" x="662.28" y="-142.12" font-family="Helvetica,sans-Serif" font-size="10.00">pN1</text>
</g>
<!-- rplnd&#45;&gt;pN1 -->
<g id="edge9" class="edge">
<title>rplnd&#45;&gt;pN1</title>
<path fill="none" stroke="black" d="M539.42,-128.25C566.8,-132.24 597.97,-136.78 621.93,-140.27"/>
<polygon fill="black" stroke="black" points="621.16,-143.7 631.56,-141.67 622.17,-136.77 621.16,-143.7"/>
</g>
<!-- pN2 -->
<g id="node11" class="node">
<title>pN2</title>
<path fill="#fcf3cf" stroke="black" d="M651.52,-104.69C651.52,-104.69 636.58,-97.31 636.58,-97.31 631.2,-94.66 631.2,-89.34 636.58,-86.69 636.58,-86.69 651.52,-79.31 651.52,-79.31 656.9,-76.66 667.66,-76.66 673.04,-79.31 673.04,-79.31 687.98,-86.69 687.98,-86.69 693.36,-89.34 693.36,-94.66 687.98,-97.31 687.98,-97.31 673.04,-104.69 673.04,-104.69 667.66,-107.34 656.9,-107.34 651.52,-104.69"/>
<text xml:space="preserve" text-anchor="middle" x="662.28" y="-88.12" font-family="Helvetica,sans-Serif" font-size="10.00">pN2</text>
</g>
<!-- rplnd&#45;&gt;pN2 -->
<g id="edge10" class="edge">
<title>rplnd&#45;&gt;pN2</title>
<path fill="none" stroke="black" d="M539.42,-109.75C566.8,-105.76 597.97,-101.22 621.93,-97.73"/>
<polygon fill="black" stroke="black" points="622.17,-101.23 631.56,-96.33 621.16,-94.3 622.17,-101.23"/>
</g>
<!-- pN3 -->
<g id="node12" class="node">
<title>pN3</title>
<path fill="#fcf3cf" stroke="black" d="M651.52,-49.69C651.52,-49.69 636.58,-42.31 636.58,-42.31 631.2,-39.66 631.2,-34.34 636.58,-31.69 636.58,-31.69 651.52,-24.31 651.52,-24.31 656.9,-21.66 667.66,-21.66 673.04,-24.31 673.04,-24.31 687.98,-31.69 687.98,-31.69 693.36,-34.34 693.36,-39.66 687.98,-42.31 687.98,-42.31 673.04,-49.69 673.04,-49.69 667.66,-52.34 656.9,-52.34 651.52,-49.69"/>
<text xml:space="preserve" text-anchor="middle" x="662.28" y="-33.12" font-family="Helvetica,sans-Serif" font-size="10.00">pN3</text>
</g>
<!-- rplnd&#45;&gt;pN3 -->
<g id="edge11" class="edge">
<title>rplnd&#45;&gt;pN3</title>
<path fill="none" stroke="black" d="M517.48,-100.6C552.28,-85.21 601.05,-63.63 631.9,-49.99"/>
<polygon fill="black" stroke="black" points="633.29,-53.21 641.02,-45.96 630.45,-46.8 633.29,-53.21"/>
</g>
<!-- carbort&#45;&gt;fu3 -->
<g id="edge19" class="edge">
<title>carbort&#45;&gt;fu3</title>
<path fill="none" stroke="black" d="M522.95,-181.46C540.72,-185.68 560.79,-191.69 577.95,-200 595.95,-208.72 597.23,-216.02 613.95,-227 615.33,-227.91 616.75,-228.82 618.18,-229.73"/>
<polygon fill="black" stroke="black" points="616.21,-232.62 626.57,-234.85 619.86,-226.65 616.21,-232.62"/>
</g>
<!-- o0 -->
<g id="node13" class="node">
<title>o0</title>
<path fill="#d5f5e3" stroke="black" d="M881.52,-227C881.52,-227 832.11,-227 832.11,-227 826.11,-227 820.11,-221 820.11,-215 820.11,-215 820.11,-203 820.11,-203 820.11,-197 826.11,-191 832.11,-191 832.11,-191 881.52,-191 881.52,-191 887.52,-191 893.52,-197 893.52,-203 893.52,-203 893.52,-215 893.52,-215 893.52,-221 887.52,-227 881.52,-227"/>
<text xml:space="preserve" text-anchor="middle" x="856.81" y="-205.12" font-family="Helvetica,sans-Serif" font-size="10.00">Surveillance</text>
</g>
<!-- pN0&#45;&gt;o0 -->
<g id="edge12" class="edge">
<title>pN0&#45;&gt;o0</title>
<path fill="none" stroke="black" d="M696.38,-201.55C727.29,-202.99 773.75,-205.16 808.56,-206.79"/>
<polygon fill="black" stroke="black" points="808.22,-210.28 818.37,-207.25 808.54,-203.29 808.22,-210.28"/>
</g>
<!-- o1 -->
<g id="node14" class="node">
<title>o1</title>
<path fill="#d5f5e3" stroke="black" d="M930.27,-173.35C930.27,-173.35 783.36,-173.35 783.36,-173.35 777.36,-173.35 771.36,-167.35 771.36,-161.35 771.36,-161.35 771.36,-138.64 771.36,-138.64 771.36,-132.64 777.36,-126.64 783.36,-126.64 783.36,-126.64 930.27,-126.64 930.27,-126.64 936.27,-126.64 942.27,-132.64 942.27,-138.64 942.27,-138.64 942.27,-161.35 942.27,-161.35 942.27,-167.35 936.27,-173.35 930.27,-173.35"/>
<text xml:space="preserve" text-anchor="middle" x="856.81" y="-157.38" font-family="Helvetica,sans-Serif" font-size="10.00">Surveillance (preferred)</text>
<text xml:space="preserve" text-anchor="middle" x="856.81" y="-146.12" font-family="Helvetica,sans-Serif" font-size="10.00">or Adjuvant chemotherapy (cat 2B)</text>
<text xml:space="preserve" text-anchor="middle" x="856.81" y="-134.88" font-family="Helvetica,sans-Serif" font-size="10.00">[EP × 2]</text>
</g>
<!-- pN1&#45;&gt;o1 -->
<g id="edge13" class="edge">
<title>pN1&#45;&gt;o1</title>
<path fill="none" stroke="black" d="M698.14,-146.72C715.58,-147.09 737.64,-147.54 759.69,-148"/>
<polygon fill="black" stroke="black" points="759.61,-151.5 769.68,-148.21 759.75,-144.5 759.61,-151.5"/>
</g>
<!-- o2 -->
<g id="node15" class="node">
<title>o2</title>
<path fill="#d5f5e3" stroke="black" d="M931.39,-109C931.39,-109 782.23,-109 782.23,-109 776.23,-109 770.23,-103 770.23,-97 770.23,-97 770.23,-85 770.23,-85 770.23,-79 776.23,-73 782.23,-73 782.23,-73 931.39,-73 931.39,-73 937.39,-73 943.39,-79 943.39,-85 943.39,-85 943.39,-97 943.39,-97 943.39,-103 937.39,-109 931.39,-109"/>
<text xml:space="preserve" text-anchor="middle" x="856.81" y="-92.75" font-family="Helvetica,sans-Serif" font-size="10.00">Surveillance</text>
<text xml:space="preserve" text-anchor="middle" x="856.81" y="-81.5" font-family="Helvetica,sans-Serif" font-size="10.00">or Adjuvant chemotherapy [EP × 2]</text>
</g>
<!-- pN2&#45;&gt;o2 -->
<g id="edge14" class="edge">
<title>pN2&#45;&gt;o2</title>
<path fill="none" stroke="black" d="M699.04,-91.81C716,-91.73 737.18,-91.62 758.43,-91.51"/>
<polygon fill="black" stroke="black" points="758.37,-95.01 768.35,-91.45 758.33,-88.01 758.37,-95.01"/>
</g>
<!-- o3 -->
<g id="node16" class="node">
<title>o3</title>
<path fill="#d5f5e3" stroke="black" d="M955.02,-55C955.02,-55 758.61,-55 758.61,-55 752.61,-55 746.61,-49 746.61,-43 746.61,-43 746.61,-31 746.61,-31 746.61,-25 752.61,-19 758.61,-19 758.61,-19 955.02,-19 955.02,-19 961.02,-19 967.02,-25 967.02,-31 967.02,-31 967.02,-43 967.02,-43 967.02,-49 961.02,-55 955.02,-55"/>
<text xml:space="preserve" text-anchor="middle" x="856.81" y="-38.75" font-family="Helvetica,sans-Serif" font-size="10.00">Surveillance (cat 2B)</text>
<text xml:space="preserve" text-anchor="middle" x="856.81" y="-27.5" font-family="Helvetica,sans-Serif" font-size="10.00">or Adjuvant chemotherapy (preferred) [EP × 2]</text>
</g>
<!-- pN3&#45;&gt;o3 -->
<g id="edge15" class="edge">
<title>pN3&#45;&gt;o3</title>
<path fill="none" stroke="black" d="M699.49,-37C710.02,-37 722.15,-37 734.9,-37"/>
<polygon fill="black" stroke="black" points="734.72,-40.5 744.72,-37 734.72,-33.5 734.72,-40.5"/>
</g>
<!-- fu45 -->
<g id="node19" class="node">
<title>fu45</title>
<path fill="#fdebd0" stroke="black" stroke-dasharray="5,2" d="M1147.68,-142C1147.68,-142 1015.02,-142 1015.02,-142 1009.02,-142 1003.02,-136 1003.02,-130 1003.02,-130 1003.02,-118 1003.02,-118 1003.02,-112 1009.02,-106 1015.02,-106 1015.02,-106 1147.68,-106 1147.68,-106 1153.68,-106 1159.68,-112 1159.68,-118 1159.68,-118 1159.68,-130 1159.68,-130 1159.68,-136 1153.68,-142 1147.68,-142"/>
<text xml:space="preserve" text-anchor="middle" x="1081.35" y="-125.75" font-family="Helvetica,sans-Serif" font-size="10.00">Follow&#45;up Table 4 (TEST&#45;A 2/3)</text>
<text xml:space="preserve" text-anchor="middle" x="1081.35" y="-114.5" font-family="Helvetica,sans-Serif" font-size="10.00">or Table 5 (TEST&#45;A 3/3)</text>
</g>
<!-- o0&#45;&gt;fu45 -->
<g id="edge20" class="edge">
<title>o0&#45;&gt;fu45</title>
<path fill="none" stroke="black" d="M893.85,-202.28C915.45,-197.71 943.24,-190.89 967.02,-182 991.93,-172.69 1018.45,-159.32 1039.58,-147.76"/>
<polygon fill="black" stroke="black" points="1041.12,-150.91 1048.16,-143 1037.72,-144.79 1041.12,-150.91"/>
</g>
<!-- o1&#45;&gt;fu45 -->
<g id="edge21" class="edge">
<title>o1&#45;&gt;fu45</title>
<path fill="none" stroke="black" d="M942.58,-140.1C958.65,-138.22 975.5,-136.25 991.68,-134.36"/>
<polygon fill="black" stroke="black" points="991.73,-137.88 1001.26,-133.24 990.92,-130.92 991.73,-137.88"/>
</g>
<!-- o2&#45;&gt;fu45 -->
<g id="edge22" class="edge">
<title>o2&#45;&gt;fu45</title>
<path fill="none" stroke="black" d="M943.85,-103.76C959.4,-106.06 975.64,-108.47 991.28,-110.79"/>
<polygon fill="black" stroke="black" points="990.63,-114.23 1001.04,-112.24 991.66,-107.31 990.63,-114.23"/>
</g>
<!-- o3&#45;&gt;fu45 -->
<g id="edge23" class="edge">
<title>o3&#45;&gt;fu45</title>
<path fill="none" stroke="black" d="M941.64,-55.49C950.3,-58.06 958.9,-60.9 967.02,-64 992.4,-73.69 1019.33,-87.77 1040.57,-99.86"/>
<polygon fill="black" stroke="black" points="1038.79,-102.88 1049.2,-104.85 1042.3,-96.82 1038.79,-102.88"/>
</g>
<!-- fu6 -->
<g id="node20" class="node">
<title>fu6</title>
<path fill="#fdebd0" stroke="black" stroke-dasharray="5,2" d="M1117.68,-36C1117.68,-36 1045.02,-36 1045.02,-36 1039.02,-36 1033.02,-30 1033.02,-24 1033.02,-24 1033.02,-12 1033.02,-12 1033.02,-6 1039.02,0 1045.02,0 1045.02,0 1117.68,0 1117.68,0 1123.68,0 1129.68,-6 1129.68,-12 1129.68,-12 1129.68,-24 1129.68,-24 1129.68,-30 1123.68,-36 1117.68,-36"/>
<text xml:space="preserve" text-anchor="middle" x="1081.35" y="-19.75" font-family="Helvetica,sans-Serif" font-size="10.00">Follow&#45;up Table 6</text>
<text xml:space="preserve" text-anchor="middle" x="1081.35" y="-8.5" font-family="Helvetica,sans-Serif" font-size="10.00">(TEST&#45;A 3/3)</text>
</g>
<!-- chemo3&#45;&gt;fu6 -->
<g id="edge24" class="edge">
<title>chemo3&#45;&gt;fu6</title>
<path fill="none" stroke="black" d="M541.7,-23.52C564.4,-18.02 590.11,-12.73 613.95,-10 759.67,6.67 932.65,-4.25 1021.38,-12.07"/>
<polygon fill="black" stroke="black" points="1021.03,-15.55 1031.31,-12.96 1021.66,-8.58 1021.03,-15.55"/>
</g>
<!-- recur -->
<g id="node21" class="node">
<title>recur</title>
<path fill="#f5b7b1" stroke="black" d="M1348.59,-142C1348.59,-142 1207.68,-142 1207.68,-142 1201.68,-142 1195.68,-136 1195.68,-130 1195.68,-130 1195.68,-118 1195.68,-118 1195.68,-112 1201.68,-106 1207.68,-106 1207.68,-106 1348.59,-106 1348.59,-106 1354.59,-106 1360.59,-112 1360.59,-118 1360.59,-118 1360.59,-130 1360.59,-130 1360.59,-136 1354.59,-142 1348.59,-142"/>
<text xml:space="preserve" text-anchor="middle" x="1278.13" y="-125.75" font-family="Helvetica,sans-Serif" font-size="10.00">For recurrence, treat according to</text>
<text xml:space="preserve" text-anchor="middle" x="1278.13" y="-114.5" font-family="Helvetica,sans-Serif" font-size="10.00">extent of disease at relapse</text>
</g>
<!-- fu3&#45;&gt;recur -->
<g id="edge25" class="edge">
<title>fu3&#45;&gt;recur</title>
<path fill="none" stroke="black" d="M710.92,-255.37C771.19,-256.15 877.89,-254.33 967.02,-236 1061.96,-216.47 1166.99,-173.77 1227.21,-147.1"/>
<polygon fill="black" stroke="black" points="1228.48,-150.37 1236.18,-143.1 1225.63,-143.98 1228.48,-150.37"/>
</g>
<!-- fu45&#45;&gt;recur -->
<g id="edge26" class="edge">
<title>fu45&#45;&gt;recur</title>
<path fill="none" stroke="black" d="M1160.17,-124C1168.02,-124 1176.05,-124 1184.04,-124"/>
<polygon fill="black" stroke="black" points="1183.77,-127.5 1193.77,-124 1183.77,-120.5 1183.77,-127.5"/>
</g>
<!-- fu6&#45;&gt;recur -->
<g id="edge27" class="edge">
<title>fu6&#45;&gt;recur</title>
<path fill="none" stroke="black" d="M1116.28,-36.46C1148.72,-54.12 1197.8,-80.83 1233.21,-100.1"/>
<polygon fill="black" stroke="black" points="1231.48,-103.14 1241.94,-104.85 1234.83,-96.99 1231.48,-103.14"/>
</g>
<!-- note -->
<g id="node22" class="node">
<title>note</title>
<polygon fill="#fef9e7" stroke="black" points="1737.75,-145.1 1396.59,-145.1 1396.59,-102.89 1743.75,-102.89 1743.75,-139.1 1737.75,-145.1"/>
<polyline fill="none" stroke="black" points="1737.75,-145.1 1737.75,-139.1"/>
<polyline fill="none" stroke="black" points="1743.75,-139.1 1737.75,-139.1"/>
<text xml:space="preserve" text-anchor="middle" x="1570.17" y="-130.07" font-family="Helvetica,sans-Serif" font-size="9.00">Shared decision&#45;making for IIA/IIB (recurrence rates, dual&#45;therapy potential).</text>
<text xml:space="preserve" text-anchor="middle" x="1570.17" y="-120.33" font-family="Helvetica,sans-Serif" font-size="9.00">Adjuvant chemo after RPLND is based on nonseminoma data (EP × 2; evolving).</text>
<text xml:space="preserve" text-anchor="middle" x="1570.17" y="-110.58" font-family="Helvetica,sans-Serif" font-size="9.00">BEP=Bleomycin/Etoposide/Cisplatin · EP=Etoposide/Cisplatin</text>
</g>
</g>
</svg>
