<?xml version="1.0" encoding="UTF-8" standalone="no"?>
<!DOCTYPE svg PUBLIC "-//W3C//DTD SVG 1.1//EN"
 "http://www.w3.org/Graphics/SVG/1.1/DTD/svg11.dtd">
<!-- Generated by graphviz version 15.0.0 (20260523.1842)
 -->
<!-- Title: SEM7 Pages: 1 -->
<svg width="2555pt" height="271pt"
 viewBox="0.00 0.00 2555.00 271.00" xmlns="http://www.w3.org/2000/svg" xmlns:xlink="http://www.w3.org/1999/xlink">
<g id="graph0" class="graph" transform="scale(1 1) rotate(0) translate(4 267.04)">
<title>SEM7</title>
<polygon fill="white" stroke="none" points="-4,4 -4,-267.04 2550.94,-267.04 2550.94,4 -4,4"/>
<text xml:space="preserve" text-anchor="middle" x="1273.47" y="-245.74" font-family="Helvetica,sans-Serif" font-weight="bold" font-size="14.00">SEM&#45;7 · Seminoma — Post Second&#45;Line Therapy Management</text>
<!-- eval -->
<g id="node1" class="node">
<title>eval</title>
<path fill="#d6eaf8" stroke="black" d="M107.97,-142.65C107.97,-142.65 12,-142.65 12,-142.65 6,-142.65 0,-136.65 0,-130.65 0,-130.65 0,-109.38 0,-109.38 0,-103.38 6,-97.38 12,-97.38 12,-97.38 107.97,-97.38 107.97,-97.38 113.97,-97.38 119.97,-103.38 119.97,-109.38 119.97,-109.38 119.97,-130.65 119.97,-130.65 119.97,-136.65 113.97,-142.65 107.97,-142.65"/>
<text xml:space="preserve" text-anchor="start" x="9.36" y="-127.39" font-family="Helvetica,sans-Serif" font-size="10.00">Restaging:</text>
<text xml:space="preserve" text-anchor="start" x="9.36" y="-116.14" font-family="Helvetica,sans-Serif" font-size="10.00">• C/A/P CT or MRI</text>
<text xml:space="preserve" text-anchor="start" x="9.36" y="-104.89" font-family="Helvetica,sans-Serif" font-size="10.00">• Serum tumor markers</text>
</g>
<!-- r_none -->
<g id="node2" class="node">
<title>r_none</title>
<path fill="#f9e79f" stroke="black" d="M327.14,-237.85C327.14,-237.85 167.77,-208.21 167.77,-208.21 161.87,-207.12 161.87,-204.92 167.77,-203.83 167.77,-203.83 327.14,-174.19 327.14,-174.19 333.04,-173.1 344.84,-173.1 350.74,-174.19 350.74,-174.19 510.11,-203.83 510.11,-203.83 516.01,-204.92 516.01,-207.12 510.11,-208.21 510.11,-208.21 350.74,-237.85 350.74,-237.85 344.84,-238.94 333.04,-238.94 327.14,-237.85"/>
<text xml:space="preserve" text-anchor="middle" x="338.94" y="-207.77" font-family="Helvetica,sans-Serif" font-size="10.00">No residual mass, OR residual ≤3 cm</text>
<text xml:space="preserve" text-anchor="middle" x="338.94" y="-196.52" font-family="Helvetica,sans-Serif" font-size="10.00">with normal AFP &amp; beta&#45;hCG</text>
</g>
<!-- eval&#45;&gt;r_none -->
<g id="edge1" class="edge">
<title>eval&#45;&gt;r_none</title>
<path fill="none" stroke="black" d="M107.12,-143.07C122.42,-150.12 139.69,-157.47 155.97,-163.02 181.89,-171.86 210.5,-179.54 237.2,-185.87"/>
<polygon fill="black" stroke="black" points="236.11,-189.21 246.64,-188.07 237.69,-182.39 236.11,-189.21"/>
</g>
<!-- r_big -->
<g id="node3" class="node">
<title>r_big</title>
<path fill="#f9e79f" stroke="black" d="M327.26,-151.31C327.26,-151.31 205.15,-122.75 205.15,-122.75 199.31,-121.39 199.31,-118.65 205.15,-117.29 205.15,-117.29 327.26,-88.73 327.26,-88.73 333.1,-87.37 344.78,-87.37 350.62,-88.73 350.62,-88.73 472.73,-117.29 472.73,-117.29 478.57,-118.65 478.57,-121.39 472.73,-122.75 472.73,-122.75 350.62,-151.31 350.62,-151.31 344.78,-152.67 333.1,-152.67 327.26,-151.31"/>
<text xml:space="preserve" text-anchor="middle" x="338.94" y="-121.77" font-family="Helvetica,sans-Serif" font-size="10.00">Residual mass &gt;3 cm</text>
<text xml:space="preserve" text-anchor="middle" x="338.94" y="-110.52" font-family="Helvetica,sans-Serif" font-size="10.00">with normal AFP &amp; beta&#45;hCG</text>
</g>
<!-- eval&#45;&gt;r_big -->
<g id="edge2" class="edge">
<title>eval&#45;&gt;r_big</title>
<path fill="none" stroke="black" d="M120.4,-120.02C138.25,-120.02 158.74,-120.02 179.85,-120.02"/>
<polygon fill="black" stroke="black" points="179.76,-123.52 189.76,-120.02 179.76,-116.52 179.76,-123.52"/>
</g>
<!-- r_prog -->
<g id="node4" class="node">
<title>r_prog</title>
<path fill="#f9e79f" stroke="black" d="M327.2,-65.56C327.2,-65.56 189.46,-36.5 189.46,-36.5 183.59,-35.26 183.59,-32.78 189.46,-31.54 189.46,-31.54 327.2,-2.48 327.2,-2.48 333.07,-1.24 344.81,-1.24 350.68,-2.48 350.68,-2.48 488.42,-31.54 488.42,-31.54 494.29,-32.78 494.29,-35.26 488.42,-36.5 488.42,-36.5 350.68,-65.56 350.68,-65.56 344.81,-66.8 333.07,-66.8 327.2,-65.56"/>
<text xml:space="preserve" text-anchor="middle" x="338.94" y="-35.77" font-family="Helvetica,sans-Serif" font-size="10.00">Progressive disease</text>
<text xml:space="preserve" text-anchor="middle" x="338.94" y="-24.52" font-family="Helvetica,sans-Serif" font-size="10.00">(growing mass or rising markers)</text>
</g>
<!-- eval&#45;&gt;r_prog -->
<g id="edge3" class="edge">
<title>eval&#45;&gt;r_prog</title>
<path fill="none" stroke="black" d="M107.12,-96.97C122.42,-89.92 139.69,-82.57 155.97,-77.02 183.64,-67.59 214.36,-59.47 242.55,-52.91"/>
<polygon fill="black" stroke="black" points="243.19,-56.36 252.16,-50.72 241.63,-49.53 243.19,-56.36"/>
</g>
<!-- surv1 -->
<g id="node5" class="node">
<title>surv1</title>
<path fill="#d5f5e3" stroke="black" d="M651.25,-224.02C651.25,-224.02 603.28,-224.02 603.28,-224.02 597.28,-224.02 591.28,-218.02 591.28,-212.02 591.28,-212.02 591.28,-200.02 591.28,-200.02 591.28,-194.02 597.28,-188.02 603.28,-188.02 603.28,-188.02 651.25,-188.02 651.25,-188.02 657.25,-188.02 663.25,-194.02 663.25,-200.02 663.25,-200.02 663.25,-212.02 663.25,-212.02 663.25,-218.02 657.25,-224.02 651.25,-224.02"/>
<text xml:space="preserve" text-anchor="middle" x="627.27" y="-202.14" font-family="Helvetica,sans-Serif" font-size="10.00">Surveillance</text>
</g>
<!-- r_none&#45;&gt;surv1 -->
<g id="edge4" class="edge">
<title>r_none&#45;&gt;surv1</title>
<path fill="none" stroke="black" d="M524.51,-206.02C544.89,-206.02 564.04,-206.02 580.11,-206.02"/>
<polygon fill="black" stroke="black" points="579.73,-209.52 589.73,-206.02 579.73,-202.52 579.73,-209.52"/>
</g>
<!-- surv2 -->
<g id="node7" class="node">
<title>surv2</title>
<path fill="#d5f5e3" stroke="black" d="M651.25,-167.02C651.25,-167.02 603.28,-167.02 603.28,-167.02 597.28,-167.02 591.28,-161.02 591.28,-155.02 591.28,-155.02 591.28,-143.02 591.28,-143.02 591.28,-137.02 597.28,-131.02 603.28,-131.02 603.28,-131.02 651.25,-131.02 651.25,-131.02 657.25,-131.02 663.25,-137.02 663.25,-143.02 663.25,-143.02 663.25,-155.02 663.25,-155.02 663.25,-161.02 657.25,-167.02 651.25,-167.02"/>
<text xml:space="preserve" text-anchor="middle" x="627.27" y="-145.14" font-family="Helvetica,sans-Serif" font-size="10.00">Surveillance</text>
</g>
<!-- r_big&#45;&gt;surv2 -->
<g id="edge6" class="edge">
<title>r_big&#45;&gt;surv2</title>
<path fill="none" stroke="black" d="M442.1,-130.37C489.26,-135.14 542.9,-140.58 580.08,-144.34"/>
<polygon fill="black" stroke="black" points="579.25,-147.78 589.55,-145.3 579.96,-140.81 579.25,-147.78"/>
</g>
<!-- pet -->
<g id="node8" class="node">
<title>pet</title>
<path fill="#d5f5e3" stroke="black" d="M675.63,-113.02C675.63,-113.02 578.91,-113.02 578.91,-113.02 572.91,-113.02 566.91,-107.02 566.91,-101.02 566.91,-101.02 566.91,-89.02 566.91,-89.02 566.91,-83.02 572.91,-77.02 578.91,-77.02 578.91,-77.02 675.63,-77.02 675.63,-77.02 681.63,-77.02 687.63,-83.02 687.63,-89.02 687.63,-89.02 687.63,-101.02 687.63,-101.02 687.63,-107.02 681.63,-113.02 675.63,-113.02"/>
<text xml:space="preserve" text-anchor="middle" x="627.27" y="-96.77" font-family="Helvetica,sans-Serif" font-size="10.00">Consider FDG&#45;PET/CT</text>
<text xml:space="preserve" text-anchor="middle" x="627.27" y="-85.52" font-family="Helvetica,sans-Serif" font-size="10.00">(≥6 wks post&#45;chemo)</text>
</g>
<!-- r_big&#45;&gt;pet -->
<g id="edge7" class="edge">
<title>r_big&#45;&gt;pet</title>
<path fill="none" stroke="black" d="M446.56,-110.71C482.83,-107.54 522.45,-104.08 555.24,-101.22"/>
<polygon fill="black" stroke="black" points="555.37,-104.72 565.03,-100.37 554.76,-97.75 555.37,-104.72"/>
</g>
<!-- tl -->
<g id="node18" class="node">
<title>tl</title>
<path fill="#f1948a" stroke="black" d="M684.63,-52.02C684.63,-52.02 569.91,-52.02 569.91,-52.02 563.91,-52.02 557.91,-46.02 557.91,-40.02 557.91,-40.02 557.91,-28.02 557.91,-28.02 557.91,-22.02 563.91,-16.02 569.91,-16.02 569.91,-16.02 684.63,-16.02 684.63,-16.02 690.63,-16.02 696.63,-22.02 696.63,-28.02 696.63,-28.02 696.63,-40.02 696.63,-40.02 696.63,-46.02 690.63,-52.02 684.63,-52.02"/>
<text xml:space="preserve" text-anchor="middle" x="627.27" y="-30.14" font-family="Helvetica,sans-Serif" font-size="10.00">Third&#45;Line Therapy (SEM&#45;8)</text>
</g>
<!-- r_prog&#45;&gt;tl -->
<g id="edge19" class="edge">
<title>r_prog&#45;&gt;tl</title>
<path fill="none" stroke="black" d="M502.35,-34.02C517.43,-34.02 532.23,-34.02 546.05,-34.02"/>
<polygon fill="black" stroke="black" points="545.9,-37.52 555.9,-34.02 545.9,-30.52 545.9,-37.52"/>
</g>
<!-- fu_a -->
<g id="node6" class="node">
<title>fu_a</title>
<path fill="#fdebd0" stroke="black" stroke-dasharray="5,2" d="M1907.25,-216.02C1907.25,-216.02 1776.03,-216.02 1776.03,-216.02 1770.03,-216.02 1764.03,-210.02 1764.03,-204.02 1764.03,-204.02 1764.03,-192.02 1764.03,-192.02 1764.03,-186.02 1770.03,-180.02 1776.03,-180.02 1776.03,-180.02 1907.25,-180.02 1907.25,-180.02 1913.25,-180.02 1919.25,-186.02 1919.25,-192.02 1919.25,-192.02 1919.25,-204.02 1919.25,-204.02 1919.25,-210.02 1913.25,-216.02 1907.25,-216.02"/>
<text xml:space="preserve" text-anchor="middle" x="1841.64" y="-194.14" font-family="Helvetica,sans-Serif" font-size="10.00">Follow&#45;up Table 6 (TEST&#45;A 3/3)</text>
</g>
<!-- surv1&#45;&gt;fu_a -->
<g id="edge5" class="edge">
<title>surv1&#45;&gt;fu_a</title>
<path fill="none" stroke="black" d="M663.53,-206.02C741.59,-206.02 934.89,-206.02 1096.75,-206.02 1096.75,-206.02 1096.75,-206.02 1370.77,-206.02 1503.72,-206.02 1657.8,-202.78 1752.23,-200.42"/>
<polygon fill="black" stroke="black" points="1752.31,-203.92 1762.22,-200.17 1752.14,-196.92 1752.31,-203.92"/>
</g>
<!-- recur -->
<g id="node19" class="node">
<title>recur</title>
<path fill="#f1948a" stroke="black" d="M2081.97,-182.02C2081.97,-182.02 1967.25,-182.02 1967.25,-182.02 1961.25,-182.02 1955.25,-176.02 1955.25,-170.02 1955.25,-170.02 1955.25,-158.02 1955.25,-158.02 1955.25,-152.02 1961.25,-146.02 1967.25,-146.02 1967.25,-146.02 2081.97,-146.02 2081.97,-146.02 2087.97,-146.02 2093.97,-152.02 2093.97,-158.02 2093.97,-158.02 2093.97,-170.02 2093.97,-170.02 2093.97,-176.02 2087.97,-182.02 2081.97,-182.02"/>
<text xml:space="preserve" text-anchor="middle" x="2024.61" y="-165.77" font-family="Helvetica,sans-Serif" font-size="10.00">For recurrence, see</text>
<text xml:space="preserve" text-anchor="middle" x="2024.61" y="-154.52" font-family="Helvetica,sans-Serif" font-size="10.00">Third&#45;Line Therapy (SEM&#45;8)</text>
</g>
<!-- fu_a&#45;&gt;recur -->
<g id="edge20" class="edge">
<title>fu_a&#45;&gt;recur</title>
<path fill="none" stroke="black" d="M1919.65,-183.55C1927.63,-182.05 1935.75,-180.53 1943.76,-179.02"/>
<polygon fill="black" stroke="black" points="1944.31,-182.48 1953.49,-177.19 1943.01,-175.6 1944.31,-182.48"/>
</g>
<!-- pet_neg -->
<g id="node9" class="node">
<title>pet_neg</title>
<path fill="#fcf3cf" stroke="black" d="M835.09,-172.15C835.09,-172.15 744.48,-157.89 744.48,-157.89 738.56,-156.95 738.56,-155.09 744.48,-154.15 744.48,-154.15 835.09,-139.89 835.09,-139.89 841.02,-138.95 852.87,-138.95 858.8,-139.89 858.8,-139.89 949.41,-154.15 949.41,-154.15 955.33,-155.09 955.33,-156.95 949.41,-157.89 949.41,-157.89 858.8,-172.15 858.8,-172.15 852.87,-173.09 841.02,-173.09 835.09,-172.15"/>
<text xml:space="preserve" text-anchor="middle" x="846.95" y="-152.14" font-family="Helvetica,sans-Serif" font-size="10.00">Negative / indeterminate</text>
</g>
<!-- pet&#45;&gt;pet_neg -->
<g id="edge8" class="edge">
<title>pet&#45;&gt;pet_neg</title>
<path fill="none" stroke="black" d="M688.04,-111.77C721.03,-121.01 761.62,-132.39 793.39,-141.29"/>
<polygon fill="black" stroke="black" points="792.2,-144.59 802.77,-143.92 794.09,-137.85 792.2,-144.59"/>
</g>
<!-- pet_pos -->
<g id="node10" class="node">
<title>pet_pos</title>
<path fill="#fcf3cf" stroke="black" d="M835.67,-106.9C835.67,-106.9 808.95,-97.14 808.95,-97.14 803.31,-95.08 803.31,-90.96 808.95,-88.9 808.95,-88.9 835.67,-79.14 835.67,-79.14 841.31,-77.08 852.58,-77.08 858.22,-79.14 858.22,-79.14 884.94,-88.9 884.94,-88.9 890.58,-90.96 890.58,-95.08 884.94,-97.14 884.94,-97.14 858.22,-106.9 858.22,-106.9 852.58,-108.96 841.31,-108.96 835.67,-106.9"/>
<text xml:space="preserve" text-anchor="middle" x="846.95" y="-89.14" font-family="Helvetica,sans-Serif" font-size="10.00">Positive</text>
</g>
<!-- pet&#45;&gt;pet_pos -->
<g id="edge9" class="edge">
<title>pet&#45;&gt;pet_pos</title>
<path fill="none" stroke="black" d="M688.04,-94.47C718.62,-94.19 755.73,-93.85 786.3,-93.57"/>
<polygon fill="black" stroke="black" points="786.18,-97.07 796.15,-93.48 786.11,-90.07 786.18,-97.07"/>
</g>
<!-- surv3 -->
<g id="node11" class="node">
<title>surv3</title>
<path fill="#d5f5e3" stroke="black" d="M1121.73,-176.02C1121.73,-176.02 1073.76,-176.02 1073.76,-176.02 1067.76,-176.02 1061.76,-170.02 1061.76,-164.02 1061.76,-164.02 1061.76,-152.02 1061.76,-152.02 1061.76,-146.02 1067.76,-140.02 1073.76,-140.02 1073.76,-140.02 1121.73,-140.02 1121.73,-140.02 1127.73,-140.02 1133.73,-146.02 1133.73,-152.02 1133.73,-152.02 1133.73,-164.02 1133.73,-164.02 1133.73,-170.02 1127.73,-176.02 1121.73,-176.02"/>
<text xml:space="preserve" text-anchor="middle" x="1097.75" y="-154.14" font-family="Helvetica,sans-Serif" font-size="10.00">Surveillance</text>
</g>
<!-- pet_neg&#45;&gt;surv3 -->
<g id="edge10" class="edge">
<title>pet_neg&#45;&gt;surv3</title>
<path fill="none" stroke="black" d="M958.52,-156.91C990.71,-157.17 1024.15,-157.44 1050.07,-157.64"/>
<polygon fill="black" stroke="black" points="1049.88,-161.14 1059.91,-157.72 1049.94,-154.14 1049.88,-161.14"/>
</g>
<!-- action -->
<g id="node12" class="node">
<title>action</title>
<path fill="#d5f5e3" stroke="black" d="M1186.23,-100.02C1186.23,-100.02 1009.26,-100.02 1009.26,-100.02 1003.26,-100.02 997.26,-94.02 997.26,-88.02 997.26,-88.02 997.26,-76.02 997.26,-76.02 997.26,-70.02 1003.26,-64.02 1009.26,-64.02 1009.26,-64.02 1186.23,-64.02 1186.23,-64.02 1192.23,-64.02 1198.23,-70.02 1198.23,-76.02 1198.23,-76.02 1198.23,-88.02 1198.23,-88.02 1198.23,-94.02 1192.23,-100.02 1186.23,-100.02"/>
<text xml:space="preserve" text-anchor="middle" x="1097.75" y="-83.77" font-family="Helvetica,sans-Serif" font-size="10.00">Repeat imaging in 6–12 wks</text>
<text xml:space="preserve" text-anchor="middle" x="1097.75" y="-72.52" font-family="Helvetica,sans-Serif" font-size="10.00">OR resection of residual mass OR biopsy</text>
</g>
<!-- pet_pos&#45;&gt;action -->
<g id="edge11" class="edge">
<title>pet_pos&#45;&gt;action</title>
<path fill="none" stroke="black" d="M892.14,-91.07C918.3,-89.91 952.7,-88.39 985.82,-86.92"/>
<polygon fill="black" stroke="black" points="985.64,-90.44 995.47,-86.5 985.33,-83.44 985.64,-90.44"/>
</g>
<!-- fu_b -->
<g id="node17" class="node">
<title>fu_b</title>
<path fill="#fdebd0" stroke="black" stroke-dasharray="5,2" d="M1907.25,-155.02C1907.25,-155.02 1776.03,-155.02 1776.03,-155.02 1770.03,-155.02 1764.03,-149.02 1764.03,-143.02 1764.03,-143.02 1764.03,-131.02 1764.03,-131.02 1764.03,-125.02 1770.03,-119.02 1776.03,-119.02 1776.03,-119.02 1907.25,-119.02 1907.25,-119.02 1913.25,-119.02 1919.25,-125.02 1919.25,-131.02 1919.25,-131.02 1919.25,-143.02 1919.25,-143.02 1919.25,-149.02 1913.25,-155.02 1907.25,-155.02"/>
<text xml:space="preserve" text-anchor="middle" x="1841.64" y="-138.77" font-family="Helvetica,sans-Serif" font-size="10.00">Follow&#45;up Table 3 (TEST&#45;A 2/3)</text>
<text xml:space="preserve" text-anchor="middle" x="1841.64" y="-127.52" font-family="Helvetica,sans-Serif" font-size="10.00">or Table 6 (TEST&#45;A 3/3)</text>
</g>
<!-- surv3&#45;&gt;fu_b -->
<g id="edge18" class="edge">
<title>surv3&#45;&gt;fu_b</title>
<path fill="none" stroke="black" d="M1133.92,-158.65C1229.51,-160.11 1502,-162.65 1728.03,-149.02 1735.99,-148.54 1744.26,-147.91 1752.53,-147.19"/>
<polygon fill="black" stroke="black" points="1752.64,-150.7 1762.28,-146.3 1752,-143.73 1752.64,-150.7"/>
</g>
<!-- viable -->
<g id="node13" class="node">
<title>viable</title>
<path fill="#fcf3cf" stroke="black" d="M1357.88,-98.4C1357.88,-98.4 1249.54,-83.64 1249.54,-83.64 1243.6,-82.83 1243.6,-81.21 1249.54,-80.4 1249.54,-80.4 1357.88,-65.64 1357.88,-65.64 1363.83,-64.83 1375.72,-64.83 1381.66,-65.64 1381.66,-65.64 1490,-80.4 1490,-80.4 1495.94,-81.21 1495.94,-82.83 1490,-83.64 1490,-83.64 1381.66,-98.4 1381.66,-98.4 1375.72,-99.21 1363.83,-99.21 1357.88,-98.4"/>
<text xml:space="preserve" text-anchor="middle" x="1369.77" y="-78.14" font-family="Helvetica,sans-Serif" font-size="10.00">Positive for viable seminoma</text>
</g>
<!-- action&#45;&gt;viable -->
<g id="edge12" class="edge">
<title>action&#45;&gt;viable</title>
<path fill="none" stroke="black" d="M1198.53,-82.02C1206.39,-82.02 1214.42,-82.02 1222.51,-82.02"/>
<polygon fill="black" stroke="black" points="1222.46,-85.52 1232.46,-82.02 1222.46,-78.52 1222.46,-85.52"/>
</g>
<!-- nonviable -->
<g id="node14" class="node">
<title>nonviable</title>
<path fill="#fcf3cf" stroke="black" d="M1357.87,-43.44C1357.87,-43.44 1246.13,-28.6 1246.13,-28.6 1240.18,-27.81 1240.18,-26.23 1246.13,-25.44 1246.13,-25.44 1357.87,-10.6 1357.87,-10.6 1363.82,-9.81 1375.72,-9.81 1381.67,-10.6 1381.67,-10.6 1493.42,-25.44 1493.42,-25.44 1499.36,-26.23 1499.36,-27.81 1493.42,-28.6 1493.42,-28.6 1381.67,-43.44 1381.67,-43.44 1375.72,-44.23 1363.82,-44.23 1357.87,-43.44"/>
<text xml:space="preserve" text-anchor="middle" x="1369.77" y="-23.14" font-family="Helvetica,sans-Serif" font-size="10.00">Negative for viable seminoma</text>
</g>
<!-- action&#45;&gt;nonviable -->
<g id="edge13" class="edge">
<title>action&#45;&gt;nonviable</title>
<path fill="none" stroke="black" d="M1189.41,-63.55C1226.71,-55.95 1269.1,-47.32 1303.3,-40.36"/>
<polygon fill="black" stroke="black" points="1303.98,-43.79 1313.08,-38.36 1302.58,-36.93 1303.98,-43.79"/>
</g>
<!-- complete -->
<g id="node15" class="node">
<title>complete</title>
<path fill="#d5f5e3" stroke="black" d="M1674.41,-140.02C1674.41,-140.02 1594.94,-140.02 1594.94,-140.02 1588.94,-140.02 1582.94,-134.02 1582.94,-128.02 1582.94,-128.02 1582.94,-116.02 1582.94,-116.02 1582.94,-110.02 1588.94,-104.02 1594.94,-104.02 1594.94,-104.02 1674.41,-104.02 1674.41,-104.02 1680.41,-104.02 1686.41,-110.02 1686.41,-116.02 1686.41,-116.02 1686.41,-128.02 1686.41,-128.02 1686.41,-134.02 1680.41,-140.02 1674.41,-140.02"/>
<text xml:space="preserve" text-anchor="middle" x="1634.67" y="-118.14" font-family="Helvetica,sans-Serif" font-size="10.00">Complete resection</text>
</g>
<!-- viable&#45;&gt;complete -->
<g id="edge14" class="edge">
<title>viable&#45;&gt;complete</title>
<path fill="none" stroke="black" d="M1434.41,-91.7C1475.94,-98.02 1529.91,-106.23 1571.21,-112.52"/>
<polygon fill="black" stroke="black" points="1570.59,-115.96 1581,-114.01 1571.64,-109.04 1570.59,-115.96"/>
</g>
<!-- incomplete -->
<g id="node16" class="node">
<title>incomplete</title>
<path fill="#f1948a" stroke="black" d="M1716.03,-86.02C1716.03,-86.02 1553.31,-86.02 1553.31,-86.02 1547.31,-86.02 1541.31,-80.02 1541.31,-74.02 1541.31,-74.02 1541.31,-62.02 1541.31,-62.02 1541.31,-56.02 1547.31,-50.02 1553.31,-50.02 1553.31,-50.02 1716.03,-50.02 1716.03,-50.02 1722.03,-50.02 1728.03,-56.02 1728.03,-62.02 1728.03,-62.02 1728.03,-74.02 1728.03,-74.02 1728.03,-80.02 1722.03,-86.02 1716.03,-86.02"/>
<text xml:space="preserve" text-anchor="middle" x="1634.67" y="-70.52" font-family="Helvetica,sans-Serif" font-size="10.00">Incomplete resection or progression →</text>
<text xml:space="preserve" text-anchor="middle" x="1634.67" y="-57.77" font-family="Helvetica,sans-Serif" font-size="10.00">Third&#45;Line Therapy (SEM&#45;8)</text>
</g>
<!-- viable&#45;&gt;incomplete -->
<g id="edge15" class="edge">
<title>viable&#45;&gt;incomplete</title>
<path fill="none" stroke="black" d="M1467.54,-76.87C1487.8,-75.79 1509.25,-74.65 1529.75,-73.55"/>
<polygon fill="black" stroke="black" points="1529.73,-77.06 1539.53,-73.03 1529.35,-70.07 1529.73,-77.06"/>
</g>
<!-- nonviable&#45;&gt;fu_b -->
<g id="edge17" class="edge">
<title>nonviable&#45;&gt;fu_b</title>
<path fill="none" stroke="black" d="M1435.28,-17.24C1508.87,-8.83 1631.48,-3.29 1728.03,-41.02 1764.79,-55.38 1797.98,-87.07 1818.65,-110.13"/>
<polygon fill="black" stroke="black" points="1815.99,-112.41 1825.2,-117.65 1821.27,-107.81 1815.99,-112.41"/>
</g>
<!-- complete&#45;&gt;fu_b -->
<g id="edge16" class="edge">
<title>complete&#45;&gt;fu_b</title>
<path fill="none" stroke="black" d="M1686.86,-125.77C1706.75,-127.22 1730.1,-128.93 1752.51,-130.57"/>
<polygon fill="black" stroke="black" points="1752.04,-134.05 1762.27,-131.28 1752.55,-127.06 1752.04,-134.05"/>
</g>
<!-- fu_b&#45;&gt;recur -->
<g id="edge21" class="edge">
<title>fu_b&#45;&gt;recur</title>
<path fill="none" stroke="black" d="M1919.65,-148.51C1927.63,-149.7 1935.75,-150.91 1943.76,-152.11"/>
<polygon fill="black" stroke="black" points="1943.07,-155.54 1953.48,-153.56 1944.1,-148.62 1943.07,-155.54"/>
</g>
<!-- note -->
<g id="node20" class="node">
<title>note</title>
<polygon fill="#fef9e7" stroke="black" points="2540.94,-182.02 2129.97,-182.02 2129.97,-146.02 2546.94,-146.02 2546.94,-176.02 2540.94,-182.02"/>
<polyline fill="none" stroke="black" points="2540.94,-182.02 2540.94,-176.02"/>
<polyline fill="none" stroke="black" points="2546.94,-176.02 2540.94,-176.02"/>
<text xml:space="preserve" text-anchor="middle" x="2338.46" y="-160.34" font-family="Helvetica,sans-Serif" font-size="9.00">Rare nonseminomatous elements on resection: if non&#45;teratomatous, manage as viable seminoma.</text>
</g>
</g>
</svg>
