<?xml version="1.0" encoding="UTF-8" standalone="no"?>
<!DOCTYPE svg PUBLIC "-//W3C//DTD SVG 1.1//EN"
 "http://www.w3.org/Graphics/SVG/1.1/DTD/svg11.dtd">
<!-- Generated by graphviz version 15.0.0 (20260523.1842)
 -->
<!-- Title: SEM1 Pages: 1 -->
<svg width="1279pt" height="236pt"
 viewBox="0.00 0.00 1279.00 236.00" xmlns="http://www.w3.org/2000/svg" xmlns:xlink="http://www.w3.org/1999/xlink">
<g id="graph0" class="graph" transform="scale(1 1) rotate(0) translate(4 231.58)">
<title>SEM1</title>
<polygon fill="white" stroke="none" points="-4,4 -4,-231.58 1275.37,-231.58 1275.37,4 -4,4"/>
<text xml:space="preserve" text-anchor="middle" x="635.68" y="-210.28" font-family="Helvetica,sans-Serif" font-weight="bold" font-size="14.00">SEM&#45;1 · Pure Seminoma — Postdiagnostic Workup &amp; Clinical Stage</text>
<!-- dx -->
<g id="node1" class="node">
<title>dx</title>
<path fill="#d6eaf8" stroke="black" d="M121.41,-132.09C121.41,-132.09 12,-132.09 12,-132.09 6,-132.09 0,-126.09 0,-120.09 0,-120.09 0,-86.12 0,-86.12 0,-80.12 6,-74.12 12,-74.12 12,-74.12 121.41,-74.12 121.41,-74.12 127.41,-74.12 133.41,-80.12 133.41,-86.12 133.41,-86.12 133.41,-120.09 133.41,-120.09 133.41,-126.09 127.41,-132.09 121.41,-132.09"/>
<text xml:space="preserve" text-anchor="middle" x="66.7" y="-116.11" font-family="Helvetica,sans-Serif" font-size="10.00">Pure seminoma</text>
<text xml:space="preserve" text-anchor="middle" x="66.7" y="-104.86" font-family="Helvetica,sans-Serif" font-size="10.00">(pure seminoma histology,</text>
<text xml:space="preserve" text-anchor="middle" x="66.7" y="-93.61" font-family="Helvetica,sans-Serif" font-size="10.00">AFP normal; may have</text>
<text xml:space="preserve" text-anchor="middle" x="66.7" y="-82.36" font-family="Helvetica,sans-Serif" font-size="10.00">elevated beta&#45;hCG)</text>
</g>
<!-- workup -->
<g id="node2" class="node">
<title>workup</title>
<path fill="#d6eaf8" stroke="black" d="M410.82,-154.59C410.82,-154.59 181.41,-154.59 181.41,-154.59 175.41,-154.59 169.41,-148.59 169.41,-142.59 169.41,-142.59 169.41,-63.63 169.41,-63.63 169.41,-57.62 175.41,-51.62 181.41,-51.62 181.41,-51.62 410.82,-51.62 410.82,-51.62 416.82,-51.62 422.82,-57.62 422.82,-63.62 422.82,-63.62 422.82,-142.59 422.82,-142.59 422.82,-148.59 416.82,-154.59 410.82,-154.59"/>
<text xml:space="preserve" text-anchor="start" x="179.49" y="-138.61" font-family="Helvetica,sans-Serif" font-size="10.00">POSTDIAGNOSTIC WORKUP</text>
<text xml:space="preserve" text-anchor="start" x="179.49" y="-127.36" font-family="Helvetica,sans-Serif" font-size="10.00">• Abdomen/pelvis CT or MRI</text>
<text xml:space="preserve" text-anchor="start" x="179.49" y="-116.11" font-family="Helvetica,sans-Serif" font-size="10.00">• Chest x&#45;ray</text>
<text xml:space="preserve" text-anchor="start" x="179.49" y="-104.86" font-family="Helvetica,sans-Serif" font-size="10.00">• Chest CT if: positive abd CT/MRI or abnormal CXR</text>
<text xml:space="preserve" text-anchor="start" x="179.49" y="-93.61" font-family="Helvetica,sans-Serif" font-size="10.00">• Repeat beta&#45;hCG, LDH, AFP</text>
<text xml:space="preserve" text-anchor="start" x="179.49" y="-82.36" font-family="Helvetica,sans-Serif" font-size="10.00"> &#160;(staging based on post&#45;orchiectomy values)</text>
<text xml:space="preserve" text-anchor="start" x="179.49" y="-71.11" font-family="Helvetica,sans-Serif" font-size="10.00">• Brain MRI (± contrast), if clinically indicated</text>
<text xml:space="preserve" text-anchor="start" x="179.49" y="-59.86" font-family="Helvetica,sans-Serif" font-size="10.00">• Recommend sperm banking, if indicated</text>
</g>
<!-- dx&#45;&gt;workup -->
<g id="edge1" class="edge">
<title>dx&#45;&gt;workup</title>
<path fill="none" stroke="black" d="M133.79,-103.11C141.54,-103.11 149.65,-103.11 157.94,-103.11"/>
<polygon fill="black" stroke="black" points="157.82,-106.61 167.82,-103.11 157.82,-99.61 157.82,-106.61"/>
</g>
<!-- stage -->
<g id="node3" class="node">
<title>stage</title>
<path fill="#f9e79f" stroke="black" d="M548.66,-134.6C548.66,-134.6 470.14,-107.07 470.14,-107.07 464.48,-105.09 464.48,-101.12 470.14,-99.14 470.14,-99.14 548.66,-71.61 548.66,-71.61 554.32,-69.63 565.64,-69.63 571.3,-71.61 571.3,-71.61 649.82,-99.14 649.82,-99.14 655.48,-101.12 655.48,-105.09 649.82,-107.07 649.82,-107.07 571.3,-134.6 571.3,-134.6 565.64,-136.58 554.32,-136.58 548.66,-134.6"/>
<text xml:space="preserve" text-anchor="middle" x="559.98" y="-104.86" font-family="Helvetica,sans-Serif" font-size="10.00">CLINICAL STAGE</text>
<text xml:space="preserve" text-anchor="middle" x="559.98" y="-93.61" font-family="Helvetica,sans-Serif" font-size="10.00">(AJCC TNM)</text>
</g>
<!-- workup&#45;&gt;stage -->
<g id="edge2" class="edge">
<title>workup&#45;&gt;stage</title>
<path fill="none" stroke="black" d="M423.06,-103.11C430.72,-103.11 438.4,-103.11 446,-103.11"/>
<polygon fill="black" stroke="black" points="445.94,-106.61 455.94,-103.11 445.94,-99.61 445.94,-106.61"/>
</g>
<!-- s_iaib -->
<g id="node4" class="node">
<title>s_iaib</title>
<path fill="#f9e79f" stroke="black" d="M762.3,-203.1C762.3,-203.1 712.14,-203.1 712.14,-203.1 706.14,-203.1 700.14,-197.1 700.14,-191.1 700.14,-191.1 700.14,-179.1 700.14,-179.1 700.14,-173.1 706.14,-167.1 712.14,-167.1 712.14,-167.1 762.3,-167.1 762.3,-167.1 768.3,-167.1 774.3,-173.1 774.3,-179.1 774.3,-179.1 774.3,-191.1 774.3,-191.1 774.3,-197.1 768.3,-203.1 762.3,-203.1"/>
<text xml:space="preserve" text-anchor="middle" x="737.22" y="-181.23" font-family="Helvetica,sans-Serif" font-size="10.00">Stage IA, IB</text>
</g>
<!-- stage&#45;&gt;s_iaib -->
<g id="edge3" class="edge">
<title>stage&#45;&gt;s_iaib</title>
<path fill="none" stroke="black" d="M604.3,-123.37C630.25,-135.52 663.23,-150.95 689.72,-163.35"/>
<polygon fill="black" stroke="black" points="687.99,-166.4 698.53,-167.47 690.96,-160.06 687.99,-166.4"/>
</g>
<!-- s_is -->
<g id="node5" class="node">
<title>s_is</title>
<path fill="#f9e79f" stroke="black" d="M754.42,-148.1C754.42,-148.1 720.01,-148.1 720.01,-148.1 714.01,-148.1 708.01,-142.1 708.01,-136.1 708.01,-136.1 708.01,-124.1 708.01,-124.1 708.01,-118.1 714.01,-112.1 720.01,-112.1 720.01,-112.1 754.42,-112.1 754.42,-112.1 760.42,-112.1 766.42,-118.1 766.42,-124.1 766.42,-124.1 766.42,-136.1 766.42,-136.1 766.42,-142.1 760.42,-148.1 754.42,-148.1"/>
<text xml:space="preserve" text-anchor="middle" x="737.22" y="-126.23" font-family="Helvetica,sans-Serif" font-size="10.00">Stage IS</text>
</g>
<!-- stage&#45;&gt;s_is -->
<g id="edge5" class="edge">
<title>stage&#45;&gt;s_is</title>
<path fill="none" stroke="black" d="M631.5,-113.97C653.55,-117.37 677.11,-121 696.28,-123.95"/>
<polygon fill="black" stroke="black" points="695.69,-127.4 706.11,-125.47 696.76,-120.48 695.69,-127.4"/>
</g>
<!-- s_ii -->
<g id="node6" class="node">
<title>s_ii</title>
<path fill="#f9e79f" stroke="black" d="M765.3,-94.11C765.3,-94.11 709.14,-94.11 709.14,-94.11 703.14,-94.11 697.14,-88.11 697.14,-82.11 697.14,-82.11 697.14,-70.11 697.14,-70.11 697.14,-64.11 703.14,-58.11 709.14,-58.11 709.14,-58.11 765.3,-58.11 765.3,-58.11 771.3,-58.11 777.3,-64.11 777.3,-70.11 777.3,-70.11 777.3,-82.11 777.3,-82.11 777.3,-88.11 771.3,-94.11 765.3,-94.11"/>
<text xml:space="preserve" text-anchor="middle" x="737.22" y="-72.23" font-family="Helvetica,sans-Serif" font-size="10.00">Stage IIA, IIB</text>
</g>
<!-- stage&#45;&gt;s_ii -->
<g id="edge7" class="edge">
<title>stage&#45;&gt;s_ii</title>
<path fill="none" stroke="black" d="M631.5,-92.24C649.58,-89.45 668.67,-86.51 685.53,-83.91"/>
<polygon fill="black" stroke="black" points="685.96,-87.39 695.31,-82.41 684.9,-80.47 685.96,-87.39"/>
</g>
<!-- s_iic -->
<g id="node7" class="node">
<title>s_iic</title>
<path fill="#f9e79f" stroke="black" d="M763.8,-40.11C763.8,-40.11 710.64,-40.11 710.64,-40.11 704.64,-40.11 698.64,-34.11 698.64,-28.11 698.64,-28.11 698.64,-16.11 698.64,-16.11 698.64,-10.11 704.64,-4.11 710.64,-4.11 710.64,-4.11 763.8,-4.11 763.8,-4.11 769.8,-4.11 775.8,-10.11 775.8,-16.11 775.8,-16.11 775.8,-28.11 775.8,-28.11 775.8,-34.11 769.8,-40.11 763.8,-40.11"/>
<text xml:space="preserve" text-anchor="middle" x="737.22" y="-18.23" font-family="Helvetica,sans-Serif" font-size="10.00">Stage IIC, III</text>
</g>
<!-- stage&#45;&gt;s_iic -->
<g id="edge9" class="edge">
<title>stage&#45;&gt;s_iic</title>
<path fill="none" stroke="black" d="M604.75,-82.87C630.05,-71.18 661.93,-56.44 687.96,-44.41"/>
<polygon fill="black" stroke="black" points="689.37,-47.62 696.98,-40.24 686.43,-41.26 689.37,-47.62"/>
</g>
<!-- p2a -->
<g id="node8" class="node">
<title>p2a</title>
<path fill="#d5f5e3" stroke="black" d="M918.96,-204.58C918.96,-204.58 825.3,-204.58 825.3,-204.58 819.3,-204.58 813.3,-198.58 813.3,-192.58 813.3,-192.58 813.3,-179.62 813.3,-179.62 813.3,-173.62 819.3,-167.62 825.3,-167.62 825.3,-167.62 918.96,-167.62 918.96,-167.62 924.96,-167.62 930.96,-173.62 930.96,-179.62 930.96,-179.62 930.96,-192.58 930.96,-192.58 930.96,-198.58 924.96,-204.58 918.96,-204.58"/>
<text xml:space="preserve" text-anchor="middle" x="872.13" y="-188.6" font-family="Helvetica,sans-Serif" font-size="10.00">Primary Treatment</text>
<text xml:space="preserve" text-anchor="middle" x="872.13" y="-177.35" font-family="Helvetica,sans-Serif" font-size="10.00">&amp; Follow&#45;up → SEM&#45;2</text>
</g>
<!-- s_iaib&#45;&gt;p2a -->
<g id="edge4" class="edge">
<title>s_iaib&#45;&gt;p2a</title>
<path fill="none" stroke="black" d="M774.54,-185.38C782.95,-185.44 792.19,-185.51 801.5,-185.58"/>
<polygon fill="black" stroke="black" points="801.32,-189.08 811.34,-185.66 801.37,-182.08 801.32,-189.08"/>
</g>
<!-- p2b -->
<g id="node9" class="node">
<title>p2b</title>
<path fill="#d5f5e3" stroke="black" d="M918.96,-149.58C918.96,-149.58 825.3,-149.58 825.3,-149.58 819.3,-149.58 813.3,-143.58 813.3,-137.58 813.3,-137.58 813.3,-124.62 813.3,-124.62 813.3,-118.62 819.3,-112.62 825.3,-112.62 825.3,-112.62 918.96,-112.62 918.96,-112.62 924.96,-112.62 930.96,-118.62 930.96,-124.62 930.96,-124.62 930.96,-137.58 930.96,-137.58 930.96,-143.58 924.96,-149.58 918.96,-149.58"/>
<text xml:space="preserve" text-anchor="middle" x="872.13" y="-133.6" font-family="Helvetica,sans-Serif" font-size="10.00">Primary Treatment</text>
<text xml:space="preserve" text-anchor="middle" x="872.13" y="-122.35" font-family="Helvetica,sans-Serif" font-size="10.00">&amp; Follow&#45;up → SEM&#45;2</text>
</g>
<!-- s_is&#45;&gt;p2b -->
<g id="edge6" class="edge">
<title>s_is&#45;&gt;p2b</title>
<path fill="none" stroke="black" d="M766.73,-130.32C777.07,-130.4 789.25,-130.49 801.57,-130.58"/>
<polygon fill="black" stroke="black" points="801.34,-134.08 811.36,-130.66 801.39,-127.08 801.34,-134.08"/>
</g>
<!-- p3 -->
<g id="node10" class="node">
<title>p3</title>
<path fill="#d5f5e3" stroke="black" d="M918.96,-94.59C918.96,-94.59 825.3,-94.59 825.3,-94.59 819.3,-94.59 813.3,-88.59 813.3,-82.59 813.3,-82.59 813.3,-69.62 813.3,-69.62 813.3,-63.62 819.3,-57.62 825.3,-57.62 825.3,-57.62 918.96,-57.62 918.96,-57.62 924.96,-57.62 930.96,-63.62 930.96,-69.62 930.96,-69.62 930.96,-82.59 930.96,-82.59 930.96,-88.59 924.96,-94.59 918.96,-94.59"/>
<text xml:space="preserve" text-anchor="middle" x="872.13" y="-78.61" font-family="Helvetica,sans-Serif" font-size="10.00">Primary Treatment</text>
<text xml:space="preserve" text-anchor="middle" x="872.13" y="-67.36" font-family="Helvetica,sans-Serif" font-size="10.00">&amp; Follow&#45;up → SEM&#45;3</text>
</g>
<!-- s_ii&#45;&gt;p3 -->
<g id="edge8" class="edge">
<title>s_ii&#45;&gt;p3</title>
<path fill="none" stroke="black" d="M777.74,-76.11C785.23,-76.11 793.27,-76.11 801.37,-76.11"/>
<polygon fill="black" stroke="black" points="801.31,-79.61 811.31,-76.11 801.31,-72.61 801.31,-79.61"/>
</g>
<!-- p4 -->
<g id="node11" class="node">
<title>p4</title>
<path fill="#d5f5e3" stroke="black" d="M918.96,-39.59C918.96,-39.59 825.3,-39.59 825.3,-39.59 819.3,-39.59 813.3,-33.59 813.3,-27.59 813.3,-27.59 813.3,-14.62 813.3,-14.62 813.3,-8.62 819.3,-2.62 825.3,-2.62 825.3,-2.62 918.96,-2.62 918.96,-2.62 924.96,-2.62 930.96,-8.62 930.96,-14.62 930.96,-14.62 930.96,-27.59 930.96,-27.59 930.96,-33.59 924.96,-39.59 918.96,-39.59"/>
<text xml:space="preserve" text-anchor="middle" x="872.13" y="-23.61" font-family="Helvetica,sans-Serif" font-size="10.00">Primary Treatment</text>
<text xml:space="preserve" text-anchor="middle" x="872.13" y="-12.36" font-family="Helvetica,sans-Serif" font-size="10.00">&amp; Follow&#45;up → SEM&#45;4</text>
</g>
<!-- s_iic&#45;&gt;p4 -->
<g id="edge10" class="edge">
<title>s_iic&#45;&gt;p4</title>
<path fill="none" stroke="black" d="M775.95,-21.82C784.05,-21.76 792.84,-21.69 801.71,-21.63"/>
<polygon fill="black" stroke="black" points="801.45,-25.13 811.42,-21.55 801.4,-18.13 801.45,-25.13"/>
</g>
<!-- note -->
<g id="node12" class="node">
<title>note</title>
<polygon fill="#fef9e7" stroke="black" points="1265.37,-42.21 966.96,-42.21 966.96,0 1271.37,0 1271.37,-36.21 1265.37,-42.21"/>
<polyline fill="none" stroke="black" points="1265.37,-42.21 1265.37,-36.21"/>
<polyline fill="none" stroke="black" points="1271.37,-36.21 1265.37,-36.21"/>
<text xml:space="preserve" text-anchor="middle" x="1119.16" y="-27.18" font-family="Helvetica,sans-Serif" font-size="9.00">Mediastinal primary seminoma: treat by gonadal&#45;seminoma risk status</text>
<text xml:space="preserve" text-anchor="middle" x="1119.16" y="-17.43" font-family="Helvetica,sans-Serif" font-size="9.00">(EP x4 or BEP x3). For select CS IIA with borderline retroperitoneal</text>
<text xml:space="preserve" text-anchor="middle" x="1119.16" y="-7.68" font-family="Helvetica,sans-Serif" font-size="9.00">nodes, wait 4&#45;8 wks and repeat imaging to confirm stage.</text>
</g>
</g>
</svg>
