<?xml version="1.0" encoding="UTF-8" standalone="no"?>
<!DOCTYPE svg PUBLIC "-//W3C//DTD SVG 1.1//EN"
 "http://www.w3.org/Graphics/SVG/1.1/DTD/svg11.dtd">
<!-- Generated by graphviz version 15.0.0 (20260523.1842)
 -->
<!-- Title: SEM4 Pages: 1 -->
<svg width="1354pt" height="143pt"
 viewBox="0.00 0.00 1354.00 143.00" xmlns="http://www.w3.org/2000/svg" xmlns:xlink="http://www.w3.org/1999/xlink">
<g id="graph0" class="graph" transform="scale(1 1) rotate(0) translate(4 138.71)">
<title>SEM4</title>
<polygon fill="white" stroke="none" points="-4,4 -4,-138.71 1350.37,-138.71 1350.37,4 -4,4"/>
<text xml:space="preserve" text-anchor="middle" x="673.18" y="-117.41" font-family="Helvetica,sans-Serif" font-weight="bold" font-size="14.00">SEM&#45;4 · Pure Seminoma — Stage IIC / III</text>
<!-- iic -->
<g id="node1" class="node">
<title>iic</title>
<path fill="#f9e79f" stroke="black" d="M65.16,-73.36C65.16,-73.36 12,-73.36 12,-73.36 6,-73.36 0,-67.36 0,-61.36 0,-61.36 0,-49.36 0,-49.36 0,-43.36 6,-37.36 12,-37.36 12,-37.36 65.16,-37.36 65.16,-37.36 71.16,-37.36 77.16,-43.36 77.16,-49.36 77.16,-49.36 77.16,-61.36 77.16,-61.36 77.16,-67.36 71.16,-73.36 65.16,-73.36"/>
<text xml:space="preserve" text-anchor="middle" x="38.58" y="-51.48" font-family="Helvetica,sans-Serif" font-size="10.00">Stage IIC, III</text>
</g>
<!-- risk -->
<g id="node2" class="node">
<title>risk</title>
<path fill="#f9e79f" stroke="black" d="M202.25,-86.82C202.25,-86.82 124.48,-59.35 124.48,-59.35 118.82,-57.35 118.82,-53.36 124.48,-51.36 124.48,-51.36 202.25,-23.89 202.25,-23.89 207.91,-21.89 219.23,-21.89 224.89,-23.89 224.89,-23.89 302.66,-51.36 302.66,-51.36 308.32,-53.36 308.32,-57.35 302.66,-59.35 302.66,-59.35 224.89,-86.82 224.89,-86.82 219.23,-88.82 207.91,-88.82 202.25,-86.82"/>
<text xml:space="preserve" text-anchor="middle" x="213.57" y="-57.11" font-family="Helvetica,sans-Serif" font-size="10.00">Risk classification</text>
<text xml:space="preserve" text-anchor="middle" x="213.57" y="-45.86" font-family="Helvetica,sans-Serif" font-size="10.00">(TEST&#45;D)</text>
</g>
<!-- iic&#45;&gt;risk -->
<g id="edge1" class="edge">
<title>iic&#45;&gt;risk</title>
<path fill="none" stroke="black" d="M77.54,-55.36C84.57,-55.36 92.24,-55.36 100.22,-55.36"/>
<polygon fill="black" stroke="black" points="100.18,-58.86 110.18,-55.36 100.18,-51.86 100.18,-58.86"/>
</g>
<!-- good -->
<g id="node3" class="node">
<title>good</title>
<path fill="#fcf3cf" stroke="black" d="M415.51,-103.36C415.51,-103.36 377.35,-103.36 377.35,-103.36 371.35,-103.36 365.35,-97.36 365.35,-91.36 365.35,-91.36 365.35,-79.36 365.35,-79.36 365.35,-73.36 371.35,-67.36 377.35,-67.36 377.35,-67.36 415.51,-67.36 415.51,-67.36 421.51,-67.36 427.51,-73.36 427.51,-79.36 427.51,-79.36 427.51,-91.36 427.51,-91.36 427.51,-97.36 421.51,-103.36 415.51,-103.36"/>
<text xml:space="preserve" text-anchor="middle" x="396.43" y="-81.48" font-family="Helvetica,sans-Serif" font-size="10.00">Good risk</text>
</g>
<!-- risk&#45;&gt;good -->
<g id="edge2" class="edge">
<title>risk&#45;&gt;good</title>
<path fill="none" stroke="black" d="M283.21,-66.74C306.98,-70.68 332.9,-74.98 353.83,-78.45"/>
<polygon fill="black" stroke="black" points="352.97,-81.86 363.41,-80.04 354.11,-74.95 352.97,-81.86"/>
</g>
<!-- inter -->
<g id="node4" class="node">
<title>inter</title>
<path fill="#fcf3cf" stroke="black" d="M430.89,-46.36C430.89,-46.36 361.98,-46.36 361.98,-46.36 355.98,-46.36 349.98,-40.36 349.98,-34.36 349.98,-34.36 349.98,-22.36 349.98,-22.36 349.98,-16.36 355.98,-10.36 361.98,-10.36 361.98,-10.36 430.89,-10.36 430.89,-10.36 436.89,-10.36 442.89,-16.36 442.89,-22.36 442.89,-22.36 442.89,-34.36 442.89,-34.36 442.89,-40.36 436.89,-46.36 430.89,-46.36"/>
<text xml:space="preserve" text-anchor="middle" x="396.43" y="-24.48" font-family="Helvetica,sans-Serif" font-size="10.00">Intermediate risk</text>
</g>
<!-- risk&#45;&gt;inter -->
<g id="edge5" class="edge">
<title>risk&#45;&gt;inter</title>
<path fill="none" stroke="black" d="M285.27,-44.8C302.82,-42.18 321.41,-39.41 338.23,-36.9"/>
<polygon fill="black" stroke="black" points="338.68,-40.37 348.05,-35.43 337.64,-33.44 338.68,-40.37"/>
</g>
<!-- good_tx -->
<g id="node5" class="node">
<title>good_tx</title>
<path fill="#d5f5e3" stroke="black" d="M635.17,-111.71C635.17,-111.71 510.76,-111.71 510.76,-111.71 504.76,-111.71 498.76,-105.71 498.76,-99.71 498.76,-99.71 498.76,-77 498.76,-77 498.76,-71 504.76,-65 510.76,-65 510.76,-65 635.17,-65 635.17,-65 641.17,-65 647.17,-71 647.17,-77 647.17,-77 647.17,-99.71 647.17,-99.71 647.17,-105.71 641.17,-111.71 635.17,-111.71"/>
<text xml:space="preserve" text-anchor="middle" x="572.97" y="-95.73" font-family="Helvetica,sans-Serif" font-size="10.00">First&#45;line chemotherapy:</text>
<text xml:space="preserve" text-anchor="middle" x="572.97" y="-84.48" font-family="Helvetica,sans-Serif" font-size="10.00">BEP × 3 cycles (category 1)</text>
<text xml:space="preserve" text-anchor="middle" x="572.97" y="-73.23" font-family="Helvetica,sans-Serif" font-size="10.00">or EP × 4 cycles (category 1)</text>
</g>
<!-- good&#45;&gt;good_tx -->
<g id="edge3" class="edge">
<title>good&#45;&gt;good_tx</title>
<path fill="none" stroke="black" d="M427.84,-85.88C444.39,-86.16 465.79,-86.53 487,-86.89"/>
<polygon fill="black" stroke="black" points="486.82,-90.39 496.88,-87.06 486.94,-83.39 486.82,-90.39"/>
</g>
<!-- inter_tx -->
<g id="node6" class="node">
<title>inter_tx</title>
<path fill="#d5f5e3" stroke="black" d="M655.05,-46.71C655.05,-46.71 490.89,-46.71 490.89,-46.71 484.89,-46.71 478.89,-40.71 478.89,-34.71 478.89,-34.71 478.89,-12 478.89,-12 478.89,-6 484.89,0 490.89,0 490.89,0 655.05,0 655.05,0 661.05,0 667.05,-6 667.05,-12 667.05,-12 667.05,-34.71 667.05,-34.71 667.05,-40.71 661.05,-46.71 655.05,-46.71"/>
<text xml:space="preserve" text-anchor="middle" x="572.97" y="-30.73" font-family="Helvetica,sans-Serif" font-size="10.00">First&#45;line chemotherapy:</text>
<text xml:space="preserve" text-anchor="middle" x="572.97" y="-19.48" font-family="Helvetica,sans-Serif" font-size="10.00">BEP × 4 cycles (category 1, preferred)</text>
<text xml:space="preserve" text-anchor="middle" x="572.97" y="-8.23" font-family="Helvetica,sans-Serif" font-size="10.00">or VIP × 4 cycles</text>
</g>
<!-- inter&#45;&gt;inter_tx -->
<g id="edge6" class="edge">
<title>inter&#45;&gt;inter_tx</title>
<path fill="none" stroke="black" d="M443.29,-27.04C450.79,-26.83 458.82,-26.6 467.07,-26.36"/>
<polygon fill="black" stroke="black" points="467.02,-29.86 476.91,-26.08 466.82,-22.87 467.02,-29.86"/>
</g>
<!-- mgmt -->
<g id="node7" class="node">
<title>mgmt</title>
<path fill="#eaecee" stroke="black" d="M876.96,-73.84C876.96,-73.84 715.05,-73.84 715.05,-73.84 709.05,-73.84 703.05,-67.84 703.05,-61.84 703.05,-61.84 703.05,-48.88 703.05,-48.88 703.05,-42.88 709.05,-36.88 715.05,-36.88 715.05,-36.88 876.96,-36.88 876.96,-36.88 882.96,-36.88 888.96,-42.88 888.96,-48.88 888.96,-48.88 888.96,-61.84 888.96,-61.84 888.96,-67.84 882.96,-73.84 876.96,-73.84"/>
<text xml:space="preserve" text-anchor="middle" x="796" y="-57.86" font-family="Helvetica,sans-Serif" font-size="10.00">Post First&#45;Line Chemotherapy</text>
<text xml:space="preserve" text-anchor="middle" x="796" y="-46.61" font-family="Helvetica,sans-Serif" font-size="10.00">Management and Follow&#45;up → SEM&#45;5</text>
</g>
<!-- good_tx&#45;&gt;mgmt -->
<g id="edge4" class="edge">
<title>good_tx&#45;&gt;mgmt</title>
<path fill="none" stroke="black" d="M647.57,-77.37C661.68,-75.26 676.7,-73.02 691.55,-70.8"/>
<polygon fill="black" stroke="black" points="691.98,-74.28 701.35,-69.34 690.95,-67.35 691.98,-74.28"/>
</g>
<!-- inter_tx&#45;&gt;mgmt -->
<g id="edge7" class="edge">
<title>inter_tx&#45;&gt;mgmt</title>
<path fill="none" stroke="black" d="M667.39,-36.88C675.32,-38.03 683.37,-39.19 691.37,-40.35"/>
<polygon fill="black" stroke="black" points="690.73,-43.8 701.13,-41.76 691.73,-36.87 690.73,-43.8"/>
</g>
<!-- note -->
<g id="node8" class="node">
<title>note</title>
<polygon fill="#fef9e7" stroke="black" points="1340.37,-76.46 924.96,-76.46 924.96,-34.25 1346.37,-34.25 1346.37,-70.46 1340.37,-76.46"/>
<polyline fill="none" stroke="black" points="1340.37,-76.46 1340.37,-70.46"/>
<polyline fill="none" stroke="black" points="1346.37,-70.46 1340.37,-70.46"/>
<text xml:space="preserve" text-anchor="middle" x="1135.66" y="-61.43" font-family="Helvetica,sans-Serif" font-size="9.00">Seminoma intermediate risk = nonpulmonary visceral metastases (no poor&#45;risk seminoma).</text>
<text xml:space="preserve" text-anchor="middle" x="1135.66" y="-51.68" font-family="Helvetica,sans-Serif" font-size="9.00">Consider intensification for good risk with LDH &gt;2.5× ULN.</text>
<text xml:space="preserve" text-anchor="middle" x="1135.66" y="-41.93" font-family="Helvetica,sans-Serif" font-size="9.00">BEP=Bleomycin/Etoposide/Cisplatin · EP=Etoposide/Cisplatin · VIP=Etoposide/Ifosfamide/Cisplatin</text>
</g>
</g>
</svg>
