<?xml version="1.0" encoding="UTF-8" standalone="no"?>
<!DOCTYPE svg PUBLIC "-//W3C//DTD SVG 1.1//EN"
 "http://www.w3.org/Graphics/SVG/1.1/DTD/svg11.dtd">
<!-- Generated by graphviz version 15.0.0 (20260523.1842)
 -->
<!-- Title: SEM5 Pages: 1 -->
<svg width="2520pt" height="293pt"
 viewBox="0.00 0.00 2520.00 293.00" xmlns="http://www.w3.org/2000/svg" xmlns:xlink="http://www.w3.org/1999/xlink">
<g id="graph0" class="graph" transform="scale(1 1) rotate(0) translate(4 289.04)">
<title>SEM5</title>
<polygon fill="white" stroke="none" points="-4,4 -4,-289.04 2516.05,-289.04 2516.05,4 -4,4"/>
<text xml:space="preserve" text-anchor="middle" x="1256.03" y="-267.74" font-family="Helvetica,sans-Serif" font-weight="bold" font-size="14.00">SEM&#45;5 · Seminoma — Post First&#45;Line Chemotherapy Management (Stage IIA–III)</text>
<!-- eval -->
<g id="node1" class="node">
<title>eval</title>
<path fill="#d6eaf8" stroke="black" d="M146.22,-164.65C146.22,-164.65 12,-164.65 12,-164.65 6,-164.65 0,-158.65 0,-152.65 0,-152.65 0,-131.38 0,-131.38 0,-125.38 6,-119.38 12,-119.38 12,-119.38 146.22,-119.38 146.22,-119.38 152.22,-119.38 158.22,-125.38 158.22,-131.38 158.22,-131.38 158.22,-152.65 158.22,-152.65 158.22,-158.65 152.22,-164.65 146.22,-164.65"/>
<text xml:space="preserve" text-anchor="start" x="9.36" y="-149.39" font-family="Helvetica,sans-Serif" font-size="10.00">Restaging after first&#45;line chemo:</text>
<text xml:space="preserve" text-anchor="start" x="9.36" y="-138.14" font-family="Helvetica,sans-Serif" font-size="10.00">• C/A/P CT or MRI</text>
<text xml:space="preserve" text-anchor="start" x="9.36" y="-126.89" font-family="Helvetica,sans-Serif" font-size="10.00">• Serum tumor markers</text>
</g>
<!-- r_none -->
<g id="node2" class="node">
<title>r_none</title>
<path fill="#f9e79f" stroke="black" d="M365.39,-259.85C365.39,-259.85 206.02,-230.21 206.02,-230.21 200.12,-229.12 200.12,-226.92 206.02,-225.83 206.02,-225.83 365.39,-196.19 365.39,-196.19 371.29,-195.1 383.09,-195.1 388.99,-196.19 388.99,-196.19 548.36,-225.83 548.36,-225.83 554.26,-226.92 554.26,-229.12 548.36,-230.21 548.36,-230.21 388.99,-259.85 388.99,-259.85 383.09,-260.94 371.29,-260.94 365.39,-259.85"/>
<text xml:space="preserve" text-anchor="middle" x="377.19" y="-229.77" font-family="Helvetica,sans-Serif" font-size="10.00">No residual mass, OR residual ≤3 cm</text>
<text xml:space="preserve" text-anchor="middle" x="377.19" y="-218.52" font-family="Helvetica,sans-Serif" font-size="10.00">with normal AFP &amp; beta&#45;hCG</text>
</g>
<!-- eval&#45;&gt;r_none -->
<g id="edge1" class="edge">
<title>eval&#45;&gt;r_none</title>
<path fill="none" stroke="black" d="M137.08,-165.13C155.18,-172.03 175.39,-179.27 194.22,-185.02 221.24,-193.26 250.91,-200.87 278.31,-207.32"/>
<polygon fill="black" stroke="black" points="277.49,-210.73 288.02,-209.58 279.07,-203.91 277.49,-210.73"/>
</g>
<!-- r_big -->
<g id="node3" class="node">
<title>r_big</title>
<path fill="#f9e79f" stroke="black" d="M365.51,-173.31C365.51,-173.31 243.4,-144.75 243.4,-144.75 237.56,-143.39 237.56,-140.65 243.4,-139.29 243.4,-139.29 365.51,-110.73 365.51,-110.73 371.35,-109.37 383.03,-109.37 388.87,-110.73 388.87,-110.73 510.98,-139.29 510.98,-139.29 516.82,-140.65 516.82,-143.39 510.98,-144.75 510.98,-144.75 388.87,-173.31 388.87,-173.31 383.03,-174.67 371.35,-174.67 365.51,-173.31"/>
<text xml:space="preserve" text-anchor="middle" x="377.19" y="-143.77" font-family="Helvetica,sans-Serif" font-size="10.00">Residual mass &gt;3 cm</text>
<text xml:space="preserve" text-anchor="middle" x="377.19" y="-132.52" font-family="Helvetica,sans-Serif" font-size="10.00">with normal AFP &amp; beta&#45;hCG</text>
</g>
<!-- eval&#45;&gt;r_big -->
<g id="edge2" class="edge">
<title>eval&#45;&gt;r_big</title>
<path fill="none" stroke="black" d="M158.68,-142.02C177.18,-142.02 197.55,-142.02 218.19,-142.02"/>
<polygon fill="black" stroke="black" points="218.15,-145.52 228.15,-142.02 218.15,-138.52 218.15,-145.52"/>
</g>
<!-- r_prog -->
<g id="node4" class="node">
<title>r_prog</title>
<path fill="#f9e79f" stroke="black" d="M365.45,-87.56C365.45,-87.56 227.71,-58.5 227.71,-58.5 221.84,-57.26 221.84,-54.78 227.71,-53.54 227.71,-53.54 365.45,-24.48 365.45,-24.48 371.32,-23.24 383.06,-23.24 388.93,-24.48 388.93,-24.48 526.67,-53.54 526.67,-53.54 532.54,-54.78 532.54,-57.26 526.67,-58.5 526.67,-58.5 388.93,-87.56 388.93,-87.56 383.06,-88.8 371.32,-88.8 365.45,-87.56"/>
<text xml:space="preserve" text-anchor="middle" x="377.19" y="-57.77" font-family="Helvetica,sans-Serif" font-size="10.00">Progressive disease</text>
<text xml:space="preserve" text-anchor="middle" x="377.19" y="-46.52" font-family="Helvetica,sans-Serif" font-size="10.00">(growing mass or rising markers)</text>
</g>
<!-- eval&#45;&gt;r_prog -->
<g id="edge3" class="edge">
<title>eval&#45;&gt;r_prog</title>
<path fill="none" stroke="black" d="M137.08,-118.91C155.18,-112.01 175.39,-104.77 194.22,-99.02 222.99,-90.24 254.77,-82.18 283.62,-75.47"/>
<polygon fill="black" stroke="black" points="284.08,-78.96 293.04,-73.31 282.51,-72.14 284.08,-78.96"/>
</g>
<!-- surv1 -->
<g id="node5" class="node">
<title>surv1</title>
<path fill="#d5f5e3" stroke="black" d="M695.13,-246.02C695.13,-246.02 647.16,-246.02 647.16,-246.02 641.16,-246.02 635.16,-240.02 635.16,-234.02 635.16,-234.02 635.16,-222.02 635.16,-222.02 635.16,-216.02 641.16,-210.02 647.16,-210.02 647.16,-210.02 695.13,-210.02 695.13,-210.02 701.13,-210.02 707.13,-216.02 707.13,-222.02 707.13,-222.02 707.13,-234.02 707.13,-234.02 707.13,-240.02 701.13,-246.02 695.13,-246.02"/>
<text xml:space="preserve" text-anchor="middle" x="671.15" y="-224.14" font-family="Helvetica,sans-Serif" font-size="10.00">Surveillance</text>
</g>
<!-- r_none&#45;&gt;surv1 -->
<g id="edge4" class="edge">
<title>r_none&#45;&gt;surv1</title>
<path fill="none" stroke="black" d="M562.68,-228.02C585,-228.02 606.02,-228.02 623.46,-228.02"/>
<polygon fill="black" stroke="black" points="623.41,-231.52 633.41,-228.02 623.41,-224.52 623.41,-231.52"/>
</g>
<!-- surv2 -->
<g id="node7" class="node">
<title>surv2</title>
<path fill="#d5f5e3" stroke="black" d="M695.13,-192.02C695.13,-192.02 647.16,-192.02 647.16,-192.02 641.16,-192.02 635.16,-186.02 635.16,-180.02 635.16,-180.02 635.16,-168.02 635.16,-168.02 635.16,-162.02 641.16,-156.02 647.16,-156.02 647.16,-156.02 695.13,-156.02 695.13,-156.02 701.13,-156.02 707.13,-162.02 707.13,-168.02 707.13,-168.02 707.13,-180.02 707.13,-180.02 707.13,-186.02 701.13,-192.02 695.13,-192.02"/>
<text xml:space="preserve" text-anchor="middle" x="671.15" y="-170.14" font-family="Helvetica,sans-Serif" font-size="10.00">Surveillance</text>
</g>
<!-- r_big&#45;&gt;surv2 -->
<g id="edge6" class="edge">
<title>r_big&#45;&gt;surv2</title>
<path fill="none" stroke="black" d="M477.85,-152.94C527.21,-158.35 584.45,-164.63 623.56,-168.91"/>
<polygon fill="black" stroke="black" points="623.01,-172.37 633.33,-169.99 623.77,-165.42 623.01,-172.37"/>
</g>
<!-- pet -->
<g id="node8" class="node">
<title>pet</title>
<path fill="#d5f5e3" stroke="black" d="M719.51,-138.02C719.51,-138.02 622.79,-138.02 622.79,-138.02 616.79,-138.02 610.79,-132.02 610.79,-126.02 610.79,-126.02 610.79,-114.02 610.79,-114.02 610.79,-108.02 616.79,-102.02 622.79,-102.02 622.79,-102.02 719.51,-102.02 719.51,-102.02 725.51,-102.02 731.51,-108.02 731.51,-114.02 731.51,-114.02 731.51,-126.02 731.51,-126.02 731.51,-132.02 725.51,-138.02 719.51,-138.02"/>
<text xml:space="preserve" text-anchor="middle" x="671.15" y="-121.77" font-family="Helvetica,sans-Serif" font-size="10.00">Consider FDG&#45;PET/CT</text>
<text xml:space="preserve" text-anchor="middle" x="671.15" y="-110.52" font-family="Helvetica,sans-Serif" font-size="10.00">(≥6 wks post&#45;chemo)</text>
</g>
<!-- r_big&#45;&gt;pet -->
<g id="edge7" class="edge">
<title>r_big&#45;&gt;pet</title>
<path fill="none" stroke="black" d="M488.98,-133.67C525.92,-130.89 566.06,-127.86 599.14,-125.37"/>
<polygon fill="black" stroke="black" points="599.32,-128.87 609.03,-124.63 598.79,-121.89 599.32,-128.87"/>
</g>
<!-- sl -->
<g id="node18" class="node">
<title>sl</title>
<path fill="#f5b7b1" stroke="black" d="M734.13,-74.02C734.13,-74.02 608.16,-74.02 608.16,-74.02 602.16,-74.02 596.16,-68.02 596.16,-62.02 596.16,-62.02 596.16,-50.02 596.16,-50.02 596.16,-44.02 602.16,-38.02 608.16,-38.02 608.16,-38.02 734.13,-38.02 734.13,-38.02 740.13,-38.02 746.13,-44.02 746.13,-50.02 746.13,-50.02 746.13,-62.02 746.13,-62.02 746.13,-68.02 740.13,-74.02 734.13,-74.02"/>
<text xml:space="preserve" text-anchor="middle" x="671.15" y="-52.14" font-family="Helvetica,sans-Serif" font-size="10.00">Second&#45;Line Therapy (SEM&#45;6)</text>
</g>
<!-- r_prog&#45;&gt;sl -->
<g id="edge17" class="edge">
<title>r_prog&#45;&gt;sl</title>
<path fill="none" stroke="black" d="M540.81,-56.02C555.75,-56.02 570.45,-56.02 584.28,-56.02"/>
<polygon fill="black" stroke="black" points="584.16,-59.52 594.16,-56.02 584.16,-52.52 584.16,-59.52"/>
</g>
<!-- fu_a -->
<g id="node6" class="node">
<title>fu_a</title>
<path fill="#fdebd0" stroke="black" stroke-dasharray="5,2" d="M1861.11,-237.02C1861.11,-237.02 1729.89,-237.02 1729.89,-237.02 1723.89,-237.02 1717.89,-231.02 1717.89,-225.02 1717.89,-225.02 1717.89,-213.02 1717.89,-213.02 1717.89,-207.02 1723.89,-201.02 1729.89,-201.02 1729.89,-201.02 1861.11,-201.02 1861.11,-201.02 1867.11,-201.02 1873.11,-207.02 1873.11,-213.02 1873.11,-213.02 1873.11,-225.02 1873.11,-225.02 1873.11,-231.02 1867.11,-237.02 1861.11,-237.02"/>
<text xml:space="preserve" text-anchor="middle" x="1795.5" y="-220.77" font-family="Helvetica,sans-Serif" font-size="10.00">Follow&#45;up Table 3 (TEST&#45;A 2/3)</text>
<text xml:space="preserve" text-anchor="middle" x="1795.5" y="-209.52" font-family="Helvetica,sans-Serif" font-size="10.00">or Table 6 (TEST&#45;A 3/3)</text>
</g>
<!-- surv1&#45;&gt;fu_a -->
<g id="edge5" class="edge">
<title>surv1&#45;&gt;fu_a</title>
<path fill="none" stroke="black" d="M707.39,-228.02C783.17,-228.02 967.23,-228.02 1121.5,-228.02 1121.5,-228.02 1121.5,-228.02 1327.45,-228.02 1459.41,-228.02 1612.31,-224.38 1706.21,-221.73"/>
<polygon fill="black" stroke="black" points="1706.24,-225.24 1716.14,-221.45 1706.04,-218.24 1706.24,-225.24"/>
</g>
<!-- recur -->
<g id="node19" class="node">
<title>recur</title>
<path fill="#f5b7b1" stroke="black" d="M2047.08,-201.02C2047.08,-201.02 1921.11,-201.02 1921.11,-201.02 1915.11,-201.02 1909.11,-195.02 1909.11,-189.02 1909.11,-189.02 1909.11,-177.02 1909.11,-177.02 1909.11,-171.02 1915.11,-165.02 1921.11,-165.02 1921.11,-165.02 2047.08,-165.02 2047.08,-165.02 2053.08,-165.02 2059.08,-171.02 2059.08,-177.02 2059.08,-177.02 2059.08,-189.02 2059.08,-189.02 2059.08,-195.02 2053.08,-201.02 2047.08,-201.02"/>
<text xml:space="preserve" text-anchor="middle" x="1984.1" y="-184.77" font-family="Helvetica,sans-Serif" font-size="10.00">For recurrence, see</text>
<text xml:space="preserve" text-anchor="middle" x="1984.1" y="-173.52" font-family="Helvetica,sans-Serif" font-size="10.00">Second&#45;Line Therapy (SEM&#45;6)</text>
</g>
<!-- fu_a&#45;&gt;recur -->
<g id="edge18" class="edge">
<title>fu_a&#45;&gt;recur</title>
<path fill="none" stroke="black" d="M1873.47,-204.17C1881.39,-202.64 1889.46,-201.08 1897.47,-199.54"/>
<polygon fill="black" stroke="black" points="1898.06,-202.99 1907.22,-197.66 1896.73,-196.12 1898.06,-202.99"/>
</g>
<!-- pet_neg -->
<g id="node9" class="node">
<title>pet_neg</title>
<path fill="#fcf3cf" stroke="black" d="M884.59,-194.15C884.59,-194.15 793.98,-179.89 793.98,-179.89 788.06,-178.95 788.06,-177.09 793.98,-176.15 793.98,-176.15 884.59,-161.89 884.59,-161.89 890.52,-160.95 902.37,-160.95 908.3,-161.89 908.3,-161.89 998.91,-176.15 998.91,-176.15 1004.83,-177.09 1004.83,-178.95 998.91,-179.89 998.91,-179.89 908.3,-194.15 908.3,-194.15 902.37,-195.09 890.52,-195.09 884.59,-194.15"/>
<text xml:space="preserve" text-anchor="middle" x="896.45" y="-174.14" font-family="Helvetica,sans-Serif" font-size="10.00">Negative / indeterminate</text>
</g>
<!-- pet&#45;&gt;pet_neg -->
<g id="edge8" class="edge">
<title>pet&#45;&gt;pet_neg</title>
<path fill="none" stroke="black" d="M731.99,-135.56C765.88,-144.37 807.95,-155.29 840.93,-163.86"/>
<polygon fill="black" stroke="black" points="839.71,-167.16 850.27,-166.29 841.47,-160.38 839.71,-167.16"/>
</g>
<!-- pet_pos -->
<g id="node10" class="node">
<title>pet_pos</title>
<path fill="#fcf3cf" stroke="black" d="M885.17,-133.9C885.17,-133.9 858.45,-124.14 858.45,-124.14 852.81,-122.08 852.81,-117.96 858.45,-115.9 858.45,-115.9 885.17,-106.14 885.17,-106.14 890.81,-104.08 902.08,-104.08 907.72,-106.14 907.72,-106.14 934.44,-115.9 934.44,-115.9 940.08,-117.96 940.08,-122.08 934.44,-124.14 934.44,-124.14 907.72,-133.9 907.72,-133.9 902.08,-135.96 890.81,-135.96 885.17,-133.9"/>
<text xml:space="preserve" text-anchor="middle" x="896.45" y="-116.14" font-family="Helvetica,sans-Serif" font-size="10.00">Positive</text>
</g>
<!-- pet&#45;&gt;pet_pos -->
<g id="edge9" class="edge">
<title>pet&#45;&gt;pet_pos</title>
<path fill="none" stroke="black" d="M731.99,-120.02C763.74,-120.02 802.68,-120.02 834.59,-120.02"/>
<polygon fill="black" stroke="black" points="834.49,-123.52 844.49,-120.02 834.49,-116.52 834.49,-123.52"/>
</g>
<!-- surv3 -->
<g id="node11" class="node">
<title>surv3</title>
<path fill="#d5f5e3" stroke="black" d="M1146.48,-199.02C1146.48,-199.02 1098.51,-199.02 1098.51,-199.02 1092.51,-199.02 1086.51,-193.02 1086.51,-187.02 1086.51,-187.02 1086.51,-175.02 1086.51,-175.02 1086.51,-169.02 1092.51,-163.02 1098.51,-163.02 1098.51,-163.02 1146.48,-163.02 1146.48,-163.02 1152.48,-163.02 1158.48,-169.02 1158.48,-175.02 1158.48,-175.02 1158.48,-187.02 1158.48,-187.02 1158.48,-193.02 1152.48,-199.02 1146.48,-199.02"/>
<text xml:space="preserve" text-anchor="middle" x="1122.5" y="-177.14" font-family="Helvetica,sans-Serif" font-size="10.00">Surveillance</text>
</g>
<!-- pet_neg&#45;&gt;surv3 -->
<g id="edge10" class="edge">
<title>pet_neg&#45;&gt;surv3</title>
<path fill="none" stroke="black" d="M1004.55,-179.45C1029.3,-179.79 1054.38,-180.12 1074.93,-180.4"/>
<polygon fill="black" stroke="black" points="1074.6,-183.89 1084.65,-180.53 1074.7,-176.89 1074.6,-183.89"/>
</g>
<!-- action -->
<g id="node12" class="node">
<title>action</title>
<path fill="#d5f5e3" stroke="black" d="M1186.23,-142.65C1186.23,-142.65 1058.76,-142.65 1058.76,-142.65 1052.76,-142.65 1046.76,-136.65 1046.76,-130.65 1046.76,-130.65 1046.76,-109.38 1046.76,-109.38 1046.76,-103.38 1052.76,-97.38 1058.76,-97.38 1058.76,-97.38 1186.23,-97.38 1186.23,-97.38 1192.23,-97.38 1198.23,-103.38 1198.23,-109.38 1198.23,-109.38 1198.23,-130.65 1198.23,-130.65 1198.23,-136.65 1192.23,-142.65 1186.23,-142.65"/>
<text xml:space="preserve" text-anchor="middle" x="1122.5" y="-127.39" font-family="Helvetica,sans-Serif" font-size="10.00">Repeat imaging in 6–12 wks</text>
<text xml:space="preserve" text-anchor="middle" x="1122.5" y="-116.14" font-family="Helvetica,sans-Serif" font-size="10.00">OR resection of residual mass</text>
<text xml:space="preserve" text-anchor="middle" x="1122.5" y="-104.89" font-family="Helvetica,sans-Serif" font-size="10.00">OR biopsy</text>
</g>
<!-- pet_pos&#45;&gt;action -->
<g id="edge11" class="edge">
<title>pet_pos&#45;&gt;action</title>
<path fill="none" stroke="black" d="M947.17,-120.02C973,-120.02 1005.32,-120.02 1035.09,-120.02"/>
<polygon fill="black" stroke="black" points="1034.84,-123.52 1044.84,-120.02 1034.84,-116.52 1034.84,-123.52"/>
</g>
<!-- fu_b -->
<g id="node17" class="node">
<title>fu_b</title>
<path fill="#fdebd0" stroke="black" stroke-dasharray="5,2" d="M1861.11,-174.02C1861.11,-174.02 1729.89,-174.02 1729.89,-174.02 1723.89,-174.02 1717.89,-168.02 1717.89,-162.02 1717.89,-162.02 1717.89,-150.02 1717.89,-150.02 1717.89,-144.02 1723.89,-138.02 1729.89,-138.02 1729.89,-138.02 1861.11,-138.02 1861.11,-138.02 1867.11,-138.02 1873.11,-144.02 1873.11,-150.02 1873.11,-150.02 1873.11,-162.02 1873.11,-162.02 1873.11,-168.02 1867.11,-174.02 1861.11,-174.02"/>
<text xml:space="preserve" text-anchor="middle" x="1795.5" y="-152.14" font-family="Helvetica,sans-Serif" font-size="10.00">Follow&#45;up Table 6 (TEST&#45;A 3/3)</text>
</g>
<!-- surv3&#45;&gt;fu_b -->
<g id="edge19" class="edge">
<title>surv3&#45;&gt;fu_b</title>
<path fill="none" stroke="black" d="M1158.84,-181.79C1247.18,-183.4 1484.65,-185.87 1681.89,-171.02 1689.87,-170.42 1698.14,-169.63 1706.43,-168.73"/>
<polygon fill="black" stroke="black" points="1706.65,-172.23 1716.19,-167.62 1705.85,-165.28 1706.65,-172.23"/>
</g>
<!-- viable -->
<g id="node13" class="node">
<title>viable</title>
<path fill="#fcf3cf" stroke="black" d="M1315.19,-149.89C1315.19,-149.89 1245.49,-124.17 1245.49,-124.17 1239.86,-122.1 1239.86,-117.94 1245.49,-115.87 1245.49,-115.87 1315.19,-90.15 1315.19,-90.15 1320.82,-88.08 1332.08,-88.08 1337.71,-90.15 1337.71,-90.15 1407.41,-115.87 1407.41,-115.87 1413.04,-117.94 1413.04,-122.1 1407.41,-124.17 1407.41,-124.17 1337.71,-149.89 1337.71,-149.89 1332.08,-151.96 1320.82,-151.96 1315.19,-149.89"/>
<text xml:space="preserve" text-anchor="middle" x="1326.45" y="-121.77" font-family="Helvetica,sans-Serif" font-size="10.00">Positive for</text>
<text xml:space="preserve" text-anchor="middle" x="1326.45" y="-110.52" font-family="Helvetica,sans-Serif" font-size="10.00">viable seminoma</text>
</g>
<!-- action&#45;&gt;viable -->
<g id="edge12" class="edge">
<title>action&#45;&gt;viable</title>
<path fill="none" stroke="black" d="M1198.7,-120.02C1206.23,-120.02 1213.97,-120.02 1221.73,-120.02"/>
<polygon fill="black" stroke="black" points="1221.58,-123.52 1231.58,-120.02 1221.58,-116.52 1221.58,-123.52"/>
</g>
<!-- nonviable -->
<g id="node14" class="node">
<title>nonviable</title>
<path fill="#fcf3cf" stroke="black" d="M1315.19,-63.89C1315.19,-63.89 1245.49,-38.17 1245.49,-38.17 1239.86,-36.1 1239.86,-31.94 1245.49,-29.87 1245.49,-29.87 1315.19,-4.15 1315.19,-4.15 1320.82,-2.08 1332.08,-2.08 1337.71,-4.15 1337.71,-4.15 1407.41,-29.87 1407.41,-29.87 1413.04,-31.94 1413.04,-36.1 1407.41,-38.17 1407.41,-38.17 1337.71,-63.89 1337.71,-63.89 1332.08,-65.96 1320.82,-65.96 1315.19,-63.89"/>
<text xml:space="preserve" text-anchor="middle" x="1326.45" y="-35.77" font-family="Helvetica,sans-Serif" font-size="10.00">Negative for</text>
<text xml:space="preserve" text-anchor="middle" x="1326.45" y="-24.52" font-family="Helvetica,sans-Serif" font-size="10.00">viable seminoma</text>
</g>
<!-- action&#45;&gt;nonviable -->
<g id="edge13" class="edge">
<title>action&#45;&gt;nonviable</title>
<path fill="none" stroke="black" d="M1177.62,-96.97C1206.96,-84.48 1243.09,-69.09 1272.28,-56.66"/>
<polygon fill="black" stroke="black" points="1273.48,-59.96 1281.31,-52.82 1270.74,-53.51 1273.48,-59.96"/>
</g>
<!-- complete -->
<g id="node15" class="node">
<title>complete</title>
<path fill="#d5f5e3" stroke="black" d="M1657.14,-162.4C1657.14,-162.4 1479.42,-162.4 1479.42,-162.4 1473.42,-162.4 1467.42,-156.4 1467.42,-150.4 1467.42,-150.4 1467.42,-127.63 1467.42,-127.63 1467.42,-121.63 1473.42,-115.63 1479.42,-115.63 1479.42,-115.63 1657.14,-115.63 1657.14,-115.63 1663.14,-115.63 1669.14,-121.63 1669.14,-127.63 1669.14,-127.63 1669.14,-150.4 1669.14,-150.4 1669.14,-156.4 1663.14,-162.4 1657.14,-162.4"/>
<text xml:space="preserve" text-anchor="middle" x="1568.28" y="-147.14" font-family="Helvetica,sans-Serif" font-size="10.00">Complete resection →</text>
<text xml:space="preserve" text-anchor="middle" x="1568.28" y="-134.39" font-family="Helvetica,sans-Serif" font-size="10.00">Consider 2 cycles adjuvant chemotherapy</text>
<text xml:space="preserve" text-anchor="middle" x="1568.28" y="-123.14" font-family="Helvetica,sans-Serif" font-size="10.00">(EP/TIP/VIP/VeIP)</text>
</g>
<!-- viable&#45;&gt;complete -->
<g id="edge14" class="edge">
<title>viable&#45;&gt;complete</title>
<path fill="none" stroke="black" d="M1403.66,-126.06C1420.28,-127.37 1438.2,-128.79 1455.87,-130.19"/>
<polygon fill="black" stroke="black" points="1455.37,-133.66 1465.61,-130.97 1455.92,-126.69 1455.37,-133.66"/>
</g>
<!-- incomplete -->
<g id="node16" class="node">
<title>incomplete</title>
<path fill="#f5b7b1" stroke="black" d="M1669.89,-98.02C1669.89,-98.02 1466.67,-98.02 1466.67,-98.02 1460.67,-98.02 1454.67,-92.02 1454.67,-86.02 1454.67,-86.02 1454.67,-74.02 1454.67,-74.02 1454.67,-68.02 1460.67,-62.02 1466.67,-62.02 1466.67,-62.02 1669.89,-62.02 1669.89,-62.02 1675.89,-62.02 1681.89,-68.02 1681.89,-74.02 1681.89,-74.02 1681.89,-86.02 1681.89,-86.02 1681.89,-92.02 1675.89,-98.02 1669.89,-98.02"/>
<text xml:space="preserve" text-anchor="middle" x="1568.28" y="-82.52" font-family="Helvetica,sans-Serif" font-size="10.00">Incomplete resection, positive biopsy,</text>
<text xml:space="preserve" text-anchor="middle" x="1568.28" y="-71.27" font-family="Helvetica,sans-Serif" font-size="10.00">or progression → Second&#45;Line Therapy (SEM&#45;6)</text>
</g>
<!-- viable&#45;&gt;incomplete -->
<g id="edge15" class="edge">
<title>viable&#45;&gt;incomplete</title>
<path fill="none" stroke="black" d="M1391.09,-109.41C1407.83,-106.61 1426.47,-103.51 1445.17,-100.39"/>
<polygon fill="black" stroke="black" points="1445.71,-103.84 1455,-98.75 1444.56,-96.94 1445.71,-103.84"/>
</g>
<!-- nonviable&#45;&gt;fu_b -->
<g id="edge16" class="edge">
<title>nonviable&#45;&gt;fu_b</title>
<path fill="none" stroke="black" d="M1394.43,-24.61C1467.99,-17.16 1588.13,-13.69 1681.89,-53.02 1720.24,-69.11 1753.89,-104.18 1774.19,-128.92"/>
<polygon fill="black" stroke="black" points="1771.39,-131.01 1780.36,-136.65 1776.86,-126.65 1771.39,-131.01"/>
</g>
<!-- complete&#45;&gt;fu_b -->
<g id="edge20" class="edge">
<title>complete&#45;&gt;fu_b</title>
<path fill="none" stroke="black" d="M1669.38,-146.58C1681.66,-147.5 1694.15,-148.45 1706.24,-149.36"/>
<polygon fill="black" stroke="black" points="1705.95,-152.85 1716.19,-150.11 1706.48,-145.87 1705.95,-152.85"/>
</g>
<!-- fu_b&#45;&gt;recur -->
<g id="edge21" class="edge">
<title>fu_b&#45;&gt;recur</title>
<path fill="none" stroke="black" d="M1873.47,-167.16C1881.39,-168.3 1889.46,-169.47 1897.47,-170.63"/>
<polygon fill="black" stroke="black" points="1896.81,-174.07 1907.2,-172.04 1897.81,-167.14 1896.81,-174.07"/>
</g>
<!-- note -->
<g id="node20" class="node">
<title>note</title>
<polygon fill="#fef9e7" stroke="black" points="2506.05,-201.02 2095.08,-201.02 2095.08,-165.02 2512.05,-165.02 2512.05,-195.02 2506.05,-201.02"/>
<polyline fill="none" stroke="black" points="2506.05,-201.02 2506.05,-195.02"/>
<polyline fill="none" stroke="black" points="2512.05,-195.02 2506.05,-195.02"/>
<text xml:space="preserve" text-anchor="middle" x="2303.57" y="-184.22" font-family="Helvetica,sans-Serif" font-size="9.00">Rare nonseminomatous elements on resection: if non&#45;teratomatous, manage as viable seminoma.</text>
<text xml:space="preserve" text-anchor="middle" x="2303.57" y="-174.47" font-family="Helvetica,sans-Serif" font-size="9.00">EP/TIP/VIP/VeIP regimens — see TEST&#45;E/F. Consider referral to high&#45;volume center.</text>
</g>
</g>
</svg>
