<?xml version="1.0" encoding="UTF-8" standalone="no"?>
<!DOCTYPE svg PUBLIC "-//W3C//DTD SVG 1.1//EN"
 "http://www.w3.org/Graphics/SVG/1.1/DTD/svg11.dtd">
<!-- Generated by graphviz version 15.0.0 (20260523.1842)
 -->
<!-- Title: SEM8 Pages: 1 -->
<svg width="1027pt" height="267pt"
 viewBox="0.00 0.00 1027.00 267.00" xmlns="http://www.w3.org/2000/svg" xmlns:xlink="http://www.w3.org/1999/xlink">
<g id="graph0" class="graph" transform="scale(1 1) rotate(0) translate(4 262.58)">
<title>SEM8</title>
<polygon fill="white" stroke="none" points="-4,4 -4,-262.58 1022.8,-262.58 1022.8,4 -4,4"/>
<text xml:space="preserve" text-anchor="middle" x="509.4" y="-241.28" font-family="Helvetica,sans-Serif" font-weight="bold" font-size="14.00">SEM&#45;8 · Seminoma — Recurrence &amp; Third&#45;Line Therapy</text>
<!-- branch -->
<g id="node1" class="node">
<title>branch</title>
<path fill="#f9e79f" stroke="black" d="M60.64,-129.58C60.64,-129.58 11.64,-117.38 11.64,-117.38 5.82,-115.93 5.82,-113.03 11.64,-111.58 11.64,-111.58 60.64,-99.38 60.64,-99.38 66.47,-97.93 78.11,-97.93 83.93,-99.38 83.93,-99.38 132.93,-111.58 132.93,-111.58 138.75,-113.03 138.75,-115.93 132.93,-117.38 132.93,-117.38 83.93,-129.58 83.93,-129.58 78.11,-131.03 66.47,-131.03 60.64,-129.58"/>
<text xml:space="preserve" text-anchor="middle" x="72.29" y="-110.61" font-family="Helvetica,sans-Serif" font-size="10.00">Prior therapy</text>
</g>
<!-- b1 -->
<g id="node2" class="node">
<title>b1</title>
<path fill="#f1948a" stroke="black" d="M331.98,-177.48C331.98,-177.48 192.57,-177.48 192.57,-177.48 186.57,-177.48 180.57,-171.48 180.57,-165.48 180.57,-165.48 180.57,-153.48 180.57,-153.48 180.57,-147.48 186.57,-141.48 192.57,-141.48 192.57,-141.48 331.98,-141.48 331.98,-141.48 337.98,-141.48 343.98,-147.48 343.98,-153.48 343.98,-153.48 343.98,-165.48 343.98,-165.48 343.98,-171.48 337.98,-177.48 331.98,-177.48"/>
<text xml:space="preserve" text-anchor="middle" x="262.28" y="-161.23" font-family="Helvetica,sans-Serif" font-size="10.00">Prior first&#45; and second&#45;line</text>
<text xml:space="preserve" text-anchor="middle" x="262.28" y="-149.98" font-family="Helvetica,sans-Serif" font-size="10.00">conventional&#45;dose chemotherapy</text>
</g>
<!-- branch&#45;&gt;b1 -->
<g id="edge1" class="edge">
<title>branch&#45;&gt;b1</title>
<path fill="none" stroke="black" d="M110.43,-123.37C128.46,-127.69 150.97,-133.07 173.05,-138.36"/>
<polygon fill="black" stroke="black" points="172.17,-141.75 182.71,-140.67 173.8,-134.94 172.17,-141.75"/>
</g>
<!-- b2 -->
<g id="node3" class="node">
<title>b2</title>
<path fill="#f1948a" stroke="black" d="M325.23,-105.48C325.23,-105.48 199.32,-105.48 199.32,-105.48 193.32,-105.48 187.32,-99.48 187.32,-93.48 187.32,-93.48 187.32,-81.48 187.32,-81.48 187.32,-75.48 193.32,-69.48 199.32,-69.48 199.32,-69.48 325.23,-69.48 325.23,-69.48 331.23,-69.48 337.23,-75.48 337.23,-81.48 337.23,-81.48 337.23,-93.48 337.23,-93.48 337.23,-99.48 331.23,-105.48 325.23,-105.48"/>
<text xml:space="preserve" text-anchor="middle" x="262.28" y="-83.61" font-family="Helvetica,sans-Serif" font-size="10.00">Prior high&#45;dose chemotherapy</text>
</g>
<!-- branch&#45;&gt;b2 -->
<g id="edge2" class="edge">
<title>branch&#45;&gt;b2</title>
<path fill="none" stroke="black" d="M119.76,-107.81C136.75,-105.36 156.56,-102.52 175.89,-99.74"/>
<polygon fill="black" stroke="black" points="176.28,-103.22 185.68,-98.34 175.29,-96.29 176.28,-103.22"/>
</g>
<!-- t1 -->
<g id="node4" class="node">
<title>t1</title>
<path fill="#d5f5e3" stroke="black" d="M607.89,-235.59C607.89,-235.59 391.98,-235.59 391.98,-235.59 385.98,-235.59 379.98,-229.59 379.98,-223.59 379.98,-223.59 379.98,-133.38 379.98,-133.38 379.98,-127.38 385.98,-121.38 391.98,-121.38 391.98,-121.38 607.89,-121.38 607.89,-121.38 613.89,-121.38 619.89,-127.38 619.89,-133.38 619.89,-133.38 619.89,-223.59 619.89,-223.59 619.89,-229.59 613.89,-235.59 607.89,-235.59"/>
<text xml:space="preserve" text-anchor="start" x="390.06" y="-219.61" font-family="Helvetica,sans-Serif" font-size="10.00">THIRD&#45;LINE THERAPY</text>
<text xml:space="preserve" text-anchor="start" x="390.06" y="-208.36" font-family="Helvetica,sans-Serif" font-size="10.00">• Clinical trial</text>
<text xml:space="preserve" text-anchor="start" x="390.06" y="-197.11" font-family="Helvetica,sans-Serif" font-size="10.00">• High&#45;dose chemotherapy (preferred)</text>
<text xml:space="preserve" text-anchor="start" x="390.06" y="-185.86" font-family="Helvetica,sans-Serif" font-size="10.00">• Conventional&#45;dose third&#45;line chemotherapy</text>
<text xml:space="preserve" text-anchor="start" x="390.06" y="-174.61" font-family="Helvetica,sans-Serif" font-size="10.00">• Molecular testing (MSI/MMR, TMB; NGS + IHC)</text>
<text xml:space="preserve" text-anchor="start" x="390.06" y="-163.36" font-family="Helvetica,sans-Serif" font-size="10.00"> &#160;for biomarker&#45;driven therapy if progression</text>
<text xml:space="preserve" text-anchor="start" x="390.06" y="-152.11" font-family="Helvetica,sans-Serif" font-size="10.00">• RT in select patients (TEST&#45;C)</text>
<text xml:space="preserve" text-anchor="start" x="390.06" y="-140.86" font-family="Helvetica,sans-Serif" font-size="10.00">• Consider surgical treatment if resectable</text>
<text xml:space="preserve" text-anchor="start" x="390.06" y="-129.61" font-family="Helvetica,sans-Serif" font-size="10.00"> &#160;solitary site</text>
</g>
<!-- b1&#45;&gt;t1 -->
<g id="edge3" class="edge">
<title>b1&#45;&gt;t1</title>
<path fill="none" stroke="black" d="M344.38,-166.02C352.25,-166.65 360.37,-167.31 368.56,-167.97"/>
<polygon fill="black" stroke="black" points="368.02,-171.44 378.27,-168.75 368.58,-164.46 368.02,-171.44"/>
</g>
<!-- t2 -->
<g id="node5" class="node">
<title>t2</title>
<path fill="#d5f5e3" stroke="black" d="M607.89,-102.96C607.89,-102.96 391.98,-102.96 391.98,-102.96 385.98,-102.96 379.98,-96.96 379.98,-90.96 379.98,-90.96 379.98,-12 379.98,-12 379.98,-6 385.98,0 391.98,0 391.98,0 607.89,0 607.89,0 613.89,0 619.89,-6 619.89,-12 619.89,-12 619.89,-90.96 619.89,-90.96 619.89,-96.96 613.89,-102.96 607.89,-102.96"/>
<text xml:space="preserve" text-anchor="start" x="390.06" y="-86.98" font-family="Helvetica,sans-Serif" font-size="10.00">THIRD&#45;LINE THERAPY</text>
<text xml:space="preserve" text-anchor="start" x="390.06" y="-75.73" font-family="Helvetica,sans-Serif" font-size="10.00">• Clinical trial (preferred)</text>
<text xml:space="preserve" text-anchor="start" x="390.06" y="-64.48" font-family="Helvetica,sans-Serif" font-size="10.00">• Conventional&#45;dose third&#45;line chemotherapy</text>
<text xml:space="preserve" text-anchor="start" x="390.06" y="-53.23" font-family="Helvetica,sans-Serif" font-size="10.00">• Molecular testing (MSI/MMR, TMB; NGS + IHC)</text>
<text xml:space="preserve" text-anchor="start" x="390.06" y="-41.98" font-family="Helvetica,sans-Serif" font-size="10.00"> &#160;for biomarker&#45;driven therapy if progression</text>
<text xml:space="preserve" text-anchor="start" x="390.06" y="-30.73" font-family="Helvetica,sans-Serif" font-size="10.00">• RT in select patients (TEST&#45;C)</text>
<text xml:space="preserve" text-anchor="start" x="390.06" y="-19.48" font-family="Helvetica,sans-Serif" font-size="10.00">• Consider surgical treatment if resectable</text>
<text xml:space="preserve" text-anchor="start" x="390.06" y="-8.23" font-family="Helvetica,sans-Serif" font-size="10.00"> &#160;solitary site</text>
</g>
<!-- b2&#45;&gt;t2 -->
<g id="edge4" class="edge">
<title>b2&#45;&gt;t2</title>
<path fill="none" stroke="black" d="M337.52,-76.14C347.53,-74.61 358.04,-73 368.67,-71.38"/>
<polygon fill="black" stroke="black" points="368.94,-74.88 378.3,-69.91 367.89,-67.96 368.94,-74.88"/>
</g>
<!-- note -->
<g id="node6" class="node">
<title>note</title>
<polygon fill="#fef9e7" stroke="black" points="1012.8,-69.48 655.89,-69.48 655.89,-33.48 1018.8,-33.48 1018.8,-63.48 1012.8,-69.48"/>
<polyline fill="none" stroke="black" points="1012.8,-69.48 1012.8,-63.48"/>
<polyline fill="none" stroke="black" points="1018.8,-63.48 1012.8,-63.48"/>
<text xml:space="preserve" text-anchor="middle" x="837.35" y="-52.68" font-family="Helvetica,sans-Serif" font-size="9.00">Third&#45;line systemic regimens: TEST&#45;G. Pan&#45;cancer/tumor&#45;agnostic treatments</text>
<text xml:space="preserve" text-anchor="middle" x="837.35" y="-42.93" font-family="Helvetica,sans-Serif" font-size="9.00">may be considered for actionable mutations. Includes best supportive/palliative care.</text>
</g>
</g>
</svg>
