<?xml version="1.0" encoding="UTF-8" standalone="no"?>
<!DOCTYPE svg PUBLIC "-//W3C//DTD SVG 1.1//EN"
 "http://www.w3.org/Graphics/SVG/1.1/DTD/svg11.dtd">
<!-- Generated by graphviz version 15.0.0 (20260523.1842)
 -->
<!-- Title: SEM2 Pages: 1 -->
<svg width="1139pt" height="251pt"
 viewBox="0.00 0.00 1139.00 251.00" xmlns="http://www.w3.org/2000/svg" xmlns:xlink="http://www.w3.org/1999/xlink">
<g id="graph0" class="graph" transform="scale(1 1) rotate(0) translate(4 247.23)">
<title>SEM2</title>
<polygon fill="white" stroke="none" points="-4,4 -4,-247.23 1135.3,-247.23 1135.3,4 -4,4"/>
<text xml:space="preserve" text-anchor="middle" x="565.65" y="-225.93" font-family="Helvetica,sans-Serif" font-weight="bold" font-size="14.00">SEM&#45;2 · Pure Seminoma — Stage IA, IB, and IS</text>
<!-- iaib -->
<g id="node1" class="node">
<title>iaib</title>
<path fill="#f9e79f" stroke="black" d="M62.16,-90C62.16,-90 12,-90 12,-90 6,-90 0,-84 0,-78 0,-78 0,-66 0,-66 0,-60 6,-54 12,-54 12,-54 62.16,-54 62.16,-54 68.16,-54 74.16,-60 74.16,-66 74.16,-66 74.16,-78 74.16,-78 74.16,-84 68.16,-90 62.16,-90"/>
<text xml:space="preserve" text-anchor="middle" x="37.08" y="-68.12" font-family="Helvetica,sans-Serif" font-size="10.00">Stage IA, IB</text>
</g>
<!-- surv -->
<g id="node2" class="node">
<title>surv</title>
<path fill="#d5f5e3" stroke="black" d="M284.07,-144C284.07,-144 146.16,-144 146.16,-144 140.16,-144 134.16,-138 134.16,-132 134.16,-132 134.16,-120 134.16,-120 134.16,-114 140.16,-108 146.16,-108 146.16,-108 284.07,-108 284.07,-108 290.07,-108 296.07,-114 296.07,-120 296.07,-120 296.07,-132 296.07,-132 296.07,-138 290.07,-144 284.07,-144"/>
<text xml:space="preserve" text-anchor="middle" x="215.12" y="-127.75" font-family="Helvetica,sans-Serif" font-size="10.00">Surveillance for pT1–pT3 tumors</text>
<text xml:space="preserve" text-anchor="middle" x="215.12" y="-116.5" font-family="Helvetica,sans-Serif" font-size="10.00">(strongly preferred)</text>
</g>
<!-- iaib&#45;&gt;surv -->
<g id="edge1" class="edge">
<title>iaib&#45;&gt;surv</title>
<path fill="none" stroke="black" d="M74.49,-86.48C85.83,-90.76 98.44,-95.29 110.16,-99 115.99,-100.84 122.04,-102.66 128.15,-104.42"/>
<polygon fill="black" stroke="black" points="127.15,-107.78 137.72,-107.12 129.05,-101.04 127.15,-107.78"/>
</g>
<!-- carbo -->
<g id="node3" class="node">
<title>carbo</title>
<path fill="#d5f5e3" stroke="black" d="M308.07,-90C308.07,-90 122.16,-90 122.16,-90 116.16,-90 110.16,-84 110.16,-78 110.16,-78 110.16,-66 110.16,-66 110.16,-60 116.16,-54 122.16,-54 122.16,-54 308.07,-54 308.07,-54 314.07,-54 320.07,-60 320.07,-66 320.07,-66 320.07,-78 320.07,-78 320.07,-84 314.07,-90 308.07,-90"/>
<text xml:space="preserve" text-anchor="middle" x="215.12" y="-73.75" font-family="Helvetica,sans-Serif" font-size="10.00">Single&#45;agent Carboplatin</text>
<text xml:space="preserve" text-anchor="middle" x="215.12" y="-62.5" font-family="Helvetica,sans-Serif" font-size="10.00">(AUC = 7 × 1 cycle or AUC = 7 × 2 cycles)</text>
</g>
<!-- iaib&#45;&gt;carbo -->
<g id="edge3" class="edge">
<title>iaib&#45;&gt;carbo</title>
<path fill="none" stroke="black" d="M74.55,-72C81.91,-72 90,-72 98.47,-72"/>
<polygon fill="black" stroke="black" points="98.29,-75.5 108.29,-72 98.29,-68.5 98.29,-75.5"/>
</g>
<!-- rt -->
<g id="node4" class="node">
<title>rt</title>
<path fill="#d5f5e3" stroke="black" d="M262.69,-36C262.69,-36 167.54,-36 167.54,-36 161.54,-36 155.54,-30 155.54,-24 155.54,-24 155.54,-12 155.54,-12 155.54,-6 161.54,0 167.54,0 167.54,0 262.69,0 262.69,0 268.69,0 274.69,-6 274.69,-12 274.69,-12 274.69,-24 274.69,-24 274.69,-30 268.69,-36 262.69,-36"/>
<text xml:space="preserve" text-anchor="middle" x="215.12" y="-19.75" font-family="Helvetica,sans-Serif" font-size="10.00">Radiation therapy (RT)</text>
<text xml:space="preserve" text-anchor="middle" x="215.12" y="-8.5" font-family="Helvetica,sans-Serif" font-size="10.00">(see TEST&#45;C)</text>
</g>
<!-- iaib&#45;&gt;rt -->
<g id="edge5" class="edge">
<title>iaib&#45;&gt;rt</title>
<path fill="none" stroke="black" d="M74.49,-57.52C85.83,-53.24 98.44,-48.71 110.16,-45 121.14,-41.53 132.87,-38.16 144.36,-35.05"/>
<polygon fill="black" stroke="black" points="145.03,-38.49 153.79,-32.54 143.23,-31.72 145.03,-38.49"/>
</g>
<!-- fu1 -->
<g id="node5" class="node">
<title>fu1</title>
<path fill="#fdebd0" stroke="black" stroke-dasharray="5,2" d="M458.73,-144C458.73,-144 368.07,-144 368.07,-144 362.07,-144 356.07,-138 356.07,-132 356.07,-132 356.07,-120 356.07,-120 356.07,-114 362.07,-108 368.07,-108 368.07,-108 458.73,-108 458.73,-108 464.73,-108 470.73,-114 470.73,-120 470.73,-120 470.73,-132 470.73,-132 470.73,-138 464.73,-144 458.73,-144"/>
<text xml:space="preserve" text-anchor="middle" x="413.4" y="-127.75" font-family="Helvetica,sans-Serif" font-size="10.00">Follow&#45;up: Seminoma</text>
<text xml:space="preserve" text-anchor="middle" x="413.4" y="-116.5" font-family="Helvetica,sans-Serif" font-size="10.00">Table 1 (TEST&#45;A 1/3)</text>
</g>
<!-- surv&#45;&gt;fu1 -->
<g id="edge2" class="edge">
<title>surv&#45;&gt;fu1</title>
<path fill="none" stroke="black" d="M296.52,-126C312.53,-126 329.2,-126 344.74,-126"/>
<polygon fill="black" stroke="black" points="344.31,-129.5 354.31,-126 344.31,-122.5 344.31,-129.5"/>
</g>
<!-- fu2a -->
<g id="node6" class="node">
<title>fu2a</title>
<path fill="#fdebd0" stroke="black" stroke-dasharray="5,2" d="M458.73,-90C458.73,-90 368.07,-90 368.07,-90 362.07,-90 356.07,-84 356.07,-78 356.07,-78 356.07,-66 356.07,-66 356.07,-60 362.07,-54 368.07,-54 368.07,-54 458.73,-54 458.73,-54 464.73,-54 470.73,-60 470.73,-66 470.73,-66 470.73,-78 470.73,-78 470.73,-84 464.73,-90 458.73,-90"/>
<text xml:space="preserve" text-anchor="middle" x="413.4" y="-73.75" font-family="Helvetica,sans-Serif" font-size="10.00">Follow&#45;up: Seminoma</text>
<text xml:space="preserve" text-anchor="middle" x="413.4" y="-62.5" font-family="Helvetica,sans-Serif" font-size="10.00">Table 2 (TEST&#45;A 1/3)</text>
</g>
<!-- carbo&#45;&gt;fu2a -->
<g id="edge4" class="edge">
<title>carbo&#45;&gt;fu2a</title>
<path fill="none" stroke="black" d="M320.29,-72C328.49,-72 336.63,-72 344.49,-72"/>
<polygon fill="black" stroke="black" points="344.26,-75.5 354.26,-72 344.26,-68.5 344.26,-75.5"/>
</g>
<!-- fu2b -->
<g id="node7" class="node">
<title>fu2b</title>
<path fill="#fdebd0" stroke="black" stroke-dasharray="5,2" d="M458.73,-36C458.73,-36 368.07,-36 368.07,-36 362.07,-36 356.07,-30 356.07,-24 356.07,-24 356.07,-12 356.07,-12 356.07,-6 362.07,0 368.07,0 368.07,0 458.73,0 458.73,0 464.73,0 470.73,-6 470.73,-12 470.73,-12 470.73,-24 470.73,-24 470.73,-30 464.73,-36 458.73,-36"/>
<text xml:space="preserve" text-anchor="middle" x="413.4" y="-19.75" font-family="Helvetica,sans-Serif" font-size="10.00">Follow&#45;up: Seminoma</text>
<text xml:space="preserve" text-anchor="middle" x="413.4" y="-8.5" font-family="Helvetica,sans-Serif" font-size="10.00">Table 2 (TEST&#45;A 1/3)</text>
</g>
<!-- rt&#45;&gt;fu2b -->
<g id="edge6" class="edge">
<title>rt&#45;&gt;fu2b</title>
<path fill="none" stroke="black" d="M275.01,-18C296.84,-18 321.77,-18 344.36,-18"/>
<polygon fill="black" stroke="black" points="344.06,-21.5 354.06,-18 344.06,-14.5 344.06,-21.5"/>
</g>
<!-- recur -->
<g id="node8" class="node">
<title>recur</title>
<path fill="#f5b7b1" stroke="black" d="M690.01,-90C690.01,-90 549.1,-90 549.1,-90 543.1,-90 537.1,-84 537.1,-78 537.1,-78 537.1,-66 537.1,-66 537.1,-60 543.1,-54 549.1,-54 549.1,-54 690.01,-54 690.01,-54 696.01,-54 702.01,-60 702.01,-66 702.01,-66 702.01,-78 702.01,-78 702.01,-84 696.01,-90 690.01,-90"/>
<text xml:space="preserve" text-anchor="middle" x="619.56" y="-73.75" font-family="Helvetica,sans-Serif" font-size="10.00">For recurrence, treat according to</text>
<text xml:space="preserve" text-anchor="middle" x="619.56" y="-62.5" font-family="Helvetica,sans-Serif" font-size="10.00">extent of disease at relapse</text>
</g>
<!-- fu1&#45;&gt;recur -->
<g id="edge7" class="edge">
<title>fu1&#45;&gt;recur</title>
<path fill="none" stroke="black" d="M471,-111.03C491.69,-105.56 515.51,-99.26 537.89,-93.34"/>
<polygon fill="black" stroke="black" points="538.51,-96.79 547.28,-90.85 536.72,-90.03 538.51,-96.79"/>
</g>
<!-- fu2a&#45;&gt;recur -->
<g id="edge8" class="edge">
<title>fu2a&#45;&gt;recur</title>
<path fill="none" stroke="black" d="M471,-72C487.81,-72 506.68,-72 525.18,-72"/>
<polygon fill="black" stroke="black" points="525.11,-75.5 535.11,-72 525.11,-68.5 525.11,-75.5"/>
</g>
<!-- fu2b&#45;&gt;recur -->
<g id="edge9" class="edge">
<title>fu2b&#45;&gt;recur</title>
<path fill="none" stroke="black" d="M471,-32.97C491.69,-38.44 515.51,-44.74 537.89,-50.66"/>
<polygon fill="black" stroke="black" points="536.72,-53.97 547.28,-53.15 538.51,-47.21 536.72,-53.97"/>
</g>
<!-- is -->
<g id="node9" class="node">
<title>is</title>
<path fill="#f9e79f" stroke="black" d="M430.6,-198C430.6,-198 396.19,-198 396.19,-198 390.19,-198 384.19,-192 384.19,-186 384.19,-186 384.19,-174 384.19,-174 384.19,-168 390.19,-162 396.19,-162 396.19,-162 430.6,-162 430.6,-162 436.6,-162 442.6,-168 442.6,-174 442.6,-174 442.6,-186 442.6,-186 442.6,-192 436.6,-198 430.6,-198"/>
<text xml:space="preserve" text-anchor="middle" x="413.4" y="-176.12" font-family="Helvetica,sans-Serif" font-size="10.00">Stage IS</text>
</g>
<!-- is_mgmt -->
<g id="node10" class="node">
<title>is_mgmt</title>
<path fill="#d5f5e3" stroke="black" d="M720.39,-220.23C720.39,-220.23 518.73,-220.23 518.73,-220.23 512.73,-220.23 506.73,-214.23 506.73,-208.23 506.73,-208.23 506.73,-151.77 506.73,-151.77 506.73,-145.77 512.73,-139.77 518.73,-139.77 518.73,-139.77 720.39,-139.77 720.39,-139.77 726.39,-139.77 732.39,-145.77 732.39,-151.77 732.39,-151.77 732.39,-208.23 732.39,-208.23 732.39,-214.23 726.39,-220.23 720.39,-220.23"/>
<text xml:space="preserve" text-anchor="middle" x="619.56" y="-204.25" font-family="Helvetica,sans-Serif" font-size="10.00">Repeat elevated serum tumor markers</text>
<text xml:space="preserve" text-anchor="start" x="516.81" y="-193" font-family="Helvetica,sans-Serif" font-size="10.00">and assess with imaging:</text>
<text xml:space="preserve" text-anchor="start" x="516.81" y="-181.75" font-family="Helvetica,sans-Serif" font-size="10.00">• Chest/abdomen/pelvis (C/A/P) CT (contrast)</text>
<text xml:space="preserve" text-anchor="start" x="516.81" y="-170.5" font-family="Helvetica,sans-Serif" font-size="10.00"> &#160;to scan for evaluable disease</text>
<text xml:space="preserve" text-anchor="start" x="516.81" y="-159.25" font-family="Helvetica,sans-Serif" font-size="10.00">• Repeat scrotal ultrasound to rule out a</text>
<text xml:space="preserve" text-anchor="start" x="516.81" y="-148" font-family="Helvetica,sans-Serif" font-size="10.00"> &#160;contralateral testis mass (if none in last 3 mo)</text>
</g>
<!-- is&#45;&gt;is_mgmt -->
<g id="edge10" class="edge">
<title>is&#45;&gt;is_mgmt</title>
<path fill="none" stroke="black" d="M442.79,-180C457.14,-180 475.66,-180 495.27,-180"/>
<polygon fill="black" stroke="black" points="495.07,-183.5 505.07,-180 495.07,-176.5 495.07,-183.5"/>
</g>
<!-- note -->
<g id="node11" class="node">
<title>note</title>
<polygon fill="#fef9e7" stroke="black" points="1125.3,-93.11 768.39,-93.11 768.39,-50.89 1131.3,-50.89 1131.3,-87.11 1125.3,-93.11"/>
<polyline fill="none" stroke="black" points="1125.3,-93.11 1125.3,-87.11"/>
<polyline fill="none" stroke="black" points="1131.3,-87.11 1125.3,-87.11"/>
<text xml:space="preserve" text-anchor="middle" x="949.84" y="-78.08" font-family="Helvetica,sans-Serif" font-size="9.00">Recurrence: patients previously on surveillance may be treated with RT or</text>
<text xml:space="preserve" text-anchor="middle" x="949.84" y="-68.33" font-family="Helvetica,sans-Serif" font-size="9.00">chemotherapy per extent of disease; those who had carboplatin or RT should</text>
<text xml:space="preserve" text-anchor="middle" x="949.84" y="-58.58" font-family="Helvetica,sans-Serif" font-size="9.00">receive first&#45;line cisplatin&#45;based chemotherapy (TEST&#45;E). Do not treat on LDH alone.</text>
</g>
</g>
</svg>
