<?xml version="1.0" encoding="UTF-8" standalone="no"?>
<!DOCTYPE svg PUBLIC "-//W3C//DTD SVG 1.1//EN"
 "http://www.w3.org/Graphics/SVG/1.1/DTD/svg11.dtd">
<!-- Generated by graphviz version 15.0.0 (20260523.1842)
 -->
<!-- Title: SEM6 Pages: 1 -->
<svg width="856pt" height="123pt"
 viewBox="0.00 0.00 856.00 123.00" xmlns="http://www.w3.org/2000/svg" xmlns:xlink="http://www.w3.org/1999/xlink">
<g id="graph0" class="graph" transform="scale(1 1) rotate(0) translate(4 118.71)">
<title>SEM6</title>
<polygon fill="white" stroke="none" points="-4,4 -4,-118.71 851.89,-118.71 851.89,4 -4,4"/>
<text xml:space="preserve" text-anchor="middle" x="423.94" y="-97.41" font-family="Helvetica,sans-Serif" font-weight="bold" font-size="14.00">SEM&#45;6 · Seminoma — Recurrence &amp; Second&#45;Line Therapy</text>
<!-- prior -->
<g id="node1" class="node">
<title>prior</title>
<path fill="#f5b7b1" stroke="black" d="M69.66,-63.85C69.66,-63.85 12,-63.85 12,-63.85 6,-63.85 0,-57.85 0,-51.85 0,-51.85 0,-39.85 0,-39.85 0,-33.85 6,-27.85 12,-27.85 12,-27.85 69.66,-27.85 69.66,-27.85 75.66,-27.85 81.66,-33.85 81.66,-39.85 81.66,-39.85 81.66,-51.85 81.66,-51.85 81.66,-57.85 75.66,-63.85 69.66,-63.85"/>
<text xml:space="preserve" text-anchor="middle" x="40.83" y="-47.6" font-family="Helvetica,sans-Serif" font-size="10.00">Prior first&#45;line</text>
<text xml:space="preserve" text-anchor="middle" x="40.83" y="-36.35" font-family="Helvetica,sans-Serif" font-size="10.00">chemotherapy</text>
</g>
<!-- sl -->
<g id="node2" class="node">
<title>sl</title>
<path fill="#d5f5e3" stroke="black" d="M308.07,-91.71C308.07,-91.71 129.66,-91.71 129.66,-91.71 123.66,-91.71 117.66,-85.71 117.66,-79.71 117.66,-79.71 117.66,-12 117.66,-12 117.66,-6 123.66,0 129.66,0 129.66,0 308.07,0 308.07,0 314.07,0 320.07,-6 320.07,-12 320.07,-12 320.07,-79.71 320.07,-79.71 320.07,-85.71 314.07,-91.71 308.07,-91.71"/>
<text xml:space="preserve" text-anchor="start" x="127.74" y="-75.73" font-family="Helvetica,sans-Serif" font-size="10.00">SECOND&#45;LINE THERAPY</text>
<text xml:space="preserve" text-anchor="start" x="127.74" y="-64.48" font-family="Helvetica,sans-Serif" font-size="10.00">• Clinical trial</text>
<text xml:space="preserve" text-anchor="start" x="127.74" y="-53.23" font-family="Helvetica,sans-Serif" font-size="10.00">• Chemotherapy:</text>
<text xml:space="preserve" text-anchor="start" x="127.74" y="-41.98" font-family="Helvetica,sans-Serif" font-size="10.00"> &#160;&#160;‣ Conventional&#45;dose second&#45;line</text>
<text xml:space="preserve" text-anchor="start" x="127.74" y="-30.73" font-family="Helvetica,sans-Serif" font-size="10.00"> &#160;&#160;&#160;&#160;(VeIP × 4 cycles or TIP × 4 cycles)</text>
<text xml:space="preserve" text-anchor="start" x="127.74" y="-19.48" font-family="Helvetica,sans-Serif" font-size="10.00"> &#160;&#160;‣ High&#45;dose chemotherapy</text>
<text xml:space="preserve" text-anchor="start" x="127.74" y="-8.23" font-family="Helvetica,sans-Serif" font-size="10.00">• Recommend sperm banking, if indicated</text>
</g>
<!-- prior&#45;&gt;sl -->
<g id="edge1" class="edge">
<title>prior&#45;&gt;sl</title>
<path fill="none" stroke="black" d="M81.78,-45.85C89.32,-45.85 97.55,-45.85 106.1,-45.85"/>
<polygon fill="black" stroke="black" points="105.98,-49.36 115.98,-45.86 105.98,-42.36 105.98,-49.36"/>
</g>
<!-- mgmt -->
<g id="node3" class="node">
<title>mgmt</title>
<path fill="#eaecee" stroke="black" d="M479.73,-64.33C479.73,-64.33 368.07,-64.33 368.07,-64.33 362.07,-64.33 356.07,-58.33 356.07,-52.33 356.07,-52.33 356.07,-39.38 356.07,-39.38 356.07,-33.38 362.07,-27.37 368.07,-27.37 368.07,-27.37 479.73,-27.37 479.73,-27.37 485.73,-27.37 491.73,-33.37 491.73,-39.37 491.73,-39.37 491.73,-52.33 491.73,-52.33 491.73,-58.33 485.73,-64.33 479.73,-64.33"/>
<text xml:space="preserve" text-anchor="middle" x="423.9" y="-48.35" font-family="Helvetica,sans-Serif" font-size="10.00">Post Second&#45;Line Therapy</text>
<text xml:space="preserve" text-anchor="middle" x="423.9" y="-37.1" font-family="Helvetica,sans-Serif" font-size="10.00">Management → SEM&#45;7</text>
</g>
<!-- sl&#45;&gt;mgmt -->
<g id="edge2" class="edge">
<title>sl&#45;&gt;mgmt</title>
<path fill="none" stroke="black" d="M320.49,-45.85C328.53,-45.85 336.58,-45.85 344.43,-45.85"/>
<polygon fill="black" stroke="black" points="344.26,-49.36 354.26,-45.86 344.26,-42.36 344.26,-49.36"/>
</g>
<!-- note -->
<g id="node4" class="node">
<title>note</title>
<polygon fill="#fef9e7" stroke="black" points="841.89,-66.96 527.73,-66.96 527.73,-24.75 847.89,-24.75 847.89,-60.96 841.89,-66.96"/>
<polyline fill="none" stroke="black" points="841.89,-66.96 841.89,-60.96"/>
<polyline fill="none" stroke="black" points="847.89,-60.96 841.89,-60.96"/>
<text xml:space="preserve" text-anchor="middle" x="687.81" y="-51.93" font-family="Helvetica,sans-Serif" font-size="9.00">Preferably treat recurrent seminoma at a center with expertise.</text>
<text xml:space="preserve" text-anchor="middle" x="687.81" y="-42.18" font-family="Helvetica,sans-Serif" font-size="9.00">Includes best supportive / palliative care. Second&#45;line regimens: TEST&#45;F.</text>
<text xml:space="preserve" text-anchor="middle" x="687.81" y="-32.43" font-family="Helvetica,sans-Serif" font-size="9.00">TIP=Paclitaxel/Ifosfamide/Cisplatin · VeIP=Vinblastine/Ifosfamide/Cisplatin</text>
</g>
</g>
</svg>
