<?xml version="1.0" encoding="UTF-8" standalone="no"?>
<!DOCTYPE svg PUBLIC "-//W3C//DTD SVG 1.1//EN"
 "http://www.w3.org/Graphics/SVG/1.1/DTD/svg11.dtd">
<!-- Generated by graphviz version 15.0.0 (20260523.1842)
 -->
<!-- Title: TESTD Pages: 1 -->
<svg width="883pt" height="453pt"
 viewBox="0.00 0.00 883.00 453.00" xmlns="http://www.w3.org/2000/svg" xmlns:xlink="http://www.w3.org/1999/xlink">
<g id="graph0" class="graph" transform="scale(1 1) rotate(0) translate(4 449.25)">
<title>TESTD</title>
<polygon fill="white" stroke="none" points="-4,4 -4,-449.25 878.5,-449.25 878.5,4 -4,4"/>
<text xml:space="preserve" text-anchor="middle" x="437.25" y="-427.95" font-family="Helvetica,sans-Serif" font-weight="bold" font-size="14.00">TEST&#45;D · Risk Classification for Advanced Disease (post&#45;orchiectomy)</text>
<!-- table -->
<g id="node1" class="node">
<title>table</title>
<polygon fill="#2e4053" stroke="none" points="8,-389.25 8,-418.25 135.25,-418.25 135.25,-389.25 8,-389.25"/>
<polygon fill="none" stroke="black" points="8,-389.25 8,-418.25 135.25,-418.25 135.25,-389.25 8,-389.25"/>
<text xml:space="preserve" text-anchor="start" x="34.88" y="-398.95" font-family="Helvetica,sans-Serif" font-weight="bold" font-size="14.00" fill="white">Risk Status</text>
<polygon fill="#2e4053" stroke="none" points="135.25,-389.25 135.25,-418.25 411.75,-418.25 411.75,-389.25 135.25,-389.25"/>
<polygon fill="none" stroke="black" points="135.25,-389.25 135.25,-418.25 411.75,-418.25 411.75,-389.25 135.25,-389.25"/>
<text xml:space="preserve" text-anchor="start" x="226.25" y="-398.95" font-family="Helvetica,sans-Serif" font-weight="bold" font-size="14.00" fill="white">Nonseminoma</text>
<polygon fill="#2e4053" stroke="none" points="411.75,-389.25 411.75,-418.25 688.25,-418.25 688.25,-389.25 411.75,-389.25"/>
<polygon fill="none" stroke="black" points="411.75,-389.25 411.75,-418.25 688.25,-418.25 688.25,-389.25 411.75,-389.25"/>
<text xml:space="preserve" text-anchor="start" x="515.12" y="-398.95" font-family="Helvetica,sans-Serif" font-weight="bold" font-size="14.00" fill="white">Seminoma</text>
<polygon fill="#2e4053" stroke="none" points="688.25,-389.25 688.25,-418.25 866.5,-418.25 866.5,-389.25 688.25,-389.25"/>
<polygon fill="none" stroke="black" points="688.25,-389.25 688.25,-418.25 866.5,-418.25 866.5,-389.25 688.25,-389.25"/>
<text xml:space="preserve" text-anchor="start" x="695.25" y="-398.95" font-family="Helvetica,sans-Serif" font-weight="bold" font-size="14.00" fill="white">Chemotherapy Regimens</text>
<polygon fill="#abebc6" stroke="none" points="8,-285.25 8,-389.25 135.25,-389.25 135.25,-285.25 8,-285.25"/>
<polygon fill="none" stroke="black" points="8,-285.25 8,-389.25 135.25,-389.25 135.25,-285.25 8,-285.25"/>
<text xml:space="preserve" text-anchor="start" x="37.5" y="-332.45" font-family="Helvetica,sans-Serif" font-weight="bold" font-size="14.00">Good Risk</text>
<polygon fill="#eafaf1" stroke="none" points="135.25,-285.25 135.25,-389.25 411.75,-389.25 411.75,-285.25 135.25,-285.25"/>
<polygon fill="none" stroke="black" points="135.25,-285.25 135.25,-389.25 411.75,-389.25 411.75,-285.25 135.25,-285.25"/>
<text xml:space="preserve" text-anchor="start" x="147.5" y="-371" font-family="Helvetica,sans-Serif" font-size="14.00">Testicular or retroperitoneal primary tumor</text>
<text xml:space="preserve" text-anchor="start" x="142.25" y="-356" font-family="Helvetica,sans-Serif" font-size="14.00">AND No nonpulmonary visceral metastases</text>
<text xml:space="preserve" text-anchor="start" x="146.75" y="-341" font-family="Helvetica,sans-Serif" font-size="14.00">AND post&#45;orchiectomy markers — ALL of:</text>
<text xml:space="preserve" text-anchor="start" x="210.12" y="-326" font-family="Helvetica,sans-Serif" font-size="14.00">• AFP &lt; 1,000 ng/mL</text>
<text xml:space="preserve" text-anchor="start" x="215.75" y="-311" font-family="Helvetica,sans-Serif" font-size="14.00">• hCG &lt; 5,000 IU/L</text>
<text xml:space="preserve" text-anchor="start" x="216.88" y="-296" font-family="Helvetica,sans-Serif" font-size="14.00">• LDH &lt; 1.5 × ULN</text>
<polygon fill="#eafaf1" stroke="none" points="411.75,-285.25 411.75,-389.25 688.25,-389.25 688.25,-285.25 411.75,-285.25"/>
<polygon fill="none" stroke="black" points="411.75,-285.25 411.75,-389.25 688.25,-389.25 688.25,-285.25 411.75,-285.25"/>
<text xml:space="preserve" text-anchor="start" x="501.25" y="-348.5" font-family="Helvetica,sans-Serif" font-size="14.00">Any primary site</text>
<text xml:space="preserve" text-anchor="start" x="418.75" y="-333.5" font-family="Helvetica,sans-Serif" font-size="14.00">AND No nonpulmonary visceral metastases</text>
<text xml:space="preserve" text-anchor="start" x="436.75" y="-318.5" font-family="Helvetica,sans-Serif" font-size="14.00">AND Normal AFP, any hCG, any LDH</text>
<polygon fill="#eafaf1" stroke="none" points="688.25,-285.25 688.25,-389.25 866.5,-389.25 866.5,-285.25 688.25,-285.25"/>
<polygon fill="none" stroke="black" points="688.25,-285.25 688.25,-389.25 866.5,-389.25 866.5,-285.25 688.25,-285.25"/>
<text xml:space="preserve" text-anchor="start" x="698.62" y="-341" font-family="Helvetica,sans-Serif" font-size="14.00">BEP × 3 cycles</text>
<text xml:space="preserve" text-anchor="start" x="695.25" y="-326" font-family="Helvetica,sans-Serif" font-size="14.00">or EP × 4 cycles</text>
<polygon fill="#f9e79f" stroke="none" points="8,-181.25 8,-285.25 135.25,-285.25 135.25,-181.25 8,-181.25"/>
<polygon fill="none" stroke="black" points="8,-181.25 8,-285.25 135.25,-285.25 135.25,-181.25 8,-181.25"/>
<text xml:space="preserve" text-anchor="start" x="15" y="-228.45" font-family="Helvetica,sans-Serif" font-weight="bold" font-size="14.00">Intermediate Risk</text>
<polygon fill="#fef9e7" stroke="none" points="135.25,-181.25 135.25,-285.25 411.75,-285.25 411.75,-181.25 135.25,-181.25"/>
<polygon fill="none" stroke="black" points="135.25,-181.25 135.25,-285.25 411.75,-285.25 411.75,-181.25 135.25,-181.25"/>
<text xml:space="preserve" text-anchor="start" x="147.5" y="-267" font-family="Helvetica,sans-Serif" font-size="14.00">Testicular or retroperitoneal primary tumor</text>
<text xml:space="preserve" text-anchor="start" x="142.25" y="-252" font-family="Helvetica,sans-Serif" font-size="14.00">AND No nonpulmonary visceral metastases</text>
<text xml:space="preserve" text-anchor="start" x="144.88" y="-237" font-family="Helvetica,sans-Serif" font-size="14.00">AND post&#45;orchiectomy markers — ANY of:</text>
<text xml:space="preserve" text-anchor="start" x="191.75" y="-222" font-family="Helvetica,sans-Serif" font-size="14.00">• AFP 1,000–10,000 ng/mL</text>
<text xml:space="preserve" text-anchor="start" x="197.38" y="-207" font-family="Helvetica,sans-Serif" font-size="14.00">• hCG 5,000–50,000 IU/L</text>
<text xml:space="preserve" text-anchor="start" x="211.62" y="-192" font-family="Helvetica,sans-Serif" font-size="14.00">• LDH 1.5–10 × ULN</text>
<polygon fill="#fef9e7" stroke="none" points="411.75,-181.25 411.75,-285.25 688.25,-285.25 688.25,-181.25 411.75,-181.25"/>
<polygon fill="none" stroke="black" points="411.75,-181.25 411.75,-285.25 688.25,-285.25 688.25,-181.25 411.75,-181.25"/>
<text xml:space="preserve" text-anchor="start" x="491.88" y="-244.5" font-family="Helvetica,sans-Serif" font-size="14.00">Any primary site</text>
<text xml:space="preserve" text-anchor="start" x="418.75" y="-229.5" font-family="Helvetica,sans-Serif" font-size="14.00">AND Nonpulmonary visceral metastases</text>
<text xml:space="preserve" text-anchor="start" x="427.38" y="-214.5" font-family="Helvetica,sans-Serif" font-size="14.00">AND Normal AFP, any hCG, any LDH</text>
<polygon fill="#fef9e7" stroke="none" points="688.25,-181.25 688.25,-285.25 866.5,-285.25 866.5,-181.25 688.25,-181.25"/>
<polygon fill="none" stroke="black" points="688.25,-181.25 688.25,-285.25 866.5,-285.25 866.5,-181.25 688.25,-181.25"/>
<text xml:space="preserve" text-anchor="start" x="700.5" y="-237" font-family="Helvetica,sans-Serif" font-size="14.00">BEP × 4 cycles</text>
<text xml:space="preserve" text-anchor="start" x="695.25" y="-222" font-family="Helvetica,sans-Serif" font-size="14.00">or VIP × 4 cycles</text>
<polygon fill="#f5b7b1" stroke="none" points="8,-77.25 8,-181.25 135.25,-181.25 135.25,-77.25 8,-77.25"/>
<polygon fill="none" stroke="black" points="8,-77.25 8,-181.25 135.25,-181.25 135.25,-77.25 8,-77.25"/>
<text xml:space="preserve" text-anchor="start" x="40.12" y="-124.45" font-family="Helvetica,sans-Serif" font-weight="bold" font-size="14.00">Poor Risk</text>
<polygon fill="#fdedec" stroke="none" points="135.25,-77.25 135.25,-181.25 411.75,-181.25 411.75,-77.25 135.25,-77.25"/>
<polygon fill="none" stroke="black" points="135.25,-77.25 135.25,-181.25 411.75,-181.25 411.75,-77.25 135.25,-77.25"/>
<text xml:space="preserve" text-anchor="start" x="188.38" y="-163" font-family="Helvetica,sans-Serif" font-size="14.00">Mediastinal primary tumor</text>
<text xml:space="preserve" text-anchor="start" x="149" y="-148" font-family="Helvetica,sans-Serif" font-size="14.00">OR Nonpulmonary visceral metastases</text>
<text xml:space="preserve" text-anchor="start" x="142.25" y="-133" font-family="Helvetica,sans-Serif" font-size="14.00">OR post&#45;orchiectomy markers — ANY of:</text>
<text xml:space="preserve" text-anchor="start" x="200" y="-118" font-family="Helvetica,sans-Serif" font-size="14.00">• AFP &gt; 10,000 ng/mL</text>
<text xml:space="preserve" text-anchor="start" x="205.62" y="-103" font-family="Helvetica,sans-Serif" font-size="14.00">• hCG &gt; 50,000 IU/L</text>
<text xml:space="preserve" text-anchor="start" x="212.38" y="-88" font-family="Helvetica,sans-Serif" font-size="14.00">• LDH &gt; 10 × ULN</text>
<polygon fill="#fdedec" stroke="none" points="411.75,-77.25 411.75,-181.25 688.25,-181.25 688.25,-77.25 411.75,-77.25"/>
<polygon fill="none" stroke="black" points="411.75,-77.25 411.75,-181.25 688.25,-181.25 688.25,-77.25 411.75,-77.25"/>
<text xml:space="preserve" text-anchor="start" x="418.75" y="-125.5" font-family="Helvetica,sans-Serif" font-size="14.00">No patients classified as poor prognosis</text>
<polygon fill="#fdedec" stroke="none" points="688.25,-77.25 688.25,-181.25 866.5,-181.25 866.5,-77.25 688.25,-77.25"/>
<polygon fill="none" stroke="black" points="688.25,-77.25 688.25,-181.25 866.5,-181.25 866.5,-77.25 688.25,-77.25"/>
<text xml:space="preserve" text-anchor="start" x="700.5" y="-133" font-family="Helvetica,sans-Serif" font-size="14.00">BEP × 4 cycles</text>
<text xml:space="preserve" text-anchor="start" x="695.25" y="-118" font-family="Helvetica,sans-Serif" font-size="14.00">or VIP × 4 cycles</text>
</g>
<!-- legend -->
<g id="node2" class="node">
<title>legend</title>
<polygon fill="#fef9e7" stroke="black" points="636.5,-37.25 232,-37.25 232,0 642.5,0 642.5,-31.25 636.5,-37.25"/>
<polyline fill="none" stroke="black" points="636.5,-37.25 636.5,-31.25"/>
<polyline fill="none" stroke="black" points="642.5,-31.25 636.5,-31.25"/>
<text xml:space="preserve" text-anchor="middle" x="437.25" y="-24.7" font-family="Helvetica,sans-Serif" font-size="9.00">Markers are post&#45;orchiectomy. Good&#45;risk seminoma with LDH &gt;2.5× ULN has worse prognosis —</text>
<text xml:space="preserve" text-anchor="middle" x="437.25" y="-14.95" font-family="Helvetica,sans-Serif" font-size="9.00">consider intensification. BEP=Bleomycin/Etoposide/Cisplatin · EP=Etoposide/Cisplatin ·</text>
<text xml:space="preserve" text-anchor="middle" x="437.25" y="-5.2" font-family="Helvetica,sans-Serif" font-size="9.00">VIP=Etoposide/Ifosfamide/Cisplatin. Source: IGCCCG (J Clin Oncol 1997;15:594&#45;603).</text>
</g>
<!-- table&#45;&gt;legend -->
</g>
</svg>
